<svg width="38" height="37" viewBox="0 0 38 37" fill="none" xmlns="http://www.w3.org/2000/svg">
<path d="M18.9888 20.7253C18.833 20.2878 18.6378 19.8881 18.4973 19.4677C18.3773 19.1097 18.2762 18.7449 18.1147 18.4014C17.9876 18.1312 17.8023 17.896 17.6457 17.6471C17.3213 17.1232 17.044 16.5732 16.7329 16.0417C16.6087 15.8312 16.4746 15.6303 16.3229 15.4198C16.5728 15.3926 16.8207 15.35 17.065 15.2922C17.4032 15.2046 17.7471 15.1398 18.0943 15.0982C18.3743 15.0704 18.6555 15.0571 18.9369 15.0584C19.2254 15.0584 19.514 15.0447 19.8033 15.0508C20.1066 15.0577 20.4029 15.1194 20.7027 15.1606C21.0888 15.2093 21.475 15.2696 21.864 15.2655C21.9426 15.2655 21.8949 15.3046 21.8829 15.3251C21.6814 15.668 21.5017 16.0184 21.3128 16.3661C20.9238 17.0834 20.5665 17.8148 20.2407 18.5605C19.9598 19.1941 19.5926 19.777 19.2009 20.3475C19.1117 20.4627 19.0403 20.59 18.9888 20.7253Z" fill="#3D2F2E"/>
<path fill-rule="evenodd" clip-rule="evenodd" d="M22.7188 14.0474C22.5279 13.9784 22.3715 14.0198 22.1926 14.0889C22.0842 14.1284 21.972 14.1573 21.8578 14.1751C21.5035 14.2363 21.1568 14.1839 20.8101 14.1316L20.804 14.1306C20.3081 14.0547 19.8144 13.9802 19.3101 14.0048C19.1877 14.0091 19.0652 14.0093 18.9426 14.0094C18.8312 14.0096 18.7198 14.0097 18.6085 14.013C18.5794 14.0141 18.5509 14.0151 18.5231 14.0162C17.8476 14.0411 17.55 14.052 16.8614 14.2148C16.4325 14.3112 16.0576 14.3331 15.8466 14.3331C15.7934 14.3331 15.7351 14.3299 15.6742 14.3266C15.4938 14.3169 15.291 14.3059 15.1333 14.3723C14.9223 14.4611 15.0127 14.7468 15.0629 14.8649C15.0705 14.8828 15.0786 14.9022 15.087 14.9227C15.1347 15.0378 15.1971 15.1887 15.284 15.3084C15.2901 15.3152 15.2972 15.3243 15.3039 15.3331C15.3116 15.343 15.3188 15.3524 15.3242 15.3577L15.3443 15.4069C15.3443 15.4168 15.3846 15.4734 15.3945 15.4857L15.4246 15.5547C15.47 15.6531 15.493 15.6782 15.5486 15.7386C15.5609 15.752 15.5747 15.767 15.5908 15.7849C15.7556 15.9775 15.8989 16.1868 16.0183 16.4093C16.1326 16.6262 16.2455 16.844 16.3584 17.0618C16.4659 17.2692 16.5734 17.4766 16.6822 17.6834C16.7853 17.8791 16.897 18.0702 17.0088 18.2613C17.1141 18.4413 17.2195 18.6215 17.3176 18.8056C17.4934 19.1322 17.6304 19.4739 17.7674 19.8155L17.7674 19.8156C17.8103 19.9225 17.8531 20.0293 17.8971 20.1357C18.1361 20.7202 18.414 21.2886 18.7292 21.8372C18.8435 22.028 18.9503 22.0499 19.1225 21.909C19.2326 21.8121 19.3214 21.6941 19.3834 21.5623C19.4462 21.4418 19.5076 21.3205 19.5689 21.1991C19.6865 20.9665 19.8041 20.7338 19.9329 20.5064C20.002 20.3846 20.0731 20.2638 20.1441 20.1429C20.3328 19.822 20.5216 19.501 20.6736 19.1612C20.8237 18.8174 21.0157 18.4927 21.2455 18.1942C21.3874 18.0221 21.5047 17.8318 21.5942 17.6287C21.7172 17.3329 21.8578 17.0457 21.9983 16.7585C22.1366 16.476 22.2748 16.1936 22.3962 15.9032C22.4595 15.7373 22.5502 15.5827 22.6647 15.4457C22.7992 15.3128 22.8569 15.2082 22.9298 15.0128C23.0028 14.8175 23.0176 14.737 22.9801 14.5301C22.9425 14.3232 22.9097 14.1163 22.7188 14.0474ZM18.9237 20.6357C18.9732 20.5005 19.0425 20.3731 19.1295 20.2575C19.5187 19.6885 19.8862 19.1072 20.1624 18.4753C20.4878 17.7308 20.8428 17.0013 21.2273 16.2869C21.2824 16.1851 21.3367 16.083 21.391 15.9809C21.5216 15.7351 21.6522 15.4894 21.7937 15.2488C21.7958 15.245 21.7991 15.2407 21.8026 15.2361C21.8186 15.2152 21.8388 15.1887 21.7748 15.1893C21.4495 15.1927 21.13 15.1509 20.8073 15.1087L20.8071 15.1086C20.7453 15.1005 20.6834 15.0924 20.6213 15.0846C20.5284 15.0727 20.4359 15.0582 20.3434 15.0437L20.3433 15.0437C20.1392 15.0118 19.9352 14.9799 19.7279 14.9752C19.5578 14.9716 19.3879 14.9749 19.2182 14.9782C19.1012 14.9805 18.9842 14.9827 18.8673 14.9827C18.5878 14.9815 18.3084 14.9947 18.0303 15.0224C17.6854 15.0639 17.3438 15.1286 17.0079 15.2159C16.7652 15.2736 16.519 15.3161 16.2707 15.3431C16.4214 15.5483 16.5546 15.7535 16.678 15.9634C16.8092 16.1879 16.9342 16.4157 17.0592 16.6435C17.2293 16.9534 17.3994 17.2632 17.5847 17.5644C17.637 17.6491 17.6926 17.7318 17.7481 17.8145C17.8576 17.9775 17.9668 18.1401 18.0506 18.3166C18.1725 18.5765 18.2597 18.8493 18.3469 19.122L18.347 19.1221C18.3745 19.2083 18.402 19.2944 18.4307 19.3801C18.5064 19.6016 18.596 19.8171 18.6865 20.0348C18.7678 20.2302 18.8498 20.4274 18.9231 20.6322L18.9237 20.6357Z" fill="#3D2F2E"/>
</svg>
