<svg width="1438" height="488" fill="none" viewBox="0 0 1438 488">
  <g clip-path="url(#clip0)">
    <path class="animate beige" d="M244.31 179.75c0-2.38.34-5.18-.07-7.92-.75-4.92-1.93-9.77-2.93-14.66-.93-4.53-2.39-5.62-7-6.19-15.37-1.88-29.71 1.81-43.98 7.11-14.84 5.52-27.18 14.87-39.56 24.28-1.2.93-2.45 1.78-3.68 2.67l-.47-.62c5.4-4.37 10.76-8.79 16.18-13.12 10.3-8.2 21.98-13.74 34.26-18.4a81.57 81.57 0 0131.48-4.97c2.2-.08 4.39.14 6.52.64 5.07 1.51 7.89 5.38 9.18 10.3.93 3.53 1.4 7.17 2.12 10.77 1.33 6.66 1.34 6.66-.2 12.48-9.06-2.83-18-2.95-26.44 1.78-5 2.88-9.8 6.07-14.4 9.55a95.5 95.5 0 01-23.24 12.54 26.24 26.24 0 00-12.36 8.99c2.83 5.1 7.47 8.62 11.88 12.3a94.02 94.02 0 005.5 4.3c1.87 1.36 3.6 1.04 5.17-.67.69-.6 1.44-1.15 2.23-1.63-.94 3.36-3.45 4.57-6.84 3.37a20 20 0 01-5.36-3.19 100.4 100.4 0 01-7.64-6.56c-2.18-2.07-4.16-4.38-6.37-6.75-.87.86-1.8 2.04-2.93 3.03a3141.5 3141.5 0 01-18.17 15.84 9.76 9.76 0 01-2.32 1.56c-6.32 2.82-11.38 7.33-16.46 12.19 1.13.65 2.17 1.43 3.12 2.32 1 1.02 1.71 2.3 2.05 3.69.34 2.93.4 5.88.2 8.82-.16 2.73-.79 5.44-1.16 7.76 4.64.7 9.68 1.17 14.58 2.24 11.14 2.43 20.7 8.13 29.47 15.23 3.15 2.59 6.54 5 9 8.14 2.13 2.72 4.67 2.8 7.42 3.09 2.25.23 4.57.1 6.77.55 2.2.57 4.35 1.29 6.44 2.14 2.4-6.96 7.47-12.63 12.32-18.38a13.36 13.36 0 0110.6-4.75c4.23-.01 8.4-1.02 12.17-2.93a9.65 9.65 0 005.81-8.81c.12-4.55-.05-9.04 2.27-13.22.5-.92.27-2.3.25-3.45 0-1.3-.47-2.09-2.04-1.48-.81.16-1.65.09-2.41-.22 2.68-2.32 5.65-4.6 5.47-8.35-.17-3.32-1.19-6.6-1.81-9.84 3.23.1 5.76 11 3.1 14.59l-2.4 3.25c2.67 1.9 2.72 4.47 1.55 7.1a19.4 19.4 0 00-1.4 10.69c.95 7.66-2.86 10.76-9.25 12.8-2.7.77-5.5 1.14-8.31 1.11a15.54 15.54 0 00-11.92 5.59c-4.9 5.59-9.56 11.32-12.41 18.42.39.43.83.8 1.32 1.1 5.28 2.4 8.94 6.78 13.05 10.6 4.95 4.58 10.22 8.85 14.66 13.84 4.21 4.7 7.76 10.04 11.21 15.31a103.9 103.9 0 0112.35 25.73c.9 2.42 2.02 4.75 3.35 6.96a27.9 27.9 0 013.78 12.23c.2 4.1 2.43 7.24 4.66 10.34 1.82 2.51 4.21 4.6 6.26 6.77 5.03-1.38 10.05-2.85 15.1-4.15a29.11 29.11 0 0120.34 2.2c11.2 5.33 22.41 10.74 32.4 18.97 1.1-1.96 2.28-3.75 3.17-5.68a48.4 48.4 0 0116.73-19.75c1.59-1.1 3.83-1.25 5.75-1.88a88.8 88.8 0 0126.08-4.16c3.95-.09 7.91.51 12.48.86-1.28-1.1-2.14-1.93-3.1-2.58-6.13-4.48-12.44-8.73-18.38-13.45-4.84-3.84-9.99-6.9-16.13-7.51a89.9 89.9 0 00-15.38-.19c-4.1.3-8.1.63-12-.86-3.08-1.2-6.15-.86-9.24-.25-12.49 2.42-24.27 6.95-35.87 12.02-.86.37-1.64.86-2.46 1.34-.82.47-1.6.8-2.39 1.21l-.5-.67c1.49-1.2 2.84-2.64 4.5-3.54 11.7-6.4 24.05-11.1 37.26-13.19a19.9 19.9 0 018.5.79c3.16.9 6.48 1.13 9.73.66 9.2-1.17 18.21-1.14 26.73 3.26.12.06.3 0 .53 0 1.6-8.5 6.69-15.14 11.96-21.56 2.02-2.43 5.17-4.25 8.22-5.43 4.96-1.94 7.3-6.28 5.1-11.11a23.6 23.6 0 00-2.04-3.4c-1.85-2.7-3.12-5.58-2.8-8.76l-12.93-6.54.26-.54 11.93 5.79.48-.37a20.3 20.3 0 00-.94-2.33c-1.04-1.93-1.82-3.64.18-5.67.7-.7.63-2.64.24-3.77-.2-.54-2.06-.87-3.01-.69a31.76 31.76 0 00-8.09 2.84l6.9-.66.05.43-10.06 1.1c.25-.6.27-.87.43-.97 3.72-2.44 7.92-3.45 12.27-3.97.7-.04 1.4.16 1.99.55 3.28 2.24 3.7 2.38.9 5.9-1.67 2.11-1.31 3.51.17 5.3.98 1.18 2.12 2.58-.07 3.62l1.08 2.03 3.78 7.2c.77 1.43 1.83 2.78 2.28 4.31 1.19 4-1.6 6.36-4.03 8.79-.44.45-.97.8-1.56 1.03-5.67 1.98-8.53 6.9-11.72 11.38-3.38 4.78-6.57 9.7-9.83 14.57-.24.43-.46.87-.64 1.32 2.93 2.23 5.75 4.54 8.73 6.62 7.44 5.18 15.15 10 21.56 16.53.69.47 1.47.77 2.3.86.85.1 1.67.4 2.38.87l-1.77.79c2.29 1.95 4.38 3.96 6.7 5.65 4.08 2.95 6.45 7.08 8.76 11.4 2.58 4.8 5.8 9.23 8.52 13.96a75 75 0 015.01 10.25c2.51 6.53 5.18 12.93 10.08 18.1 2.27 2.38 4.87 4.43 7.16 6.77 4.17 4.24 8.26 8.55 12.29 12.94 4.7 5.13 9.34 10.32 13.91 15.59a28.75 28.75 0 012.6 4.2l-.77.53c-2.35-2.75-4.65-5.56-7.08-8.23-8.2-9.03-16.16-18.25-25.26-26.47-4.07-3.68-7.09-8.74-9.83-13.6-2.48-4.38-3.92-9.34-5.86-14.04-.4-.84-.86-1.66-1.38-2.43-3.44-5.68-6.71-11.43-10.34-16.98a54.12 54.12 0 00-6.78-8.55 106.39 106.39 0 00-10.08-8.8 10.35 10.35 0 00-5.1-2.34c-7.6-.67-15.23-1.29-22.8.66-2.74.56-5.5.97-8.29 1.23-7.4 1.07-12.76 5.47-17.46 10.86-1.86 2-3.55 4.15-5.04 6.44-2.3 3.79-4.25 7.76-6.41 11.82l4.59 3.56c2.82-3.4 5.48-6.74 8.3-9.94 4.2-4.8 8.48-9.58 12.87-14.22a12.08 12.08 0 014.48-2.84c9.69-3.53 19.48-4.31 29.31-.46 2.97 1.17 6.23 2.04 8.73 3.87 3.6 2.66 6.63 6.04 9.9 9.18 1 .95 1.8 2.2 2.93 2.92 1.57 1 2.31 2.07 1.54 3.89-.09 0-.31.11-.37.05-4.71-4.8-9.16-9.88-14.2-14.28-2.6-2.26-6.15-3.59-9.49-4.83-8.8-3.33-17.58-2-26.16.98-1.87.79-3.52 2-4.83 3.56-6.9 7.5-13.59 15.1-20.36 22.68-.2.27-.36.56-.5.86 3.88 2.69 7.75 5.31 11.56 8.05 1.22.86 3.9 1.4 2.51 3.61-1.49 2.4-2.79-.23-3.88-.94-4.12-2.69-8.08-5.58-12.42-8.63l-6.4 9.73c2.58 1.81 5.11 3.45 7.55 5.27 1.24.8 2.34 1.81 3.26 2.97.6.87.56 2.2.8 3.3l-.7.18-12.79-8.63c-2.87 4.32-2.47 8.89-2.14 13.38.32 4.35.81 8.69 1.35 13.03a7.9 7.9 0 001.14 3.25 85.56 85.56 0 0016.97 19.31 12.4 12.4 0 012.59 3.03c-5.3-2.24-9.29-6.15-12.93-10.28-8.46-9.62-15.02-20.55-20.97-31.85-3.72-7.04-7.62-13.98-11.3-21.03-.6-1.4-.88-2.9-.82-4.42 4.31 10.03 10.9 18.7 15.99 28.61.8-3.6 1.53-6.9 2.28-10.12.5-2.17 1.9-4.65 1.27-6.41-.63-1.77-3.35-2.6-5.06-3.92-5.18-4.06-10-8.55-15.44-12.16-4.79-3.16-10.17-5.44-15.37-7.93-3-1.45-6.15-2.59-9.29-3.8-2.1-.79-4.13-.22-6.08.8-1.31.6-2.66 1.12-4.02 1.57l3.74 10.93c1.92 5.52 3.13 11.1 2.27 17.02-.17 1.79 0 3.59.47 5.31 1.5 6.42 3.45 12.64 7.37 18.11a16.36 16.36 0 012.41 5.31c1.48 5.8 2.95 11.64 3.97 17.52.38 2.2.32 4.95-2.58 6.16a59.32 59.32 0 00-4.22-22.3 95.63 95.63 0 00-4.6-9.97 55.2 55.2 0 01-6.18-19.57c-.05-1.86.04-3.73.25-5.58.21-5.93-1.63-11.42-3.7-16.84-1.8-4.65-3.38-9.44-5.66-13.85-1.58-3.06-4.09-5.69-6.39-8.31-3.35-3.84-6.15-7.88-6.58-13.15-.09-1-.3-2-.4-3.02-.69-6.08-3.9-10.03-10.18-11.64-2.59 3.21-5.43 6.63-8.22 10.07-5.55 6.86-11.1 13.73-16.62 20.62a65.8 65.8 0 00-4.55 6.25 3.3 3.3 0 00-.24 2.83c2.09 3.45 4.44 6.69 6.62 10.05.54.86.75 1.87 1.21 2.76 3.05 5.73 6.5 11.4 9.15 17.36 1.93 4.3 2.89 9.01 4.42 13.5 1 2.95 2.24 5.81 3.35 8.72.22.55.35 1.13.53 1.72l-.6.28c-1.65-2.79-3.61-5.45-4.87-8.41-1.34-3.14-2-6.56-2.98-9.86-.37-1.6-.88-3.15-1.53-4.65-2.36-4.58-4.9-9.07-7.67-14.18-.38 1.3-.63 2.06-.81 2.83a16346.9 16346.9 0 00-10.95 43.75c-.73 2.95-1.42 5.93-2.25 8.85-.44 1.6 0 2.15 1.65 2.58 6.14 1.5 12.25 3.1 18.32 4.83 1.81.52 3.45 1.67 5.18 2.52l-.19.7a51.1 51.1 0 01-5.4-.53 897.03 897.03 0 01-18.34-3.84c-1.56-.35-2.59-.25-2.74 1.67-.2.9-.5 1.76-.9 2.59l-.69.14c-.32-.86-.92-1.81-.9-2.71.05-2.24-.98-2.98-3.1-3.45-12.62-2.59-25.17-5.56-37.38-9.8L157 475.23l-8.96 23.27-.81-.24c-.34-8.55 4.11-16.1 5.5-24.7l-31.35-10.52c.13-.41.25-.86.38-1.25 10.73 2.15 21.16 5.58 31.98 8.62.78-2.89 1.45-5.75 2.32-8.55 2.34-7.54 4.84-15.03 7.13-22.58 1.52-5 2.73-10.08 4.16-15.1 2.76-9.71 6.04-19.29 8.27-29.1a190.9 190.9 0 017.82-25.52c.3-.79.51-1.62.76-2.43l-.57-.52c-1.07 1.14-2.19 2.25-3.2 3.44-.59.7-.86 1.73-1.57 2.25-2.7 2.25-5.51 4.32-8.23 6.57-1.02.86-2.27 1.67-2.78 2.8-1.73 3.69-4.88 5.5-8.12 7.47a8.94 8.94 0 00-3.4 3.6 8.62 8.62 0 01-5.8 5.01c-2.21.63-3.82 1.73-4.03 4.24a5.68 5.68 0 01-.87 1.88 50.79 50.79 0 01-2.84 5.33 25.69 25.69 0 01-3.45 3.7c-1.1 1.07-2.34 2-3.45 3.1a3 3 0 00-.46 3.86c1.01 1.85.44 3.37-1.34 4.31-1.79.94-2.78 2.44-2.48 4.59.29 2.14-1.1 3.26-2.6 4.03a7.94 7.94 0 00-4.64 6.65 5 5 0 011.92-7.14c2.35-1.36 3.4-2.97 3.3-5.83 0-1.25 1.45-2.73 2.59-3.8 1.13-1.05 1.87-1.8 1.44-3.35-.91-3.34 0-5.88 2.92-7.4a9.2 9.2 0 004.7-5.77 40.97 40.97 0 013.77-7.95c.6-1 2.04-1.72 3.24-2.1 2.72-.95 4.77-2.39 5.92-5.18a7.03 7.03 0 012.86-3.18c3.51-2.08 7.06-4 8.86-8.02a7.2 7.2 0 012.33-2.25c3.03-2.33 6.1-4.59 9.16-6.9.06-.05.16-.08.18-.14 1.53-4.5 6.68-5.42 9.06-9.12.5-.58 1.17-.99 1.92-1.17 3.51-1.16 7.05-2.23 10.58-3.38 1.44-.47 5.75 1.78 6.59 3.5 1.1 2.25 2.33 2.64 4.53 1.44.6-.34 1.25-.64 1.86-1 1.63-.93 2.96-.52 3.65 1.13 1.02 2.43 2.93 2.83 5.18 2.59 2.87-.32 5.74-.66 8.62-1.1 2.43-.38 4.4-.07 5.89 2.24.5.75 1.87 1.1 2.9 1.29 4.05.71 8.2 1.01 12.15 2.04 2.04.54 3.75 2.3 5.64 3.45.68.33 1.37.62 2.07.86a47.83 47.83 0 00-1.99-5.17c-.3-.6-1.3-.86-1.96-1.3-.87-.56-2.12-.93-2.5-1.73a3.8 3.8 0 00-3.37-2.3c-2.37-.33-4.67-1.16-7.03-1.72-1.42-.31-2.9-.37-4.3-.75-.99-.25-2.27-.6-2.76-1.36-1.17-1.77-2.53-1.95-4.18-1.06-2.4 1.29-4.39 1.46-5.96-1.3a2.8 2.8 0 00-2.26-.86c-3.07.3-5.93-.12-8.46-2.28-1.87 2.15-3.17 1.1-4.6-.47-2.54-2.76-3.58-2.84-6.9-1.06 0-2.2 2-3.32 4.2-2.26.68.38 1.31.85 1.87 1.4 1.07.92 1.93 2.47 3.62.76.25-.24 1.14.17 1.73.28 2.17.42 4.39.7 6.52 1.29 1.53.3 2.97.98 4.19 1.97 1.07 1.07 1.85 1.49 3.16.75 2.64-1.45 5.03-2.06 6.9 1.3.4.72 1.66 1.2 2.59 1.36 4.12.73 8.27 1.26 12.39 2a2.72 2.72 0 011.85 1.43c.62 1.99 2.05 1.98 4.07 1.95-1.21-3.11-2.1-6.12-3.52-8.86-5.11-9.87-10.62-19.47-18.5-27.59-2.79-2.85-6.13-4.2-9.66-5.67-9.86-4.08-19.97-7.51-30.43-9.29-8.74-1.48-17.73-1.86-26.62-2.06a94.5 94.5 0 00-30.32 4.62c-5.04 1.57-9.57 4.8-14.37 7.2-9.57 4.8-17.89 11.44-26.39 17.82-1.36 1.01-2.65 2.73-4.97 1.72-6.67 11.71-13.72 23.28-17.13 36.67-1.93 7.56-4.97 14.85-6.55 22.42-2 9.6-4.45 19.3-3.57 29.2.6 6.79 1.72 13.57 4.4 20.02a72.14 72.14 0 015.85 22.6c.41 5.58 1.62 11.12 2.42 16.68.24 1.72.31 3.39.46 5.08l-.61.2c-.8-1.77-1.5-3.58-2.08-5.42-2-7.7-3.5-15.52-4.48-23.42-.66-5.35-2.71-10.57-4.49-15.74-3.65-10.63-5.33-21.42-4.02-32.68 1.73-15.16 6.55-29.49 11.1-43.98 3.44-11.11 9.35-20.93 14.81-31 3.5-6.46 6.78-13.06 10.73-19.23 2.45-3.82 5.89-7.03 9.07-10.35.67-.7 2.17-.59 3.3-.87.58-.06 1.16-.18 1.72-.35 8.05-3.37 15.75-7.61 24.38-9.48 6.3-1.36 12.33-4.1 18.97-4.08 5.69 0 11.38 0 17.3-.42-1.52-1.1-3.03-2.17-4.53-3.27-11.54-8.45-24.87-11.04-38.75-12-2.65-.18-3.58.96-4.06 3.25a44.28 44.28 0 01-8.7 18.22c-.34.5-.84.85-1.42 1.02.06-.44.18-.86.36-1.27a58.82 58.82 0 007.84-18.65c.86-3.76 3-7.37 5.11-10.7 2.9-4.54 4.72-9.06 3.15-14.53-.37-1.28-.05-2.78 0-4.18.07-1.91.16-3.88-1.89-4.9a22.07 22.07 0 00-3.73-.98c-1.11-4.14-5.32-6.9-8.4-10.48a6.7 6.7 0 01-1.62-5.76c1.43 2.56 3 5.05 4.69 7.45a85.56 85.56 0 005.84 6.55c4.68-3.55 8.89-7.32 13.64-10.18a83.7 83.7 0 0016.05-12.39c5.38-5.32 10.72-10.69 16.47-15.58 2.79-2.36 6.32-4 9.75-5.41 9.92-4.06 18.76-9.76 27.2-16.32 6.71-5.17 14.16-9.36 23.06-9.22 3.94.03 7.86.77 12.43 1.27zm-86.58 292.08c18.5 6.1 36.56 11.75 55.44 15.18.2-2.1.52-4.18.95-6.24 4.63-17.7 9.18-35.4 14.11-52.98a5.89 5.89 0 00-.77-5.22c-.4-.66-1.06-1.16-1.49-1.8-1.94-2.9-3.94-5.76-5.73-8.74-1.39-2.32-2.51-4.8-3.76-7.2-.9-1.46-1.69-2.99-2.36-4.57-2.53-7.2-5-14.42-7.34-21.67-.54-1.72-.5-3.6-.73-5.39 3.88 12.34 8.16 24.41 14.73 35.62 5.37-6.67 10.28-13.04 15.52-19.16 5.24-6.11 10.7-11.94 16.17-18.01-.52-.36-.92-.86-1.38-.93-3.85-.55-7.7-.98-11.54-1.57-1.15-.18-2.71-.47-3.25-1.28-1.3-1.94-2.9-2.38-5-2.08-1.54.2-3.1.32-4.66.44-4.48.3-9.35 1.72-11.53-4.42-1.04.49-1.87.86-2.7 1.27a10.9 10.9 0 01-2.67 1.33c-3.05.51-3.94-.3-5.38-4.52a3.3 3.3 0 00-1.1-.16c-4.7.92-9.42 1.72-14.04 2.92-.91.23-1.72 1.72-2.15 2.84-.62 1.67-.76 3.45-1.25 5.18-2.49 8.95-4.81 17.9-6.74 27.03a446.2 446.2 0 01-15.23 54.6c-2.26 6.43-4.08 12.97-6.12 19.53zM91.41 340.5c.27-.15.52-.32.75-.52 10.86-10.98 23.1-19.83 37.7-25.33a104.94 104.94 0 0128.39-6.43 118.57 118.57 0 0137.47 2.92c7.76 1.84 15.39 4.58 23.02 7.07 1.91.77 3.76 1.69 5.53 2.75a2.58 2.58 0 00-.73-1.53c-4.88-6.03-11.51-10.02-17.5-14.75a7.81 7.81 0 00-3.68-1.36c-4.3-.57-8.7-1.02-13.06-1.41-5.61-.5-11.21-1.12-16.85-1.29-7.26-.21-14.7-1-21.76.22-9.31 1.6-18.4 4.74-27.47 7.55-4.71 1.6-9.34 3.44-13.87 5.51-1.43.62-2.72 1.5-3.83 2.6-6.63 6.78-9.94 15.58-14.11 24zm248.39 98.39c1.72-3.8 3.35-7.24 4.84-10.74.16-.38-.34-1.29-.77-1.65a35 35 0 00-4.72-3.45c-7.9-4.4-15.73-8.93-23.8-12.99-6.04-3.01-12.46-5.22-19.39-4.15-5.45.86-10.84 2.08-16.52 3.19l2.85 6.9a55.5 55.5 0 006.03-2.73 11.03 11.03 0 0110.35-.63c10.8 4.59 21.34 9.56 29.88 18.03 3.25 3.16 7.38 5.43 11.25 8.22zM185.12 298.92l.42-.46c-2-1.9-3.87-3.96-6.04-5.7-13.8-11.14-29.26-18.22-47.06-19.79a1.94 1.94 0 00-1.52.55c-1.64 2.44-3.18 4.94-5 7.83.78.04 1.55.04 2.32 0a43.9 43.9 0 0120.98 2.03 84.02 84.02 0 0112.07 4.9c3.62 1.96 6.81 4.69 10.1 7.2.94.87 1.78 1.84 2.52 2.9l-.28.55 11.49-.01zm156.46 145.32h-.8c-1.17 3.92-2.4 7.82-3.45 11.76-.44 1.63-1.16 3.64-.6 5 1.6 3.94 3.8 7.63 5.77 11.41l.74-.32c-.74-2.99-1.65-5.94-2.17-8.95-1.02-5.85-2.03-11.73.86-17.41.2-.34-.2-.99-.35-1.49zm9.64-12.45l-4.2-2.97c-1.59 3.75-3.1 7.18-4.46 10.68-.16.42.39 1.39.86 1.67a1.79 1.79 0 001.68-.45c2.12-2.88 4.03-5.85 6.12-8.93z"/>
    <path class="animate beige" d="M231.3 142.07a47.3 47.3 0 01-5.66-1.41c-1.28-.5-2.32-1.56-3.57-2.2a53.7 53.7 0 00-5.6-2.6 15.1 15.1 0 00-2.9-.32c-.92-.15-2.34-.14-2.65-.7-1.77-3.27-5.01-2.7-7.76-3-1.94-.2-3.22-.58-3.83-2.58-.62-2-1.88-3.45-4.44-3.17a2.25 2.25 0 01-2.68-2.7c.29-1.93-.73-2.87-1.97-3.87-3.65-2.98-7.93-2.7-12.07-2-3.73.75-7.41 1.74-11.01 2.96-4.32 1.33-8.57 2.8-12.85 4.23-.63.22-1.46.48-1.73.97-2.8 5.02-7.2 8.55-11.36 12.3-4.98 4.5-9.88 9.1-14.92 13.53a62.64 62.64 0 00-17.45 24.84c-2.04 5.3-3.97 10.53-3.72 16.24.08 2.03.6 4.03 1.52 5.84 2.7 5.25 5.1 10.52 4.61 16.65-.2 2.52 1.16 4.08 3.5 4.91.79.29 1.81.57 2.21 1.2.54.89.78 1.93.68 2.96-.05.48-1.25 1.23-1.88 1.17-8.69-.69-13.58 9.64-12.38 16.24.52 2.82 1.44 5.56 2.18 8.33.6 2.25 1.23 4.5 1.73 6.23.56.45 1.08.66 1.18 1 1.28 3.98 3.08 7.91 3.6 12 .71 5.7.46 11.53.6 17.31 0 .18-.2.37-.66.58-.28-9.74-.08-19.52-4.16-29.32 1.25 13.06.23 26.23-3 38.94v-3.71c0-1.25 0-2.5.07-3.75.25-8.05 1.07-16.11.6-24.15-.36-6.27-2-12.53-3.67-18.64-1.67-6.1-1.55-11.57 2-16.8a11.2 11.2 0 019.03-5.12c.86-.05 2.38-.6 2.5-1.16.33-1.44-.42-2.54-2.03-3.17a12.07 12.07 0 01-4-2.58 3.84 3.84 0 01-1.04-2.95c1.02-5.51-.72-10.54-3.26-15.05a17.11 17.11 0 01-1.72-13.28c2.82-11.12 7.2-21.47 14.99-30.26 7.77-8.8 16.53-16.3 25.61-23.57a36.85 36.85 0 006.31-6.22c1.56-2.05 3.73-2.1 5.71-2.85 3.14-1.17 6.41-2.05 9.42-3.45 6.9-3.28 14.32-3.64 21.75-3.92 2.78-.11 4.96 1.42 6.71 3.33.69.98 1 2.18.87 3.38-.1 1.44-.06 2.58 1.66 2.58 2.8 0 4.09 1.73 4.63 4.05.34 1.42 1.02 1.73 2.26 1.73 2.02 0 4.03.14 6.03.4.87.22 1.63.74 2.14 1.46 1.09 1.52 2.2 2.22 4.15 1.55.81-.28 2.4-.09 2.75.45 1.35 2.1 3.45 2.15 5.48 2.59.45.1 1.17 0 1.33.22 1.62 2.52 4.62 1.94 6.79 3.14.37.2.86.62.86.95.04 2.18 1.6 2.15 3.11 2.29 1 .1 2 .3 3.01.45a2.58 2.58 0 012.24 3.65c-.12.3-.6.7-.87.66-.26-.05-.9-.53-.86-.75.26-2.05-1.26-2.01-2.52-2.24-1.27-.22-2.32-.32-3.45-.5-1.72-.25-2.88-.94-2.16-3.32zM313.8 306.73c-2.93 3.37-6 6.57-8.66 10.07-2.07 2.72-3.5 5.92-5.48 8.72a7.67 7.67 0 00-1 7.5 58 58 0 004.6 9.66c1.77 2.85 4.14 5.33 3.95 9.06 5.75-2.32 13.04-.55 16.55 4.31a29.04 29.04 0 01-4.53-.52c-2.58-.74-5.17-1.85-7.76-2.53-2.87-.75-4.96.27-6.1 2.96-3.16 7.39-6.16 14.85-9.29 22.24a19 19 0 01-3.3 5.33c-.1-.86-.1-1.73 0-2.58 2.34-9.26 4.97-18.45 10-26.66 2.14-3.49 1.3-6.36-.53-9.34-1.4-2.26-3.24-4.32-4.31-6.66-1.08-2.35-1.44-4.9-2.17-7.36-.23-.6-.52-1.17-.86-1.72-.38.66-1.23 1.72-1.08 1.89 2.59 2.83-.55 6.54 1.53 9.54.4.59-.92 2.37-1.5 3.74 2.08.6 1.9 2.14 1.38 4.06-.35 1.26 0 2.71-.17 4.04-.16 1.33-.8 2.8-1.1 4.23-.32 1.6-.41 3.24-.77 4.83-.56 2.54-1.2 5.07-1.94 7.56-.14.49-.94.8-1.6 1.04a12.92 12.92 0 002.04-9.93c-.2-1 .67-2.17.86-3.29.36-1.72.64-3.55.87-5.34.12-1.15-.25-2.42.08-3.45.62-1.98.51-3.35-2.4-3.8 2.67-1.97 2.83-4.14 1.6-6.57a1.37 1.37 0 01.16-1.06c.99-1.62.78-3.03 0-4.77-.47-1.01.19-2.58.6-3.86-3.24-6.8-3.65-8.17-2.77-11 .72 2.22 1.29 4.31 2.08 6.32a48.79 48.79 0 002.47 5.05c.13.24.77.48.92.37.35-.33.64-.73.86-1.16 3.11-5.1 6.04-10.35 9.4-15.27 1.5-2.2 3.9-3.8 5.84-5.72.44-.43.98-1.17.86-1.65-1.6-8.06 3.35-11.43 9.16-12.02 3.25-.33 6.54-.32 9.8-.47l.05.74c-3.12.53-6.28.88-9.44 1.06-5.24.06-8.5 4.92-5.85 9.6A38.96 38.96 0 00328.06 316c1.81 1.33 3.52 2.9 5.51 3.9 1.98.85 4.04 1.49 6.16 1.89 1.65.4 3.34.56 5.02.81v.71c-1.27.16-2.55.22-3.82.2a32.54 32.54 0 01-6.04-1 16.5 16.5 0 01-4-2.16c-1.04-.68-1.86-1.73-2.97-2.25-5.18-2.35-9.18-6.16-12.94-10.3-.14-.25-.41-.42-1.18-1.07zM124.76 494.4c-.55-.48-1.29-.87-1.6-1.44-2.26-4.08-5.06-7.9-5.84-12.7a39.83 39.83 0 00-1.73-5.36c-3.54-11.14-6.11-22.42-5.5-34.26.35-6.9 2.2-13.4 3.95-19.95 1.25-4.66 3.38-9.13 4.31-13.8 1.6-8.11 2.59-16.38 3.85-24.53.35-2.3.86-4.58 1.23-6.9l.86-.2c.31.67.96 1.38.86 2.01a1509.1 1509.1 0 01-3.07 28.46 40.32 40.32 0 01-1.73 7.28c-1.63 5.3-3.74 10.41-5.08 15.77-1.04 4.21-1.19 8.63-1.72 13-1.03 8.53.43 16.88 2.7 25 2.2 7.87 5.18 15.52 7.77 23.29.44 1.3.86 2.58 1.26 3.92l-.52.4zM255.82 499.42c-2.07-5.27-1.92-10.7-.75-16.02 1.02-4.63 3.1-9.05 4-13.7 1.81-9.49 2.02-18.9-2.46-27.9-3.3-6.24-4.01-13.51-2-20.27 1.12-3.82 2.1-7.67 3.12-11.53 1.53-5.77 1.02-11.63.57-17.48-.15-2-.4-4-.67-6.56 2.1 2.67 2.04 5.48 2.69 8.04 2.69 10.52 0 20.6-2.54 30.69a24.39 24.39 0 002.01 17.76c2.92 5.56 3.33 11.47 3.7 17.49a39.66 39.66 0 01-3.64 18.66c-2.92 6.65-3.73 13.66-4.03 20.82z"/>
    <path class="animate beige" d="M200.64 351.58c-1.18.36-2.4.6-3.63.72-4.55 0-6.6 1.2-8.34 5.31-.72 1.68-1.86 2.51-3.64 2.26a4.65 4.65 0 00-4.16 1.57c-.71.7-1.73 1.09-2.47 1.73-1.91 1.65-4.05 3.16-5.57 5.17-1.36 1.78-2.72 3.08-4.97 3.45a30 30 0 00-3.78 1.18c-2 .61-2.78 2.06-2.93 4.05-.29 3.51-2.3 5.78-5.77 6.14a4.46 4.46 0 00-4.25 3.34 31.51 31.51 0 01-2.06 4.2 5.02 5.02 0 01-4.93 2.9c-4.13-.06-4.89.75-5.3 5.02l-.23 2.1c-.3 2.6-.92 3.08-3.27 2.13-1.25-.5-1.96-.2-2.46.87-1.58 3.37-3.45 6.67-2.45 10.67.34 1.4-.33 2.3-1.96 1.96-.99-.2-1.95-.44-3.36-.76-.3 1.5-.5 3.03-.6 4.56 0 2.42.14 4.84.3 7.26.1 1.63-.13 2.68-2.19 2-1.86-.62-2.69.3-2.52 2.13.39 4.02.87 8.04 1.29 12.34-.45-.6-.99-1-1.1-1.5-.8-3.72-1.72-7.43-2.19-11.22-.37-3.26.24-3.56 3.4-2.83.4.05.8.07 1.22.07v-9.11-2.11c.21-2.87.5-3.06 3.23-2.27 2.05.6 2.66.17 2.27-1.98-.73-4.06 1.1-7.45 2.83-10.82.29-.56 1.9-.94 2.59-.66 2.16.86 2.69-.2 2.85-1.97.1-1.16.09-2.34.25-3.5.4-2.8 1.94-4.32 4.72-4.08 2.92.28 4.55-1.08 5.73-3.44.44-.73.82-1.5 1.14-2.29a6.59 6.59 0 015.92-5.08c3.02-.44 4.45-2.49 4.67-5.46.23-2.98 1.32-4.42 5.1-5.18 3.37-.64 5.8-2.02 7.67-5 1.05-1.65 3.13-2.67 4.78-3.93.75-.42 1.47-.88 2.16-1.39a5.67 5.67 0 014.93-1.98c1.72.18 2.94-.76 3.5-2.5 1-3.1 3.33-4.55 6.4-5.07 1.68-.29 3.34-.7 5.02-.87.76.1 1.5.32 2.17.68l-.01 1.19zM390.93 220.53c-2.39 1.57-4.66 3.34-7.18 4.66-7.76 4.07-15.52 7.98-23.37 11.9-2.26 1.13-4.58 2.06-7.03.26-.3-.23-1.03 0-1.53.12-3.36.95-6.68 2.03-10.07 2.88-1.23.3-2.59 0-3.88.14-1.99.24-3.96.64-5.93 1-1.3.11-2.58.38-3.82.79-1.49.54-2.84 1.4-3.96 2.51-2.74 3.22-2.71 3.33-6.23.63-1.26 1.14-2.64 2.25-3.88 3.52-3.76 3.86-7.4 7.83-11.2 11.65a8.74 8.74 0 01-3.36 1.9c-5.1 1.73-8.84 4.83-10.03 10.16-1.48 6.6-2.53 13.27-3.78 19.91-.15.87-.32 1.68-.49 2.5l-.78-.04c.15-2.26.16-4.54.5-6.77.87-5.46 1.6-10.95 2.84-16.33 1.25-5.38 4.82-8.5 10.13-9.93a9.3 9.3 0 003.8-2.49c4-4.02 7.82-8.24 11.81-12.27 3.15-3.16 3.22-3.1 7.12-1.06.63-.73 1.2-1.55 1.92-2.24 1.46-1.4 2.88-2.78 5.25-2.59 1.07.1 2.19-.7 3.32-.86 2.5-.3 5.09-.2 7.54-.71a84 84 0 0010.08-2.8 8.42 8.42 0 015.18-.23c1.78.4 3.63.2 5.3-.55 6.07-3.01 11.96-6.4 17.97-9.49 4.41-2.3 8.9-4.45 13.37-6.68l.4.51zM330.45 289.58c2.47-2.24 4.94-4.47 7.38-6.74 5.79-5.4 11.5-11.04 19.03-13.8 7.31-2.69 14.78-4.92 22.36-6.67 4.18-.98 7.22 1.33 7.26 6.24 0 2.7.3 5.22 2.68 7.18.71.6.86 2.31.71 3.45-.35 2.7-.05 3.37 2.46 4.4 3.3 1.37 6.64 2.65 9.8 4.27 4.31 2.2 4.58 4.78 2.59 8.91-1.08 2.24-3.68 3.84-2.25 7.07l-1.12-.1a14.2 14.2 0 01-.29-3.63c.3-1.52.81-3 1.5-4.39 1.4-3.13 1.13-5-1.82-6.78a80.37 80.37 0 00-10.15-5.2c-1.93-.81-2.51-1.96-2.21-3.75.36-2.13-.34-3.54-1.85-5.18-1.23-1.31-1.51-3.56-2.05-5.45a14.1 14.1 0 01-.13-2.78c-.14-2.35-1.54-3.24-3.65-2.67-7.8 2.13-15.8 3.84-23.28 6.78-4.44 1.72-8.21 5.32-12.03 8.39-4.38 3.5-8.45 7.37-12.72 11.01-.42.35-1.3.16-1.97.23l-.25-.79zM394 420.42l33.58 67.88c-1.97.46-2.18.52-3.26-1.44-3.25-5.88-6.68-11.69-9.49-17.76-7.07-15.3-13.84-30.73-20.7-46.12a12.3 12.3 0 01-.54-2.59l.4.03zM416.96 486.02c-2 .72-2.82-.58-3.44-1.78-2.34-4.3-4.76-8.62-6.78-13.1-6.33-14-12.5-28.09-18.71-42.14-.07-.28-.1-.57-.07-.86l.7-.3c1.6 3.27 3.2 6.52 4.77 9.8 6.13 12.74 12.22 25.48 18.37 38.2 1.62 3.42 3.41 6.76 5.16 10.18zM244.42 182.85c3.06 3.27 2.72 7.3 3.19 11.1.16 2.02.15 4.06-.06 6.08-.34 5.6 2.4 10.04 5.25 14.46 1.13 1.77 2.47 3.44 3.44 5.25 2.74 5.02.51 9.74-5.76 11.21.92-.86 1.44-1.3 1.94-1.8 3.07-3 3.53-5.17 1.52-8.98-1.26-2.42-2.87-4.63-4.36-6.9-3.2-4.92-4.76-10.08-4.04-16.14.44-3.79-.54-7.76-.87-11.63-.06-.92-.16-1.78-.25-2.65z"/>
    <path class="animate beige" d="M376.2 244.27l-2.72 3.24c4.88.44 8.98 1.96 11.5 6.08a12.82 12.82 0 011.66 9.07l-.69.11a18.97 18.97 0 00-.44-3.14c-.78-2.5-1.23-5.28-2.7-7.3-1.11-1.53-3.52-2.54-5.51-2.9-4.2-.77-7.76 1.25-11.03 3.67-9.63 7.1-19.5 13.8-30.18 19.28-.63.32-1.26.62-1.9.86-.1.04-.28-.06-.6-.14.31-.4.5-.86.87-1.07 14.9-7.76 28.3-17.7 41.14-28.51l.6.75zM237.95 214.74a10.18 10.18 0 01-.86 7.76c-1.73 3.33-3.59 6.6-5.05 10.05-3.02 7.17-3.58 14.5-.47 21.83.52.95.92 1.97 1.17 3.02-.9-.68-2.2-1.17-2.64-2.08-1.07-2.2-2.26-4.57-2.44-6.94-.3-3.66-.11-7.34.57-10.94.6-2.98 2.18-5.78 3.5-8.57 1.43-3.04 3.12-5.95 4.56-8.98.36-1.02.58-2.1.66-3.18.11-.68.15-1.39.21-2.08l.79.11zM281.06 315.12v-2.87l-1.72.43c-.21.91-.15 1.67-.5 2.04-1.35 1.43-2.4 1.68-4.03 1 1.52-2.26 3.2-3.98 6.37-3.79.79-7.07 5.93-11.45 10.13-16.38 4.87-5.67 10.06-11.07 15.12-16.57.4-.38.84-.73 1.3-1.05l.5.5c-2.6 2.92-5.23 5.78-7.72 8.78-5.07 6.12-10.21 12.2-15 18.54-1.69 2.22-2.43 5.17-3.62 7.76-.25.54-.56 1.04-.86 1.56l.03.05zM124.02 277.3c.3-1.94.74-3.87.86-5.82.15-2.85.61-5.85-.1-8.52-.45-1.65-2.8-2.82-4.32-4.15-.43-.4-1.27-.47-1.51-.87-2.36-4.38-5.18-8.62-6.74-13.28-1.2-3.5-.86-7.52-1.15-11.32a2.23 2.23 0 011.08-1.72c.32 3.45.3 6.9 1.07 10.24.74 3.12 2.25 6.04 3.58 9.02.9 1.9 1.94 3.72 3.1 5.47a5.78 5.78 0 001.99 2.1c5.28 2.72 5.67 3.79 5.17 10.63-.17 2.6-1.11 5.18-1.72 7.76-.07.29-.48.49-.73.72l-.58-.26zM284.1 324.8c1.97 1.9 2.21 4.27.6 7.8l2.42-.31c.26 1.1.38 2.24.37 3.38-.24 2.11-.72 4.2-1.17 6.28-.13.6-.8 1.16-.74 1.69.34 3.38-.67 6.57-1.2 9.85-.54 3.28-.67 6.37-1.08 9.55a99.87 99.87 0 01-1.06 6.33c-.05.7-.3 1.36-.73 1.9-3.34 2.78-3.09 6.2-1.96 9.82.1.4.17.79.23 1.18-2.24-1.72-2.87-7.15-.86-9.3a8.37 8.37 0 002.36-5.78c.1-3.06 1.02-6.08 1.47-9.13.24-1.57.11-3.19.33-4.77.25-1.4.58-2.79.97-4.15.13-.51.48-1.09.35-1.52-.8-2.74.12-5.1 1.23-7.56.65-1.5.86-3.15.61-4.77-.2-1.24-1.42-2.32-2.1-3.33v-7.16h-.03zM241.34 149.5c.8.94 1.7 1.8 2.64 2.6 9.58 6.84 19.5 13.1 30.64 17.2l-.17.6c-.95-.07-1.9-.2-2.82-.39a64.06 64.06 0 01-21.27-10.98c-2.5-1.88-5.02-3.72-7.34-5.8-.87-.74-1.12-2.11-1.67-3.2l-.01-.03zM336.3 334.32c5.33 4.44 10.55 9.41 16.39 13.5 5.84 4.1 12.14 7.21 18.3 10.8-7.75-.19-33.76-18.68-34.68-24.3zM295.3 387.44l-16.52 18.54c-1.5-.66-1.07-1.87-.38-2.77 2.08-2.81 4.3-5.5 6.65-8.09 2.52-2.65 5.34-5.03 8.07-7.46.58-.38 1.2-.67 1.87-.86l.3.64zM244.98 157.9l21.83 14.47c-8.79-1.03-14.83-6.38-20.74-11.9-.6-.57-.68-1.6-1.1-2.57zM103.8 261.13c.13 4.96-1.42 9.49-3.29 13.93-3.05 7.3-6.42 14.5-7.76 22.42a29.3 29.3 0 01-.86 4.07c-1.28-3.35-.46-6.66.56-9.75 1.53-4.63 3.7-9.05 5.41-13.63 1.93-5.17 3.64-10.35 5.45-15.52.17-.53.32-1.02.5-1.52zM403.87 222.57l-29.06 16.69c2.4-4 23.34-15.91 29.06-16.69zM185.16 209.2c-1.12 1-2.2 2.06-3.36 3.03-2.49 2.07-2.42 4.24.44 5.7 2.05 1.04 4.3 1.72 6.53 2.58a3.21 3.21 0 00-1.9-3.64c-.92-.43-1.78-.96-2.59-1.57-1.44-1.17-.34-2.02.57-2.76.11-.09 1.05.56 1.03.6-1.06 2.39 1.03 2.64 2.26 3.57a9.82 9.82 0 012.85 2.88c.34.62-.36 1.81-.6 2.74-.79-.24-1.56-.53-2.32-.86-1.45-.72-2.85-1.53-4.31-2.27-.48-.24-1.06-.26-1.54-.48-1.67-.77-3.7-1.27-4.03-3.45-.32-2.18 1.53-3 2.99-4.01 1.19-.86 2.32-1.72 3.45-2.59l.53.53zM341.56 313.27a9.25 9.25 0 01-1.98-1.22 3.8 3.8 0 00-4.3-.94c-1.9.57-3.8.45-5.24-1.04a54.68 54.68 0 01-6.17-6.9 2.31 2.31 0 011.73-3.79c.12 1.24-.08 2.53.4 3.5a16.18 16.18 0 007.41 7.21c.93.39 1.95.46 2.92.23 2.94-.6 3.78-.3 5.23 2.95zM388 289.83c2.94.8 4.16 2.5 4.58 5.87.2.74.48 1.44.86 2.1.8-.3 1.54-.73 2.2-1.26 2.34-2.67 3.98-3.37 6.84-2.47-2.52-.77-3.45 1.25-4.8 2.52-.7.76-1.6 1.3-2.6 1.57-1.8.24-2.94.86-3.5 2.73a16.23 16.23 0 01-2.51 4.7c.94-5.35 3.45-10.7-1.06-15.76zM281.75 381.75c0-4.45 1.3-8.63 2.77-12.76.42-1.23.77-2.49 1.06-3.76.58-2.42 1.14-4.83 1.62-7.26.29-1.86.69-3.7 1.2-5.51.06 1.08.39 2.25.12 3.25-1.6 6.04-1.93 12.42-4.35 18.31-.75 1.8-.53 3.99-.87 5.97-.2.7-.5 1.4-.86 2.04l-.69-.28zM378.56 240.56c5.17-4.39 10.56-8.52 17.48-10.03l-17.08 10.76-.4-.73z"/>
    <path class="animate beige" d="M241.35 149.52c.96.05 2.06-.2 2.85.2 5.87 2.89 11.88 5.31 18.4 6.28.31.1.6.26.86.46-4.17.57-11.02-1.02-16.16-3.76l-5.95-3.19v.01zM367.06 235.9l21.28-11.6.41.76-21.12 11.89-.57-1.05zM370.57 284.27c.95-3.7 7.35-9.4 10.25-8.82l-10.25 8.82zM250.05 224.7c-.38 1.48-.64 2.83-1.1 4.13a2.03 2.03 0 01-1.17 1.12c-.27.08-.87-.48-1.12-.86-1.06-2.07.47-4 3.4-4.39zM281 315.07c-.31 1.22-.61 2.45-.95 3.67-1.19 4.43-.32 5.74 4.06 6.04-1.56-.26-3.45-.08-4.57-.92-.86-.65-1.26-2.7-.97-3.91.4-1.73 1.62-3.24 2.5-4.86l-.07-.02zM330.52 301.7c2.44.24 4.88 2.4 4.94 4.31 0 .5-.49 1-.76 1.51-.42-.28-.99-.48-1.22-.86-.48-.78-.7-1.72-1.17-2.52a27.55 27.55 0 00-1.79-2.44zM290.49 337.08c1.17 4.09-2.28 7.99-3.03 12.49l-.58-.06c.1-.68.23-1.35.39-2.01 1.13-3.74 2.3-7.46 3.22-10.42zM382.66 272.71c-1.72-1.3-3.23-3.23-5.84-1.72 2.38-1.9 3.82-1.5 5.84 1.72zM1173.93 216.13c-1.6-.09-1.89-1.38-1.72-2.46.18-1.52.11-3.44 2.14-3.99a2.26 2.26 0 001.93-1.72c.44-1 1.1-1.88 1.93-2.59 2.67-2.65 5.4-5.24 8.13-7.84 2.54-2.42 3.86-2.14 5.31 1.05.13.22.27.44.42.64l2.92-2.38c1.94-1.58.39-3.02-.37-4.25-1.06-1.67-2.04 0-2.86.5-.72.65-1.34 1.4-1.84 2.23-.23-2.67.32-3.26 3.63-4.31l4.76 3.72 4.76-2.66-1.72-6.03c-1.06.58-1.9.96-2.66 1.47-1.73 1.16-3.45 2.37-5.18 3.55 1.04-3.34 5.71-6.21 8.81-5.42a665.4 665.4 0 012.94 5.07c1.13-.8 2.78-1.57 3.82-2.84.62-.76.43-2.31.31-3.45 0-.36-1.13-.98-1.55-.86-1.89.6-3.7 1.43-5.54 2.18.57-2.9 3.25-2.59 5.12-3 2.35-.54 3.59 1.36 4.48 3.45l4.93-2.4-1.32-2.59-5.18 1.36-.19-.87 4.98-1.85c-1.72-7.76-3.02-15.66-5.29-23.28-1.03-3.5-3.75-6.59-6.03-9.58-1.82-2.36-4.2-4.31-6.57-6.62l-2.61 11.13c.54.5 1.32.96 1.68 1.64 2.76 5.17 3.16 11.02 4.05 16.7.05.34-.54.77-1.16 1.58-1.18-6.68-1.49-13.08-4.57-18.7-2.14 4-4.13 7.9-6.3 11.7a6.9 6.9 0 01-6.9 3.5c-.43 0-.86-.45-1.25-.7a5.24 5.24 0 006.21-2.76 67.59 67.59 0 008.39-26.34c.1-2.65-.55-5.26-1.9-7.54-2.72-4.79-7.27-4.1-11.96-1.1a31.71 31.71 0 00-2.97 2.44c-.46-2.32 1.03-3.44 2.14-4.2 3.06-1.98 6.34-2.58 9.99-1.08 5.55 2.34 7.95 6.3 7 12.16a32.63 32.63 0 0114.26 14.25c1.11-6.9 2.26-14.03 3.45-21.14h.95c.15.6.24 1.21.26 1.83-.28 4.6-.62 9.2-.86 13.8-.08 1.24 0 2.5-.04 3.74 0 2-.52 3.56-3.01 3.22 1.05 4.23 2.24 8.36 3.07 12.55.69 3.4.87 6.9 1.45 10.35.5 2.05 1.12 4.07 1.87 6.04 9.31-3.03 18.34-1.57 26.68 2.08 8.5 3.72 16.31 8.9 22.52 16.16 4.41 5.18 9.16 10.02 13.89 14.9 8.62 8.93 14.94 19.23 18.11 31.3 1.05 3.97 1.41 8.13 2.5 12.06 2.48 9.03 4.76 18.11 7.99 26.93 2.59 7.14 6.69 13.8 9.81 20.75a1154.7 1154.7 0 0113.51 31.38c3.26 7.83 6.2 15.81 9.35 23.7.41.7.91 1.35 1.51 1.92.16 1.3.4 2.6.71 3.9 3.67 12.18 8.45 24.14 9.06 37 .35 7.5 0 15.02.21 22.53.21 6.63.74 13.26 1.25 19.88.27 3.56-.28 4.74-3.45 6.33-6.34 3.2-12.64 6.3-18.86 9.49-1.6.96-3.15 2-4.62 3.15-2.32 1.56-4.66 3.1-6.99 4.65-4.77 3.2-9.48 6.4-14.29 9.56-.22.15-.56.1-.87.13h.05a36.94 36.94 0 0111.03-8.1 74.74 74.74 0 0010.62-6.8c6.7-4.97 13.96-9.12 21.64-12.37l3.81-1.63-.76-7.48c-11.75 5.87-23.29 11.2-34.4 17.36-6.45 3.57-12.22 8.38-18.24 12.7-2.91 2.1-5.71 4.37-8.57 6.52-3.2 2.4-7.02 2.28-10.72 2.7-2.24.26-4.45.7-6.62 1.28-.43.11-.86 1.06-.91 1.66-1.17 11.66-2.27 23.33-3.41 34.98a7.57 7.57 0 01-.53 1.68l-.91-.14c.27-5.88.39-11.77.86-17.63.56-6.9 1.21-13.71 2.19-20.5.87-6.17 2.14-12.3 3.45-18.38a191.15 191.15 0 004.57-30.29c.29-4.89 1.36-9.73 1.99-14.61 1.2-9.44 2.22-18.92 3.59-28.34.7-4.85 2.33-9.57 2.94-14.44.86-6.55 1.61-13.2 1.43-19.78-.28-9.74-1.43-19.46-2.16-29.19-.23-3.02-.3-6.03-.45-9.13-16.73-4.53-33.58-4.47-50.45-1.83-9.17 1.44-18.24 3.45-27.34 5.18-5.05.98-10.06 2.06-15.1 3.08-1.25.25-1.79.8-1.67 2.25.55 6.38.86 12.77 1.45 19.15.76 7.93 1.45 15.89 2.67 23.75 1.47 9.56 3.45 19.05 5.26 28.54 1.81 9.5 3.52 18.89 5.8 28.2 1.04 4.31 1.28 8.73 2.59 12.93a95.9 95.9 0 013.45 13.14c.91 5.93 1.09 11.97 1.72 17.95 1 9.78 1.94 19.56 3.2 29.31.86 6.82 2.27 13.55 3.35 20.34.07 1.07.02 2.14-.13 3.2l-.81.12a8.24 8.24 0 01-1.05-2.1c-1.43-7.97-2.95-15.94-4.14-23.95-1-6.7-1.73-13.45-2.31-20.21-.61-7.08-.91-14.2-1.39-21.3a23.54 23.54 0 00-.49-3.23c-1.09-5.43-1.13-5.17-6.5-5.9-7.35-1.03-14.66-.74-21.97 0-7.92.76-15.92.86-23.81 1.89-8.68 1.1-17.25 3-25.12 7.13-1.33.7-1.78 1.22-1.57 2.8 1.07 8.22 1.72 16.48 2.96 24.67 1.06 7.09 2.71 14.09 3.98 21.15.94 5.22.86 5.37 6.27 5.04 10.66-.68 21.38-1.06 31.98-2.4a119.19 119.19 0 0028.74-7.1c1.72-.67 3.3-1.72 5.03-2.42.53-.2 1.32.22 1.99.36-.35.7-.51 1.72-1.06 2.03-7.76 3.82-16.05 5.93-24.43 7.83-12.81 2.9-25.93 2.69-38.89 4.05-3.23.3-6.48.38-9.72.25-.63 0-1.59-1.2-1.73-1.98-.95-4.66-1.72-9.35-2.51-14.04-.86-5.23-1.64-10.47-2.47-15.71a5.7 5.7 0 00-.65-1.17c-.92 4.95-1.72 9.55-2.64 14.13a103.56 103.56 0 00-1.78 29.8c1.26 12.74 3.83 25.27 11.79 35.83 3.45 4.6 7.49 8.78 11.21 13.2 2.26 2.7 4.36 5.51 6.57 8.26 1.11 1.38 2.35 2.65 3.45 4.05 2.73 3.5 2.36 7.84 3.05 11.87.64 3.7 1.04 7.44 1.5 10.88-2-1.17-2.71-3.71-3.1-6.29-.6-3.94-.63-7.99-1.51-11.84-.53-2.36-2.1-4.54-3.45-6.65a47.66 47.66 0 00-3.9-4.96c-5.27-6.26-10.8-12.33-15.82-18.8a52.07 52.07 0 01-10.11-23.7c-.93-5.61-2.13-11.28-2.11-16.91 0-8.08 1.11-16.15 1.73-24.4-2.15-.12-2.08-2.52-2.3-4.3a109.62 109.62 0 01-.75-22.91c.58-6.53.6-13.1.75-19.66.28-11.96.43-23.92.72-35.88.17-6.9.7-13.74.76-20.62.07-7.97-.17-15.95-.34-23.92-.08-4.31-.5-8.63-.39-12.89.19-7.87.66-15.72 1-23.59.26-5.92.18-11.87.8-17.75.95-8.85 2.36-17.64 3.6-26.46.51-3.63.86-7.3 1.73-10.87a20.78 20.78 0 012.97-7.25c4.82-6.72 10.21-13.02 14.93-19.83a137.9 137.9 0 009.48-16.38c.54-1.07-.62-3.98-1.82-4.76a64.49 64.49 0 00-11.26-5.67c-2.7-1.06-5.84-.96-8.62-1.94-3.79-1.36-7.37-3.28-11.06-4.92a4.46 4.46 0 00-2.33-.63c-4.95.93-9.08-.93-12.19-4.4-1.63-1.81-2.47-4.7-2.81-7.22-.33-2.52-.63-4.85-2.94-6.5-1.26-.9-1.44-2.19-.79-3.76.47-1.44.81-2.91 1.02-4.41h-.08l1.72-.12-.22 3.25 7.91-4.31.34.57c-1.92 3.45-6.03 3.75-9.17 6.53.44.89 1.02 1.7 1.72 2.4a5.83 5.83 0 012.43 5.23c-.19 7.33 6.9 13.91 14.54 11.96a8.98 8.98 0 013.53-.06l-1.84.43c.33.33.7.62 1.09.86 4.65 1.97 9.27 4.01 13.98 5.82 1.4.54 3.13.19 4.61.6 2.38.6 4.69 1.43 6.9 2.5 2.75 1.42 5.27 3.28 8.22 5.16l6.9-9.86h.29a16.64 16.64 0 01-1.12 3.36 724.8 724.8 0 01-10.02 16.86c-2.89 4.7-5.79 9.4-8.95 13.94a217.96 217.96 0 01-9.59 12.7 28.34 28.34 0 00-6.04 14.97c-1.41 11.77-3.65 23.48-4.37 35.3-.86 14.81-.79 29.7-.79 44.54 0 10.86.65 21.72.71 32.58.07 11.78-.19 23.56-.39 35.35a8.92 8.92 0 002.09 6.42c3.33 3.93 6.32 8.14 9.48 12.21.87 1.08 1.82 2.06 3.02 3.4 1.08-3.53 1.85-6.72 3.05-9.73 2.01-5.08 4.15-10.11 6.5-15.04 1.51-3.2 4.23-3.45 6.46-.7 2.97 3.7 5.62 7.67 8.54 11.42a130.4 130.4 0 006.9 7.98c.58.63 1.6.86 2.53 1.27 1.14-5.54 2.15-10.64 3.26-15.72.41-1.91.97-3.79 1.67-5.62 1.14-2.9 3.79-3.44 5.86-1.13 2.23 2.5 4.03 5.37 6.24 7.89 2.58 2.97 5.44 5.74 8.21 8.62 3.21-3.83 2.79-7.55 1.78-11.57-2.03-8.1-3.9-16.24-5.55-24.42-2.06-10.24-4.19-20.49-5.63-30.83-1.36-9.65-1.89-19.42-2.71-29.15-.41-4.82-.55-9.67-.98-14.48-.71-8.23-1.51-16.46-2.41-24.69-.16-1.4-.99-2.73-1.41-3.83.33-.9.56-1.83.66-2.79-.35-12.12-.29-24.14 3.91-35.81 3.44-9.58 4.13-19.53 3.25-29.6a9.3 9.3 0 01.06-3.46c.45.82.79 1.7 1.04 2.6 1.51 10.34 1.09 20.49-2.18 30.53a116.17 116.17 0 00-3.56 15.52c-.49 2.74-.23 5.6-.19 8.42 0 4.52.15 9.04.27 13.55a9.67 9.67 0 002.59 6.1c4.04 4.75 7.95 9.61 11.92 14.43.29.25.61.45.94.63.44-2.92.78-5.64 1.24-8.35a70.41 70.41 0 017.56-22.05c1.25-2.3 3.65-3 5.66-1.34 2.25 1.79 4.3 3.81 6.14 6.03 3.39 4.31 6.5 8.79 9.74 13.2.26.3.55.6.86.86.66-3.91 1.03-7.91 2.04-11.76 1.56-5.95 3.51-11.8 5.4-17.67.32-.93.9-1.74 1.67-2.34.92-.7 1.72-.47 2.39.75 5 9.12 10.83 17.76 17.42 25.8.57.83 1.05 1.72 1.44 2.65l.61-.94c1.47-6.04 2.93-12.03 4.44-18.03a41.54 41.54 0 011.88-6.26 3.39 3.39 0 012.31-1.85 3.93 3.93 0 012.89 1.28c1.33 1.58 2.31 3.45 3.93 5-.24-3.03-.6-6.03-.7-9.1-.22-6.9-.19-13.8-.49-20.64-.24-5.47-.87-10.79-4.57-15.41-2.79-3.5-4.53-7.85-7.35-11.31-2.82-3.47-6.51-6.28-9.7-9.49a389.7 389.7 0 01-11.99-12.5c-1.78-1.96-3.45-3.72-6.16-4.4a6.04 6.04 0 01-2.97-2.24c3.61 2.24 8.17 2.44 11.21 6.04a209.46 209.46 0 0018.25 19.18 48.72 48.72 0 018.62 11.53c2.59 4.59 6.24 8.85 6.4 14.58.13 5.08.23 10.16.52 15.23.38 7 .86 14.02 1.47 21.02.08.94.79 1.82 1.23 2.72.53 1.1 1.09 2.17 1.86 3.7l-2.46-.8c1.08 6.42 2.3 12.54 3.09 18.71.6 4.72.59 9.49.95 14.27.44 5.68 1.01 11.35 1.49 17.03a632 632 0 01.86 11.69c.17 2.33.16 4.47 2.26 6.4 3.09 2.81 5.62 6.25 8.4 9.42.25.26.52.5.8.73l4.5-16.26c.25-.86.46-1.82.76-2.7.97-2.89 3.21-3.4 5.26-.99 2.78 3.28 5.3 6.77 7.9 10.2 1.25 1.64 2.43 3.35 3.84 5.3.6-4.45 1.12-8.45 1.68-12.42.13-1.16.35-2.32.65-3.45.39-1.32.58-2.9 2.45-3.01a4.08 4.08 0 014.15 2.08c1.05 1.91 2.08 3.84 3.14 5.76.25.46.59.86.86 1.3l.64-.27c-1.65-4.4-3.04-8.93-5.01-13.18a2359.97 2359.97 0 00-22.12-46.56c-3.73-7.57-8.14-14.82-10.42-23a942.4 942.4 0 01-6.44-24.71c-3.33-13.5-8.95-25.78-18.51-36.1a478.39 478.39 0 01-14.2-15.9c-5.72-6.74-13.21-10.95-20.7-15.16-1.45-.86-2.53-.63-3.39 1.03a618.94 618.94 0 01-9.07 17.2 544.86 544.86 0 01-9.87 17.04c-1.08 1.8-3.96 1.78-5.72.2l-20.28-18.17-1.2-1.03c-3.28 2.69-6.69 5.26-9.86 8.11-3.17 2.85-6.28 6.1-9.44 9.13-.6.5-1.25.92-1.94 1.29l-.45-.51 2.88-3.75a1699 1699 0 014.83-5.33c-2.04-1.2-3.8-.93-4.37.86-.42 1.41-.24 3.03-.33 4.56zm170.3 161.25c.13-.5.16-1.01.11-1.52-.91-3.07-1.85-6.13-2.87-9.16a4.05 4.05 0 00-1.24-1.92c-3.19-2.29-5.04-5.49-6.56-8.98-.45-1.02-1.07-1.97-1.8-3.28a9.02 9.02 0 00-.7 1.66c-.64 5.17-1.24 10.35-1.89 15.52-.11.86-.28 2.46-.58 2.5a4.1 4.1 0 01-2.99-.6 53.61 53.61 0 01-5.28-5.9c-2.77-3.5-5.4-7.13-8.33-11.03-.43 1.13-.73 1.73-.91 2.42-1.54 5.8-3.06 11.62-4.57 17.43-.55 2.13-1.34 2.53-3.28 1.47a6.05 6.05 0 01-1.59-1.37c-3.02-3.41-6.03-6.85-8.74-9.95l-3.26 22.94.86-.39c4.08-1.95 7.98-4.5 12.26-5.72 10.55-2.99 20.91-6.95 32.12-6.9 3.45 0 6.76-.09 9.28 2.77a4.3 4.3 0 01-1.32.26 57.41 57.41 0 00-25 2.32c-8.92 2.76-18.2 4.46-26.47 9.07a6.9 6.9 0 00-2.9 2.58c-.62 1.36-.58 3.05-.76 4.6-.86 7.3-1.64 14.6-2.59 21.88-.97 7.76-2.03 15.52-3.1 23.24-.6 4.25-1.18 8.52-2.01 12.73-1.73 8.57-3.62 17.1-5.43 25.66-.21 1-.34 2.02-.47 2.82 2.48-.38 4.71-.63 6.9-1.09 2.64-.54 5.58-.72 7.82-2.02a82 82 0 0010.51-7.77c9.36-7.65 19.22-14.39 30.48-19.06 6.85-2.84 13.49-6.12 20.75-7.85 1.58-.38 2.17-1.16 1.84-2.8-.26-1.39-.4-2.8-.39-4.2-.05-8.62.09-17.2-.07-25.79-.24-11.77-3.8-22.87-7.26-33.97 0-.3-.37-.47-.6-.64l.03.04zm-98.42-93.9c-.78 2.58-1.45 5.17-2.3 7.69-2.42 7.1-4.77 14.2-4.38 21.88.11 1.93-1.57 2.72-3.19 1.6a10.86 10.86 0 01-2.3-2.32c-4.05-5.26-8.01-10.6-12.07-15.83a49.83 49.83 0 00-4.24-4.26c-4.26 6.19-9.49 25-8.53 30.38 2.72-.56 5.48-1.04 8.18-1.72 10.64-2.55 21.35-4.64 32.29-5.29 10.12-.73 20.29-.24 30.3 1.46 2.47.45 4.8 1.68 7.2 2.58.08-1.17.08-2.35 0-3.52-.79-5.49-1.94-10.93-2.41-16.44a13.16 13.16 0 00-4.72-9.44c-1.39-1.2-2.31-2.95-3.6-4.65-1.07 3.91-2.08 7.44-3 10.99-.86 3.37-1.58 6.8-2.53 10.15a5.6 5.6 0 01-1.72 3.04c-1.32.86-2.87.46-3.99-.78a82.32 82.32 0 01-6.2-7.03c-4.42-6.01-8.5-12.2-12.79-18.5zm-31.57-95.51c3.54 9.56 2.68 19.62 3.77 29.41l.79.22 18.15-33.3c-5.04-3.03-17.68-.87-22.71 3.67zm-41.1 259.66l-16.2-20.89a104.57 104.57 0 00-9.18 24.24l25.38-3.35zm42.13-230.08c-1.62-9.6 1.13-19.43-2.92-28.8-5.43 4.82-12.75 6.51-17.61 11.89l20.53 16.9zm-7.9 223.83c-.22.63-.48 1.25-.77 1.85-.41.71-.86 1.92-1.38 1.94-1.02-.02-2-.38-2.8-1.01-1.2-1-2.32-2.09-3.33-3.27-2.78-3.04-5.6-6.04-8.25-9.2-1.62-1.92-2.98-4.07-4.76-6.55a91.48 91.48 0 00-4.81 22.11h28.01l-1.91-5.87zm-79.38-.55l-.29-.06c-.2.48-.34.99-.43 1.5-.2 3.6-.41 7.17-.52 10.76-.29 9.82-.68 19.64-.7 29.46 0 4.43-.61 9 1.65 13.8.93-3.9 1.73-7.27 2.59-10.63.29-1.18.41-2.93 1.19-3.37 1.3-.72 1.04-1.53.97-2.48-.06-.76-.3-1.53-.38-2.3a4459.37 4459.37 0 01-4.08-36.68zm2.35-2.59l-.46.2 2.2 19.82 9.67-4.87-11.41-15.15zm72.17-114.32l-11.33-14.2-.54.33 1.57 16.65 10.3-2.78zm-12.12-123.3c-.45-1.2-.86-2.33-1.37-3.65l-6.9 6.2c0 .24.1.46.15.7 1.19.14 2.58.78 3.51.33 1.68-.86 3.05-2.32 4.61-3.58zm-6.54 5.4l-1.99-2.21-5.41 5.17c3.85 2.02 5.02-1.4 7.4-2.94v-.01z"/>
    <path class="animate beige" d="M1305.93 484.79l1.57.1c-.09.8-.09 1.6 0 2.39 1.73 6.39 3.69 12.72 5.18 19.17a59.1 59.1 0 011.64 13.44 13.93 13.93 0 01-2.82 7.97c-7.08 8.86-9.8 19.35-12.5 30-1.84 7.24-4.76 14.2-6.9 21.37-1.4 4.62-2.29 9.4-3.45 14.09-1.04 4.14-2.19 8.24-3.28 12.36h-.86c-.15-2.2-.13-4.42.05-6.63 1.56-10.83 3.89-21.45 8.04-31.67a134.75 134.75 0 005.36-17.7c1.86-7.47 4.45-14.5 9.37-20.4 4.6-5.53 5.39-11.77 3.96-18.5-1.65-7.76-3.4-15.52-5.06-23.28-.14-.92-.21-1.84-.22-2.77l-.08.06zM1161.25 521.38l-3.44.18c.63 2.23 1.62 4.25 1.72 6.32.12 2.44-1.84 3.9-3.9 4.78-2.06.87-4.44-1.33-4.86-4.15-.1-1.09-.1-2.18 0-3.27.04-1.01.17-2.01.27-3.12l-11.12-2.45c1.84 2.3 3.6 4.4 5.22 6.6 1.11 1.5 2.4 3.14.35 4.92a4.66 4.66 0 01-6.18-.15c-2.01-1.86-2.14-4.24-1.94-6.72l.48-6.64c4.51 1.31 9.32 3.72 14.25 3.37l-1.6-1.72.53-.72c.71.15 1.38.41 2.01.78 2.77 2.38 5.77 1.72 8.87.98 1.39-.25 2.8-.34 4.22-.27 9.91 0 19.83-.12 29.44-3.03 3.61-1.1 6.9-3.23 10.35-4.76 1.77-.77 3.66-1.24 6.04-2.03l-.74 3.45c-1.45-1.92-2.9-1.6-4.46-.86a47.92 47.92 0 01-6.57 3 91.67 91.67 0 01-13 3.5c-5.29.87-10.71.99-16.06 1.4-1.13.08-2.27 0-2.93 0a29.1 29.1 0 012.58 3.44c.6.97.9 2.1.86 3.24-.45 3.45-3.67 4.54-6.67 2.3-2.65-1.9-4.45-4.45-3.72-8.37zm2.05.17l-.67.6c.26 1.72.16 3.6.92 5.04.49.95 2.21 1.65 3.45 1.73.75 0 1.82-1.25 2.25-2.17.35-.76.31-2.45-.15-2.71a45.39 45.39 0 00-5.8-2.49zm-10.54 9.08c3.45-.52 5.64-3.16 5.17-6.04-.26-1.6-2.67-2.8-5.17-2.48v8.51zm-12.67-8.94l-.69.11c0 2.12-.07 4.24 0 6.34.09.74.41 1.43.92 1.98 1.31-.2 2.58-.65 3.72-1.32.38-.25.39-1.8 0-2.37-1.15-1.68-2.61-3.2-3.95-4.74zM1117.81 172.83l-3.52-1.31.1-.42 5.8 1.44c-2.01 2.58-3.97 3.82-6.66 4.05-.92.2-1.72.76-2.23 1.54-1.34 1.89-2.82 3.27-5.34 3-2.85-.3-3.52-1.52-3.33-4.42a14.8 14.8 0 015.48-10.9c1.89-1.58 1.52-3.6.14-5.22-2.32-2.74-3.08-5.88-3.15-9.33-.11-4.67-.4-9.27.75-13.95 1.33-5.43 4.24-9.85 7.51-14.12.86-1.12 2.29-1.8 3.45-2.68l.64.32a9.36 9.36 0 01-.71 1.84c-1.3 2.05-2.7 4.01-4 6.04-4.31 6.9-5.33 14.53-4.97 22.5.16 3.5.64 6.7 2.9 9.63 1.95 2.52 1.44 4.5-1.94 7.56-3.38 3.07-3.2 7.13-3.69 11-.19 1.4 1.33 1.72 2.38 1.06.9-.48 1.6-1.27 1.95-2.22.39-1.9 1.73-2.13 3.12-2.15 2.27-.05 3.76-1.2 5.32-3.26zM1209.45 616.3c-1.24-2.02-2.59-3.58-3.24-5.38-4.47-11.8-3.39-23.1 3.33-33.83 3.14-5 6.81-9.72 8.33-15.61a58.55 58.55 0 001.73-21.37c-.14-1.19-.14-2.39-.2-3.59l.86-.1c.44 3.46 1.1 6.97 1.27 10.46.56 11.2-2.59 21.34-9 30.63-5.28 7.63-7 16.32-5.62 25.51.65 4.26 1.61 8.48 2.54 13.28zM1234.94 124.75c4.1 2.59 6.36 6.59 8.33 10.74a22.04 22.04 0 011.82 5.76c1.44 8.2 3.36 16.22 7.44 23.59.38.75.59 1.58.62 2.43-3.25-3-5.76-6.71-7.36-10.83-.68 12.44 6.43 20.74 15.04 28.45-.74-.32-1.45-.7-2.12-1.14-4.93-3.68-9.23-8-12.07-13.46a34.24 34.24 0 01-3.63-19.55c.92-9.7-1.34-18.26-8.16-25.4-.05-.06-.14-.14-.13-.2.06-.13.14-.27.22-.4zM1215.32 130.16c-1.04-6.9-6.66-7.83-11.06-10.2-3.53-1.9-7.01-3.93-10.65-5.55a16.6 16.6 0 00-6.19-1.24c-3.63-.1-7.26.33-10.9.3-2.8-.15-5.57.63-7.87 2.23-1.93 1.4-4.44 1.96-6.95 3l17 7.76c-1.32 1.33-1.55 1.72-4.23.51-7.1-3.17-14.47-5.94-20.41-11.25a1.9 1.9 0 01-.25-.39l.28-.6 5.28 2.32-1.29-1.66.34-.49c.62.3 1.27.55 1.86.9 2.79 1.66 5.17 1.44 7.7-.48 3.17-2.38 6.82-3.06 10.74-2.99 3.5.1 7.01-.04 10.49-.4a9.77 9.77 0 017.54 2.07c2.5 1.88 5.67 2.86 8.53 4.27 2.86 1.4 5.81 2.66 8.52 4.3 2.38 1.44 2.85 4.02 1.52 7.6zM1263.61 543.93a45.25 45.25 0 011.72 4.52 111.16 111.16 0 013.45 21.21c.25 4.27.86 8.51 1.24 12.78.06 1-.15 2.01-.62 2.91-2.72 5.18-3.45 10.82-4.07 16.47a72.25 72.25 0 01-1.42 9.49 55.26 55.26 0 01-.6-7.04c.25-6.85.55-13.7 4.12-19.9.47-.99.66-2.08.52-3.16-.49-4.8-1.1-9.6-1.72-14.39-.98-7.53-1.99-15.06-2.99-22.6l.37-.29zM1172.58 83.27c2.01-2.91 3.45-2.94 4.69.12.94 2.29 3.01 2.85 4.87 3.69 1.85.83 3.69 1.79 4.66 3.92.65 1.41 1.93 2.03 3.72 1.72 2.64-.44 5.41-1.03 7.99-.64s5.03 1.84 7.49 2.94a7.16 7.16 0 014.64 6.8c.21 4.42 1.07 8.8 1.65 13.19-1.94-.71-4.09-4.1-4.5-7.43-.38-2.23-.53-4.5-.45-6.76.24-2.9-1.35-4.22-3.56-5.3a9.32 9.32 0 01-1.65-.86c-2.79-2.16-5.82-2.03-9.1-1.37-1.94.28-3.92.24-5.85-.1a3.22 3.22 0 01-2.17-1.5 7.78 7.78 0 00-4.6-4.07c-2.59-.91-4.84-2.19-5.5-5.3l-2.33.95zM1222.74 518.45c1.69-.44 3.39-.79 5.12-1.04a58.34 58.34 0 0119.97 1.3c3.69.91 7.47 1.55 11.21 2.31 2.63.53 3.53 1.48 3.35 4.13-1.51-.28-3-.46-4.44-.86-5.05-1.31-10.02-3.22-15.16-3.92-5.9-.79-11.94-.54-17.93-.76-.7 0-1.41-.19-2.11-.28l-.01-.88zM1263.49 534.26c-1.38-.44-2.75-.98-4.15-1.3-6.04-1.38-12.02-2.65-18.01-4.04-2.19-.51-4.32-1.37-6.51-1.83-4.32-.9-8.51.09-12.59 1.63l-.55-.54c.49-.6.87-1.45 1.47-1.72a17.04 17.04 0 0111.79-1.5c4.92 1.16 9.9 2.04 14.83 3.16 3.64.86 7.28 1.72 10.84 2.82 1.25.4 2.25 1.64 3.37 2.5l-.49.82zM1241.86 178.1c-2.9-5.6-3.18-11.35-3.64-17.08-.33-4.1-.53-8.26-1.22-12.33-1-5.97-4.38-10.77-8.02-15.64.97.6 1.88 1.3 2.72 2.08 5.3 5.92 7.85 12.85 8.18 20.84.27 6.74 1.29 13.46 1.97 20.19.05.52.01 1.04.01 1.94zM1178.34 144.9c3.45 3.59-.43 7.09-.72 11.05.62-.28 1.2-.63 1.73-1.06a8.06 8.06 0 016.68-2.97c2.79.05 4.88-5.68 3.37-8.47a4.84 4.84 0 01-.57-1c-.82-3.45-1.89-6.63-6.5-6.14-.42 0-.86-.55-1.58-1l1.29-1.16-.06.71c.86.4 1.66 1.1 2.53 1.18 3.25.25 4.46 1.24 5.25 4.54.17.84.48 1.65.92 2.39 1.57 2.41 1.66 5.98-.33 8a5.46 5.46 0 01-3.79 1.55 4.51 4.51 0 00-4.31 1.6 6.42 6.42 0 01-2.68 2.15c-1.15.33-2.38.2-3.45-.33-.52-.3-.56-1.97-.32-2.9.72-2.72 1.65-5.37 2.54-8.15zM1093.94 127.31c2.21-9.48 5.5-18.49 10.71-26.78 1.78-2.86 4.39-4.4 7.12-5.85a78.69 78.69 0 0111.66-5.17c-3.64 1.99-7.19 4.17-10.94 5.94a16.05 16.05 0 00-7.76 8.15c-3.35 7.28-6.34 14.73-9.53 22.08a6.79 6.79 0 01-1.37 1.52l.11.11zM1098.35 75.88c7.76 1.42 15.18 4.49 17.18 7.6l-3.45-1.84 1.24 3.45a18.13 18.13 0 00-9.38-5.06c-3.1-.72-6.24-1.26-9.36-1.9l-9.39-1.94v-.62c1.24-.07 2.49-.07 3.74 0 2.46.32 4.9.87 7.37 1.15.45.12.95-.33 2.05-.84z"/>
    <path class="animate beige" d="M1127.79 97.65c-3.12 1.11-6.18 2.48-9.39 3.28-3.83.98-6.38 3.27-8.54 6.4-5.18 7.49-8.38 15.78-10.96 24.48.26-2.44.67-4.87 1.21-7.27a54.95 54.95 0 018.68-18c1.87-2.7 4.61-4.7 7.76-5.66 3.7-1.08 7.33-2.46 10.98-3.71l.26.48zM1093.24 83.53l-14.33-4.44c-.36-.11-.74-.15-1.1-.27-.12 0-.18-.24-.31-.42 5.01-.64 9.49 1.2 14.05 2.7 4.56 1.5 8.79 3.06 13.18 4.6.08.01.16.03.23.07 1.18.86 2.25 2.19 3.56 2.5 1.31.3 2.76-.46 4.31-.51-4.04-.24-4.31 3.56-6.2 5.59-.71.92-1.53 1.76-2.44 2.5l3.87-6.85c-4.4-2.89-9.09-4.17-13.84-5.32l-.98-.15z"/>
    <path class="animate beige" d="M1093.24 83.53l.97.15c1.54.68 3.05 1.44 4.62 2.03 2.99 1.13 5.91 2.3 7.87 5.57-9.77-5.68-20.06-8.07-30.95-8.2 0-.22 0-.44-.06-.68 1.31-.26 2.65-.86 3.93-.76 3.79.34 7.56.96 11.33 1.48.76.1 1.53.27 2.29.41zM1217.2 158.26c.24-2.3.16-4.7.8-6.9 1.2-4.1 1.85-8.06-.52-11.98-.26-.41 0-1.16.56-1.83 1.1 1.87 2.59 3.6 3.18 5.63.62 2.12.71 4.36.27 6.52-.68 3.01-2.09 5.85-3.19 8.76l-1.1-.2zM1093.85 127.23c1.1 1.46 2.24 2.88 3.25 4.4.38.61.58 1.32.59 2.03 0 2.01-.86 4.32 2.23 5 .45.1.65 1.46.86 2.25.37 1.21.68 2.44 1.12 4.02.51-1.19.87-1.93 1.25-2.88.57 2.79 0 4.19-2.02 5.18-.58-1.67-1.25-3.3-1.73-5-.35-1.3.21-2.83-1.98-3.33-.64-.15-1.23-2.59-1.03-3.78a4.17 4.17 0 00-1-3.78c-1.03-1.25-1.78-2.79-2.97-3.83-1.03-.86-2.66-1.94-3.78-1.73-2.08.42-2.77-.6-3.55-2a3.55 3.55 0 00-1.07-1.45c-2.08-1.16-1.43-2.67-1.1-3.8 1.1 1.37 2.12 2.81 3.03 4.31a4.34 4.34 0 004.44 2.53c1.15 0 2.33 1.25 3.5 1.95l-.04-.09zM1306.52 481.26l-.59 3.53.08-.08c-4.8 7.17-12.55 7.76-20.04 9-2.51.39-5.01.73-7.88 1.14.86-1.98 1.79-2.7 3.62-2.9 5.85-.62 11.83-.3 17.49-2.52 2.59-1.03 4.71-2.29 5.67-5.1a18.77 18.77 0 011.72-3.03l-.07-.04zM1182.08 174.94c-4.76 9.49-10.57 18.21-19.97 24.02 3.56-3.85 7.39-7.48 10.6-11.59 3.22-4.1 5.77-8.62 8.63-12.97l.74.54zM1157.34 78.75l1.93-2.01.37.3c-.4.7-.76 1.43-1.22 2.08-.92 1.27-1.73 2.35-3 .11-.49-.86-2.26-1.72-3.11-1.43-2.86.86-4.43-1.29-6.52-2.2-.76-.34-1.49-.77-1.93-1-1.45 1.97-2.44 4.13-4.12 5.38-2.19 1.63-4.23-.16-6.42-1.9-.87 1.26-1.57 2.43-2.39 3.55-.37.47-.88.82-1.46.99.27-2.42 1.66-4.2 3.72-4.46 1.77-.23 3.71.7 6.03 1.22.57-.86 1.07-1.76 1.51-2.7 1.05-2.46 3.26-3.37 5.67-2.13 1.1.57 2.1 1.37 3.24 1.83.72.29 1.66-.04 2.41.21 1.74.57 3.39 1.36 5.29 2.16zM1225.17 168.43c-3.07-8.82-1.72-17.71-.54-26.6l.79-.1c.3 1.36.44 2.74.42 4.12-.92 7.47-1.71 15-.67 22.58zM1249.81 611.45c-4.68-3.33-9.68-14.3-6.61-20.9 1.44 7.63 2.64 14.71 6.61 20.9zM1230.26 176.17l-4.03-20c2.71 1.7 5.6 15.6 4.03 20zM1116.68 117.77c1.92-.75 3.81-1.6 5.77-2.22a88.59 88.59 0 0110.5-2.89c2.88-.5 5.18 1.05 7.02 3.36.87.95 1.81 1.81 2.82 2.59l4-3.45c-2.1 5-5.54 5.24-8.68 1.03-2.11-2.85-4.55-3.78-7.93-2.68-3.38 1.1-6.66 2.6-10.02 3.72-1.14.29-2.3.47-3.48.54zM1070.46 109.35l-2.19 1.59c-.08-3.29 8.16-7.28 13.4-6.55l-12.49 7.4 1.49-2.18-.21-.26zM1084.82 100.4c-5.94-2.42-11.71-.3-17.58.93.45-1.9 3.12-3.28 7.24-3.65 3.74-.33 7.43-.04 10.34 2.72zM1231.12 614.12a8.25 8.25 0 01-.75-2.48c.1-4.64-.19-9.14-3.13-13.08-.41-.55-.22-1.55-.36-2.77 4.31 4.8 5.67 10.06 4.97 18.05l-.73.28z"/>
    <path class="animate beige" d="M1088.95 98.95c-8.15-2.59-16.55-2.3-24.95-1.97 5.95-2.29 20.47-1.24 24.95 1.97zM1110.05 146.75c.31-4.52 8.31-8.46 15.69-7.35-2.87.8-5.83 1.24-8.43 2.46-2.61 1.21-4.76 3.17-7.26 4.9zM1152.94 136.86c-1.72-6.12-1.64-12.35-6.1-16.9 3.74.65 8.44 12.67 6.1 16.9zM1185 144.7c.32.94.52 1.92.58 2.92 0 .38-1.38 1.12-1.6.96-1.11-.8-2.68-1.72-2.88-2.83-.38-1.98.12-4.12.25-6.2l.76-.16 1.58 6.32.42-.86.89-.15zM1219.97 614.06l-2.59-14.6c2.67.63 4.52 9.89 2.59 14.6zM1095.98 89.86l-16.52-5.52c5.81.93 11.8 1.37 16.52 5.52zM1217.37 113.81l2.26 4.25c2.38-.73 4.46-.26 5.85 2.5.45.92 2.01 1.27 2.77 2.37l-6.17-3.7c-3.58.72-5.4-.87-5.4-5l.69-.42zM1107.17 190.22l-2.19-.24c.6-2.02-.64-4.31 1.87-6.48l-.51 5.72c3.77-3.91 8.09-4.4 12.66-4.03-1.36.17-2.73.37-4.1.47-3.38.22-5.56 2.43-7.76 4.59l.03-.03zM1096.33 92.1a11.1 11.1 0 00-.68 2.72c0 3.81-1.86 6.73-4.2 9.49-.19.22-.69.18-.96.24 1.68-3.06 4.16-5.76 3.51-9.64-.31-1.9.97-2.36 2.37-2.75l-.04-.06zM1172.58 83.26c-.96-.39-1.96-.66-2.99-.8-3.85-.14-6.7-1.6-7.9-5.5 0-.14-.34-.19-.53-.28l.44-.6c.86.53 2.35.98 2.41 1.59.37 3.3 2.92 3.28 5.18 3.93 1.19.45 2.35 1 3.45 1.67l-.06-.01zM1128.1 146.62c-4.68.98-9.74.69-13.74 4.67.81-4.23 7.77-4.97 13.74-4.67zM1081.76 112.22c-1.65 1.85-7.51 2.53-10.02.77l10.02-.77zM1180.19 167.2a3.9 3.9 0 01-4.45-1.97c-.52-1.1.44-2.9 1.25-4.41-.23 2.93-.53 5.67 3.2 6.41v-.02zM1226.34 169.97v9.9l-.36.04v-9.83l.36-.11zM1162.82 131.1l10.89 1.55-.13.86-10.86-1.81.1-.6zM1082.02 118.25c-2.15 1.36-5.89 1.03-8.27-.67l8.27.67zM1075.06 102.35c-3.07 1.96-7.23 2.49-8.73 6.47-.01-2.74 4.81-6.37 8.73-6.47zM1121.03 80.9l-5.76 6.4-.49-.48c2.41-1.63 2.59-5.48 6.28-5.87l-.03-.06zM1080.41 114.6c-1.89 1.6-4.59 1.8-7.61.52l7.61-.52zM1121.06 80.94c1.48.35 2.97.65 4.43 1.1.77.31 1.52.7 2.22 1.15-2.76 1.16-4.4-1.73-6.68-2.3l.03.05zM1096.33 92.1c4.04-.53 4.04-.53 5.57 4.47-2.12-1.4-2.38-4.86-5.57-4.47zM1085.19 109.09c-2.48.07-3.22-1.35-2.04-4.04l2.04 4.04zM1085.77 117.06c-2.85-.93-3.12-1.6-1.72-3.92l1.72 3.92z"/>
  </g>
  <defs>
    <clippath class="animate beige" id="clip0">
      <path class="animate beige" fill="#fff" d="M0 0h1438v488H0z"/>
    </clipPath>
  </defs>
</svg>