<svg width="1439" height="113" viewBox="0 0 1439 113" fill="none" xmlns="http://www.w3.org/2000/svg">
<g clip-path="url(#clip0)">
<path d="M488.5 40.4611C404.5 26.8611 -55 -9.53662 -230 21.9634L-188 670.461C399.833 639.461 1574 569.661 1568 538.461C1562 507.261 1552.5 193.461 1548.5 40.4611C1489.17 69.6278 1511.6 15.5631 1482 1.96313C1445 -15.0369 1082.5 83.9634 972.5 83.9634C862.5 83.9634 593.5 57.4611 488.5 40.4611Z" fill="#2F6057"/>
<path d="M-1169.54 61.42C-1170.31 60.354 -1170.08 59.636 -1168.74 59.4435C-1168.01 59.3985 -1167.27 59.4129 -1166.55 59.4867C-1139.57 60.0189 -1112.61 60.31 -1085.64 61.2142C-1071.38 61.6999 -1057.12 62.1126 -1042.86 62.4523C-1033.03 62.6463 -1023.15 62.9943 -1013.32 62.9256C-1003.48 62.857 -993.879 62.5647 -984.207 61.9673C-976.179 61.4469 -968.182 60.2472 -960.062 59.5097C-956.177 59.1484 -952.272 58.8314 -948.391 58.6671C-937.253 58.1862 -926.095 57.7714 -914.967 57.7719C-901.955 57.7659 -888.928 58.1543 -875.902 58.5426C-867.471 58.7089 -859.019 58.8757 -850.6 59.611C-843.841 60.1385 -837.045 59.8784 -830.288 60.4715C-823.531 61.0646 -817.263 60.9474 -810.766 61.404C-800.134 62.1392 -789.471 61.2768 -778.864 62.1648C-772.605 62.526 -766.331 62.5474 -760.07 62.229C-751.048 61.8639 -742.098 60.4684 -733.394 58.0698C-725.187 56.1722 -716.804 55.1341 -708.382 54.9725C-700.435 54.5812 -692.47 54.8262 -684.563 55.7051C-678.552 56.371 -672.536 55.7015 -666.578 56.8481C-664.145 56.9999 -661.704 56.9456 -659.281 56.6855C-637.996 57.1054 -616.734 57.5249 -595.449 57.9448C-586.274 58.1258 -577.077 58.3072 -567.912 58.9697C-561.349 59.4057 -554.773 59.2289 -548.389 59.8584C-537.917 60.897 -527.421 60.7538 -516.929 60.8294C-509.988 60.822 -503.055 60.3443 -496.178 59.3996C-490.249 58.6627 -484.28 58.1236 -478.332 57.5622C-471.177 56.8495 -464.043 56.1144 -456.867 55.4896C-454.365 55.2544 -451.801 55.1736 -449.325 55.1786C-444.267 55.2784 -439.2 54.9186 -434.157 54.6897C-425.388 54.3372 -416.494 54.3375 -407.715 54.6201C-398.148 54.9184 -388.504 54.6707 -378.932 55.801C-373.686 56.4081 -368.333 56.0101 -363.012 56.1151C-341.553 56.5384 -320.115 56.9614 -298.66 57.6254C-292.923 57.7386 -287.164 57.8522 -281.464 57.6363C-271.908 57.3374 -262.379 56.4432 -252.934 54.9587C-244.298 53.6183 -235.661 52.1904 -226.907 51.4873C-218.387 50.766 -209.828 50.6349 -201.291 51.0949C-190.349 51.683 -179.408 52.2711 -168.476 53.3406C-159.944 54.0743 -151.379 54.3383 -142.818 54.1314C-132.739 54.0456 -122.664 52.9964 -112.551 53.3711C-102.491 53.8956 -92.4848 55.1689 -82.6146 57.1802C-73.7759 58.8653 -64.9591 60.55 -56.0239 61.7772C-51.3779 62.427 -46.6925 62.7536 -42.0013 62.7545C-34.5969 62.7473 -27.1725 62.8281 -19.7646 62.6458C-11.0018 62.317 -2.22702 62.5266 6.51019 63.2736C9.61494 63.5757 12.7433 63.7907 15.8699 64.0932C22.1673 64.6772 28.4388 65.4578 34.6838 66.4787C40.5797 67.427 46.5017 68.1569 52.4213 69.0181C58.3409 69.8793 64.783 70.9041 70.9954 71.355C75.4792 71.7062 80.0112 71.8394 84.5207 71.9941C99.2976 72.4826 114.073 73.0588 128.86 73.0002C143.648 72.9416 158.973 73.441 174.021 73.4751C220.023 73.5287 265.998 74.9393 311.983 75.8027C369.683 76.941 427.386 77.9261 484.971 79.3467C492.482 79.4949 499.971 79.6426 507.444 79.4835C514.522 79.3604 521.629 78.8657 528.699 78.0418C535.769 77.2179 542.369 76.9102 549.195 76.2566C556.679 75.5066 564.145 74.603 571.632 73.7435C579.799 72.8318 588.007 72.0741 596.134 70.9426C605.075 69.6959 613.936 68.0096 622.857 66.6311C632.635 65.1162 642.411 63.6888 652.21 62.2619C664.424 60.5104 676.639 58.6933 688.872 57.1174C693.353 56.4206 697.877 56.0416 702.411 55.9832C705.192 56.0381 707.979 55.7646 710.764 55.6444C711.399 55.6569 712.014 55.5377 711.944 54.6605L714.134 54.7037C714.014 55.2049 714.116 55.5792 714.752 55.5479C720.234 55.2182 725.733 55.3267 731.197 55.8724C731.832 55.8849 732.426 55.7871 732.529 55.0009L736.208 55.0735C736.176 56.6931 737.547 56.0414 738.378 56.1235C743.058 56.5223 747.763 56.7465 752.467 57.0583C762.53 57.7385 772.556 59.2062 782.605 59.5139C807.934 60.3201 833.27 60.7761 858.608 61.1665C881.011 61.499 903.38 62.4439 925.777 62.0099C936.734 61.8101 947.669 62.7265 958.634 62.0889C965.521 61.6774 972.405 62.4919 979.336 62.0375C986.684 61.5694 994.083 61.8686 1001.47 61.861L1028.63 61.8276C1029.37 61.8423 1030.53 62.3029 1030.58 60.8589L1038.46 61.0144C1039.2 62.3865 1040.63 61.9768 1041.7 61.998C1052.41 62.2092 1063.15 62.1801 1073.88 62.3262C1076.66 62.381 1079.43 62.7204 1082.21 62.8409C1082.94 62.8552 1084.09 63.3815 1084.16 61.9159L1087.31 61.9782C1087.3 62.4597 1087.29 62.963 1087.89 62.9309C1091.18 62.6237 1094.44 63.8484 1097.73 63.5193C1101.57 63.3626 1105.41 63.5998 1109.2 64.2271C1110.23 64.2474 1111.38 64.5111 1112.3 64.5292C1120.69 64.6947 1129.02 65.5159 1137.35 66.1401C1146.78 66.8734 1156.2 67.9788 1165.57 69.2366C1174.48 70.4415 1183.42 71.6468 1192.28 73.2448C1196.89 74.0582 1201.62 74.2828 1206.3 74.6598C1214.89 75.3767 1223.56 74.6719 1232.15 75.367C1238.72 75.8686 1245.3 75.4511 1251.74 75.4468C1260.35 75.4414 1268.98 75.1739 1277.6 74.9278C1282.55 74.5419 1287.51 74.4061 1292.48 74.5208C1300.57 75.0965 1308.69 74.6216 1316.78 75.3067C1326.6 76.3565 1336.34 78.144 1345.9 80.6542C1352.03 82.1535 1358.25 83.314 1364.51 84.1305C1371.7 85.0825 1378.78 83.8646 1385.89 84.0488C1397.08 84.2695 1408.3 84.1405 1419.48 84.9522C1424.71 85.34 1429.99 85.1596 1435.24 85.3727L1437.43 85.4159C1438.29 85.4327 1439.07 85.7766 1439.01 86.7387C1438.94 87.7008 1438.05 87.5518 1437.37 87.5603L1379.06 86.4099C1376.71 86.3637 1374.38 86.7556 1372.04 86.8188C1361.75 87.0757 1351.49 85.5549 1341.72 82.3235C1333.94 79.8324 1325.87 78.3056 1317.71 77.7774C1310.19 77.1911 1302.68 76.9773 1295.19 77.0703C1284.47 77.2092 1273.79 77.8962 1263.11 78.3861C1249.01 79.0276 1234.94 78.4653 1220.89 77.991C1213.68 77.7394 1206.52 76.6785 1199.35 76.0116C1190.6 75.1603 1181.87 73.6524 1173.13 72.5604C1166.84 71.7794 1160.49 71.4572 1154.22 70.4796C1147.28 69.3792 1140.23 69.2401 1133.28 68.1179C1130.7 67.6952 1128.09 67.468 1125.47 67.4384C1118.49 67.4538 1111.51 66.8783 1104.58 66.3474C1074.43 64.0887 1044.27 64.2161 1014.09 63.8178C1005.46 63.6476 996.771 63.301 988.152 63.7878C981.573 64.1616 974.879 63.6793 968.239 63.7891C953.645 64.0486 939.035 63.9574 924.422 64.0851C916.556 64.1708 908.696 63.95 900.808 64.0353C877.079 64.2678 853.37 63.5154 829.656 62.9819C813.737 62.6678 797.82 62.2225 781.909 61.4707C775.343 61.1441 768.968 61.2154 762.516 60.694C753.765 60.0835 745.009 59.7575 736.413 59.0843C727.818 58.4112 719.28 58.1332 710.734 58.2493C698.628 58.313 686.552 59.467 674.652 61.6975C664.427 63.6853 654.085 64.9044 643.765 66.1677C630.83 67.7736 617.976 69.7533 605.178 72.2158C596.382 73.9033 587.593 75.2845 578.811 76.2935C570.028 77.3026 561.243 78.4649 552.464 79.2988C545.88 79.9353 539.304 80.134 532.724 80.5515C523.337 81.1108 513.938 81.21 504.553 81.6817C499.027 81.9668 493.6 81.6626 488.056 81.7503C459.786 82.2874 431.525 81.3138 403.284 80.4064C371.081 79.377 338.87 78.7196 306.655 78.2593C277.244 77.8323 247.836 77.2303 218.419 77.0878C187.25 76.9327 156.091 76.2523 124.935 75.4625C108.317 75.0252 91.6723 74.8063 75.0621 73.9751C67.5259 73.5061 60.0245 72.5904 52.5969 71.2329C45.2391 69.993 37.8282 69.2119 30.47 67.9939C11.2331 64.8337 -8.18193 65.1513 -27.5427 64.9446C-32.3383 64.8499 -37.1626 65.1051 -41.9573 64.9667C-53.9501 64.5253 -65.8784 63.0002 -77.5962 60.4101C-93.4971 56.7533 -109.805 55.1731 -126.113 55.709C-138.597 56.3385 -151.07 56.3917 -163.531 55.8685C-173.709 55.4269 -183.851 54.3072 -194.028 53.8218C-199.959 53.5515 -205.859 52.8002 -211.82 52.9235C-222.255 53.0811 -232.667 53.9658 -242.979 55.5711C-251.46 56.8926 -259.922 58.2802 -268.502 59.0305C-277.082 59.7808 -285.323 60.0343 -293.783 60.2177C-305.486 60.4904 -317.208 60.5876 -328.832 60.205C-341.091 59.788 -353.335 59.7216 -365.568 59.0643C-389.966 57.7071 -414.386 57.4443 -438.81 57.3566C-450.886 57.2047 -462.957 57.9178 -474.931 59.4903C-484.026 60.7998 -493.256 61.2088 -502.389 62.211C-510.706 63.1501 -519.084 63.4241 -527.444 63.0304C-550.248 61.9237 -573.067 61.583 -595.876 60.6732C-620.128 59.6912 -644.378 59.7164 -668.61 58.7785C-678.373 58.4327 -688.13 57.7585 -697.913 57.3028C-712.28 56.5531 -726.676 58.0796 -740.566 61.8256C-747.032 63.4396 -753.666 64.2862 -760.331 64.3476C-781.505 65.0247 -802.669 64.0598 -823.841 63.4669C-835.884 63.2293 -847.916 62.4008 -859.974 61.747C-871.221 61.131 -882.494 60.6896 -893.741 60.0299C-900.72 59.6075 -907.704 59.4041 -914.689 59.2444C-925.477 59.0466 -936.268 59.4844 -947.005 60.5555C-955.037 61.3166 -963.069 62.0558 -971.146 62.838C-983.963 64.186 -996.849 64.7799 -1009.74 64.6165L-1043.46 63.9512L-1169.54 61.42Z" fill="#31A3A3"/>
</g>
<defs>
<clipPath id="clip0">
<rect width="1441" height="113" fill="white" transform="translate(-2)"/>
</clipPath>
</defs>
</svg>
