<svg width="601" height="10" viewBox="0 0 601 10" fill="none" xmlns="http://www.w3.org/2000/svg">
<path d="M55.9538 6.59654C37.3767 6.21153 18.9324 6.09431 0.0299043 6.1776L0.0492309 4.99031C24.8163 4.65798 56.4582 4.63792 81.0664 5.63838C96.5745 6.2095 111.997 6.74347 127.421 7.29671C148.035 8.08359 201.224 7.72773 221.958 7.39574C235.383 7.15292 248.808 6.87155 262.227 6.39738C283.85 5.65161 305.52 5.09793 327.144 4.39072C350.325 3.6383 373.46 2.73235 396.608 2.34693C437.302 1.51507 477.988 0.355464 518.667 0.642489C531.473 0.599228 587.826 0.637264 600.226 1.96501L600.193 4.01115C583.506 2.02477 536.464 2.69537 519.133 2.50555C507.107 2.31651 495.05 2.42712 483.016 2.83689C462.619 3.77441 442.142 3.1703 421.699 3.97357C409.206 4.47088 397.164 4.45922 384.169 5.08061C371.175 5.70201 358.119 5.57222 345.123 6.13577C328.932 6.90682 312.686 7.17732 296.483 7.44711C271.444 7.97973 246.406 8.51235 221.401 8.69725C200.016 8.86044 146.12 9.24193 124.725 8.98098C117.271 8.89295 109.771 8.67066 102.312 8.40911C86.7208 7.87794 71.3721 6.93772 55.9538 6.59654Z" fill="#A79280"/>
</svg>
