<svg id="getinvolved-mask" width="1440" height="866" viewBox="0 0 1440 866" fill="none" xmlns="http://www.w3.org/2000/svg">
<path fill-rule="evenodd" clip-rule="evenodd" d="M1440 0.00371061H566H287.734C287.699 0.00156711 287.664 0.000329205 287.631 0H1440V0.00371061ZM1440 386.2C1412.75 357.106 1383.45 329.358 1366.5 324.004C1345.2 317.279 1288.73 366.143 1240.74 407.675C1203.09 440.252 1170.65 468.317 1164.5 461.504C1161.77 458.477 1148.17 472.635 1132.36 489.086C1113.14 509.098 1090.65 532.504 1080.5 532.504C1006.5 567.504 936.5 610.004 936.5 610.004C936.5 610.004 601 342.504 612 305.004C622.952 267.666 306.928 1.16398 287.734 0.00371061H287.5C287.531 0.00156466 287.562 0.000328829 287.595 0H0V866H1440V386.2Z" fill="#F5F1EC"/>
</svg>
