<svg id="svg-home-partners" width="476" height="601" fill="none" viewBox="0 0 476 601">
  <path d="M342.64 522.98c-.81.78-1.7 1.48-2.64 2.1a63.64 63.64 0 01-6.6 3.18 110.95 110.95 0 01-11.55 4.13c-5.19 1.41-10.5 2.6-15.92 1.84a12.93 12.93 0 00-10.04 2.78c-6.94 5.18-13.96 10.24-20.9 15.4a61.08 61.08 0 01-19.86 9.31c-6.36 1.83-12.7 3.72-19.04 5.6-.95.27-1.87.62-2.75 1.05-2.45 1.22-4.22 2.51-4.4 5.9-.36 6.66-.8 5.6 4.53 9.2a122 122 0 0016.68 9.3 98.43 98.43 0 009.82 3.74c2.59.76 5.3.97 7.99.61 7.32-.59 14.65-.87 21.97-1.46a66.6 66.6 0 007.92-1.41c3.36-.7 6.67-1.6 10.05-2.13 2.9-.43 5.75-1.2 8.48-2.28a51.6 51.6 0 016.3-1.89 4.6 4.6 0 014 .93 2.8 2.8 0 01-2.7 2.08c-2.74.28-5.19 1.41-7.7 2.34-2.1.71-4.21 1.31-6.36 1.8-3.24.82-6.55 1.42-9.73 2.44a33.9 33.9 0 01-12.5 1.96c-1.88-.05-3.76.01-5.63.18-5.06.27-10.1.58-15.14.86-2.87.2-5.75-.23-8.44-1.26-5.54-2.16-11.16-4.17-16.58-6.64a59.95 59.95 0 01-14.26-9.43 4.26 4.26 0 01-1.66-3.93c.17-1.37.55-2.71.8-4.08.15-.78.53-1.7.27-2.35-.63-1.55.14-2.54.98-3.52a17.3 17.3 0 017.02-4.8c1.6-.59 3.23-1.17 4.9-1.67 6.41-1.97 12.85-3.8 19.24-5.8a50.1 50.1 0 0013.32-6.58c4.72-3.23 9.46-6.43 14.17-9.68 2.94-2.03 5.89-4.16 8.83-6.18 1.4-.99 2.95-1.76 4.57-2.73-.14-.5-.35-.98-.62-1.43a48.1 48.1 0 00-4.78-5.56c-2.94-2.66-6.18-5.04-9.3-7.55-2.67-2.14-5.38-4.25-8.02-6.43-2.64-2.18-5.36-4.79-8.26-6.88-3.09-2.25-6.44-4.13-9.68-6.17-.16-.07-.3-.15-.44-.25-4.31-3.55-9.22-6.46-12.6-11.07a37.04 37.04 0 00-8.92-8.64 215.86 215.86 0 01-21.82-17.68c-2.49-2.24-4.83-4.63-7.3-6.87-3.8-3.48-6.02-8.12-9.16-12.09-3.8-4.8-7.47-9.7-11.03-14.67a103.03 103.03 0 01-7.23-11.08 72.5 72.5 0 01-4.72-11.37 177.37 177.37 0 01-4.9-16.7 79.1 79.1 0 01-1.21-26.34c.3-3.36 1.49-6.59 3.45-9.34 4.02-5.45 8.12-10.8 12.13-16.3 4.02-5.5 9.61-8.52 15.79-10.67a44.63 44.63 0 0113.41-2.7 24 24 0 018.69 1.14c3.37 1.17 6.82 2.21 10.3 3.07a69.75 69.75 0 0117.1 6.49c5.9 3.25 11.66 6.88 17.5 10.28 3.58 2.1 7.18 4.17 10.84 6.12 4.38 2.4 8.4 5.38 11.94 8.89 4.85 4.7 10.4 8.38 16.06 11.98a95.1 95.1 0 017.68 5.6c2.94 2.31 5.8 4.75 8.83 7.28a8.01 8.01 0 002.38-6c.14-2.47-.53-4.9-1.9-6.96a29.64 29.64 0 01-3.24-6.82 51.3 51.3 0 00-4.9-10.11c-1.26-2.03-3.46-2.95-5.38-4.17-1.7-1.1-3.42-2.2-5.15-3.27a22.17 22.17 0 00-3.79-2.24c-4.69-1.73-7.18-5.48-9.17-9.7-5.16-10.89-8.2-22.58-12.3-33.84-1.18-3.2-1.54-6.68-2.42-10-1.4-5.2-2.95-10.38-4.41-15.56-.06-.2-.25-.36-.57-.8-.73.9-1.45 1.66-2.02 2.5l-12.9 19.37a15.05 15.05 0 00-2.84 8.24 8.96 8.96 0 01-4.38 7.97c-.45.35-.94.65-1.46.88-4.17 1.36-7.3 4.3-10.57 6.98-1.84 1.5-2.01 1.47-3.93-.1a5.7 5.7 0 00-2.3-1.29c-2.38-.5-4.81-.79-7.23-1.2-.95-.12-1.9-.33-2.81-.62-2.45-.88-4.82-1.96-7.29-2.78-2.7-.91-5.48-1.6-8.2-2.47-1.08-.37-2.1-.87-3.07-1.47-3.27-1.97-6.48-4.12-9.73-6.14-.82-.52-1.72-.92-2.88-1.52-1.43 2.46-2.82 4.83-4.14 7.22a1956.4 1956.4 0 00-10.35 18.93c-1.27 2.38-2.38 4.83-3.5 7.28-1.58 3.5-3.14 7.01-4.66 10.53a257.83 257.83 0 00-3.1 7.47c-1.85 4.71-3.69 9.43-5.5 14.16a27.63 27.63 0 01-5.28 8.2c-2.77 3.11-5.6 6.18-8.3 9.34a37.18 37.18 0 00-3.47 4.75c-5.68 9.25-11.4 18.5-16.93 27.85-2.94 4.91-5.4 10.09-8.18 15.08-3.11 5.56-6.38 11.03-9.52 16.57-4.06 7.18-8.19 14.32-11.21 22.05-1.44 3.71-3.5 7.2-5.28 10.8-1.05 2.13-2.1 4.25-3.1 6.39-1.97 4.15-3.8 8.32-5.71 12.47a19.9 19.9 0 01-6.14 7.2 116.82 116.82 0 01-18.42 12.1c-3.6 1.83-6.71 4.62-10.06 6.96a4668.7 4668.7 0 01-19.96 13.8 11.23 11.23 0 00-3.43 3.76c-2.02 3.55-4.26 6.97-6.24 10.54-1.98 3.56-3.69 7.1-5.5 10.66-2.43 4.81-4.83 9.64-7.26 14.45a42.67 42.67 0 00-3.7 11.65c-.12.64-.14 1.3-.08 1.96.24 3.03 1.96 4.37 4.95 3.93 5.44-.8 9.15-4.22 12.05-8.5 3.76-5.53 7.04-11.4 10.8-16.92 3.2-4.62 6.77-9 10.32-13.36 3.3-4.06 8.01-6.12 12.5-8.45 2.19-1.12 4.43-2.1 6.66-3.12 2.42-1.11 4.9-2.17 7.85-2.03-.38 1.44-1.42 1.88-2.44 2.38-5.56 2.75-11.11 5.53-16.69 8.3a18.3 18.3 0 00-6.57 5.41c-4.14 5.57-8.94 10.63-12.57 16.6-2.63 4.32-5.37 8.6-8.3 12.77-2.92 4.17-6.55 7.55-11.7 8.75-1.65.42-3.36.5-5.05.26-2.68-.5-4.52-3.37-4.07-6.7a52.1 52.1 0 012.34-9.47c.9-2.46 2-4.84 3.27-7.12a879.27 879.27 0 0110.8-20.36c1.44-2.65 3.27-5.09 4.86-7.65.98-1.6 1.87-3.23 2.74-4.91a11.63 11.63 0 013.53-4l10.53-7.63c5.7-4.1 11.36-8.28 17.14-12.27 2.4-1.67 5.21-2.75 7.6-4.43 4.55-3.19 9.02-6.5 13.33-10a13.4 13.4 0 005.01-7.92c.18-.71.46-1.4.84-2.03 5.62-10.7 11.47-21.27 16.11-32.4 1.5-3.61 3.65-6.94 5.53-10.39 5.88-10.74 11.6-21.6 17.74-32.2 5.23-9.05 11.1-17.68 16.4-26.73 4.27-7.26 9.72-13.5 15.45-19.58a32.95 32.95 0 006.25-10.4c2.81-6.77 4.9-13.84 8.44-20.37 1.53-2.86 2.34-6.1 3.66-9.08a394.76 394.76 0 0112.94-26.4 54.56 54.56 0 013.72-5.43c.47-.65 1.06-1.22 1.84-2.09-.98-.9-1.9-1.79-2.87-2.62-1.42-1.25-1.59-1.65-.72-3.37.56-1.08 1.24-2.1 2-3.05a24.46 24.46 0 004.48-8.63c1.49-5.1 3.66-9.98 4.52-15.27.53-3.22 1.23-6.4 1.9-9.6a1.89 1.89 0 01.98-1.22c.13.58.19 1.17.18 1.76-.69 7.5-1.73 14.94-4.52 22a16 16 0 00-.76 2.6c-.78 3.6-2.4 6.97-4.73 9.82-.6.75-1.13 1.56-1.87 2.6 2.26 1.63 4.3 3.21 6.45 4.63 2.8 1.82 5.83 3.34 8.5 5.34 3.38 2.52 7.25 3.68 11.2 4.74 3.07.82 6.17 1.51 8.97 3.17.52.22 1.07.36 1.63.39 2.42.4 4.9.63 7.24 1.2 1.76.58 3.47 1.28 5.13 2.1.6-.6 1.54-1.46 2.4-2.38a17.66 17.66 0 016.75-4.74 16.3 16.3 0 002.4-1.23 5.07 5.07 0 002.95-5.16c.01-1.96.3-3.9.84-5.79.16-.88.66-1.67 1.4-2.19 1.38-.6 1.82-1.8 2.51-2.87 1.9-2.94 3.77-5.89 5.65-8.88 1.89-3 3.85-6.07 5.8-9.09.98-1.52 1.96-3.02 3.97-3.6l-1.74-8.13a5.89 5.89 0 012.64 3.62c1.79 5.16 3.56 10.34 5.37 15.64.25-.43.48-.87.68-1.32 1.86-5.06 3.71-10.12 5.55-15.19a8.62 8.62 0 013.55-3.92c2.94-2.07 5.88-4.09 8.65-6.39 3.72-3.12 7.57-5.95 12.26-7.46.59-.26 1.15-.6 1.67-.98 1.3-.8 2.64-1.57 3.92-2.39a17.9 17.9 0 002.21-1.5 6.92 6.92 0 015.42-1.8c2.1.25 4.17.64 6.25.97.88.16 1.77.26 2.66.3 6.78 0 13.56-.11 20.34.08 5.55.14 11.09.91 16.63.98 9.3.07 18.65 0 27.9-.43 8-.34 16-.04 23.96.87 2.83.31 5.7.4 8.55.63a3.93 3.93 0 013.15 1.33 3.04 3.04 0 01-2.95 1.21c-3.41-.16-6.87-.25-10.26-.49-5.13-.35-10.24-1.1-15.36-1.12-10.3 0-20.61.42-30.89.5-4.9 0-9.81-.34-14.66-.55-3.84-.15-7.66-.38-11.5-.48-8.4-.22-16.8-.4-25.21-.53a4.9 4.9 0 00-2.24.6c-1.5.61-2.91 1.43-4.2 2.43-2.5 2.31-5.88 2.75-8.63 4.41a57.6 57.6 0 00-6.99 4.92 67.08 67.08 0 01-9.42 7 7.62 7.62 0 00-2.75 2.7c-2.73 4.8-4.9 9.83-4.96 15.46a44.21 44.21 0 003.51 17.4c.34.63.75 1.23 1.2 1.79.28-.53.5-1.1.65-1.67.16-1.87.28-3.75.37-5.62.23-5.06.22-10.14.75-15.16.3-3.63 1.9-7.03 4.49-9.6 4.3-4.11 8.67-8.2 13.3-11.94a40.22 40.22 0 019.08-5c-.16.37-.23.86-.51 1.09-.91.83-1.9 1.57-2.95 2.21-5.95 3.4-10.86 8.04-15.75 12.77a17.67 17.67 0 00-5.75 12.76c-.1 1.14-.26 2.27-.48 3.4-.65 4.2.23 8.29.98 12.38a8.84 8.84 0 003.22 4.8 10.74 10.74 0 013.53 5.16c.36 1.18.87 2.3 1.5 3.34.45.82.87 1.85 2.22 1.33s2.1-1.24 1.96-2.71a82.32 82.32 0 00-1.09-6.78 71.4 71.4 0 01-1.8-15.54c0-1.46 0-2.94-.07-4.4-.13-2.88.63-5.51 3.11-7.08 4.79-3.01 8.43-7.16 12.07-11.36a2.85 2.85 0 012.4-1.31c.62.8 0 1.41-.42 1.96-3.41 4.15-6.59 8.58-11.23 11.53-3.06 1.96-3.88 4.48-3.84 8.06.07 4.98.48 9.96 1.22 14.88.3 2.02.71 4.01 1.24 5.98.22.59.65 1.06 1.21 1.34a13.17 13.17 0 015.49 4.74c.57.7 1.2 1.34 1.88 1.92.8.88 1.64 1.5 2.94 1.13 1.63-.46 3.19-1.1 3.93-2.62a4 4 0 00-.12-2.58c-.54-1.86-1.96-3.45-1.62-5.57 0-.23-.3-.56-.5-.77a6.25 6.25 0 01-1.85-4.68c0-4.15 0-8.33.34-12.46.31-1.76.98-3.43 1.96-4.91a23.8 23.8 0 017.18-7.61 7.78 7.78 0 011.62-.64c.35 1.3-.5 1.79-1.05 2.41-1.52 1.71-3.1 3.37-4.54 5.15a14.27 14.27 0 00-3.41 9.49c.06 2.6 0 5.21.1 7.85a5.27 5.27 0 002.28 4.12c1.78 1.4 3.67 2.71 4.8 4.82.48.65 1.1 1.2 1.8 1.6 1.18.85 2.34.43 3.46-.16a2.14 2.14 0 001.04-2.52c-.3-1.77-.73-3.5-1.1-5.25-.42-1.92-1.16-3.84-1.1-5.74a8.97 8.97 0 011.81-4.13 6.48 6.48 0 013.85-2.89 1.84 1.84 0 01-.98 2.44c-2.76 1.6-3.26 3.79-1.97 6.62.47 1.12.83 2.3 1.06 3.5.41 1.65.7 3.34.89 5.05.3 3.77-1.63 6.16-5.36 6.5-2.76.25-4.44-1.72-6.09-3.55-.6-.75-1.17-1.54-1.7-2.35-.55 1.32.1 1.96.36 2.62a6.57 6.57 0 01-6.57 9.02 4.47 4.47 0 01-2.58-1.17c-1.26-1.25-2.28-2.75-3.43-4.12-.94-1.1-1.97-2.14-3.26-3.6l-.35 2.1a5.44 5.44 0 01-4.04 4.14 3.19 3.19 0 01-3.33-1.6c-.98-1.6-1.75-3.3-2.63-4.96-.35-.81-.8-1.6-1.3-2.32-1.4-1.68-2.89-3.27-4.43-5-.88 1.67-1.23 3.93-3.87 3.65 0 .43-.14.7-.06.9 2.37 6.87 4.57 13.82 7.24 20.62 1.45 3.68 2.82 7.5 5.3 10.73a12.47 12.47 0 004.32 3.5c2.09 1.1 4.1 2.36 6.1 3.6 2.01 1.22 4.13 2.62 6.21 3.92 2.1 1.29 3.8 3.12 4.91 5.31a63.65 63.65 0 014.38 10.1 23.58 23.58 0 002.65 5.49c2.57 3.93 2.67 8.1 1.3 12.43-.23.61-.51 1.2-.84 1.77a2.04 2.04 0 00.6 2.82l2.88 2.28c2.74 2.18 5.45 4.4 8.24 6.53a49.3 49.3 0 004.25 2.84c1.88 1.13 3.92 2.05 5.72 3.28a28.29 28.29 0 009.49 4.36c1.95.58 3.8 1.48 5.46 2.67 3.72 2.44 7.85 3.48 12.13 4.3 2.8.55 5.55 1.3 8.29 2.11.84.3 1.6.82 2.19 1.5a1.65 1.65 0 01.16 1.53 1.56 1.56 0 01-1.45.34 68.96 68.96 0 00-13.84-3.71 24.54 24.54 0 01-9-3.7c-2-1.25-4.18-2.15-6.46-2.69-2.79-.7-5.38-2.28-8-3.58-2.4-1.2-4.75-2.52-7.09-3.84a26.05 26.05 0 01-3.68-2.37c-2.84-2.32-5.72-4.62-8.35-7.17a32.1 32.1 0 00-8.74-6.49c-1.53-.8-2.91-1.83-4.1-3.08-4.74-4.58-10.33-7.95-15.79-11.52a54.36 54.36 0 01-7.85-6.25c-4.95-4.8-10.16-9.18-16.38-12.27-1.53-.77-2.9-1.84-4.35-2.73a490.84 490.84 0 00-21.45-12.75 71.15 71.15 0 00-17-6.8 6.06 6.06 0 00-1.96-.17c-3.2.23-6.4-.32-9.33-1.6a2.1 2.1 0 00-1.68 0c1.69.73 3.41 1.4 5.06 2.21 2.12 1.05 4.26 2.08 6.25 3.31 6.87 4.3 12.34 10.13 17.3 16.46 2.52 3.22 4.84 6.6 7.56 9.65a6.93 6.93 0 011.6 6.71c-2.1 8.55-.26 16.56 3.2 24.33 1.88 4.24 3.57 8.61 6.42 12.37a20.28 20.28 0 002.76 3.1 67.84 67.84 0 0110.8 11.68 272.43 272.43 0 0123.55 39.28c3.7 7.55 7.67 14.97 11.29 22.59 3.02 6.33 5.68 12.84 8.53 19.26a59.13 59.13 0 007.65 12.23 66.98 66.98 0 007.85 9.07c.58.75 1.03 1.6 1.31 2.5.4.5.71 1.13 1.24 2.25zm-2.45-.51l-2.95-2.36c-2.8-2.3-4.81-5.3-7.02-8.14a77.36 77.36 0 01-10.96-19.05 213.64 213.64 0 00-14.4-29.47c-.71-1.2-1.3-2.46-1.9-3.7-6.13-12.77-12.65-25.29-20.7-36.94-3.75-5.45-7.54-10.92-12.75-15.16a27.36 27.36 0 01-7.28-9.7 175.77 175.77 0 01-4.28-9.64c-2.48-6.15-3.92-12.5-2.83-19.16.34-2.16 1.06-4.26 1.62-6.43-1.17-1.34-2.47-2.7-3.61-4.16-1.88-2.38-3.63-4.83-5.49-7.23-6.94-8.95-15.1-16.47-25.52-21.16-3.1-1.4-6.07-3.24-9.6-3.5l-.72-.09-.57-1.77c-.99.09-1.97.23-2.94.42-1.83.44-3.65.91-5.43 1.48-4.97 1.6-9.65 3.82-13.2 7.7-5.02 5.45-10.03 10.93-13.56 17.58a25.54 25.54 0 00-3.24 10.46c-.72 11.92.21 23.69 4.04 35.09 1.54 4.56 3.24 9.07 4.9 13.58.51 1.3 1.13 2.54 1.85 3.72 3.76 6.35 8.54 11.94 12.97 17.8 3.09 4.11 6.2 8.23 8.96 12.56a33.38 33.38 0 006.02 7.34c6.26 5.47 12.64 10.8 18.98 16.19a66.1 66.1 0 003.67 2.87c2.57 1.85 5.26 3.56 7.77 5.5a22.09 22.09 0 014.57 4.38 39.34 39.34 0 009.16 9.76c.2.13.39.29.56.47 1.72 2.26 4.12 3.68 6.45 5.17 1.11.7 2.18 1.45 3.21 2.25 3.93 3.16 7.85 6.37 11.78 9.52 4.9 3.93 9.81 8.03 14.97 11.78 4 2.95 6.87 6.98 10.23 10.46a3.69 3.69 0 002.63 1.36c4.78.33 9.38-1.12 14.1-1.39.33-.03.67-.12.98-.25 4.62-1.62 9.28-3.13 13.84-4.91a43.46 43.46 0 005.69-3.27v.04zM333.8 141.94a37.5 37.5 0 00-1.26-8.84 31.59 31.59 0 01-1.67-8.84 21.38 21.38 0 015.33-14.88c1.7-1.96 3.48-3.93 5.2-5.9 1.56-1.77 3.13-3.55 4.66-5.36 1.4-1.91 3.2-3.5 5.3-4.63a8.48 8.48 0 019.02.98 12.61 12.61 0 014.48 6.2c1.43 3.92 1.6 8.2.48 12.22a27.84 27.84 0 01-2.76 7.55c-1.96 3.39-3.77 6.87-5.75 10.25a10.8 10.8 0 01-2.45 2.95c-2.78 2.2-3.58 2.15-6.58.3a3.43 3.43 0 01-1.71-2.8c-.3-2.79-.34-2.79.53-4.3a4.62 4.62 0 011.08 3.38 2.64 2.64 0 001.24 2.5 2.34 2.34 0 003.13-.26 8.13 8.13 0 001.71-2.05c2.43-4.63 4.86-9.26 7.17-13.95a20 20 0 001.7-9.82c-.17-3.22-.99-6.62-3.93-8.9-2.11-1.65-4.26-2.03-6.54-.58-1.15.78-2.2 1.7-3.12 2.72-3.25 3.45-6.35 7.03-9.66 10.42-6.02 6.2-7.46 13.32-4.85 21.47.63 2.28 1.13 4.6 1.53 6.92.44 2.08.82 4.17 1.33 6.22.24.92.56 1.97-.34 2.43a3.13 3.13 0 01-2.5 0 7.2 7.2 0 01-2.58-2.15c-3.4-4.7-6.73-9.43-10-14.2a15.07 15.07 0 01-1.57-3.32 450.43 450.43 0 01-4-11.05 196 196 0 01-2.54-8.17c-1.1-3.75-3.93-5.57-7.75-4.91-.4.08-.8.13-1.21.16a3.19 3.19 0 01-3.53-2.37c-1.19-3.1-2.33-6.21-3.63-9.26a11.26 11.26 0 00-1.8-2.56 2.94 2.94 0 00-3.86-.98c-1.74.75-3.4 0-4.86-.98-2.01-1.24-3.88-2.7-5.89-3.93a5.05 5.05 0 01-2.67-4.12c-.1-.5-.25-.98-.45-1.45-1.96 1.62-3.79 3.04-5.49 4.63-3.7 3.45-8.12 5.7-12.57 7.97-4.9 2.54-9.75 5.28-14.66 7.86-2.37 1.25-4.8 2.38-7.26 3.47-1.34.61-2.8.99-4.11 1.6-4.98 2.46-9.98.74-13.66-2.9a20.7 20.7 0 01-6.05-16.94c.46-6.37 1.1-12.77 1.41-19.08.1-3.6-.03-7.22-.38-10.8a22.63 22.63 0 00-1.05-4.17c.3-1.4.58-2.55.8-3.71.8-3.72 2.89-7.03 5.9-9.34 1.68-1.42 3.32-2.89 5.08-4.23a7.43 7.43 0 002.83-5.48 16.86 16.86 0 019.04-13.98c2.57-1.41 4.9-3.22 7.53-4.58a45.55 45.55 0 0115.58-4.76c2.6-.26 5.2-.32 7.8-.2 3.34-.04 6.68-.3 9.99-.8 3.8-.37 7.61-.82 11.41-1.25.66-.05 1.32-.16 1.96-.3a37.27 37.27 0 0113.15-.8c1.46.12 2.92.17 4.4.12 5.34-.12 10.3 1.54 15.24 3.25.62.21 1.18.55 1.66.98 1.97 1.84 4 3.64 5.8 5.64a25.93 25.93 0 008.06 5.9c.22.1.45.2.69.27 5.8 1.85 9.81 5.96 13.29 10.7a26.8 26.8 0 012.73 5.7 56.3 56.3 0 012.96 11.33c.19 1.7.73 3.36 1.59 4.84a43.43 43.43 0 015.25 14.68c.52 2.64 1.1 5.27 1.69 7.86a26.89 26.89 0 010 12.87c-.64 2.44-1.16 4.9-1.77 7.36-.15.45-.34.9-.57 1.3-1.57-.74-1.88-1.5-1.4-3.28.48-1.79.9-3.3 1.4-4.91 1.09-3.66.68-7.31 0-10.93-.87-4.48-1.82-8.95-2.85-13.42a32.55 32.55 0 00-4.22-10.64 11.2 11.2 0 01-1.78-5.55c-.12-2.3-.69-4.54-1.68-6.61a30.14 30.14 0 01-1.17-3.22c-.18-.8-.43-1.58-.74-2.34-2.68-4.97-5.72-9.54-11.07-12-2.09-.98-4.17-1.9-6.18-2.95-4.54-2.43-7.4-6.59-10.38-10.55a4.9 4.9 0 00-2.86-2.06c-8.6-2.3-17.43-2.61-26.26-2.12-.97.1-1.94.26-2.89.5-3.19.66-6.36 1.44-9.56 1.97-2.58.45-5.18.64-7.77.98-1.78.21-3.56.52-5.35.64a17.6 17.6 0 01-4.13-.12c-3.7-.67-7.29-.09-10.9.62-7.31 1.44-13.42 5.48-19.55 9.38a13 13 0 00-5.8 9.03c-.17.98-.25 1.97-.45 2.95a8.44 8.44 0 01-2.95 5.21c-2.09 1.58-4.26 3.21-6.22 5-2.62 2.36-5.21 4.81-5.4 8.7-.05.71.05 1.44.32 2.11 2.07 4.84 3 10.08 2.75 15.33-.2 5.9-.54 11.79-.99 17.62a26.8 26.8 0 001.32 12.06 11.78 11.78 0 007.4 7.3c1.57.43 3.23.38 4.77-.13 2.9-.84 5.67-2.07 8.49-3.18.82-.35 1.62-.76 2.4-1.23 4.44-2.57 8.82-5.21 13.33-7.73 3.06-1.72 6.27-3.17 9.31-4.9a46.43 46.43 0 0010.35-8.55c2.25-2.38 4.33-1.97 5.41 1.12.04.07.06.15.07.23 0 3.1 2.39 4.42 4.57 5.9.44.21.85.47 1.24.76 1.82 1.76 3.75 2.72 6.42 1.86a4.1 4.1 0 012.89.84c3.01 2.05 4.24 5.2 5.2 8.58.58 1.85 1.3 3.66 2.15 5.4.41.93 1.4.8 2.18.6 2.34-.58 4.35.37 6.3 1.4a7.6 7.6 0 013.59 4.45c1.67 4.68 3.5 9.32 5.24 13.96.53 1.2.98 2.44 1.33 3.7 1.01 4.05 2.95 7.82 5.67 11 1.7 2.16 3.47 4.27 5.22 6.4l.53-.3z" class="animate dark-beige"/>
  <path d="M475.64 142.77c-.1 1.54-1.05 1.88-1.96 2.05a5.13 5.13 0 01-4.42-.9 41.72 41.72 0 00-8.54-5.2 20.55 20.55 0 01-2.95-1.8 14.58 14.58 0 00-5.73-2.62c-1.43-.32-2.8-.88-4.05-1.65a71.72 71.72 0 01-7.37-4.8c-3.93-3.06-8.55-3.93-13.3-4.25a50.61 50.61 0 00-15.32.98c-5.39 1.25-10.94 1.86-16.41 2.74-.4.06-.8.08-1.38.14-.79 3.93-3.56 6.7-5.78 9.82a43.69 43.69 0 00-6.12 12.2c-1.25 3.94-2.43 7.8-3.84 11.64a39.83 39.83 0 01-10.72 15.6c-3.12 2.89-6.15 5.9-9.48 8.49-5.52 4.33-11.78 6.54-18.94 5.8-2.66-.29-5.35-.53-8-.98a25.9 25.9 0 01-4.64-1.45c-.83-.31-1.56-.87-1.3-1.96.25-.1.44-.27.53-.23a15.93 15.93 0 007.63 1.35c1.4-.04 2.78.08 4.14.34 6.45 1.12 12.13-.98 17.38-4.4a53.3 53.3 0 005.75-4.9c2.33-2.05 4.78-3.94 7-6.14 4.26-4.08 7.4-9.2 9.08-14.86a116.5 116.5 0 015.54-15.44c1.68-3.66 4.38-6.88 6.64-10.24.98-1.46 1.97-2.94 3.29-4.77-2.02-.22-3.52-.5-5.02-.55-8.73-.3-14.63-5.3-19.63-11.78a3.75 3.75 0 01-.82-1.49 1.6 1.6 0 01.4-1.3 1.44 1.44 0 011.32-.16c.62.38 1.2.83 1.7 1.35 3.11 2.9 6.61 5.34 10.4 7.26 1.24.6 2.57 1 3.93 1.23 3.14.48 6.3.8 9.48 1.13.8.1 1.63.1 2.44 0 5.55-.98 11.09-1.96 16.63-2.9 5.25-.85 10.6-.87 15.86-.06 2.94.44 6.03.52 8.78 1.97 1.35.72 2.8 1.31 4.11 2.12 2.78 1.7 5.47 3.56 8.25 5.26.98.58 2.03 1.01 3.13 1.29a19.4 19.4 0 015.94 2.82c2.5 1.69 5.1 3.21 7.69 4.77 2.79 1.68 5.04 4.4 8.68 4.48zM252.94 294.16a1.78 1.78 0 01-2.69.58 22.74 22.74 0 01-3.2-2.21 20.6 20.6 0 00-12.69-5.16 16.08 16.08 0 01-8.44-2.95c-2.5-1.7-5.11-3.24-7.48-5.1-3.92-3.06-8.13-5.76-10.99-9.97-4.16-6.12-7.05-12.69-7.3-20.21-.28-8.77-.23-17.53 1.9-26.1a70.82 70.82 0 013.6-10.11 21.28 21.28 0 001.6-7.86c.06-3.6.88-7.16 2.41-10.42 1.59-3.4 2.86-6.98 4.71-10.22 3.2-5.59 7.94-9.9 12.5-14.38 3.28-3.23 7.5-4.9 11.25-7.33a1.72 1.72 0 012.6.6c-1.48 1.28-3.01 2.49-4.61 3.6-5.13 3.23-8.94 7.87-13.11 12.09-6.09 6.2-9.34 13.91-11.9 22-.4 1.5-.66 3.03-.77 4.57a26.56 26.56 0 01-3.1 9.45 29.58 29.58 0 00-2.95 9.04c-.75 4.76-1.18 9.56-1.31 14.38-.18 5.9-.4 11.79 1.36 17.54 1.55 5.03 3.68 9.87 7.47 13.61a40.87 40.87 0 009.52 7.2 77.4 77.4 0 016.87 4.2 15.8 15.8 0 006.57 2.5c5.04.78 9.71 3.1 13.4 6.62 1.51 1.3 3.1 2.58 4.78 4.04zM183.78 422.64c-.25.72-.53 1.43-.85 2.12-3.56 6.61-7.14 13.21-10.74 19.8-1.96 3.56-5 6.22-7.77 9.08-1.2 1.23-2.37 2.48-3.54 3.72-.98.98-1.82 2.1-2.85 3.02-5.54 5.1-10.7 10.6-15.45 16.44-5.45 6.51-10.53 13.34-16.16 19.64a90.87 90.87 0 01-12.98 12.57 31.22 31.22 0 00-9.53 12.85c-.16.37-.26.78-.3 1.19-.46 5.32-2.94 9.96-4.82 14.83-2.78 7.18-7.17 13.35-11.5 19.59-1.67 2.41-3.24 4.9-5.07 7.2a60.12 60.12 0 01-5.08 5.3 21.25 21.25 0 00-5.55 8.51 19.24 19.24 0 01-7.17 9.4c-1.47 1.06-3 .65-4.45.1a9.81 9.81 0 01-6.45-10.18c.31-5.58 2.87-10.2 6.22-14.4a89.38 89.38 0 0011.09-18c.15.7.37 1.14.26 1.46a35.03 35.03 0 01-1.78 4.8 88.86 88.86 0 01-7.85 13.24 25.69 25.69 0 00-5 9.75 18.34 18.34 0 00-.54 4.12 7.71 7.71 0 005.33 7.17 2.62 2.62 0 003.08-.62 25.35 25.35 0 005.58-7.98 23.95 23.95 0 016.58-9.3c2.7-2.26 5.06-4.91 6.98-7.86 2.07-3.13 4.29-6.17 6.48-9.21 4-5.57 6.5-11.88 8.98-18.18a44.72 44.72 0 002.94-10.8c.25-1.86 1.4-3.65 2.33-5.36 3.48-6.39 8.74-11.13 14.55-15.3a35.23 35.23 0 006.87-6.63c2.94-3.62 5.99-7.12 8.97-10.7 1.41-1.68 2.86-3.36 4.16-5.13 5.05-6.98 11.21-12.87 17.24-18.99 4.76-4.78 9.07-10.02 13.46-15.17 1.14-1.34 1.63-3.22 2.7-4.62 2.58-3.32 4.29-7.09 6.2-10.8.98-1.8 2.01-3.56 3.12-5.27.53-.65 1.12-1.25 1.76-1.8l.55.4z" class="animate dark-beige"/>
  <path d="M348.5 143.06a3.42 3.42 0 01.75 3.76c-.69 2.6-1.26 5.26-2.16 7.8-1.3 3.67-2.38 7.4-4.55 10.8a64.03 64.03 0 01-6.08 7.65 59.27 59.27 0 01-5.74 5.68 39.05 39.05 0 01-5.55 4.01 41.97 41.97 0 00-9.37 7.42 104.12 104.12 0 01-7.66 7.2 26.5 26.5 0 01-9.64 5.16c-2.72.85-5.44 1.74-8.2 2.35a6.56 6.56 0 01-4.05-.23 52.1 52.1 0 01-6.25-4.16c-.38-.28-.6-.88-.98-1.06-2.8-1.26-4.45-3.79-6.6-5.76a8.78 8.78 0 00-2.28-1.3 19.6 19.6 0 00-1.84-.64c-3.4-1.24-4.4-4.08-4.83-7.3 0-.16.25-.37.41-.61 1.33.12 1.66 1.16 2.1 2.1 1.39 2.94 3.5 4.2 6.7 3.54 3.02-.63 6.07-1.29 8.67-3.15.74-.4 1.52-.73 2.32-.98-1.24 5.19-5.84 5.14-9.29 7.08a22.28 22.28 0 004.76 4.1c.99.59 1.76 1.42 2.7 2.06a97.36 97.36 0 005.3 3.4 2.4 2.4 0 001.67.1 94.8 94.8 0 006.58-1.87c2.16-.73 4.4-1.74 6.62-2.51a17.47 17.47 0 006.2-4.27c5.04-4.77 9.93-9.72 15.97-13.26 2.27-1.31 4.3-2.97 6.06-4.91a106 106 0 015.3-5.42c2.55-2.49 4.17-5.64 6.15-8.53.38-.53.69-1.1.9-1.73 1.3-4.71 2.58-9.43 3.82-14.16.32-1.34.3-1.35 2.1-2.35zM424.08 286.3c-.87 1.28-2.17 1.2-3.32.98-2.56-.49-5.1-1.15-7.62-1.78a294.58 294.58 0 01-13.68-3.74c-3.43-1.05-6.87-2.15-10.29-3.16-.46-.1-.93-.02-1.33.22-1.66 1.05-3.38 2.02-4.45 3.78-.43.6-.9 1.16-1.4 1.7a3.84 3.84 0 01-3.83 1.62c-.9-.12-1.8 0-2.64.33-7.78 2.85-15.97 3.32-24.08 4.13-3.32.34-6.67.43-10 .62-.41.04-.82.04-1.22 0-3.11-.34-3.73-1.13-3.4-4.23.1-.98.07-1.96.23-2.95.06-.39.45-.72.84-1.31 1.19 1.96.57 3.93 1.14 5.9.81.14 1.64.23 2.46.24 3.83-.27 7.65-.6 11.47-.93 2.2-.2 4.38-.53 6.58-.67 4.07-.38 8.08-1.2 11.97-2.44 2.18-.62 4.48-.86 6.67-1.44a4.55 4.55 0 002.37-1.47c1.56-2 3.46-3.7 5.6-5.05a3.56 3.56 0 013.67-.36c5.88 2.2 11.94 3.88 18.13 5 3.2.56 6.3 1.66 9.46 2.48 1.42.37 2.86.67 4.3.94a2.72 2.72 0 012.37 1.59zM232.54 134.5a4.92 4.92 0 012.81 2.94c2.6 5.64 5.1 11.31 7.65 16.98.6 1.43 1.32 2.81 2.18 4.11a16.16 16.16 0 001.96-10.28 4.82 4.82 0 011.7 3.83c.01 1.71-.16 3.42-.53 5.09-1.04 4.48-.54 6.16 3.19 8.78 1.18.7 2.42 1.32 3.7 1.81a2.62 2.62 0 002.79-.31c2.54-1.87 5.3-1.83 8.17-.98.4.1.78.23 1.18.31 2.7.57 4.11-.98 3.28-3.64a34.29 34.29 0 00-1.43-3.34c2.1.09 2.71 1.5 3.22 2.77a5.1 5.1 0 01-.6 5.53c-1.36 1.58-3.15 1.52-4.97 1.1-.71-.18-1.4-.47-2.1-.64a5.05 5.05 0 00-5.02 1.06 4.98 4.98 0 01-5.89.84c-3.6-1.6-6.71-3.7-8.28-7.52a2.83 2.83 0 00-.79-1.2c-1.86-1.42-2.66-3.47-3.48-5.53-2.32-5.84-4.62-11.7-6.94-17.53-.52-1.3-1.07-2.53-1.8-4.19zM217.08 103.18a5.3 5.3 0 012.94 3.84 55.27 55.27 0 011.74 9.13c.3 4.86 2.8 7.91 6.81 10.25a72.77 72.77 0 0112.47 8.58c.53.48.98 1.04 1.52 1.62a2.46 2.46 0 01-3.02.6c-.6-.28-1.16-.6-1.68-.99-4.1-2.67-8.24-5.27-12.25-8.06-3.85-2.67-6.37-6.15-6.52-11.14a79.5 79.5 0 00-1.09-9.23c-.24-.95-.57-1.88-.98-2.77-.17-.51-.3-.98-.45-1.54l.5-.29zM256.01 136.16c-.12-.98.6-1.28 1.3-1.52a31.01 31.01 0 019.53-1.97c5.61-.18 11.22-.77 16.85-1.13a54.1 54.1 0 015.36 0 4.4 4.4 0 012.1.58c.58.37.99.95 1.16 1.62.11.9-.56 1.48-1.5 1.6-.33.08-.66.1-.99.06-4.46-1.24-8.92.16-13.38.1-3.59 0-7.19-.06-10.8.14-2.34.2-4.67.53-6.99.98-.93.17-1.9.47-2.64-.46z" class="animate dark-beige"/>
  <path d="M257.17 172.93c.91 1.42 1.91 2.79 2.7 4.26.99 1.79 2.16 2.74 4.33 2.2a4.1 4.1 0 012.87.07c2.73 1.72 5.72.76 8.57 1.15 3.93.55 7.8-.4 11.64-1.1 1.16-.2 2.44-.73 3.3 1.1-.58.48-1.25.87-1.95 1.15-2.95.64-5.9 1.51-8.9 1.58a36.47 36.47 0 01-8.94-1.19c-2.2-.55-4.49-.55-6.68 0-2.13.57-3.72 0-4.72-1.54a44.05 44.05 0 01-2.95-6.38c-.12-.29.12-.73.19-1.1l.54-.2zM353.25 112.03c-1.5.2-1.96 1.61-2.78 2.53-.55.6-.87 2.13-1.86 1.37-1.18-.9.33-1.66.82-2.33.67-.92 1.48-1.74 2.39-2.42 1.41-.99 2.23-.66 3.09.85a3.56 3.56 0 010 3.93c-1.46 2.34-2.78 4.8-4.46 7a5.51 5.51 0 01-7.26 1.16 3.02 3.02 0 01-1.44-3.12 63 63 0 01.55-3.63c.15-.82.32-1.54-.47-2.2-.8-.67-.4-1.42.21-1.9a1.32 1.32 0 011.17-.28 1.3 1.3 0 01.91.77c.34.73.5 1.53.44 2.34-.1 1.37-.43 2.74-.6 4.11-.28 1.97.48 2.7 2.48 2.53a4.66 4.66 0 003.45-2.09c1.29-1.77 2.54-3.6 3.71-5.45.74-1.15.63-1.19-.35-3.17zM265.57 142.08l3.46.68c1.96.38 3.92.9 5.96 1.14 3.74.44 7.25-.59 10.65-2.08 1.16-.44 2.35-.81 3.55-1.11a3.82 3.82 0 01-2.64 4.04 33.2 33.2 0 01-7.45 2.17c-4.86.6-9.32-.98-13.35-3.67-.18-.12-.26-.38-.38-.58l.2-.59z" class="animate dark-beige"/>
</svg>