<svg class="animate-early" width="711" height="711" viewBox="0 0 711 711" fill="none" xmlns="http://www.w3.org/2000/svg">
<circle cx="355.478" cy="355.588" r="355" fill="#DEA35D"/>
<path class="cream" d="M362.075 542.199C329.35 542.691 297.241 539.127 266.36 527.512C249.499 521.502 233.218 513.974 217.719 505.019C207.665 499.283 199.081 491.289 192.646 481.667C185.394 470.605 186.992 459.82 194.52 450.049C200.45 442.336 208.04 436.16 214.708 429.154C235.971 406.877 257.019 384.416 277.145 361.125C287.634 349.239 298.786 337.955 310.545 327.325C319.438 319.388 327.074 310.146 333.191 299.916C334.514 297.558 336.035 295.317 337.739 293.218C346.957 282.248 353.379 282.218 364.471 289.131C369.256 292.637 373.411 296.928 376.762 301.821C392.341 321.272 409.364 339.493 425.034 358.851C433.976 369.882 441.289 382.265 451.091 392.651C466.116 408.537 479.053 426.143 493.371 442.582C498.902 448.912 506.123 453.644 511.224 460.496C516.325 467.348 519.705 473.739 518.875 482.005C518.74 484.894 517.938 487.713 516.53 490.241C515.123 492.768 513.149 494.934 510.763 496.57C510.016 497.205 509.095 497.601 508.12 497.706C502.682 497.092 498.902 500.626 494.785 503.053C476.041 514.023 457.083 524.562 436.403 531.598C420.602 536.921 404.182 540.195 387.547 541.339C379.005 542.23 370.555 542.168 362.075 542.199ZM359.555 502.654C374.02 503.039 388.49 502.113 402.788 499.888C426.325 495.924 447.127 485.416 467.499 473.678C469.343 472.602 469.343 471.988 467.929 470.605C462.878 465.249 457.367 460.344 451.46 455.948C443.932 450.836 437.104 444.762 431.149 437.881C412.191 413.945 393.201 390.039 377.807 363.521C371.535 351.697 363.78 340.721 354.731 330.859C348.586 324.713 346.527 324.959 341.242 331.381L339.859 333.102C306.981 374.798 274.226 416.587 240.181 457.362C237.446 460.65 232.161 463.907 233.267 467.686C234.373 471.466 239.75 473.217 243.591 475.399C258.358 483.417 273.957 489.795 290.112 494.419C312.696 501.332 335.987 503.022 359.555 502.654Z" />
<path class="cream" d="M312.544 200.545C312.544 177.623 334.053 158.449 356.76 160.293C371.724 161.522 384.415 173.352 388.071 191.02C389.363 196.682 389.331 202.566 387.976 208.214C386.622 213.862 383.981 219.121 380.262 223.581C376.542 228.041 371.842 231.583 366.53 233.929C361.217 236.276 355.434 237.365 349.632 237.11C328.031 236.465 312.575 221.194 312.544 200.545Z" />
</svg>
