<svg class="animate-early" width="710" height="710" viewBox="0 0 710 710" fill="none" xmlns="http://www.w3.org/2000/svg">
<path class="cream" d="M180.301 467.842H194.674C195.882 467.842 196.859 467.842 197.003 466.174C198.085 458.379 201.666 451.146 207.208 445.559C211.929 439.799 215.669 433.301 218.276 426.324C228.366 401.712 241.274 378.452 251.335 353.783C255.025 345.241 259.861 337.242 265.709 330.005C275.18 317.456 283.095 303.804 289.282 289.35C297.906 269.683 309.405 251.512 319.811 232.795C327.889 218.246 334.904 203.18 342.464 188.401C345.018 182.861 348.677 177.9 353.216 173.824C360.316 167.901 364.714 168.821 369.429 176.843C382.419 199.909 393.876 223.806 403.725 248.378C411.343 267.153 418.098 286.273 427.613 304.301C435.95 320.258 445.552 335.497 453.802 351.483C463.001 369.309 471.971 387.25 481.17 405.048C486.09 414.402 491.998 423.202 498.792 431.298C502.956 436.055 506.289 441.478 508.652 447.342C509.054 448.406 509.428 449.125 510.693 449.24C521.301 450.131 531.161 454.185 541.424 456.456C543.35 456.859 545.247 457.29 547.173 457.606C558.04 459.504 563.703 467.842 561.547 478.682C558.672 492.799 545.477 501.424 532.656 495.933C510.061 486.128 487.235 488.141 464.525 493.345C434.971 500.472 404.781 504.642 374.402 505.795C364.772 506.082 355.113 505.795 345.483 506.14C324.698 507.175 304.345 504.041 283.906 500.849C269.532 498.636 255.159 496.393 240.469 498.981C235.761 499.73 231.139 500.943 226.67 502.603C219.08 505.593 211.046 507.303 202.896 507.664C192.806 508.037 182.773 508.181 172.596 507.664C161.701 507.204 154.831 498.463 155.003 486.272C154.925 481.328 156.791 476.551 160.2 472.969C163.609 469.388 168.288 467.289 173.229 467.123C175.615 467.123 178.03 467.123 180.445 467.123L180.301 467.842ZM361.409 227.36C359.369 233.044 356.512 238.401 352.928 243.26C336.887 267.182 321.737 291.621 310.353 318.188C296.938 349.489 282.306 380.158 266.456 410.194C258.723 424.772 251.364 439.521 243.114 453.84C242.625 454.702 240.67 456.37 243.89 456.341C259.873 456.169 275.512 458.699 291.438 460.74C303.713 462.35 315.844 465.053 328.263 465.341C340.107 465.599 351.922 465.024 363.737 465.024C375.257 465.077 386.772 464.52 398.234 463.357C412.451 461.611 426.532 458.892 440.377 455.22C450.383 452.797 460.532 451.011 470.763 449.872C464.554 441.246 459.063 432.621 453.975 423.794C441.211 401.511 429.856 378.452 416.603 356.486C410.193 345.905 402.603 336.043 397.4 324.858C390.788 310.482 386.649 295.158 381.733 280.149C375.811 262.467 367.819 245.704 361.437 227.504L361.409 227.36Z" />
</svg>
