<svg class="animate-early" width="710" height="710" viewBox="0 0 710 710" fill="none" xmlns="http://www.w3.org/2000/svg">
<circle cx="355" cy="355" r="355" fill="#C7B5A3"/>
<path class="cream" d="M223.613 203.994C249.348 203.83 274.759 209.742 297.779 221.25C310.481 227.353 323.533 232.696 335.738 239.675C343.248 244.152 350.214 249.482 356.499 255.559C358.164 257.106 359.185 257.34 361.142 255.851C375.419 244.217 390.941 234.199 407.423 225.981C423.541 218.389 438.9 209.191 455.806 203.293C471.57 197.607 488.015 194.024 504.715 192.636C519.328 191.206 534.077 192.192 548.369 195.556C554.118 197.067 559.652 199.304 564.837 202.213C566.196 202.899 567.385 203.878 568.319 205.08C569.254 206.282 569.909 207.676 570.239 209.162C570.886 211.861 572.156 214.371 573.947 216.491C577.948 221.776 576.867 228.17 576.867 234.01C576.867 237.485 576.546 240.989 576.517 244.463C576.342 261.72 574.794 278.859 573.071 295.97C571.786 309.051 570.735 322.248 569.363 335.213C566.618 361.112 567.115 387.099 567.523 413.085C567.786 431.334 568.487 449.613 568.808 467.891C569.013 479.074 560.515 487.396 547.609 485.001C546.137 484.707 544.643 484.54 543.142 484.505C525.272 484.505 507.431 484.067 489.59 484.709C471.019 485.352 452.244 486.053 434.52 492.301C420.504 497.265 406.635 502.783 392.677 507.981C389.997 509.115 387.426 510.493 384.998 512.098C384.155 512.606 383.423 513.28 382.846 514.077C382.269 514.875 381.859 515.781 381.64 516.74C378.924 527.252 365.201 532.654 356.412 526.23C337.169 512.069 315.328 504.156 292.436 498.55C280.511 495.336 268.399 492.859 256.17 491.133C243.561 489.77 230.85 489.613 218.211 490.666L195.932 492.272C188.749 492.797 181.565 493.673 174.353 493.849C172.495 494.008 170.683 494.513 169.01 495.338C158.002 500.01 144.599 493.469 142.146 482.374C141.563 479.844 141.916 477.189 143.139 474.899C146.059 469.351 145.417 463.599 144.424 457.847C142.905 448.795 141.153 439.802 139.401 430.78C139.072 428.714 138.945 426.621 139.022 424.531C139.022 360.022 139.022 295.512 139.022 231.003C139.022 220.637 143.811 214.652 154.06 213.484C162.084 212.216 170.037 210.53 177.886 208.432C187.112 206.498 196.474 205.288 205.889 204.812C211.769 204.11 217.693 203.837 223.613 203.994V203.994ZM213.948 234.653C201.499 234.144 189.033 235.016 176.777 237.251C173.127 237.981 172.484 239.441 172.484 242.741C172.601 285.76 172.601 328.789 172.484 371.828C172.484 386.018 172.484 400.209 172.309 414.399C172.134 428.59 175.229 442.576 176.923 456.62C177.302 459.54 178.441 460.416 181.361 460.183C194.676 459.161 208.02 458.022 221.364 457.496C242.18 456.271 263.065 457.823 283.471 462.11C309.751 467.949 335.534 474.607 359.069 488.155C359.574 488.534 360.189 488.739 360.821 488.739C361.452 488.739 362.067 488.534 362.573 488.155C372.361 481.836 382.678 476.375 393.407 471.833C405.306 466.207 417.651 461.577 430.315 457.993C452.594 451.919 475.458 450.664 498.408 450.401C508.774 450.401 519.14 449.992 529.476 450.897C535.316 451.394 535.316 451.131 534.966 445.291C534.966 443.452 534.528 441.612 534.47 439.744C534.119 430.458 534.148 421.144 533.886 411.83C533.302 391.099 533.331 370.338 534.44 349.607C534.791 343.447 535.375 337.315 535.988 331.183C537.01 320.555 538.236 309.927 539.229 299.298C540.076 290.042 540.718 280.757 541.507 271.501C542.704 256.902 543.463 242.011 543.434 227.236C543.434 225.747 543.054 224.783 541.536 224.316C534.449 222.058 527.134 220.589 519.724 219.936C510.288 219.551 500.837 220.03 491.488 221.367C479.383 222.943 467.474 225.771 455.952 229.806C434.316 237.923 415.394 250.537 397.554 264.844C387.671 272.999 377.188 280.397 366.193 286.976C364.073 288.238 361.636 288.869 359.17 288.797C356.703 288.724 354.308 287.951 352.265 286.568C348.878 284.524 345.637 282.246 342.25 280.173C330.833 273.195 320.701 264.202 308.437 258.508C288.954 249.574 268.73 242.354 247.994 236.93C236.869 234.01 225.335 234.74 213.948 234.653Z" />
</svg>
