<svg class="animate-early" width="710" height="710" viewBox="0 0 710 710" fill="none" xmlns="http://www.w3.org/2000/svg">
<circle cx="355" cy="355" r="355" fill="#305F56"/>
<path class="cream" d="M176.301 471.842H190.674C191.882 471.842 192.859 471.842 193.003 470.174C194.085 462.379 197.666 455.146 203.208 449.559C207.929 443.799 211.669 437.301 214.276 430.324C224.366 405.712 237.274 382.452 247.335 357.783C251.025 349.241 255.861 341.242 261.709 334.005C271.18 321.456 279.095 307.804 285.282 293.35C293.906 273.683 305.405 255.512 315.811 236.795C323.889 222.246 330.904 207.18 338.464 192.401C341.018 186.861 344.677 181.9 349.216 177.824C356.316 171.901 360.714 172.821 365.429 180.843C378.419 203.909 389.876 227.806 399.725 252.378C407.343 271.153 414.098 290.273 423.613 308.301C431.95 324.258 441.552 339.497 449.802 355.483C459.001 373.309 467.971 391.25 477.17 409.048C482.09 418.402 487.998 427.202 494.792 435.298C498.956 440.055 502.289 445.478 504.652 451.342C505.054 452.406 505.428 453.125 506.693 453.24C517.301 454.131 527.161 458.185 537.424 460.456C539.35 460.859 541.247 461.29 543.173 461.606C554.04 463.504 559.703 471.842 557.547 482.682C554.672 496.799 541.477 505.424 528.656 499.933C506.061 490.128 483.235 492.141 460.525 497.345C430.971 504.472 400.781 508.642 370.402 509.795C360.772 510.082 351.113 509.795 341.483 510.14C320.698 511.175 300.345 508.041 279.906 504.849C265.532 502.636 251.159 500.393 236.469 502.981C231.761 503.73 227.139 504.943 222.67 506.603C215.08 509.593 207.046 511.303 198.896 511.664C188.806 512.037 178.773 512.181 168.596 511.664C157.701 511.204 150.831 502.463 151.003 490.272C150.925 485.328 152.791 480.551 156.2 476.969C159.609 473.388 164.288 471.289 169.229 471.123C171.615 471.123 174.03 471.123 176.445 471.123L176.301 471.842ZM357.409 231.36C355.369 237.044 352.512 242.401 348.928 247.26C332.887 271.182 317.737 295.621 306.353 322.188C292.938 353.489 278.306 384.158 262.456 414.194C254.723 428.772 247.364 443.521 239.114 457.84C238.625 458.702 236.67 460.37 239.89 460.341C255.873 460.169 271.512 462.699 287.438 464.74C299.713 466.35 311.844 469.053 324.263 469.341C336.107 469.599 347.922 469.024 359.737 469.024C371.257 469.077 382.772 468.52 394.234 467.357C408.451 465.611 422.532 462.892 436.377 459.22C446.383 456.797 456.532 455.011 466.763 453.872C460.554 445.246 455.063 436.621 449.975 427.794C437.211 405.511 425.856 382.452 412.603 360.486C406.193 349.905 398.603 340.043 393.4 328.858C386.788 314.482 382.649 299.158 377.733 284.149C371.811 266.467 363.819 249.704 357.437 231.504L357.409 231.36Z" />
</svg>
