<svg id="svg-heroline" width="1440" height="55" viewBox="0 0 1440 55" fill="none" xmlns="http://www.w3.org/2000/svg">
<path d="M-433.577 54.9453C-434.308 53.6318 -434.105 52.7289 -432.867 52.4552C-432.191 52.3809 -431.512 52.3809 -430.837 52.4552C-405.829 52.4552 -380.842 52.1542 -355.834 52.6194C-342.613 52.8748 -329.392 53.039 -316.171 53.1119C-307.057 53.1119 -297.903 53.3035 -288.789 52.9751C-279.675 52.6468 -270.784 52.0448 -261.833 51.0597C-254.403 50.2114 -247.015 48.5149 -239.504 47.393C-235.912 46.8458 -232.298 46.3532 -228.706 46.0522C-218.394 45.1766 -208.062 44.3831 -197.751 44.1095C-185.693 43.7811 -173.616 43.9453 -161.538 44.1095C-153.724 44.1095 -145.888 44.1095 -138.073 44.8209C-131.801 45.3134 -125.509 44.8209 -119.237 45.3955C-112.964 45.9702 -107.159 45.6692 -101.13 46.0796C-91.2655 46.7363 -81.4005 45.3955 -71.5558 46.2438C-65.7496 46.5409 -59.9357 46.413 -54.1398 45.8607C-45.7869 45.182 -37.5191 43.2173 -29.4975 40.005C-21.9274 37.4311 -14.179 35.9271 -6.37773 35.5174C0.978524 34.8325 8.36364 34.9423 15.7069 35.8458C21.2889 36.5299 26.8507 35.5448 32.3922 36.8308C34.6493 36.9606 36.9104 36.8325 39.1515 36.4478C58.8815 36.4478 78.5912 36.4478 98.3212 36.4478C106.826 36.4478 115.352 36.4478 123.857 37.0498C129.946 37.4328 136.036 37.0498 141.963 37.6791C151.686 38.7189 161.408 38.2811 171.131 38.1169C177.563 37.9365 183.979 37.1686 190.334 35.8184C195.814 34.7512 201.335 33.9303 206.836 33.0821C213.453 32.0149 220.05 30.9204 226.688 29.9627C229.002 29.607 231.377 29.4428 233.671 29.3881C238.36 29.3881 243.048 28.8134 247.717 28.403C255.836 27.7463 264.078 27.5274 272.217 27.6642C281.088 27.801 290.019 27.2537 298.91 28.4304C303.781 29.0597 308.734 28.4304 313.667 28.4304C333.559 28.4304 353.431 28.4303 373.323 28.7313C378.642 28.7313 383.98 28.7313 389.258 28.3209C398.107 27.7118 406.92 26.3592 415.645 24.2711C423.623 22.3831 431.6 20.3856 439.699 19.291C447.58 18.1796 455.509 17.8047 463.428 18.1692C473.577 18.6343 483.726 19.0995 493.875 20.1667C501.794 20.8732 509.736 20.992 517.665 20.5224C527.002 20.1667 536.319 18.607 545.697 18.8259C555.028 19.2334 564.323 20.578 573.506 22.8483C581.727 24.7363 589.927 26.6244 598.229 27.9378C602.546 28.6354 606.894 28.928 611.24 28.8134C618.101 28.6219 624.982 28.5398 631.843 28.1294C639.957 27.5024 648.092 27.5481 656.201 28.2662C659.084 28.5672 661.986 28.7587 664.889 29.0597C670.735 29.6343 676.561 30.4552 682.366 31.5771C687.846 32.6169 693.347 33.3831 698.848 34.3134C704.349 35.2438 710.337 36.3657 716.102 36.7761C720.263 37.1045 724.465 37.1592 728.646 37.2413C742.347 37.4876 756.049 37.8433 769.75 37.4055C783.452 36.9677 797.661 37.2139 811.606 36.8856C854.232 35.8184 896.859 36.4478 939.485 36.393C992.971 36.393 1046.46 36.2015 1099.84 36.5572C1106.8 36.5572 1113.75 36.5572 1120.67 36.1741C1127.22 35.8458 1133.8 35.0522 1140.34 33.8483C1146.87 32.6443 1152.98 32.097 1159.3 31.1119C1166.22 29.9901 1173.12 28.6766 1180.04 27.4179C1187.59 26.0771 1195.18 24.9279 1202.69 23.3134C1210.96 21.5348 1219.14 19.209 1227.38 17.2662C1236.41 15.1318 1245.44 13.107 1254.5 11.0821C1265.78 8.59204 1277.07 6.0199 1288.37 3.74876C1292.51 2.76755 1296.7 2.18234 1300.9 1.99751C1303.48 1.99751 1306.05 1.58706 1308.63 1.36816C1309.22 1.36816 1309.79 1.20398 1309.71 0.109453H1311.74C1311.64 0.738806 1311.74 1.20398 1312.33 1.14925C1317.4 0.602048 1322.5 0.602048 1327.57 1.14925C1328.16 1.14925 1328.71 1.01244 1328.79 0.0273612H1332.2C1332.2 2.05224 1333.46 1.20398 1334.23 1.28607C1338.57 1.66915 1342.94 1.83333 1347.3 2.10696C1356.64 2.70895 1365.95 4.29602 1375.27 4.43284C1398.76 4.81592 1422.24 4.76119 1445.73 4.62438C1466.49 4.48756 1487.24 5.11691 1507.98 4.02239C1518.13 3.50249 1528.28 4.37811 1538.43 3.31095C1544.8 2.62687 1551.2 3.47512 1557.61 2.73632C1564.41 1.97015 1571.27 2.16169 1578.11 1.97015L1603.28 1.25871C1603.97 1.25871 1605.05 1.80597 1605.07 0H1612.38C1613.09 1.69652 1614.41 1.14925 1615.4 1.14925C1625.33 1.14925 1635.27 0.848258 1645.22 0.766168C1647.8 0.766168 1650.37 1.12189 1652.95 1.20398C1653.62 1.20398 1654.7 1.83333 1654.74 0H1657.66C1657.66 0.60199 1657.66 1.23134 1658.21 1.17662C1661.25 0.711441 1664.3 2.16169 1667.34 1.66915C1670.9 1.37881 1674.46 1.58053 1677.98 2.27114C1678.93 2.27114 1680.01 2.57214 1680.86 2.57214C1688.64 2.57214 1696.37 3.39303 1704.1 3.96766C1712.85 4.65174 1721.6 5.80099 1730.31 7.14179C1738.59 8.42786 1746.89 9.71393 1755.13 11.4925C1759.42 12.3955 1763.8 12.5597 1768.15 12.9154C1776.12 13.5995 1784.14 12.505 1792.12 13.1617C1798.21 13.6269 1804.3 12.9428 1810.26 12.7786C1818.24 12.5597 1826.24 12.0124 1834.22 11.4925C1838.8 10.8882 1843.4 10.5959 1848 10.6169C1855.51 11.1368 1863.02 10.3433 1870.53 11C1879.65 12.0697 1888.71 14.0637 1897.61 16.9652C1903.32 18.6876 1909.1 19.9847 1914.92 20.8507C1921.6 21.8632 1928.14 20.1667 1934.73 20.2214C1945.11 20.2214 1955.5 19.7836 1965.87 20.5224C1970.72 20.8781 1975.61 20.5224 1980.49 20.6592H1982.52C1983.31 20.6592 1984.04 21.0697 1984 22.2736C1983.96 23.4776 1983.13 23.3134 1982.5 23.3408H1928.44C1926.27 23.3408 1924.12 23.8881 1921.95 24.0249C1912.42 24.5996 1902.89 22.9519 1893.77 19.1542C1886.51 16.233 1879.01 14.5237 1871.44 14.0647C1864.46 13.5174 1857.5 13.4353 1850.56 13.7363C1840.63 14.1741 1830.75 15.296 1820.86 16.1716C1807.81 17.3209 1794.76 16.9652 1781.73 16.7189C1775.05 16.5821 1768.39 15.4328 1761.73 14.7761C1753.61 13.9279 1745.49 12.2587 1737.37 11.1095C1731.53 10.2886 1725.64 10.0423 1719.82 8.97512C1713.36 7.77114 1706.82 7.77114 1700.37 6.5398C1697.97 6.07516 1695.55 5.85563 1693.12 5.88308C1686.65 6.07463 1680.17 5.52736 1673.74 5.03483C1645.77 2.95522 1617.82 3.85821 1589.84 4.10448C1581.85 4.10448 1573.79 3.88557 1565.81 4.70647C1559.72 5.33582 1553.51 4.89801 1547.36 5.199C1533.84 5.88308 1520.3 6.12935 1506.76 6.64925C1499.48 6.95025 1492.19 6.86816 1484.88 7.16915C1462.9 8.04478 1440.92 7.68905 1418.93 7.60697C1404.18 7.60697 1389.42 7.44279 1374.66 6.89552C1368.57 6.64925 1362.67 6.89552 1356.68 6.40299C1348.56 5.85572 1340.44 5.66418 1332.46 5.03483C1324.48 4.40547 1316.57 4.26866 1308.65 4.62438C1297.43 5.00243 1286.27 6.74247 1275.28 9.82338C1265.84 12.5597 1256.28 14.3383 1246.74 16.1716C1234.79 18.4975 1222.91 21.2886 1211.1 24.6816C1202.98 27.0075 1194.86 28.9502 1186.74 30.4279C1178.62 31.9055 1170.5 33.5746 1162.38 34.8333C1156.29 35.791 1150.2 36.2015 1144.11 36.8856C1135.43 37.8159 1126.72 38.1716 1118.03 38.9925C1112.91 39.4851 1107.88 39.2388 1102.74 39.4851C1076.56 40.8532 1050.35 40.3333 1024.17 39.8955C994.311 39.403 964.452 39.3756 934.593 39.5945C907.333 39.7861 880.072 39.7587 852.811 40.306C823.927 40.8806 795.042 40.7985 766.158 40.5796C750.751 40.4428 735.324 40.5796 719.918 39.9503C712.926 39.55 705.958 38.5906 699.051 37.0771C692.211 35.709 685.329 34.9154 678.489 33.5746C660.606 30.0995 642.622 30.9751 624.678 31.194C620.233 31.194 615.767 31.6318 611.322 31.5771C600.201 31.3211 589.12 29.7092 578.215 26.7612C563.414 22.583 548.274 21.0102 533.173 22.0821C521.616 23.1766 510.06 23.5506 498.503 23.204C489.065 22.903 479.646 21.7537 470.207 21.398C464.707 21.2065 459.226 20.4129 453.705 20.7139C444.038 21.1682 434.407 22.5306 424.881 24.791C417.046 26.6517 409.231 28.5945 401.295 29.7438C393.358 30.893 385.726 31.4129 377.89 31.8508C367.051 32.4801 356.192 32.8905 345.413 32.699C334.046 32.4801 322.699 32.699 311.352 32.1791C288.72 31.0846 266.087 31.3582 243.454 31.8508C232.262 31.9586 221.09 33.1474 210.023 35.408C201.62 37.2687 193.074 38.0075 184.63 39.4851C176.941 40.8638 169.183 41.4128 161.429 41.1269C140.278 40.306 119.127 40.4428 97.9761 39.8682C75.4856 39.2388 53.0153 39.8682 30.545 39.2935C21.4919 39.102 12.4388 38.5 3.36548 38.1716C-9.96107 37.589 -23.2721 39.8516 -36.0742 44.8756C-42.0365 47.0523 -48.1683 48.2738 -54.3427 48.5149C-73.951 49.8831 -93.5795 49.199 -113.208 48.9801C-124.372 48.9801 -135.536 48.2413 -146.721 47.7214C-157.154 47.2289 -167.608 46.9552 -178.041 46.408C-184.516 46.0522 -190.991 45.9702 -197.466 45.9428C-207.467 45.9616 -217.457 46.7748 -227.386 48.3781C-234.815 49.5274 -242.245 50.6493 -249.714 51.8259C-261.566 53.8266 -273.495 54.8864 -285.44 55H-316.699L-433.577 54.9453Z"/>
</svg>
