<svg width="532" height="7" viewBox="0 0 532 7" fill="none" xmlns="http://www.w3.org/2000/svg">
<path d="M642.622 4.05761C644.488 3.90478 644.792 3.35213 643.688 2.53552L467.581 1.04851L420.48 0.659802C402.483 0.581097 384.511 1.08439 366.657 2.16708C355.404 2.7976 344.212 3.39497 333.02 4.00917C318.063 4.87147 303.011 5.2472 287.943 5.1344C278.187 5.03706 268.43 4.90607 258.673 4.60685C242.951 4.14065 227.199 3.84242 211.478 3.40987C194.624 2.95115 177.801 2.35809 160.98 2.21926C131.404 1.8406 101.827 1.17594 72.2847 1.77328C62.9818 1.84476 57.5 0.5 44.7655 0.783618C32.0309 1.06724 20.1179 5.10795 0.0368156 4.584L0.038348 6.16794C11.7922 6.01306 23.4642 5.18474 34.8655 3.6964C46.9458 1.82113 59.3997 3.71603 71.9841 3.40263C80.7161 3.13513 89.476 3.1288 98.2252 3.38366C113.06 4.0276 127.922 3.32593 142.787 3.85236C151.872 4.17967 160.619 4.06681 170.071 4.49809C179.522 4.92938 189.003 4.7048 198.454 5.08562C210.231 5.6202 222.037 5.71763 233.812 5.81481C252.01 6.06593 270.208 6.31705 288.375 6.2651C303.912 6.22509 319.478 5.86569 335.013 5.45557C340.426 5.31518 345.869 5.05729 351.281 4.7655C362.596 4.16913 373.725 3.21796 384.918 2.78881C398.404 2.29448 411.798 2.03492 425.53 1.94637C439.262 1.85782 453.056 2.08943 466.789 2.20276C486.71 2.41202 506.631 2.67736 526.553 2.99878C564.234 3.59575 601.883 3.72141 639.564 4.03237C640.582 4.08644 641.605 4.09488 642.622 4.05761Z" fill="#DCCFC4"/>
</svg>
