<svg width="2101" height="458" viewBox="0 0 2101 458" fill="none" xmlns="http://www.w3.org/2000/svg">
<g clip-path="url(#clip0)">
<path d="M428.604 57.6305C418.476 73.8842 408.192 90.1897 398.098 106.616C383.829 129.806 374.408 155.343 362.933 179.878C347.698 212.42 330.996 244.237 313.62 275.692C307.547 286.683 299.265 296.122 291.655 306.043C287.204 311.84 283.943 312.168 277.3 309.045C271.468 306.302 266.516 302.316 262.133 297.743C252.074 287.27 241.652 277.228 229.902 268.601C222.983 263.528 218.1 256.471 212.63 249.966C192.529 225.999 176.309 199.41 159.59 173.132C156.536 168.335 152.964 163.918 148.754 160.087C144.13 155.877 142.215 156.119 138.246 161.105C113.296 192.388 88.3634 223.687 63.3445 254.901C55.3211 264.908 46.9872 274.692 38.8949 284.647C35.2025 289.185 30.8026 291.239 24.867 290.134C19.1386 289.064 13.3928 287.943 7.9059 286.028C-0.738581 283.008 -2.36048 277.504 3.368 270.412C10.8219 261.181 19.7942 253.365 27.9901 244.841C49.0233 222.963 68.9177 200.066 89.4504 177.722C95.6448 170.975 102.478 164.815 109.207 158.586C117.834 150.598 125.305 141.746 131.292 131.618C140.869 115.45 152.722 114.536 165.094 129.185C188.629 157.068 212.699 184.485 234.854 213.559C247.639 230.33 262.34 245.704 275.574 262.217C279.318 266.893 280.06 266.685 282.994 261.337C285.547 256.678 287.963 251.916 289.982 247.015C299.454 223.929 311.809 202.154 321.074 178.964C324.042 171.544 328.407 164.712 333.325 158.414C344.885 143.592 353.288 127.028 361.087 110.05C370.612 89.3097 383.501 70.3643 393.836 50.0558C398.978 39.9792 403.878 29.7991 409.003 19.7053C411.867 14.0458 415.128 8.5934 419.925 4.29704C427.137 -2.13887 431.347 -1.41418 436.144 6.93697C448.032 27.5905 458.799 48.8135 467.202 71.089C480.919 107.479 498.157 142.057 517.654 175.668C526.661 191.18 534.029 207.658 542.207 223.653C547.918 234.799 554.544 245.376 562.654 254.97C563.413 255.867 564.12 256.781 564.776 257.748C575.111 273.139 574.335 271.068 563.171 285.269C558.996 290.583 553.785 290.911 548.091 287.063C543.76 284.147 540.396 280.196 537.221 276.089C523.797 258.748 513.634 239.423 503.333 220.202C493.17 201.274 482.783 182.501 470.757 164.66C461.698 151.236 456.815 135.983 452.191 120.696C445.617 99.093 436.61 78.4222 428.604 57.6305Z" fill="white"/>
<path d="M110.276 345.987C145.476 345.003 179.053 355.011 211.284 370.505C224.501 376.855 237.787 383.049 250.917 389.554C262.495 395.283 272.934 402.702 282.2 411.761C287.221 416.661 287.29 416.575 292.949 412.244C334.895 380.116 381.327 356.391 431.399 339.982C459.213 330.855 488.097 328.163 517.326 331.148C531.854 332.632 545.641 336.583 558.823 343.209C567.33 347.471 570.073 363.724 565.863 370.195C561.618 376.734 554.699 377.131 547.987 376.475C541.724 375.854 535.374 374.767 529.387 372.869C509.613 366.571 489.564 365.433 469.1 367.952C440.233 371.489 412.54 378.58 387.021 393.109C366.367 404.859 347.284 418.749 328.752 433.519C320.298 440.265 310.997 445.925 302.284 452.36C292.984 459.21 284.029 459.055 274.694 452.447C266.947 446.96 258.509 442.37 251.038 436.555C230.316 420.405 206.556 410.501 182.038 402.081C165.836 396.508 149.858 389.848 132.724 387.691C112.174 385.103 91.4691 385.707 70.7982 386.552C53.4748 387.259 37.1176 392.66 20.4153 396.439C17.1197 397.181 13.8241 397.025 10.5112 396.249C3.64394 394.61 0.193042 391.038 0.227551 384.136C0.313823 362.499 2.12554 364.018 17.6718 359.635C53.0607 349.645 76.9063 345.987 110.276 345.987Z" fill="white"/>
<path d="M149.064 5.86724C167.665 5.90175 181.175 21.1547 181.416 42.4122C181.624 60.4258 165.404 76.1274 146.735 76.0066C126.254 75.8686 111.346 61.6509 111.467 42.3949C111.605 22.7766 129.049 5.83273 149.064 5.86724Z" fill="white"/>
<path d="M855.289 99.7138C839.053 135.965 819.607 169.75 807.184 206.691C804.647 214.249 802.128 221.806 800.42 229.605C799.782 232.504 798.833 234.281 795.278 233.919C791.154 233.505 786.133 235.11 783.01 233.263C779.818 231.383 780.37 225.792 779.094 221.893C770.225 194.838 758.129 169.18 745.758 143.609C739.288 130.22 733.3 116.589 727.693 101.439C724.449 120.419 721.412 138.105 718.427 155.791C716.512 167.11 714.579 178.411 712.888 189.765C712.06 195.355 711.732 201.032 713.233 206.64C715.666 215.664 721.964 220.892 731.281 220.84C735.129 220.823 736.423 221.703 736.268 225.723C735.957 233.833 736.199 233.833 728.02 233.833C712.164 233.833 696.307 233.729 680.45 233.919C676.844 233.971 675.032 233.246 675.67 229.312C675.86 228.173 675.843 226.965 675.67 225.827C675.153 222.496 676.171 220.788 679.829 220.288C685.436 219.494 688.836 215.56 691.286 210.781C696.065 201.463 697.497 191.18 699.361 181.069C704.761 151.805 709.972 122.524 715.218 93.2262C715.683 90.6035 715.994 87.9463 716.184 85.3064C716.96 74.0219 711.974 67.4653 700.758 66.0331C696.911 65.55 696.255 64.2214 696.341 60.805C696.548 52.6437 696.376 52.6264 704.347 52.6264C722.533 52.6264 740.737 52.7127 758.923 52.5574C762.288 52.5229 763.358 53.3511 763.582 56.9055C764.427 70.0189 769.034 82.166 774.193 94.0716C784.615 118.142 795.175 142.16 805.7 166.195C805.941 166.765 806.459 167.213 807.132 168.093C817.053 141.366 832.03 117.434 842.987 91.6215C847.922 79.992 851.303 68.0692 849.578 55.2836C849.233 52.6782 850.406 52.6264 852.287 52.6264C874.493 52.6437 896.683 52.6609 918.889 52.6092C920.942 52.6092 922.098 53.0578 921.788 55.3354C921.719 55.8185 921.771 56.3361 921.788 56.8365C921.874 65.0669 921.874 65.0669 913.851 65.7053C904.551 66.43 900.203 70.8989 899.564 80.3371C898.891 90.2756 901.359 99.8691 902.911 109.532C907.691 139.244 912.712 168.921 917.733 198.599C918.251 201.688 919.148 204.759 920.183 207.727C922.702 214.887 927.551 219.632 935.281 220.512C938.611 220.892 939.146 222.272 939.111 225.223C939.008 233.85 939.129 233.85 930.484 233.85C903.947 233.85 877.409 233.712 850.872 233.988C846.248 234.04 844.988 232.625 845.627 228.449C845.834 227.138 845.799 225.775 845.627 224.464C845.247 221.599 846.403 220.978 849.198 220.875C862.605 220.391 868.679 213.835 868.817 200.394C868.989 185.123 865.176 170.405 862.881 155.463C860.086 137.19 857.877 118.849 855.289 99.7138Z" fill="white"/>
<path d="M1321.44 131.963C1325.46 128.477 1328.82 125.337 1332.41 122.507C1344.54 112.931 1358.26 108.859 1373.58 111.62C1392.75 115.07 1403.33 127.925 1403.45 147.561C1403.55 164.228 1403.48 180.896 1403.6 197.564C1403.62 200.704 1404.07 203.862 1404.5 206.985C1405.45 213.869 1409.5 218.321 1416.13 219.701C1419.96 220.495 1420.75 222.134 1420.67 225.672C1420.44 233.833 1420.61 233.833 1412.63 233.833C1392.92 233.833 1373.23 233.747 1353.53 233.919C1349.94 233.954 1348.15 233.263 1348.73 229.329C1348.97 227.708 1348.92 225.982 1348.73 224.343C1348.46 221.91 1349.44 220.892 1351.75 220.15C1360.33 217.372 1364.31 212.455 1364.49 203.258C1364.8 187.091 1364.99 170.923 1364.52 154.773C1364.09 140.227 1353.99 132.981 1339.67 136.069C1338.05 136.414 1336.46 136.966 1334.91 137.519C1321.8 142.177 1321.42 142.729 1321.42 156.481C1321.42 170.492 1321.45 184.485 1321.4 198.496C1321.37 208.676 1324.33 218.735 1336.33 220.53C1339.12 220.944 1338.29 223.152 1338.33 224.826C1338.5 233.85 1338.48 233.85 1329.67 233.85C1309.46 233.85 1289.27 233.729 1269.07 233.954C1265 234.005 1263.68 232.763 1264.31 228.984C1264.36 228.657 1264.36 228.311 1264.31 227.984C1263.41 222.911 1265.07 220.564 1270.62 219.753C1277.33 218.77 1282.1 212.869 1282.27 205.38C1282.72 186.556 1282.54 167.714 1282.68 148.872C1282.7 146.819 1281.42 145.956 1280.09 144.955C1275.68 141.694 1271.31 138.329 1266.81 135.189C1264.98 133.912 1264.37 132.515 1264.2 130.306C1263.89 126.631 1265.29 125.113 1268.76 124.077C1278.95 121.058 1289.08 117.831 1299.13 114.346C1305.22 112.223 1311.32 111.482 1317.74 111.533C1321.06 111.568 1321.57 112.724 1321.47 115.588C1321.3 120.833 1321.44 126.096 1321.44 131.963Z" fill="white"/>
<path d="M1196.24 216.441C1190.46 221.255 1185.75 225.723 1180.24 229.209C1167.13 237.508 1153 238.716 1138.5 234.437C1123.82 230.106 1117.09 218.77 1115.21 204.397C1112.97 187.332 1114.64 170.13 1114.24 152.979C1114.14 148.82 1114.24 144.662 1113.09 140.59C1111.72 135.828 1109.03 131.704 1104.27 130.548C1099.16 129.306 1099.35 126.252 1099.06 122.266C1098.71 117.521 1100.13 116.02 1104.91 115.916C1119.06 115.606 1133.21 115.002 1147.34 114.104C1151.82 113.811 1153.27 114.605 1153.22 119.453C1152.95 142.781 1153.7 166.144 1152.88 189.437C1152.32 204.966 1165.25 215.612 1181.33 210.643C1182.12 210.401 1182.92 210.143 1183.69 209.867C1195.46 205.639 1196.27 204.5 1196.27 192.198C1196.27 178.032 1196.15 163.866 1196.32 149.7C1196.43 140.59 1193.11 131.307 1182.24 128.995C1179.26 128.357 1180.43 126.2 1180.4 124.664C1180.17 116.14 1180.24 116.278 1188.65 115.985C1202.29 115.502 1215.96 115.071 1229.57 114.07C1234.23 113.725 1234.68 115.312 1234.65 119.194C1234.49 142.35 1234.52 165.523 1234.59 188.695C1234.61 193.854 1234.87 199.014 1235.25 204.138C1235.85 212.541 1239.01 215.388 1247.48 216.147C1249.61 216.337 1253.04 214.888 1253.68 217.597C1254.49 221.047 1253.88 224.861 1253.68 228.501C1253.66 228.916 1252.37 229.519 1251.62 229.588C1234.25 231.4 1217.22 235.921 1199.64 236.024C1196.56 236.042 1196.12 234.886 1196.22 232.263C1196.36 227.311 1196.24 222.359 1196.24 216.441Z" fill="white"/>
<path d="M1522 210.039C1522 214.698 1521.95 218.821 1522.04 222.945C1522.07 224.653 1521.43 225.723 1519.97 226.551C1502.69 236.266 1484.49 239.941 1465.32 233.695C1454.17 230.071 1447.69 219.667 1447.67 207.813C1447.63 183.484 1447.53 159.138 1447.77 134.809C1447.82 130.479 1446.53 129.185 1442.53 129.857C1441.72 129.996 1440.85 129.875 1440.03 129.875C1429.78 129.875 1429.98 129.875 1429.83 119.798C1429.78 116.416 1431.28 115.674 1433.95 115.019C1451.31 110.809 1464.82 101.543 1473.29 85.41C1475.74 80.7168 1480.49 83.6156 1484.09 83.374C1487.23 83.1669 1485.85 86.3763 1485.89 88.0499C1486.04 95.2105 1486.13 102.388 1485.89 109.549C1485.77 112.948 1486.58 114.173 1490.22 114.07C1499.38 113.811 1508.58 114.087 1517.76 113.932C1520.78 113.88 1522.12 114.363 1522.12 117.917C1522.14 129.892 1522.31 129.892 1510.41 129.892C1503.4 129.892 1496.4 129.926 1489.37 129.875C1487.39 129.857 1485.87 129.823 1485.9 132.635C1486.28 154.945 1485.21 177.29 1486.49 199.583C1487.06 209.28 1491.79 213.369 1501.59 213.956C1508.54 214.37 1515.13 212.972 1522 210.039Z" fill="white"/>
<path d="M1685.3 393.161C1685.21 379.012 1686.09 366.244 1684.76 353.545C1683.93 345.694 1680.79 342.864 1672.74 342.157C1669.2 341.846 1669.89 339.983 1669.72 337.895C1669.49 335.169 1671.06 335.048 1673.12 335.065C1682.8 335.117 1692.48 335.1 1702.15 335.082C1704.07 335.082 1705.95 334.927 1705.74 337.774C1705.61 339.827 1706.35 341.95 1702.88 342.312C1696.81 342.916 1694.18 346.919 1693.49 352.785C1692.89 357.944 1692.96 363.104 1693.06 368.245C1693.37 384.896 1692.1 401.564 1693.94 418.18C1694.11 419.664 1694.51 421.13 1694.55 422.614C1694.61 425.289 1696.6 428.343 1694.1 430.534C1692.11 432.242 1685.02 430.137 1682.9 427.721C1663.42 405.584 1643.94 383.447 1624.46 361.309C1623.51 360.222 1622.51 359.187 1620.85 357.392C1620.75 359.687 1620.61 361.085 1620.63 362.482C1620.68 376.804 1620.7 391.142 1620.87 405.463C1620.9 407.931 1621.37 410.433 1621.99 412.831C1623.56 418.956 1626.86 421.924 1633.28 422.2C1636.64 422.355 1636.9 423.753 1636.97 426.479C1637.05 429.827 1634.93 429.257 1633.02 429.257C1622.84 429.274 1612.66 429.223 1602.48 429.292C1600.23 429.309 1598.65 429.257 1598.85 426.238C1599.01 423.891 1598.87 422.373 1602.17 422.2C1608.29 421.872 1611.79 418.404 1612.93 412.348C1613.42 409.742 1613.67 407.068 1613.67 404.428C1613.74 388.588 1613.71 372.766 1613.71 356.926C1613.71 348.006 1612.26 346.022 1603.75 342.899C1602.34 342.381 1600.35 342.761 1599.7 340.673C1598.58 337.101 1599.96 335.117 1603.77 335.117C1612.45 335.1 1621.13 335.22 1629.81 335.048C1632.72 334.996 1634.71 335.859 1636.66 338.085C1652.43 356.081 1668.37 374.008 1685.3 393.161Z" fill="white"/>
<path d="M1089.92 392.229C1089.4 379.512 1090.52 367.192 1089.19 354.89C1088.24 346.142 1085.52 342.881 1076.91 342.139C1073.23 341.828 1074.25 339.81 1074.01 337.843C1073.68 335.047 1075.34 335.047 1077.37 335.065C1087.05 335.116 1096.73 335.082 1106.39 335.082C1108.2 335.082 1110.28 334.685 1109.98 337.67C1109.79 339.637 1110.74 341.604 1107.31 342.346C1099.91 343.933 1098.04 346.038 1097.85 353.63C1097.25 377.079 1096.07 400.545 1098.89 423.96C1099.13 426.03 1101.58 429.636 1098.2 430.378C1094.85 431.12 1090.8 432.069 1087.6 428.342C1078.63 417.817 1069.38 407.551 1060.24 397.181C1049.45 384.93 1038.67 372.679 1027.92 360.394C1027.2 359.566 1026.66 358.548 1025.44 357.944C1025.49 375.82 1023.47 393.402 1025.88 410.881C1026.99 418.801 1030.25 421.665 1038.01 422.234C1041.09 422.458 1040.96 423.891 1041.02 426.03C1041.07 428.152 1040.84 429.378 1038.15 429.343C1027.47 429.188 1016.79 429.274 1006.13 429.291C1004.3 429.291 1002.66 429.222 1003.04 426.72C1003.3 425.012 1002 422.821 1005.39 422.269C1014.12 420.871 1017.5 417.783 1017.72 408.965C1018.21 389.658 1018.24 370.316 1017.76 350.991C1017.62 345.676 1011.75 344.451 1007.53 342.967C1004.7 341.984 1003.68 340.759 1003.85 337.791C1003.99 335.548 1004.73 335.03 1006.82 335.047C1016.5 335.134 1026.18 335.168 1035.84 335.03C1038.27 334.996 1039.41 336.411 1040.72 337.894C1055.82 354.994 1070.94 372.11 1086.07 389.175C1087 390.227 1087.62 391.728 1089.92 392.229Z" fill="white"/>
<path d="M1866.28 357.754C1866.28 374.318 1866.07 390.141 1866.35 405.946C1866.54 416.609 1869.49 419.784 1880.27 422.286C1883.24 422.976 1881.96 425.012 1882.22 426.582C1882.53 428.445 1881.76 429.291 1879.77 429.274C1868.76 429.222 1857.76 429.222 1846.75 429.274C1844.61 429.291 1844.18 428.187 1844.42 426.444C1844.64 424.857 1843.54 422.907 1846.51 422.268C1856.13 420.215 1858.83 417.61 1859.08 407.568C1859.57 388.76 1859.58 369.918 1859.14 351.094C1859 345.779 1853.03 344.917 1849.04 342.846C1847.59 342.104 1845.18 342.812 1845.04 340.034C1844.9 336.98 1844.8 334.719 1849.25 334.944C1857.74 335.358 1866.26 335.202 1874.77 334.995C1878.03 334.909 1880.27 335.841 1882.46 338.343C1896.68 354.665 1911.09 370.833 1925.43 387.052C1927.05 388.881 1928.69 390.693 1931.24 393.522C1930.97 378.994 1932.05 365.76 1930.14 352.612C1929.09 345.4 1926.1 342.725 1918.37 342.104C1914.75 341.811 1915.61 339.896 1915.39 337.894C1915.09 335.22 1916.54 334.995 1918.66 335.013C1928.5 335.082 1938.35 335.064 1948.19 335.03C1949.98 335.03 1951.64 335.013 1951.36 337.549C1951.15 339.464 1952.33 341.811 1948.7 342.19C1942.47 342.829 1939.37 346.711 1939.11 352.923C1939.08 353.906 1938.7 354.907 1938.73 355.89C1939.42 378.666 1937.07 401.511 1940.27 424.235C1940.54 426.237 1942.29 429.757 1939.39 430.343C1936.14 430.999 1932.19 432.086 1929.17 428.583C1919.91 417.886 1910.49 407.309 1901.13 396.68C1890.45 384.55 1879.81 372.42 1869.11 360.29C1868.37 359.514 1867.49 358.841 1866.28 357.754Z" fill="white"/>
<path d="M902.135 377.873C902.135 369.056 902.515 360.222 902.014 351.422C901.635 344.848 899.512 342.795 893.128 342.139C889.677 341.777 890.16 339.982 890.04 337.826C889.867 335.03 891.575 335.048 893.56 335.048C907.915 335.082 922.254 335.099 936.609 335.03C938.956 335.013 939.957 335.686 939.767 338.136C939.612 340.103 940.129 341.76 936.937 342.105C929.88 342.864 927.309 345.038 927.257 351.198C927.102 367.503 926.153 383.86 927.723 400.131C928.845 411.657 934.608 417.248 945.892 419.387C951.949 420.543 957.832 420.026 963.63 418.214C973.62 415.091 979.711 407.672 979.918 397.353C980.211 383.36 980.142 369.367 979.918 355.373C979.797 347.695 976.329 343.502 968.823 342.312C965.235 341.742 965.735 339.931 965.614 337.636C965.459 334.634 967.46 335.082 969.255 335.082C978.434 335.082 987.613 335.082 996.793 335.082C998.398 335.082 1000.42 334.651 1000.16 337.342C999.985 339.258 1001.09 341.363 997.88 342.484C988.856 345.607 987.821 347.419 987.821 357.116C987.821 369.608 987.855 382.118 987.803 394.61C987.734 417.282 975.156 430.24 952.449 430.948C943.787 431.207 935.143 431.31 926.619 429.05C911.263 424.978 902.911 414.729 902.566 398.872C902.411 391.884 902.532 384.878 902.532 377.873C902.394 377.873 902.256 377.873 902.135 377.873Z" fill="white"/>
<path d="M719.842 335.082C733.024 335.082 746.207 335.186 759.389 335.013C762.564 334.979 763.875 335.669 763.582 339.085C763.271 342.726 763.651 346.418 763.444 350.076C763.357 351.698 764.617 354.407 762.357 354.769C759.561 355.201 755.351 356.547 753.833 354.079C745.706 340.88 732.903 341.673 720.118 341.863C712.319 341.984 712.319 341.88 712.319 349.679C712.319 357.841 712.44 366.019 712.25 374.181C712.181 377.045 713.078 377.977 715.925 377.804C721.395 377.476 726.916 378.167 732.386 377.097C737.372 376.113 741.099 373.698 742.393 368.573C743.722 363.276 747.811 366.244 750.589 365.899C753.747 365.502 752.401 368.452 752.418 369.919C752.556 377.925 752.539 385.914 752.435 393.92C752.418 395.335 753.402 397.871 750.624 397.578C747.915 397.302 743.894 399.631 742.669 395.852C739.581 386.362 732.506 384.551 723.845 384.637C712.319 384.758 712.319 384.62 712.319 396.284C712.319 401.615 712.233 406.947 712.353 412.279C712.509 418.87 715.131 421.717 721.688 422.2C724.466 422.407 726.329 422.476 726.243 426.203C726.157 430.258 723.551 429.222 721.446 429.222C707.764 429.274 694.081 429.291 680.398 429.188C678.621 429.171 675.808 430.62 675.619 426.755C675.481 423.787 676.033 422.269 679.535 422.045C684.746 421.717 687.231 417.886 687.265 413.176C687.472 392.505 687.49 371.851 687.283 351.181C687.231 345.469 684.574 342.726 678.638 342.139C675.084 341.777 675.808 339.81 675.653 337.739C675.446 334.875 677.361 335.065 679.259 335.082C692.821 335.099 706.332 335.082 719.842 335.082Z" fill="white"/>
<path d="M1259.77 335.082C1268.5 335.082 1275.18 335.323 1281.82 334.996C1285.87 334.789 1287.88 335.979 1289.39 339.965C1298.19 363.241 1307.32 386.379 1316.38 409.569C1318.62 415.298 1320.56 421.233 1328.03 422.527C1330.53 422.959 1329.13 425.616 1329.3 427.255C1329.58 429.671 1327.61 429.239 1326.22 429.239C1312.53 429.257 1298.85 429.239 1285.18 429.274C1283.54 429.274 1281.97 429.257 1282.42 426.996C1282.75 425.323 1281.03 422.596 1284.34 422.269C1293.09 421.371 1292.88 415.557 1290.45 409.638C1288.36 404.583 1287.63 397.871 1283.89 394.886C1280.11 391.866 1273.33 394.247 1267.88 394.006C1266.7 393.954 1265.53 393.885 1264.38 394.023C1260.35 394.454 1254.57 392.004 1252.64 395.11C1249.14 400.718 1246.81 407.447 1246.72 414.383C1246.67 417.938 1248.64 421.164 1252.31 421.751C1256.16 422.355 1255.64 424.684 1255.58 427.152C1255.45 430.689 1252.68 429.17 1251.09 429.205C1242.76 429.36 1234.4 429.291 1226.07 429.257C1224.48 429.257 1222.45 429.723 1222.64 427.014C1222.77 425.047 1221.7 422.631 1225.12 422.01C1231.75 420.819 1235.09 416.126 1237.41 410.191C1245.33 389.779 1253.4 369.435 1261.42 349.058C1263.13 344.624 1266.12 340.224 1259.77 335.082Z" fill="white"/>
<path d="M2056.89 409.915C2056.89 410.415 2056.89 410.916 2056.89 411.416C2056.89 422.649 2056.96 422.838 2045.95 426.427C2027.92 432.277 2009.68 433.312 1991.49 427.273C1970.93 420.44 1959.61 406.274 1958.94 385.465C1958.31 366.278 1967.34 348.092 1986.89 339.12C2008.25 329.319 2029.68 331.942 2050.82 340.569C2052.64 341.311 2053.27 342.536 2053.47 344.331C2054.08 349.611 2054.72 354.908 2055.49 360.153C2055.87 362.793 2055.44 363.914 2052.3 364.018C2047.62 364.173 2044.6 363.38 2042.22 358.497C2038.1 350.042 2031.25 343.796 2021.95 341.104C2007.23 336.86 1993.84 344.262 1988.7 359.687C1983.82 374.388 1984.25 389.227 1989.73 403.703C1994.79 417.024 2005.14 424.443 2017.5 424.305C2029.85 424.167 2039.57 416.489 2044.66 402.944C2045.52 400.649 2045.41 397.871 2049.5 398.009C2056.85 398.234 2056.87 397.889 2056.87 405.446C2056.89 406.913 2056.89 408.414 2056.89 409.915Z" fill="white"/>
<path d="M1370.11 335.082C1384.62 335.082 1399.13 335.169 1413.64 335.013C1416.77 334.979 1418.2 335.6 1417.9 339.068C1417.59 342.881 1417.97 346.729 1417.77 350.56C1417.66 352.337 1419.01 355.356 1416.47 355.632C1413.52 355.96 1410.04 357.392 1407.4 353.752C1403.53 348.42 1398.68 344.141 1391.95 342.605C1391.47 342.502 1391.01 342.26 1390.52 342.174C1382.96 340.742 1382.43 341.19 1382.43 348.851C1382.43 369.505 1382.41 390.159 1382.43 410.829C1382.43 418.973 1383.84 420.958 1391.64 422.235C1394.87 422.769 1394.04 424.702 1394.23 426.548C1394.47 428.895 1393.2 429.292 1391.21 429.292C1377.03 429.257 1362.86 429.223 1348.68 429.309C1346.39 429.326 1345.32 428.722 1345.51 426.238C1345.66 424.202 1345.3 422.562 1348.39 422.2C1354.94 421.424 1357.41 418.663 1357.45 411.985C1357.6 389.658 1357.5 367.331 1357.64 345.021C1357.65 342.174 1356.51 341.898 1354.13 341.846C1344.92 341.656 1338.1 346.194 1332.96 353.148C1330.05 357.082 1326.53 355.753 1323.11 355.753C1321.25 355.753 1321.78 353.769 1321.76 352.544C1321.71 347.885 1321.92 343.209 1321.68 338.55C1321.52 335.462 1322.94 335.048 1325.54 335.065C1340.42 335.134 1355.25 335.082 1370.11 335.082Z" fill="white"/>
<path d="M1802.33 381.997C1802.33 372.006 1802.47 361.999 1802.28 352.009C1802.16 345.538 1799.94 342.933 1793.43 342.122C1790.36 341.742 1790.6 340.241 1790.48 338.17C1790.34 335.755 1791.31 335.03 1793.67 335.047C1808.03 335.134 1822.37 335.134 1836.72 335.047C1838.97 335.03 1839.76 335.876 1839.52 337.963C1839.31 339.723 1840.33 341.673 1836.95 342.139C1829.42 343.157 1827.3 345.762 1827.27 353.458C1827.15 372.783 1827.15 392.125 1827.25 411.45C1827.28 418.68 1829.49 421.251 1836.84 422.2C1840.09 422.631 1839.33 424.495 1839.55 426.358C1839.86 428.981 1838.48 429.308 1836.29 429.291C1822.11 429.222 1807.92 429.222 1793.74 429.291C1791.5 429.308 1790.29 428.825 1790.48 426.254C1790.64 424.201 1790.34 422.597 1793.38 422.2C1800.21 421.302 1802.18 419.042 1802.33 411.985C1802.56 401.995 1802.39 391.987 1802.39 381.997C1802.37 381.997 1802.35 381.997 1802.33 381.997Z" fill="white"/>
<path d="M1448.83 335.082C1456 335.082 1463.16 335.134 1470.34 335.048C1472.53 335.013 1473.9 335.41 1473.6 338.015C1473.4 339.896 1474.14 341.673 1470.88 342.122C1463.41 343.14 1461.04 345.78 1460.97 353.355C1460.78 372.852 1460.78 392.332 1460.97 411.83C1461.04 418.818 1463.61 421.562 1470.5 422.2C1473.9 422.511 1473.45 424.305 1473.62 426.496C1473.84 429.343 1472.15 429.291 1470.19 429.291C1456 429.257 1441.82 429.257 1427.65 429.291C1425.82 429.291 1424.24 429.274 1424.6 426.755C1424.86 424.874 1423.6 422.58 1427.31 422.165C1433.71 421.441 1436.21 418.801 1436.28 412.365C1436.49 392.367 1436.52 372.386 1436.28 352.388C1436.21 345.625 1433.76 342.985 1427.12 342.139C1423.67 341.708 1424.86 339.689 1424.6 337.981C1424.2 335.393 1425.58 335.013 1427.79 335.048C1434.81 335.151 1441.82 335.082 1448.83 335.082Z" fill="white"/>
<path d="M1745.38 425.961C1745.36 439.282 1737.13 450.652 1725.33 453.655C1719.84 455.052 1717.6 454.138 1717.39 450.514C1717.24 447.857 1717.72 446.201 1721.05 446.011C1725.76 445.735 1729.57 443.319 1732.02 439.195C1734.89 434.364 1734.59 428.48 1726.97 427.738C1719.1 426.979 1715.77 421.458 1717.6 413.969C1719.88 404.635 1731.4 401.857 1739.13 408.793C1743.36 412.537 1745.39 418.128 1745.38 425.961Z" fill="white"/>
<path d="M2086.6 405.049C2093.59 405.014 2099.46 410.656 2099.59 417.558C2099.75 424.615 2093.8 430.672 2086.67 430.706C2079.54 430.758 2073.64 424.771 2073.76 417.61C2073.88 410.536 2079.47 405.066 2086.6 405.049Z" fill="white"/>
<path fill-rule="evenodd" clip-rule="evenodd" d="M1738.21 233.819C1741.78 233.826 1745.35 233.833 1748.91 233.833H1748.95C1760.94 233.833 1772.96 233.833 1784.96 233.816C1789.66 233.816 1792.01 233.816 1793.15 232.645C1794.32 231.458 1794.25 229.068 1794.17 224.257C1794.12 221.738 1793.41 220.944 1790.91 220.651C1784.75 219.943 1780.14 216.51 1776.66 211.506C1773.88 207.52 1771.91 203.137 1770.17 198.634C1765.68 187.097 1761.19 175.56 1756.69 164.024C1742.81 128.39 1728.93 92.7538 1715.16 57.0784C1713.77 53.4723 1712.02 52.4542 1708.31 52.5233C1699.45 52.6969 1690.57 52.6655 1681.69 52.6341C1678.22 52.6218 1674.74 52.6095 1671.27 52.6095C1663.31 52.6095 1663.06 52.7476 1666.71 59.5458C1668.91 63.6006 1668.82 66.9652 1667.11 71.1753C1661.9 83.9745 1656.87 96.8473 1651.83 109.72C1649.55 115.555 1647.27 121.39 1644.97 127.218C1635.31 151.771 1625.63 176.324 1615.9 200.86C1612.33 209.849 1606.41 216.872 1596.68 218.822C1590.21 220.133 1588.62 223.308 1589.64 229.019C1589.67 229.174 1589.67 229.364 1589.64 229.519C1589.03 233.057 1590.55 233.954 1594.02 233.919C1606.24 233.779 1618.45 233.799 1630.66 233.819C1634.97 233.826 1639.28 233.833 1643.59 233.833C1647.93 233.833 1650.1 233.833 1651.19 232.75C1652.31 231.636 1652.29 229.376 1652.32 224.792C1652.34 221.893 1651.5 220.771 1648.7 220.098C1637.93 217.51 1633.4 210.298 1635.41 199.307C1636.66 192.467 1639.01 185.97 1641.36 179.474C1642.74 175.663 1644.11 171.852 1645.27 167.973C1645.84 166.058 1646.99 165.54 1648.96 165.54C1667.65 165.609 1686.35 165.592 1705.04 165.574L1705.12 165.574C1706.64 165.574 1707.96 165.573 1708.64 167.386C1710.06 171.186 1711.54 174.967 1713.02 178.747C1716.13 186.723 1719.25 194.696 1721.82 202.844C1724.64 211.799 1720.82 217.234 1711.83 219.65C1704.03 221.753 1704.03 221.789 1703.99 229.588C1703.99 229.724 1703.98 229.862 1703.98 230.003C1703.97 233.039 1704.69 233.954 1707.85 233.919C1717.96 233.779 1728.09 233.799 1738.21 233.819ZM1693.08 127.822C1687.42 113.535 1681.76 99.2483 1675.69 83.8918C1673.52 90.0199 1671.39 96.0512 1669.28 102.012C1664.06 116.812 1658.99 131.177 1653.83 145.508C1652.65 148.717 1652.7 149.804 1656.6 149.752C1670.27 149.545 1683.92 149.58 1697.58 149.735C1701.02 149.769 1701.59 148.958 1700.24 145.835C1698.51 141.817 1696.93 137.736 1695.35 133.656C1694.6 131.709 1693.85 129.762 1693.08 127.822Z" fill="white"/>
<path fill-rule="evenodd" clip-rule="evenodd" d="M1886.9 112.051C1875.34 114.381 1865.71 120.54 1856.2 129.15C1856.2 127.124 1856.2 125.222 1856.21 123.401C1856.21 119.982 1856.21 116.849 1856.2 113.708C1856.2 113.547 1856.21 113.38 1856.21 113.212C1856.25 112.045 1856.3 110.807 1854.44 110.912C1852.68 111.016 1850.9 110.96 1849.13 110.903C1845.59 110.791 1842.06 110.679 1838.57 111.827C1833.7 113.423 1828.82 114.974 1823.94 116.525C1817.1 118.697 1810.27 120.868 1803.47 123.163C1803 123.322 1802.45 123.408 1801.88 123.496C1800.03 123.782 1798 124.097 1797.99 127.011C1797.98 127.33 1797.98 127.647 1797.97 127.962C1797.92 131.06 1797.87 133.952 1801.63 135.862C1804.57 137.352 1807.32 139.235 1810.07 141.12C1811.58 142.161 1813.1 143.203 1814.65 144.179C1816.47 145.318 1817.41 146.577 1817.41 148.941C1817.38 163.658 1817.38 178.371 1817.38 193.084C1817.38 212.699 1817.38 232.313 1817.29 251.933C1817.24 262.614 1811.88 268.653 1801.44 270.413C1798.81 270.844 1797.55 271.551 1797.93 274.364C1798.16 276.003 1798.16 277.711 1797.93 279.35C1797.43 283.008 1799.09 283.716 1802.45 283.698C1825.97 283.578 1849.51 283.56 1873.03 283.716C1876.56 283.75 1877.91 282.749 1877.36 279.281C1877.22 278.47 1877.2 277.59 1877.36 276.797C1878.27 272.311 1876.6 270.637 1871.92 270.136C1862.66 269.153 1858.89 265.219 1857 256.109C1856.03 251.498 1856.11 246.866 1856.19 242.155C1856.24 239.445 1856.28 236.709 1856.13 233.937C1866.83 236.68 1877.2 237.18 1887.73 236.007C1935.8 230.676 1959.23 187.574 1945.01 146.042C1936.23 120.368 1912.75 106.84 1886.9 112.051ZM1856.22 166.054C1856.22 168.334 1856.22 170.7 1856.22 173.183C1856.4 176.302 1856.34 179.653 1856.27 183.149C1856.16 189.265 1856.04 195.822 1857.2 202.343C1859.5 215.146 1866.43 222.376 1878.2 223.325C1887.59 224.084 1893.92 218.856 1898.84 211.678C1910.31 194.941 1910.04 166.437 1898.37 149.752C1888.4 135.482 1872.23 132.963 1858.31 143.35C1856.56 144.645 1856.17 146.025 1856.19 147.975C1856.24 153.773 1856.23 159.561 1856.22 166.054Z" fill="white"/>
<path fill-rule="evenodd" clip-rule="evenodd" d="M1082.51 162.054C1076.87 129.374 1053.42 110.912 1019.38 110.895C981.557 110.895 956.331 132.014 951.483 168.732C948.343 192.508 958.022 217.406 983.076 229.554C996.948 236.266 1011.7 237.542 1026.92 236.041C1070 231.797 1088.62 197.391 1082.51 162.054ZM994.999 141.642C992.824 150.097 992.669 158.759 992.911 167.42C992.911 168.646 992.886 169.872 992.862 171.097C992.807 173.873 992.752 176.647 992.98 179.412C993.791 190.369 994.947 201.308 1000.09 211.298C1002.99 216.941 1007.15 221.392 1013.62 222.997C1026.02 226.068 1035.91 219.822 1039.91 206.381C1042.47 197.788 1042.36 188.937 1041.97 180.12C1041.34 166.316 1040.36 152.53 1034.96 139.554C1032.27 133.118 1028.56 127.424 1021.62 124.836C1009.8 120.436 998.622 127.545 994.999 141.642Z" fill="white"/>
<path fill-rule="evenodd" clip-rule="evenodd" d="M2096 148.32C2086.41 124.094 2065.36 110.895 2036.29 110.878C2021.85 110.86 2008.08 113.742 1996.03 122.024C1976.07 135.724 1967.7 155.308 1968.53 179.05C1969.31 201.463 1979.28 218.511 1999.38 229.001C2013.56 236.404 2028.83 237.715 2044.53 236.007C2058.99 234.454 2072.09 229.812 2082.72 219.563C2100.72 202.205 2106 173.563 2096 148.32ZM2009.84 163.213C2009.79 164.344 2009.74 165.482 2009.68 166.627C2009.77 168.391 2009.83 170.201 2009.9 172.041C2010.05 176.3 2010.21 180.72 2010.68 185.106C2011.67 194.372 2013.15 203.586 2017.67 211.954C2022.79 221.444 2032.04 225.706 2041.95 223.031C2051.33 220.495 2055.35 213.196 2057.58 204.655C2060.51 193.427 2059.59 182.007 2058.67 170.681C2058.59 169.755 2058.52 168.829 2058.44 167.903C2057.58 156.964 2055.85 146.077 2050.63 136.155C2046.33 128.011 2040.12 122.852 2030.28 123.853C2020.95 124.802 2015.96 130.668 2013.15 139.054C2010.55 146.821 2010.2 154.842 2009.84 163.213Z" fill="white"/>
<path fill-rule="evenodd" clip-rule="evenodd" d="M1165.18 335.12C1160.75 335.217 1156.53 335.309 1152.64 335.082C1148.19 335.082 1144.02 335.084 1140.03 335.086C1132.54 335.09 1125.69 335.093 1118.83 335.082C1118.65 335.082 1118.47 335.079 1118.29 335.076C1116.45 335.049 1114.76 335.023 1115.05 337.963C1115.09 338.317 1115.11 338.663 1115.12 338.996C1115.18 340.627 1115.23 341.93 1118.13 342.173C1124.46 342.708 1126.77 345.607 1127.12 351.974C1127.25 354.564 1127.24 357.154 1127.23 359.744C1127.22 360.484 1127.22 361.224 1127.22 361.964C1127.22 366.362 1127.22 370.759 1127.23 375.155C1127.24 387.247 1127.26 399.335 1127.17 411.433C1127.12 418.593 1124.72 421.647 1118.13 422.148C1115.19 422.36 1115.16 423.702 1115.11 425.331C1115.1 425.685 1115.09 426.054 1115.05 426.427C1114.73 429.373 1116.39 429.331 1118.17 429.285C1118.39 429.28 1118.61 429.274 1118.83 429.274C1124.83 429.268 1130.83 429.294 1136.82 429.32C1149.18 429.373 1161.53 429.425 1173.88 429.205C1204.67 428.67 1223.5 408.62 1224.81 382.583C1225.95 360.084 1210.52 339.602 1188.3 336.048C1180.44 334.788 1172.53 334.96 1165.18 335.12ZM1152.08 369.386C1152.07 372.233 1152.07 375.079 1152.07 377.925C1152.07 380.923 1152.06 383.921 1152.05 386.92C1152.04 394.413 1152.03 401.909 1152.1 409.414C1152.15 416.109 1155.14 420.785 1160.78 421.751C1174.07 424.028 1187.97 421.268 1194.39 405.342C1200.15 391.021 1199.84 376.372 1194.3 362.05C1189.82 350.438 1181.31 343.329 1168.56 342.208C1166.26 342.005 1163.94 341.994 1161.62 341.984C1159.6 341.974 1157.58 341.965 1155.57 341.828C1152.67 341.621 1151.96 342.691 1152 345.452C1152.11 353.425 1152.09 361.407 1152.08 369.386Z" fill="white"/>
<path fill-rule="evenodd" clip-rule="evenodd" d="M781.561 411.002C792.259 425.996 807.857 431.069 828.545 431.138C834.756 431.465 843.487 429.705 851.856 426.047C882.775 412.416 890.678 369.056 865.711 346.815C850.147 332.943 831.167 330.251 811.308 335.255C777.126 343.865 761.718 383.187 781.561 411.002ZM850.199 406.671C852.597 399.821 852.908 392.695 852.96 385.534C852.874 374.819 851.838 364.277 846.8 354.58C841.9 345.159 834.411 339.982 823.437 340.914C813.447 341.759 807.184 347.73 804.095 356.616C797.97 374.215 798.522 391.97 805.717 409.155C810.082 419.56 818.969 424.702 829.373 424.184C838.535 423.735 846.593 416.954 850.199 406.671Z" fill="white"/>
<path fill-rule="evenodd" clip-rule="evenodd" d="M1493.58 412.865C1504.51 426.583 1519.6 431.172 1538.69 431.103C1542.62 431.397 1548.57 430.62 1554.35 428.912C1575.11 422.804 1587.19 409.035 1590.5 387.639C1593.37 369.229 1585.45 350.766 1569.73 341.794C1549.25 330.113 1528.09 329.474 1507.51 341.449C1482.14 356.219 1475.64 390.296 1493.58 412.865ZM1563.66 388.79C1563.72 387.942 1563.77 387.098 1563.83 386.259C1563.79 372.265 1560.81 359.445 1555.91 351.888C1550.76 343.916 1543.55 340.051 1533.98 340.897C1525.33 341.673 1519.12 346.332 1515.94 354.01C1507.96 373.283 1508.58 392.66 1517.65 411.399C1522.02 420.388 1529.92 424.874 1540.1 424.098C1550.11 423.339 1556.3 417.3 1560.12 408.414C1562.83 402.046 1563.25 395.313 1563.66 388.79Z" fill="white"/>
<path d="M1267.74 351.854C1272.26 363.328 1276.47 374.026 1280.92 385.31C1272.92 385.31 1265.63 385.293 1258.34 385.327C1256.44 385.327 1256.04 384.533 1256.64 382.86C1260.27 372.766 1263.86 362.672 1267.74 351.854Z" fill="white"/>
</g>
<defs>
<clipPath id="clip0">
<rect width="2101" height="458" fill="white"/>
</clipPath>
</defs>
</svg>
