<svg width="456" height="328" viewBox="0 0 456 328" fill="none" xmlns="http://www.w3.org/2000/svg">
<path d="M199.928 310.678C199.963 311.774 199.294 311.932 198.536 311.532C196.992 310.719 195.51 309.788 194.194 309.016C192.767 309.485 191.361 310.133 189.893 310.374C188.618 310.588 187.405 309.471 187.005 308.217C186.592 306.935 186.199 305.652 185.723 304.398C185.592 304.046 185.248 303.729 184.924 303.502C183.201 302.295 181.43 301.172 179.727 299.931C178.418 298.98 176.97 298.739 175.433 298.821C174.172 298.89 173.324 298.284 172.497 297.443C171.718 296.643 170.857 295.899 169.947 295.258C168.748 294.417 167.487 293.658 166.205 292.941C165.405 292.493 164.551 292.135 163.689 291.832C160.243 290.612 156.79 289.426 153.337 288.233C152.937 288.096 152.537 287.958 152.131 287.875C147.396 286.951 142.661 286.048 137.926 285.131C137.189 284.987 136.472 284.697 135.727 284.628C134.163 284.477 132.592 284.353 131.02 284.353C129.559 284.353 128.084 284.67 126.63 284.601C122.109 284.394 118.297 285.704 114.954 288.916C112.776 291.011 112.328 293.403 112.473 296.071C112.556 297.608 113.507 298.739 115.099 299.29C117.505 300.131 119.944 300.669 122.501 300.634C122.543 300.634 122.584 300.634 122.625 300.641C123.404 300.738 124.431 300.634 124.41 301.758C124.383 302.778 123.384 302.833 122.667 302.75C120.592 302.516 118.525 302.206 116.478 301.813C115.837 301.689 115.43 301.592 114.982 302.213C113.266 304.584 111.839 307.079 111.04 309.919C110.619 311.408 110.771 312.67 111.894 313.869C114.058 316.185 116.671 317.667 119.689 318.522C120.227 318.674 120.709 319.039 121.213 319.308C121.171 319.446 121.137 319.577 121.095 319.714C120.668 319.714 120.234 319.77 119.813 319.708C115.844 319.08 112.701 317.04 110.219 313.945C109.151 312.614 109.344 311.084 109.765 309.609C110.578 306.783 111.929 304.239 113.962 302.075C114.182 301.834 114.369 301.558 114.575 301.289C110.55 299.042 109.516 295.795 111.756 291.776C112.845 289.819 114.224 287.978 115.726 286.31C118.097 283.677 121.35 282.946 124.748 282.705C127.092 282.54 129.428 282.25 131.771 282.209C133.177 282.188 134.597 282.484 135.989 282.74C137.761 283.063 139.504 283.505 141.262 283.884C141.999 284.042 142.764 284.111 143.495 284.284C150.973 286.096 158.382 288.151 165.509 291.066C167.066 291.708 168.39 292.921 169.844 293.824C170.547 294.258 171.305 294.603 172.111 295.03C172.449 291.597 173.097 288.295 173.028 285.007C172.931 280.113 173.91 275.385 174.62 270.614C175.364 265.631 176.44 260.688 177.315 255.725C177.866 252.603 180.341 250.969 182.739 250.045C186.04 248.77 188.963 247.102 191.768 245.034C193.642 243.648 195.042 241.925 196.199 239.954C198.543 235.969 201.396 232.433 205.111 229.621C206.986 228.201 208.922 226.836 210.604 225.216C212.41 223.479 214.174 221.611 215.573 219.55C218.868 214.697 223.196 210.954 227.779 207.432C231.529 204.55 235.692 202.517 240.213 201.173C240.688 201.028 241.164 200.876 241.55 200.759C242.922 194.983 243.004 189.254 242.57 183.485C242.391 181.1 242.225 178.708 242.108 176.323C242.074 175.578 242.191 174.806 242.336 174.069C242.384 173.821 242.749 173.641 242.97 173.428C243.128 173.648 243.39 173.855 243.425 174.096C243.542 174.972 243.563 175.854 243.659 176.736C243.935 179.204 244.245 181.665 244.507 184.133C244.948 188.345 244.72 192.543 244.024 196.706C243.824 197.885 243.308 199.008 242.825 200.477C245.189 199.884 247.381 199.332 249.573 198.788C248.58 199.96 247.353 200.814 245.892 201.118C235.705 203.241 227.442 208.652 220.432 216.11C218.192 218.488 216.38 221.259 214.291 223.782C213.389 224.871 212.382 225.933 211.252 226.767C207.627 229.435 203.87 231.958 201.031 235.501C199.204 237.775 197.647 240.271 195.972 242.67C196.089 242.807 196.206 242.945 196.33 243.09C197.247 242.614 198.15 242.118 199.074 241.663C203.264 239.588 207.516 237.789 212.348 239.23C212.872 239.388 213.395 239.561 213.878 239.816C218.268 242.097 222.155 245.096 225.788 248.418C226.415 248.991 226.766 249.859 227.249 250.583C227.145 250.659 227.042 250.735 226.945 250.817C226.773 250.728 226.566 250.666 226.429 250.542C224.513 248.853 222.734 246.971 220.667 245.496C217.517 243.249 214.505 240.54 210.363 240.278C208.971 240.188 207.434 240.236 206.159 240.719C201.617 242.442 197.089 244.248 192.691 246.302C190.238 247.447 188.046 249.135 185.737 250.576C185.379 250.797 185.02 251.148 184.641 251.169C182.636 251.272 181.478 252.809 180.072 253.871C179.479 254.319 179.1 255.263 178.948 256.049C178.163 260.006 177.446 263.976 176.777 267.961C175.785 273.84 174.51 279.672 174.517 285.697C174.524 288.916 173.951 292.135 173.779 295.361C173.738 296.16 174.234 297.001 174.517 297.808C174.551 297.911 174.792 297.973 174.944 297.987C177.632 298.249 179.445 297.208 180.058 294.734C180.795 291.776 181.933 288.874 181.533 285.717C181.092 282.174 180.823 278.611 180.223 275.095C179.872 273.02 179.844 271.18 180.857 269.257C182.146 266.809 183.139 264.211 184.324 261.708C184.738 260.833 185.344 260.047 185.861 259.22C185.999 259.289 186.137 259.358 186.275 259.427C185.744 261.026 185.282 262.66 184.662 264.224C183.842 266.292 182.953 268.333 181.981 270.332C181.395 271.545 181.409 272.724 181.547 274.006C182.05 278.507 182.581 283.008 182.856 287.53C182.953 289.109 182.443 290.763 182.022 292.328C181.485 294.334 180.754 296.285 180.051 298.421C181.388 299.297 182.987 300.345 184.869 301.579C184.062 297.608 182.518 294.037 183.056 290.198C183.166 290.17 183.277 290.136 183.387 290.108C183.483 290.46 183.614 290.811 183.663 291.17C184.317 296.422 186.082 301.372 187.777 306.349C187.832 306.507 187.894 306.666 187.936 306.824C188.211 307.906 188.494 309.03 189.831 309.195C191.354 309.382 192.533 308.616 193.422 307.486C194.959 305.535 195.4 303.295 195.496 300.786C195.676 295.809 194.497 291.018 194.022 286.138C193.904 284.897 193.884 283.58 194.18 282.388C194.697 280.32 194.518 278.3 194.201 276.274C193.684 272.944 194.58 269.753 195.021 266.513C195.179 265.348 195.428 264.19 195.738 263.06C195.917 262.418 196.31 261.839 196.606 261.233C196.737 261.267 196.868 261.302 196.999 261.343C196.999 261.715 197.054 262.101 196.992 262.467C196.482 265.403 195.703 268.319 195.496 271.276C195.29 274.22 195.372 277.253 195.82 280.168C196.813 286.6 198.129 292.983 199.273 299.393C199.804 302.371 200.149 305.384 200.741 308.348C200.955 309.416 201.555 310.443 202.154 311.387C202.788 312.394 203.705 312.635 204.877 312.035C205.842 311.539 206.917 311.25 207.951 310.919C209.026 310.574 209.467 309.961 209.632 308.747C210.177 304.798 209.55 300.958 209.012 297.084C208.082 290.425 208.268 283.732 208.764 277.06C209.177 271.531 209.956 266.037 210.577 260.53C210.611 260.24 210.618 259.916 210.756 259.668C210.956 259.31 211.266 259.02 211.528 258.696C211.721 259.103 212.079 259.51 212.072 259.909C212.058 261.171 211.962 262.432 211.803 263.68C211.307 267.554 211.686 271.338 212.313 275.191C213.016 279.527 213.271 283.953 213.54 288.351C213.871 293.844 213.905 299.366 215.284 304.742C215.677 306.273 216.214 307.803 216.938 309.202C217.862 311.001 219.516 311.45 221.335 310.54C222.693 309.864 223.83 308.871 224.071 307.279C224.499 304.46 225.085 301.627 225.119 298.787C225.216 291.432 225.071 284.077 224.981 276.722C224.94 273.317 224.699 269.911 224.768 266.513C224.843 262.742 225.512 259.068 227.428 255.725C227.524 255.553 227.655 255.394 228.034 255.27C227.979 255.711 227.993 256.18 227.855 256.601C225.877 262.591 226.029 268.767 226.153 274.964C226.291 281.643 226.415 288.33 226.346 295.009C226.305 298.987 225.898 302.964 225.664 306.7C226.952 307.576 228.276 308.465 229.64 309.388C230.281 308.258 231.005 306.997 231.722 305.728C233.148 303.205 234.396 300.572 236.036 298.194C238.111 295.182 240.454 292.355 243.907 290.736C245.01 290.219 246.037 289.557 247.126 288.998C247.746 288.681 247.856 288.316 247.546 287.696C245.665 283.849 243.707 280.037 241.984 276.115C240.799 273.42 238.89 271.614 236.381 270.235C235.623 269.822 235.12 268.946 234.492 268.285C234.12 267.899 233.755 267.506 233.355 267.147C233.08 266.899 232.625 266.768 232.466 266.472C231.343 264.287 229.268 263.073 227.524 261.522C227.38 261.391 227.269 261.226 227.256 260.812C227.6 260.902 228.007 260.902 228.283 261.088C230.047 262.281 231.949 263.321 233.038 265.3C233.266 265.713 233.803 265.962 234.279 266.354C234.279 264.417 234.293 262.722 234.279 261.026C234.231 256.711 233.162 252.706 230.578 249.19C229.882 248.246 229.013 247.44 228.276 246.53C228.083 246.288 228.069 245.902 227.972 245.578C228.338 245.647 228.82 245.585 229.054 245.799C231.005 247.571 232.611 249.597 233.528 252.113C233.783 252.809 234.168 253.464 234.554 254.243C236.732 252.044 239.434 251.451 242.129 250.755C245.382 249.921 248.573 248.853 251.812 247.977C255.093 247.088 258.401 246.282 261.71 245.503C264.956 244.738 267.809 243.131 270.614 241.429C271.393 240.953 272.027 240.243 272.716 239.637C273.302 239.12 273.881 238.582 274.612 237.927C274.426 237.341 274.322 236.507 273.916 235.852C272.034 232.826 271.317 229.386 270.366 226.043C268.65 219.984 265.831 214.428 262.199 209.369C260.497 206.991 257.76 205.384 255.775 203.179C253.591 200.752 250.916 198.96 248.504 196.837C247.849 196.265 247.339 195.527 247.815 194.617C248.242 193.804 248.911 193.404 249.917 193.666C250.213 193.742 250.758 193.528 250.93 193.273C251.544 192.384 252.123 191.46 252.564 190.481C253.294 188.827 254.673 188.262 256.244 189.089C256.465 189.206 256.706 189.289 256.947 189.372C258.643 189.923 259.097 189.682 259.001 187.938C258.842 185.139 260.056 183.278 262.509 182.092C263.564 181.582 264.591 181.024 265.673 180.576C266.031 180.424 266.5 180.555 267.196 180.555C265.59 181.575 264.28 182.43 262.943 183.244C261.792 183.947 261.069 184.767 261.241 186.29C261.372 187.435 261.151 188.634 261.034 189.799C260.779 192.294 261.344 194.631 262.309 196.913C262.454 197.251 262.289 197.719 262.268 198.133C261.937 197.885 261.406 197.699 261.296 197.375C260.696 195.631 260.173 193.859 259.676 192.081C259.421 191.171 259.187 190.461 257.947 190.599C257.285 190.674 256.54 190.364 255.9 190.089C254.714 189.578 254.011 189.833 253.425 190.95C252.874 192.019 252.281 193.094 251.53 194.031C251.22 194.417 250.455 194.452 249.89 194.631C249.497 194.755 249.097 194.866 248.697 194.976C248.883 195.403 248.945 195.975 249.269 196.23C250.51 197.23 251.881 198.071 253.101 199.084C254.183 199.987 255.114 201.076 256.155 202.034C258.16 203.889 260.242 205.667 262.206 207.563C263.012 208.335 263.667 209.293 264.287 210.237C266.858 214.146 269.167 218.199 270.821 222.583C271.648 224.782 272.22 227.077 272.965 229.311C273.468 230.82 273.895 232.392 274.653 233.777C276.025 236.293 276.576 238.975 276.652 241.773C276.707 243.724 277.134 245.537 278.726 246.695C279.643 247.364 280.897 247.653 282.048 247.826C282.317 247.867 283.027 246.771 283.075 246.158C283.199 244.703 283.834 243.545 284.84 242.635C286.115 241.491 287.459 240.367 288.927 239.499C293.331 236.886 297.811 234.391 302.263 231.861C302.325 231.827 302.422 231.868 302.753 231.896C302.546 232.288 302.449 232.681 302.201 232.888C301.595 233.398 300.933 233.86 300.258 234.281C296.102 236.824 291.911 239.319 287.776 241.904C286.246 242.863 284.916 244.083 284.357 246.171C284.998 246.171 285.488 246.24 285.949 246.158C287.445 245.889 288.775 246.295 290.03 247.067C290.602 247.419 291.167 247.812 291.78 248.074C293.469 248.784 294.062 250.169 294.31 251.844C294.468 252.892 294.723 253.919 294.978 255.167C295.826 254.622 296.522 254.374 296.908 253.878C297.287 253.382 297.618 252.596 297.515 252.024C297.08 249.701 297.604 247.805 299.431 246.254C302.084 243.993 304.689 241.684 307.446 239.285C305.654 238.672 305.42 237.038 304.806 235.749C303.931 233.915 303.338 231.951 302.546 229.841C305.406 231.675 305.199 235.135 307.384 237.376C308.384 236.19 309.479 235.094 310.327 233.826C312.009 231.33 314.111 229.324 316.702 227.835C317.743 227.236 318.239 226.436 318.377 225.223C318.687 222.583 320.3 220.501 321.637 218.33C322.802 216.441 324.167 214.67 325.207 213.174C325.001 212.188 324.766 211.533 324.739 210.865C324.635 208.383 324.608 205.908 324.539 203.427C324.353 196.265 325.311 189.241 327.261 182.361C328.019 179.701 329.005 177.109 329.811 174.462C330.301 172.856 330.811 171.229 331.004 169.574C331.176 168.127 330.928 166.624 330.845 165.142C330.783 164.094 330.266 163.288 329.336 162.819C327.344 161.82 325.993 160.158 324.766 158.394C324.304 157.725 323.912 157.415 323.029 157.656C321.451 158.09 320.024 157.656 318.867 156.484C318.543 156.16 318.301 155.754 317.881 155.202C317.585 155.788 317.433 156.05 317.316 156.34C315.4 161.041 313.628 165.811 311.519 170.429C310.341 173 308.976 175.599 306.674 177.419C305.468 178.377 304.145 179.259 302.746 179.887C300.568 180.859 298.328 181.768 296.026 182.354C293.765 182.933 291.539 182.168 289.396 181.362C288.651 181.079 287.934 180.714 287.183 180.452C283.606 179.197 280.146 179.694 276.652 180.955C275.694 181.3 274.798 181.665 273.895 182.12C273.433 182.354 272.537 182.113 272.02 181.789C270.166 180.638 268.368 179.397 266.596 178.122C265.928 177.639 265.431 177.681 264.604 177.812C262.916 178.074 261.145 177.784 259.408 177.715C258.967 177.695 258.463 177.474 258.098 177.619C257.085 178.032 256.375 177.674 255.769 176.936C255.369 176.454 254.921 175.958 254.687 175.392C253.825 173.242 252.088 172.008 250.145 171.043C249.393 170.671 248.463 170.602 247.608 170.498C246.898 170.415 246.168 170.477 245.437 170.236C247.05 169.45 248.711 169.03 250.393 169.795C252.681 170.829 254.687 172.139 255.81 174.62C256.837 176.895 257.471 176.978 259.077 175.123C261.02 172.883 263.543 171.656 266.093 170.353C267.706 169.533 269.146 168.361 270.745 167.3C270.697 167.245 270.883 167.362 270.883 167.479C270.959 169.361 272.379 170.422 273.475 171.636C275.273 173.628 275.894 175.896 275.563 178.508C275.494 179.073 275.549 179.659 275.549 180.211C275.708 180.259 275.818 180.321 275.859 180.293C280.312 177.095 284.957 177.467 289.678 179.556C292.986 181.024 296.157 181.107 299.444 179.301C302.105 177.846 304.993 176.723 306.771 174.138C308.335 171.856 309.907 169.506 310.975 166.976C313.339 161.372 315.669 155.719 317.481 149.922C319.246 144.277 320.617 138.479 321.637 132.655C322.34 128.636 322.175 124.459 322.375 120.35C322.43 119.179 322.382 118.007 322.382 116.58C323.47 118.103 323.822 119.627 323.932 121.205C324.277 126.148 323.967 131.049 322.823 135.867C321.616 140.982 320.328 146.076 319.053 151.17C318.791 152.224 318.412 153.258 318.06 154.389C318.563 154.768 319.08 155.182 319.625 155.561C321.093 156.581 322.699 156.498 323.967 155.202C325.959 153.169 326.903 150.536 327.868 147.937C328.543 146.11 329.205 144.283 330.121 142.546C330.121 147.971 328.371 152.748 324.766 157.236C326.317 158.559 327.813 160.11 329.563 161.275C331.907 162.833 332.513 164.094 332.024 166.921C331.707 168.754 331.762 170.643 331.555 172.497C331.452 173.407 331.224 174.324 330.914 175.186C327.254 185.277 325.621 195.665 326.276 206.398C326.324 207.239 326.317 208.08 326.331 208.921C326.338 209.762 326.331 210.596 326.331 211.671C326.751 211.34 326.999 211.154 327.241 210.961C328.502 209.982 329.729 208.962 331.024 208.025C333.437 206.274 335.897 204.585 338.316 202.848C340.928 200.966 343.616 199.174 346.104 197.14C350.633 193.445 355.071 189.654 359.482 185.822C364.686 181.3 369.82 176.695 374.983 172.132C375.224 171.918 375.493 171.739 375.817 171.491C376.12 172.428 375.989 173.083 375.279 173.697C368.414 179.639 361.577 185.608 354.713 191.55C351.915 193.969 349.13 196.403 346.215 198.677C343.906 200.477 341.397 202.014 339.019 203.73C337.455 204.861 335.966 206.101 334.457 207.301C332.162 209.121 329.639 210.734 327.64 212.836C325.635 214.945 324.084 217.51 322.471 219.964C321.996 220.687 321.871 221.701 321.741 222.597C321.293 225.609 321.61 228.49 322.926 231.31C326.586 239.168 330.535 246.847 335.208 254.181C338.392 259.179 341.769 263.935 345.918 268.154C346.194 268.429 346.401 268.774 346.442 269.305C346.222 269.181 345.96 269.098 345.794 268.926C342.872 265.803 339.833 262.777 337.076 259.51C331.734 253.175 327.695 245.964 323.898 238.658C322.133 235.266 321.162 231.461 319.825 227.849C319.756 227.656 319.694 227.47 319.673 227.401C314.938 230.179 311.34 234.053 308.673 238.403C311.078 241.698 313.649 244.724 315.655 248.094C318.398 252.706 320.789 257.545 323.188 262.35C325.083 266.148 326.793 270.035 328.522 273.916C328.805 274.544 329.598 275.371 328.591 275.97C328.454 276.053 327.454 275.061 327.151 274.426C324.049 267.988 321.106 261.467 317.929 255.07C315.31 249.79 312.071 244.875 308.473 240.126C305.475 242.711 302.504 245.158 299.692 247.777C299.051 248.37 298.796 249.528 298.659 250.466C298.59 250.969 299.362 251.555 299.396 252.127C299.692 257.579 300.003 263.032 300.12 268.491C300.182 271.318 300.685 273.971 301.739 276.584C302.656 278.838 303.304 281.202 304.221 283.456C306.047 287.965 307.942 292.452 309.879 296.912C311.402 300.42 312.919 303.936 314.628 307.355C317.66 313.414 319.404 319.914 321.472 326.311C321.548 326.552 321.706 326.794 321.692 327.028C321.665 327.359 321.513 327.676 321.417 328C321.127 327.807 320.769 327.669 320.576 327.407C320.362 327.118 320.3 326.711 320.176 326.353C318.674 321.893 317.392 317.35 315.62 313C313.615 308.065 311.106 303.329 308.942 298.456C306.964 294.01 305.137 289.495 303.283 284.987C302.277 282.54 301.464 280.01 300.389 277.597C298.762 273.923 298.335 270.111 298.535 266.141C298.714 262.57 298.734 258.993 298.81 255.415C298.817 254.967 298.748 254.519 298.714 253.974C297.894 254.56 297.218 255.077 296.501 255.546C294.985 256.546 294.11 256.235 293.586 254.526C293.455 254.092 293.359 253.65 293.021 253.202C292.821 254.34 292.662 255.484 292.421 256.608C291.698 259.971 291.015 263.349 290.167 266.685C289.54 269.167 290.229 271.386 291.029 273.668C292.786 278.659 294.406 283.691 295.137 288.971C295.35 290.501 295.64 292.087 296.267 293.479C297.963 297.243 298.073 301.193 298.204 305.204C298.39 311.139 297.28 316.743 294.551 322.024C294.22 322.665 293.772 323.251 293.372 323.864C293.234 323.816 293.09 323.774 292.952 323.726C293.035 323.154 293.028 322.548 293.207 322.01C294.006 319.666 295.061 317.391 295.661 314.999C297.087 309.285 297.011 303.481 295.998 297.718C295.661 295.802 294.73 293.989 294.117 292.114C293.882 291.397 293.772 290.646 293.586 289.908C292.559 285.8 291.594 281.678 290.471 277.597C289.85 275.336 288.603 273.192 288.327 270.911C288.045 268.56 288.52 266.099 288.81 263.707C288.941 262.605 289.423 261.536 289.699 260.633C287.1 260.254 284.571 259.792 282.021 259.53C275.08 258.8 268.133 258.124 261.179 257.483C254.611 256.876 248.029 256.346 241.46 255.76C240.861 255.705 240.275 255.498 239.51 255.325C241.702 254.085 287.183 257.779 289.94 259.351C290.464 256.725 291.015 254.154 291.456 251.569C291.525 251.155 291.256 250.521 290.932 250.224C289.285 248.715 287.624 247.164 285.095 247.515C284.771 247.564 284.426 247.522 284.095 247.522C283.33 249.197 282.572 249.535 280.615 249.08C277.307 248.315 275.28 245.785 275.101 242.222C275.046 241.16 274.929 240.105 274.825 238.92C274.467 239.113 274.322 239.14 274.26 239.23C270.697 244.248 265.404 246.392 259.766 247.922C253.446 249.639 247.084 251.196 240.792 253.016C238.752 253.609 236.898 254.808 235.299 255.567C235.519 259.82 235.678 263.632 235.947 267.43C235.988 268.009 236.388 268.85 236.863 269.07C240.571 270.801 242.398 274.089 244.066 277.508C245.616 280.678 247.084 283.884 248.559 287.089C249.345 288.792 249.242 289.205 247.519 290.067C243.742 291.949 240.303 294.258 237.911 297.808C236.298 300.2 234.872 302.723 233.41 305.225C232.349 307.038 231.398 308.913 230.364 310.74C229.778 311.767 229.213 311.76 228.538 310.981C227.573 309.878 226.498 308.865 225.546 307.893C224.43 309.195 223.658 310.354 222.645 311.229C220.384 313.18 217.276 312.711 215.911 310.098C215.029 308.417 214.471 306.521 214.009 304.667C213.478 302.55 213.168 300.379 212.858 298.215C212.658 296.795 212.403 295.492 210.976 294.741C210.604 294.548 210.39 294.065 209.805 293.762C209.984 295.306 210.073 296.871 210.363 298.394C211.052 302.054 211.321 305.714 210.963 309.43C210.818 310.912 209.922 311.656 208.709 312.187C208.144 312.435 207.53 312.587 206.717 312.856C207.11 313.069 207.282 313.214 207.482 313.276C212.375 314.82 217.29 316.268 222.383 317.012C223.906 317.233 225.381 317.819 226.877 318.253C230.426 319.28 234.024 320.19 237.511 321.389C241.205 322.658 244.796 324.202 248.422 325.67C248.683 325.773 248.821 326.187 249.021 326.456C248.683 326.532 248.297 326.752 248.015 326.663C246.299 326.104 244.617 325.429 242.901 324.871C239.71 323.837 236.498 322.851 233.286 321.858C231.081 321.183 228.875 320.507 226.656 319.88C223.382 318.949 220.095 318.095 216.828 317.143C213.644 316.22 210.487 315.172 207.296 314.283C206.248 313.993 205.097 313.876 204.008 313.938C202.327 314.034 201.52 312.959 200.672 311.842C200.404 311.484 200.149 311.105 199.887 310.74C199.735 310.223 199.535 309.706 199.453 309.175C198.653 304.157 197.895 299.131 197.082 294.12C196.606 291.197 196.034 288.282 195.51 285.366C195.4 285.386 195.283 285.4 195.173 285.421C195.248 286.414 195.186 287.441 195.421 288.392C196.53 292.804 196.613 297.284 196.551 301.792C196.523 303.709 196.261 305.563 194.986 307.121C194.766 307.389 194.676 307.762 194.497 308.148C196.386 308.996 198.157 309.837 199.928 310.678ZM266.417 177.185C267.968 178.081 269.636 179.122 271.379 180.045C273.819 181.334 273.84 181.3 274.178 178.646C274.191 178.563 274.205 178.48 274.219 178.398C274.95 174.813 272.916 172.483 270.814 170.415C269.332 172.683 267.892 174.903 266.417 177.185ZM210.597 272.903C210.466 272.91 210.328 272.91 210.197 272.917C210.163 273.068 210.108 273.22 210.108 273.379C209.942 278.831 209.908 284.29 209.557 289.736C209.398 292.149 211.107 293.114 212.341 294.575C212.279 287.275 212.141 280.03 210.597 272.903ZM259.504 176.771C261.303 176.799 263.005 177.453 264.508 176.247C266.286 174.82 267.596 173.007 268.436 170.801C264.763 171.897 261.379 174.124 259.504 176.771Z" fill="#3D2F2E"/>
<path d="M324.925 69.0652C329.942 71.4433 334.147 74.8761 338.33 78.3158C340.494 80.0942 342.445 82.1346 344.485 84.0647C347.2 86.6358 349.964 89.1518 352.604 91.7988C354.561 93.7634 356.532 95.7486 358.159 97.982C359.854 100.312 361.329 102.855 362.577 105.454C365.589 111.748 368.697 118.027 371.213 124.521C373.094 129.373 376.906 132.055 380.662 135.005C381.599 135.743 382.412 136.639 383.288 137.466C384.108 138.245 384.825 139.203 385.769 139.768C388.285 141.285 390.869 142.698 393.474 144.042C395.976 145.331 398.478 146.661 401.104 147.633C402.986 148.337 405.074 148.516 407.087 148.833C407.417 148.888 407.831 148.433 408.238 148.199C408.32 148.33 408.444 148.516 408.403 148.461C410.491 147.199 412.462 145.848 414.571 144.773C418.472 142.794 422.497 142.36 426.585 144.345C427.832 144.952 429.086 145.559 430.382 146.055C434.931 147.792 437.612 151.569 440.348 155.237C445.118 161.647 448.123 168.961 450.921 176.371C453.347 182.809 455.029 189.447 455.697 196.306C456.18 201.221 456.069 206.149 453.733 210.616C451.245 215.379 448.681 220.122 445.276 224.341C442.161 228.201 439.225 232.213 436.013 235.983C432.45 240.174 428.631 244.151 424.972 248.26C423.435 249.983 421.974 251.775 420.554 253.602C414.937 260.84 409.389 268.133 403.751 275.357C400.649 279.327 397.451 283.229 394.26 287.13C389.911 292.445 386.196 298.187 382.647 304.046C382.364 304.515 382.075 304.997 381.696 305.377C379.159 307.913 377.616 311.112 375.762 314.11C375.631 314.317 375.493 314.517 375.279 314.675C375.955 311.663 376.83 308.802 378.718 306.218C381.71 302.116 384.404 297.794 387.251 293.582C387.974 292.507 388.781 291.48 389.587 290.467C391.648 287.868 393.757 285.304 395.797 282.691C400.167 277.094 404.488 271.455 408.851 265.858C413.317 260.123 417.694 254.305 422.339 248.715C426.04 244.255 430.299 240.257 433.925 235.749C438.873 229.6 443.553 223.231 448.157 216.813C449.887 214.407 451.279 211.705 452.458 208.976C454.608 204.013 454.326 198.781 453.547 193.576C452.272 185.022 449.508 176.916 446.034 169.044C443.271 162.791 439.983 156.829 435.379 151.714C434.324 150.542 433.105 149.412 431.74 148.667C429.204 147.275 426.543 146.089 423.862 145.007C422.814 144.587 421.539 144.428 420.409 144.559C415.247 145.138 410.85 147.261 407.521 151.376C407.293 151.659 406.866 151.776 406.253 152.135C406.37 151.487 406.432 151.156 406.501 150.784C405.749 150.584 404.998 150.253 404.226 150.198C400.649 149.915 397.782 147.895 394.75 146.324C391.848 144.821 389.077 143.07 386.217 141.471C384.563 140.547 383.24 139.341 382.206 137.735C381.772 137.059 381.048 136.563 380.421 136.018C377.988 133.902 375.513 131.827 373.122 129.663C372.46 129.063 372.054 128.195 371.502 127.402C367.87 137.976 361.653 147.11 355.809 156.395C352.128 162.247 347.834 167.775 342.334 172.146C338.95 174.834 335.463 177.391 331.976 179.955C331.569 180.252 330.907 180.197 330.363 180.307C330.618 179.742 330.728 178.984 331.162 178.632C333.354 176.867 335.622 175.192 337.875 173.503C341.521 170.767 344.864 167.72 347.745 164.177C355.443 154.713 361.626 144.256 367.663 133.709C368.842 131.648 369.648 129.353 370.517 127.126C370.716 126.616 370.634 125.851 370.386 125.341C368.718 121.95 366.981 118.586 365.251 115.222C364.527 113.822 363.7 112.478 363.032 111.058C362.487 109.893 362.15 108.632 361.646 107.453C359.331 102.056 356.071 97.2996 351.88 93.1844C348.041 89.4138 344.251 85.6019 340.356 81.8934C339.447 81.0248 338.144 80.5905 337.117 79.8254C335.532 78.6467 334.078 77.2956 332.486 76.1238C330.459 74.628 328.371 73.2149 326.276 71.8087C325.662 71.3951 324.932 71.1469 324.105 70.7471C323.484 72.2567 322.43 73.0701 320.872 73.2838C320.569 73.3252 320.245 74.0076 320.121 74.4487C319.514 76.5994 318.446 78.4881 316.93 80.108C315.834 81.2799 315.193 81.3143 313.863 80.4596C313.553 80.2597 313.181 80.0667 312.829 80.0598C311.437 80.046 310.885 79.3015 310.837 78.0056C310.796 76.8682 310.224 76.1307 309.231 75.5034C306.047 73.4906 305.634 72.4152 306.33 68.7067C306.13 68.6102 305.923 68.4655 305.696 68.3965C304.407 68.045 303.787 67.1971 303.911 65.8805C304 64.9431 303.552 64.5364 302.704 64.5088C300.237 64.4261 297.749 64.0607 295.378 65.1705C293.903 65.8599 292.359 66.3148 290.753 65.6875C290.381 65.5428 290.14 65.0396 289.844 64.7018C290.23 64.6053 290.602 64.4743 290.995 64.4054C291.932 64.2538 292.98 64.3571 293.786 63.9573C297.087 62.3306 300.499 62.365 304.007 62.9096C304.848 63.0406 305.744 62.8476 306.419 62.8131C306.971 61.3104 307.488 59.9662 307.956 58.6083C308.046 58.3463 308.046 58.0086 307.963 57.7397C307.315 55.6166 306.757 53.4522 305.944 51.3911C305.206 49.5162 304.565 47.6964 304.924 45.6491C305.379 43.0573 306.702 41.1892 309.231 40.2311C309.493 40.1346 309.762 39.6245 309.755 39.3074C309.741 37.8047 309.114 36.9637 307.281 36.6466C304.359 36.1365 302.084 34.5718 299.954 32.6831C299.451 32.2419 298.955 31.7663 298.569 31.2217C295.213 26.5068 290.857 22.8465 286.253 19.4413C286.018 19.269 285.777 19.0346 285.508 18.9864C281.29 18.1799 277.913 15.4915 274.047 13.8923C272.089 13.0858 270.27 11.9347 268.347 11.0385C267.492 10.6387 266.541 10.3079 265.618 10.2596C262.013 10.0597 258.401 10.039 254.797 9.84603C251.496 9.66681 248.187 9.10846 244.893 9.17739C241.516 9.24632 238.138 9.83224 234.768 10.2596C233.149 10.4664 231.522 10.7215 229.944 11.1419C226.704 11.9967 223.403 12.748 220.295 13.9681C215.684 15.7741 211.231 17.9937 206.676 19.9583C203.078 21.5093 200.225 24.039 197.516 26.7481C192.726 31.5526 189.721 37.4462 187.295 43.6915C186.378 46.042 185.351 48.3443 184.407 50.6811C184.076 51.4945 183.718 52.3355 183.601 53.1971C183.215 56.0647 182.112 58.6841 181.119 61.3724C179.72 65.143 178.714 69.0652 177.494 72.9047C176.385 76.3857 175.344 79.8599 174.806 83.5132C173.917 89.5379 173.807 95.5073 175.351 101.415C176.143 104.455 177.205 107.426 178.156 110.424C178.28 110.81 178.514 111.162 178.852 111.479C178.7 109.797 178.576 108.108 178.383 106.433C177.37 97.6029 180.189 90.1858 186.716 84.2232C187.929 83.1134 189.528 82.4172 190.975 81.5832C192.609 80.6457 194.277 79.7703 195.938 78.881C196.11 78.7914 196.324 78.7914 196.71 78.7018C195.331 80.9559 193.622 82.5758 191.396 83.5753C184.958 86.4773 181.919 91.9574 180.478 98.4231C179.286 103.786 179.906 109.232 180.954 114.581C181.133 115.484 181.712 116.338 182.229 117.145C185.861 122.763 190.651 127.402 195.104 132.324C197.585 135.067 199.983 137.887 202.506 140.596C205.139 143.422 208.426 144.897 212.313 145.138C214.746 145.29 217.166 145.628 219.578 145.972C223.562 146.544 225.988 149.074 227.559 152.569C229.785 157.511 231.963 162.474 234.155 167.431C235.175 169.733 237.022 171.077 239.414 171.491C240.179 171.622 241.13 171.015 241.909 170.581C243.039 169.953 243.845 169.113 243.859 167.617C243.887 165.549 245.299 164.404 247.043 163.612C248.36 163.012 249.69 162.412 250.062 160.827C250.179 160.317 250.31 159.683 250.11 159.248C249.207 157.284 247.946 155.65 245.617 155.237C244.851 155.099 244.093 154.885 243.335 154.706C243.321 154.582 243.308 154.465 243.301 154.34C243.604 154.216 243.9 154.023 244.217 153.989C248.242 153.541 251.385 157.105 251.475 159.876C251.516 161.11 250.71 162.468 250.014 163.598C249.586 164.287 248.663 164.701 247.898 165.135C246.512 165.935 245.479 166.934 245.403 168.651C245.348 169.788 244.789 170.615 243.797 171.194C243.004 171.663 242.267 172.235 241.467 172.69C239.841 173.614 236.994 172.98 235.058 171.346C233.569 170.084 232.701 168.423 231.929 166.679C229.916 162.15 227.842 157.642 225.822 153.113C224.258 149.598 221.694 147.64 217.738 147.509C215.346 147.434 212.968 147.041 210.584 146.861C206.958 146.586 203.939 144.973 201.479 142.45C198.639 139.534 196.013 136.404 193.298 133.365C190.948 130.731 188.48 128.181 186.295 125.417C184.483 123.121 183.008 120.55 181.388 118.103C181.202 117.82 181.113 117.393 180.858 117.262C178.845 116.207 177.949 114.25 177.026 112.396C172.704 103.731 170.912 94.625 172.58 84.9815C173.228 81.2385 174.365 77.6609 175.916 74.1661C176.86 72.043 177.405 69.6856 177.791 67.3832C178.328 64.1572 179.362 61.1174 180.616 58.1257C180.975 57.2779 181.188 56.368 181.402 55.4719C183.559 46.366 186.792 37.6599 192.14 29.9534C195.896 24.5354 200.583 19.9445 206.834 17.2355C211.845 15.0641 216.738 12.6033 221.776 10.5009C224.719 9.2739 227.876 8.69487 231.102 8.43293C233.348 8.25371 235.54 7.40585 237.787 7.21973C240.916 6.95779 244.08 6.87507 247.222 7.01294C253.501 7.28177 259.78 7.75051 266.052 8.14342C266.555 8.17788 267.099 8.18478 267.541 8.39157C269.705 9.37729 271.848 10.4251 273.998 11.459C274.715 11.8037 275.405 12.2242 276.149 12.493C279.498 13.7062 282.462 15.7259 285.867 16.9115C288.252 17.7387 290.25 19.7791 292.318 21.4128C293.765 22.557 295.075 23.8736 296.371 25.1971C297.515 26.362 298.645 27.5546 299.603 28.8712C301.843 31.9593 304.641 34.1237 308.515 34.8131C309.204 33.9928 309.838 33.1036 310.624 32.3729C311.044 31.98 311.809 31.9731 312.264 31.6008C314.366 29.8844 316.806 30.5117 319.149 30.5117C322.106 30.5117 324.373 31.525 325.655 34.4891C326.372 36.1503 327.661 37.5703 328.674 39.1075C329.081 39.721 329.46 40.3621 329.929 41.1134C330.239 41.1134 330.804 41.272 331.217 41.0858C333.085 40.238 334.905 40.9273 336.752 41.0652C337.138 41.0927 337.544 40.8377 337.641 40.8032C338.502 41.6373 339.178 42.6092 340.101 43.1262C346.208 46.5245 351.218 51.4118 356.815 55.4925C358.821 56.9608 360.509 58.9184 362.17 60.8003C368.284 67.7555 374.59 74.5177 381.902 80.239C383.501 81.4936 385.418 82.3552 387.23 83.334C396.149 88.1523 404.116 94.1287 409.733 102.711C411.484 105.385 412.614 108.501 413.772 111.506C415.164 115.098 416.66 118.586 419.272 121.495C419.885 122.177 420.32 123.011 420.836 123.776C424.441 129.153 428.177 134.343 433.449 138.355C436.757 140.871 439.569 144.056 442.533 147.013C443.319 147.799 443.973 148.791 444.47 149.798C446.282 153.486 448.35 157.098 448.963 161.247C449.122 162.295 448.984 163.426 448.757 164.467C448.674 164.853 447.937 165.094 447.502 165.397C447.261 164.956 446.772 164.487 446.82 164.081C447.13 161.668 446.282 159.517 445.483 157.353C445 156.057 444.346 154.816 443.856 153.527C442.133 149.019 438.756 145.876 435.138 142.953C434.187 142.181 432.96 141.76 431.898 141.112C431.154 140.658 430.417 140.141 429.789 139.541C428.542 138.355 427.418 137.039 426.15 135.867C423.731 133.633 422.373 130.683 420.623 127.995C419.155 125.755 417.501 123.631 416.129 121.329C414.606 118.779 412.89 116.228 411.994 113.443C409.581 105.909 405.336 99.595 399.422 94.5837C395.384 91.1578 390.766 88.3591 386.196 85.6294C383.481 84.0095 380.765 82.4862 378.332 80.4389C371.523 74.6969 365.609 68.107 359.834 61.3655C358.283 59.5595 356.484 57.9396 354.658 56.4024C351.377 53.6383 348.021 50.9706 344.65 48.3237C342.769 46.8416 340.928 45.2424 338.84 44.1188C336.648 42.9401 334.257 41.7958 331.59 42.8574C331.438 42.9194 331.259 42.9263 331.093 42.9332C329.605 43.009 328.109 42.9884 327.647 44.9529C327.544 45.4079 326.848 45.8077 326.345 46.0765C324.911 46.8416 324.311 48.0135 324.408 49.5989C324.684 54.2173 324.877 58.8357 325.952 63.3645C326.641 66.2528 326.538 66.6388 324.925 69.0652ZM305.875 64.3503C305.289 66.3355 305.289 66.3355 307.053 67.4039C307.867 67.8933 307.963 68.6998 307.619 69.3892C306.661 71.3261 307.57 72.5807 309.004 73.6974C309.535 74.111 310.127 74.4418 310.63 74.883C311.058 75.2621 311.478 75.6964 311.747 76.1927C312.181 77.013 313.642 78.5846 314.38 79.1706C315.179 79.8047 315.758 79.5497 316.13 78.8604C317.006 77.206 317.888 75.531 318.529 73.7801C318.977 72.5669 319.459 71.7328 320.845 71.4709C321.417 71.3606 321.92 70.7126 322.382 70.237C322.664 69.9475 322.733 69.4581 323.009 69.1548C324.821 67.1627 324.759 64.9913 324.284 62.434C323.484 58.1602 323.16 53.7899 322.761 49.4472C322.568 47.3379 323.546 45.7525 325.428 44.6841C325.959 44.3808 326.42 43.7949 326.689 43.2296C327.089 42.3886 327.289 41.4512 327.475 40.879C326.2 38.5767 325.07 36.3916 323.795 34.2892C323.367 33.5861 322.685 32.8071 321.961 32.5728C319.032 31.6215 316.048 31.1045 313.153 32.8003C312.801 33.007 312.367 33.0898 311.968 33.207C310.114 33.7653 309.576 35.2818 310.465 36.9568C310.982 37.9288 311.258 39.0455 311.547 40.1208C311.823 41.1341 311.278 41.6924 310.334 41.9819C309.783 42.1543 309.149 42.2715 308.728 42.623C306.619 44.3808 306.102 46.7038 306.971 49.3232C307.839 51.9426 308.611 54.5964 309.349 57.2572C309.624 58.236 309.541 59.208 308.845 60.1179C308.466 60.6073 308.342 61.3586 308.273 62.0066C308.046 64.0607 308.053 64.0883 305.875 64.3503Z" fill="#3D2F2E"/>
<path d="M126.933 221.494C122.66 220.281 118.594 219.247 114.61 217.964C108.014 215.841 101.46 213.567 94.8985 211.326C89.7224 209.562 84.574 207.735 79.3979 205.991C75.814 204.778 72.237 203.523 68.591 202.538C66.3717 201.938 64.0353 201.6 61.7402 201.545C60.1205 201.51 58.5008 202.214 56.8536 202.455C55.9301 202.593 54.8618 202.717 54.0416 202.393C45.8468 199.112 37.6313 195.886 29.5537 192.343C21.3175 188.731 13.2261 184.788 5.08643 180.969C3.61839 180.279 2.15725 179.535 0.813276 178.646C0.337716 178.329 0.199873 177.495 0 176.695C1.51628 178.108 3.00499 177.281 4.45235 176.888C10.0488 175.358 15.6315 173.786 21.221 172.235C21.7862 172.077 22.3651 171.953 22.9303 171.808C23.6678 171.629 24.4397 171.67 24.7291 170.615C24.8463 170.188 25.7009 169.885 26.273 169.664C31.8212 167.582 37.3832 165.528 42.9383 163.474C44.5166 162.888 46.0949 162.316 47.6801 161.758C47.9558 161.661 48.2728 161.661 48.6175 161.792C41.9665 165.597 34.4264 167.279 27.3206 170.884C28.9678 171.36 30.298 171.822 31.6627 172.125C34.3713 172.718 36.7491 174.034 39.2165 175.206C44.4132 177.674 49.6582 180.038 55.3235 181.341C58.1355 181.989 60.8028 183.257 63.6079 183.96C69.0734 185.332 74.5803 186.497 80.0734 187.752C80.3215 187.807 80.6385 187.772 80.797 187.924C81.245 188.338 81.9687 188.82 81.9618 189.268C81.948 190.213 81.0521 190.261 80.3284 190.088C77.0546 189.31 73.8291 188.282 70.5208 187.731C65.4275 186.876 60.665 184.898 55.7095 183.671C50.5197 182.389 45.6814 180.3 40.7604 178.356C40.0229 178.067 39.2785 177.715 38.6307 177.267C35.6395 175.185 32.2072 174.207 28.8024 173.124C26.6245 172.435 24.612 173.097 22.6064 173.566C16.431 175.013 10.29 176.633 4.13531 178.184C3.94922 178.232 3.77691 178.329 3.22554 178.549C4.83142 179.239 6.09958 179.852 7.41599 180.342C16.2449 183.65 24.7429 187.703 33.2617 191.722C38.61 194.245 44.234 196.189 49.7271 198.409C51.0504 198.946 52.3806 199.484 53.6487 200.139C54.91 200.787 56.1368 200.876 57.3843 200.235C58.9488 199.429 60.603 199.374 62.3053 199.498C67.2194 199.842 71.8855 201.193 76.4894 202.868C82.8509 205.178 89.3227 207.211 95.6083 209.706C103.879 212.981 112.349 215.559 120.896 217.951C123.363 218.64 125.831 219.357 128.264 220.156C128.836 220.343 129.277 220.928 130.049 221.549C131.599 220.984 133.488 220.15 135.459 219.598C140.318 218.233 145.211 217.006 150.084 215.703C158.892 213.353 167.701 210.989 176.516 208.631C176.922 208.521 177.37 208.362 177.749 208.445C178.177 208.535 178.549 208.872 178.942 209.107C178.673 209.479 178.48 210.037 178.115 210.189C177.391 210.492 176.564 210.54 175.792 210.754C170.533 212.216 165.288 213.766 160.009 215.159C152.896 217.027 145.742 218.764 138.616 220.577C136.265 221.177 133.929 221.845 131.206 222.583C133.377 224.189 133.074 226.347 133.322 228.346C133.557 230.179 133.467 232.164 134.163 233.812C135.955 237.996 135.962 242.497 136.893 246.826C138.56 254.546 139.891 262.343 141.579 270.063C142.337 273.544 143.633 276.901 144.646 280.327C144.853 281.023 145.466 281.898 144.391 282.353C144.267 282.409 143.461 281.354 143.282 280.727C139.512 267.45 136.658 253.974 134.597 240.326C134.418 239.133 134.342 237.927 134.211 236.672C132.034 237.031 129.993 237.369 128.091 237.686C129.732 245.165 131.337 252.423 132.909 259.682C134.453 266.858 135.693 274.089 137.34 281.251C137.085 281.306 136.837 281.361 136.582 281.409C134.315 274.612 132.936 267.581 131.393 260.592C129.842 253.574 128.257 246.564 126.651 239.409C125.893 240.526 124.004 240.691 124.135 242.663C124.149 242.904 123.46 243.462 123.212 243.407C122.316 243.187 121.895 243.752 121.385 244.241C116.471 248.922 112.846 254.615 108.903 260.054C107.325 262.232 106.029 264.624 104.327 266.699C102.149 269.353 99.7781 271.862 97.3245 274.275C93.8233 277.721 90.1704 281.016 86.6003 284.401C85.8973 285.062 85.2839 285.821 84.636 286.538C84.0295 287.213 84.2569 287.737 85.0357 287.944C85.9662 288.192 86.9311 288.337 87.8822 288.44C94.0645 289.102 100.254 289.75 106.443 290.384C107.484 290.487 108.559 290.405 109.579 290.591C110.096 290.687 110.537 291.184 111.012 291.501C110.557 291.838 110.096 292.473 109.655 292.452C107.477 292.376 105.292 292.197 103.128 291.928C97.4141 291.218 91.7074 290.453 86.0006 289.688C85.3872 289.605 84.7532 289.426 84.1949 289.15C82.6235 288.378 82.2789 286.924 83.5057 285.669C86.0351 283.091 88.6059 280.554 91.2594 278.107C96.9454 272.848 102.383 267.444 106.588 260.812C110.137 255.215 114.038 249.811 118.745 245.068C119.483 244.324 120.255 243.628 121.137 242.787C120.723 242.573 120.42 242.387 120.096 242.249C116.188 240.595 112.198 239.099 108.386 237.245C106.457 236.307 105.037 236.411 103.114 237.314C96.5663 240.374 89.8396 243.056 83.2713 246.068C71.2376 251.589 59.1763 257.069 47.2942 262.908C39.4922 266.74 31.9797 271.18 24.3225 275.309C22.0688 276.522 19.7392 277.611 17.451 278.762C17.2373 278.872 17.0444 279.024 16.686 279.252C17.1202 279.431 17.3959 279.562 17.6853 279.658C27.0587 282.767 36.439 285.876 45.8123 288.978C50.6851 290.591 55.5579 292.19 60.4307 293.796C62.6637 294.527 64.8968 295.257 67.1298 295.988C67.3711 296.064 67.6399 296.119 67.826 296.271C68.0258 296.436 68.1499 296.705 68.3084 296.926C68.0534 297.091 67.7777 297.429 67.5503 297.401C66.5096 297.277 65.4413 297.167 64.4557 296.843C58.1424 294.789 51.8292 292.721 45.5504 290.57C35.288 287.055 25.0531 283.463 14.8113 279.893C14.5976 279.817 14.4184 279.651 14.1772 279.507C15.597 278.631 16.8996 277.749 18.2712 276.997C30.0499 270.497 41.6081 263.59 53.8486 257.965C58.8523 255.67 63.9457 253.568 68.9563 251.272C72.5471 249.632 76.0414 247.764 79.6254 246.109C86.6416 242.863 93.6992 239.692 100.736 236.486C100.853 236.431 100.991 236.417 101.088 236.342C103.817 234.225 106.553 234.729 109.51 235.99C113.562 237.727 117.76 239.12 121.868 240.733C122.722 241.063 123.336 241.043 124.039 240.457C124.866 239.767 126.237 239.34 126.534 238.506C126.83 237.658 126.065 236.452 125.831 235.39C125.121 232.151 124.425 228.904 123.763 225.65C123.522 224.472 124.507 222.755 125.713 222.093C126.044 221.907 126.375 221.763 126.933 221.494ZM131.903 230.227C129.904 230.351 128.071 230.469 126.12 230.593C126.389 231.509 126.43 233.233 127.078 233.508C128.394 234.067 130.042 233.832 131.654 233.936C131.007 234.191 130.359 234.584 129.663 234.687C128.904 234.798 128.105 234.646 127.168 234.598C127.326 235.246 127.464 235.825 127.602 236.397C129.483 236.011 131.227 235.652 133.109 235.259C132.675 233.474 132.261 231.744 131.903 230.227ZM124.735 226.14C127.099 226.016 129.366 225.892 131.675 225.767C131.144 223.989 130.324 223.258 129.008 223.238C128.684 223.231 128.346 223.183 128.036 223.086C126.113 222.507 124.39 224.099 124.735 226.14ZM131.586 227.449C129.511 227.539 127.526 227.629 125.534 227.718C125.762 229.2 126.871 229.717 129.194 229.448C131.296 229.207 131.716 228.89 131.586 227.449Z" fill="#3D2F2E"/>
<path d="M131.937 90.579C133.619 89.7656 134.928 88.4421 135.183 86.7601C135.831 82.5346 136.858 78.3918 137.595 74.1939C137.961 72.1053 138.112 70.0442 139.36 68.2451C139.429 68.1417 139.477 68.0314 139.567 67.8522C139.567 70.4509 139.884 72.9324 139.498 75.2899C138.843 79.2397 137.919 83.1826 136.713 87.0014C136.251 88.4696 134.797 89.7035 133.605 90.8409C132.736 91.6681 130.965 91.3372 130.035 90.3859C129.215 89.545 128.387 88.6902 127.705 87.7459C125.603 84.8163 122.791 82.8241 119.49 81.5144C117.388 80.6804 115.892 79.3293 114.81 77.3441C113.459 74.8832 112.074 72.4224 110.433 70.1545C109.524 68.9 108.111 67.9763 106.842 67.0112C106.264 66.5701 105.492 66.1634 104.795 66.1358C101.046 65.991 97.3313 65.2397 93.5337 66.2737C90.4322 67.1215 87.1653 67.3766 83.9742 67.8867C81.1002 68.3485 78.3915 67.4041 75.6278 66.9423C73.4843 66.5839 71.8164 65.5223 70.4724 63.8404C69.9831 63.2269 69.4593 62.7237 68.5013 62.7099C68.0188 62.703 67.4054 62.0275 67.0953 61.5036C66.5783 60.6351 66.1235 60.0836 64.938 60.2973C63.6836 60.5248 62.5947 59.5942 62.5257 58.4706C62.2294 53.8522 62.4637 49.2544 64.4418 45.0083C66.406 40.7896 68.5633 36.6469 70.8377 32.5799C74.1873 26.5897 78.5914 21.3578 83.5124 16.636C89.9015 10.5149 97.4071 6.22044 106.057 4.0491C110.868 2.84279 115.658 1.57445 120.455 0.313004C123.818 -0.56932 126.782 0.512906 129.49 2.31891C131.255 3.49764 132.805 5.00725 134.439 6.39277C135.142 6.99248 135.741 7.71626 136.486 8.26082C140.669 11.2938 143.785 15.2918 146.803 19.4002C148.044 21.089 149.415 22.6882 150.766 24.2943C153.523 27.5823 154.667 31.6148 155.956 35.5646C157.665 40.769 159.581 45.8285 162.511 50.5366C163.889 52.7493 164.516 55.5134 165.109 58.1122C165.729 60.8487 165.86 63.6887 166.288 66.4736C166.618 68.6656 167.783 70.4716 169.293 72.0432C170.574 73.3805 171.96 74.6075 173.207 75.9723C173.628 76.4342 173.766 77.158 174.034 77.7646C173.4 77.5853 172.566 77.5991 172.167 77.1924C169.665 74.6213 166.412 72.7188 164.978 69.2033C164.695 68.507 164.385 67.797 164.268 67.0664C163.799 64.2471 163.606 61.3657 162.924 58.6016C162.29 56.0166 161.553 53.3145 160.195 51.0673C157.238 46.1801 155.446 40.8861 153.647 35.5371C152.634 32.5247 151.628 29.4021 149.946 26.7552C147.665 23.1569 144.646 20.0343 142.117 16.5809C139.07 12.4174 134.79 9.56362 131.186 5.99297C129.339 4.16628 126.926 2.85658 124.645 1.53309C123.928 1.1195 122.722 1.18843 121.861 1.43659C117.463 2.71182 113.094 4.10424 108.731 5.49666C105.368 6.57199 101.921 7.475 98.7028 8.8812C92.748 11.4799 87.6409 15.3125 83.1196 20.0274C76.1033 27.348 70.9204 35.8335 66.5921 44.9118C64.6279 49.027 63.8008 53.349 64.2212 57.8847C64.2557 58.2362 64.9035 58.8428 65.193 58.8015C66.6886 58.5878 67.5157 59.3322 68.0395 60.5592C68.3634 61.3106 68.7838 61.5932 69.6592 61.6001C70.1554 61.607 71.0583 62.2481 71.0789 62.6341C71.1754 64.6193 72.7055 65.2466 74.0633 65.5706C78.1021 66.5356 82.134 67.218 86.3727 66.0806C90.1289 65.0742 94.0506 64.3849 97.924 64.2333C100.867 64.1161 104.079 63.93 106.815 65.3569C109.668 66.8389 112.005 69.0585 113.562 71.9812C114.451 73.6493 115.382 75.2968 116.257 76.9787C117.057 78.509 118.27 79.5499 119.848 80.1772C123.694 81.7074 126.878 84.0511 129.228 87.5184C129.966 88.6075 130.986 89.5174 131.937 90.579Z" fill="#3D2F2E"/>
<path d="M109.496 168.892C114.017 168.892 118.497 168.892 122.984 168.892C123.026 168.981 123.074 169.078 123.115 169.168C122.777 169.326 122.454 169.588 122.102 169.629C120.145 169.871 118.18 170.16 116.209 170.243C112.846 170.388 109.469 170.243 106.119 170.484C100.667 170.87 96.0702 173.248 92.1761 177.04C92.0107 177.198 91.9211 177.432 91.7213 177.743C93.7269 177.619 95.6154 177.66 97.4349 177.343C99.6404 176.957 101.784 176.536 104.051 176.867C106.856 177.281 109.544 176.378 112.26 175.847C116.754 174.965 121.261 174.165 125.769 173.352C126.196 173.276 126.644 173.345 127.085 173.345C127.133 173.496 127.182 173.648 127.23 173.8C126.692 174.034 126.175 174.379 125.61 174.496C121.123 175.42 116.602 176.192 112.15 177.239C108.786 178.032 105.457 178.287 102.025 177.97C100.771 177.853 99.282 177.998 98.2413 178.604C97.4969 179.039 97.2074 180.41 96.9249 181.424C96.6905 182.271 97.2557 182.892 98.0965 183.092C99.1924 183.347 100.316 183.636 101.432 183.678C106.388 183.843 111.357 183.884 116.313 184.077C117.367 184.119 118.497 184.422 119.435 184.905C122.702 186.6 126.141 187.503 129.801 187.765C131.048 187.855 132.289 188.158 133.509 188.468C136.982 189.344 140.428 189.089 143.881 188.372C144.481 188.248 145.087 188.151 145.852 188.02C143.544 184.808 142.965 181.355 143.42 177.694C143.654 175.813 144.867 174.317 146.369 174.013C146.266 174.234 146.211 174.427 146.101 174.586C143.792 177.943 143.868 183.471 146.349 186.752C146.693 187.207 147.321 187.524 147.886 187.71C148.678 187.972 149.526 188.069 150.353 188.206C153.503 188.723 156.094 190.274 158.569 192.26C161.512 194.624 164.668 196.72 167.742 198.925C168.597 199.539 169.506 200.077 170.327 200.724C176.557 205.632 183.415 209.555 190.293 213.449C191.313 214.028 192.444 214.407 193.505 214.904C195.559 215.855 197.64 216.758 199.653 217.806C202.506 219.288 205.484 220.129 208.723 220.074C209.936 220.053 211.218 220.053 212.217 220.901C212.224 221.052 212.231 221.204 212.231 221.356C211.638 221.459 211.046 221.645 210.446 221.638C209.522 221.638 208.606 221.432 207.682 221.438C204.14 221.487 201.018 220.273 198.068 218.433C197.537 218.102 196.972 217.792 196.386 217.578C190.521 215.393 185.186 212.229 179.859 208.989C174.241 205.57 169.079 201.545 163.793 197.671C160.946 195.589 158.217 193.273 155.129 191.632C152.014 189.978 148.589 188.751 144.853 189.613C140.098 190.709 135.363 190.605 130.621 189.406C128.801 188.944 126.844 189.006 125.052 188.468C122.819 187.807 120.71 186.731 118.511 185.925C117.622 185.601 116.65 185.36 115.713 185.332C110.799 185.187 105.878 185.146 100.957 185.008C100.006 184.981 99.0408 184.753 98.1241 184.477C95.8497 183.795 95.1398 181.927 96.2908 179.838C96.4493 179.549 96.6423 179.273 97.0489 178.632C95.4293 178.735 94.0922 178.873 92.7482 178.88C92.0038 178.88 91.2595 178.653 90.5151 178.528C90.777 177.777 90.8253 176.805 91.3353 176.323C92.9136 174.841 94.5126 173.276 96.3804 172.228C101.026 169.623 106.147 168.189 111.247 166.721C116.009 165.349 120.724 163.818 125.459 162.357C127.292 161.792 129.118 161.227 130.952 160.668C133.316 159.945 135.714 160.048 138.057 160.661C140.897 161.406 143.688 162.336 146.5 163.184C146.652 163.233 146.817 163.226 147.141 163.267C142.255 156.677 138.967 149.653 139.512 141.168C131.282 141.492 125.969 136.563 120.861 131.324C120.096 130.538 119.676 129.429 119.318 128.305C121.716 131.614 125.004 133.847 128.167 136.232C131.482 138.734 135.183 139.72 139.319 139.52C139.649 135.005 139.98 130.538 140.304 126.078C140.435 126.044 140.566 126.016 140.697 125.982C140.918 126.885 141.311 127.788 141.324 128.691C141.393 133.606 141.345 138.521 141.366 143.442C141.393 150.391 144.129 156.333 148.203 161.778C148.279 161.882 148.403 161.957 148.437 162.075C149.188 164.204 150.994 164.225 152.772 164.191C156.46 164.122 159.947 164.935 163.248 166.548C167.101 168.43 171.292 169.174 175.399 170.215C177.315 170.698 179.183 171.346 181.092 171.849C185.117 172.911 189.108 172.207 193.085 171.491C193.912 171.339 194.732 171.146 195.566 171.049C195.972 171.001 196.4 171.132 196.813 171.18C196.827 171.291 196.841 171.401 196.862 171.511C196.6 171.663 196.358 171.897 196.076 171.952C193.271 172.49 190.479 173.173 187.647 173.476C184.662 173.8 181.733 173.283 178.832 172.345C175.482 171.256 172.008 170.567 168.624 169.588C166.736 169.037 164.875 168.34 163.076 167.541C159.795 166.086 156.411 165.321 152.814 165.363C150.022 165.397 147.355 164.742 144.674 163.887C141.448 162.86 138.092 162.192 134.749 161.599C133.536 161.385 132.144 161.668 130.931 162.04C123.901 164.205 116.905 166.459 109.896 168.685C109.779 168.72 109.634 168.823 109.496 168.892Z" fill="#3D2F2E"/>
<path d="M74.07 66.791C74.58 67.4252 75.2003 68.0042 75.5794 68.7073C76.372 70.1824 77.0543 71.7265 77.7642 73.2499C79.7698 77.5512 81.7479 81.8663 83.7949 86.147C84.105 86.7949 84.6909 87.3533 85.256 87.8289C86.9515 89.2696 88.7297 90.6206 90.4114 92.0751C90.9421 92.5369 91.2729 92.6472 91.9139 92.2681C92.9546 91.6477 94.078 91.1514 95.1876 90.6482C98.2891 89.2558 101.473 89.9934 104.623 90.4207C104.981 90.469 105.271 91.0342 105.595 91.3582C105.154 91.565 104.706 91.9579 104.278 91.9372C102.852 91.8752 101.439 91.6615 100.012 91.5168C97.0692 91.2272 94.5398 92.5163 91.9276 93.564C92.7547 97.9825 93.5611 102.305 94.3744 106.633C94.3882 106.716 94.4019 106.799 94.4295 106.882C95.167 109.584 95.9596 110.039 98.6131 109.143C99.5504 108.825 100.412 108.281 101.342 107.922C101.935 107.695 102.59 107.612 103.279 107.454C103.183 108.508 102.452 109.108 100.281 110.142C100.922 111.638 101.542 113.147 102.204 114.63C102.859 116.098 103.624 116.298 105.099 115.65C106.05 115.229 107.084 114.898 108.104 114.767C109.599 114.581 111.122 114.595 112.632 114.595C112.928 114.595 113.224 114.905 113.528 115.071C113.3 115.333 113.1 115.781 112.832 115.829C111.887 116.001 110.923 116.05 109.958 116.112C109.434 116.146 108.91 116.118 108.083 116.118C108.938 116.718 109.558 117.111 110.13 117.573C112.77 119.717 115.402 121.854 118.008 124.032C119.303 125.114 119.882 125.169 121.35 124.287C121.922 123.942 122.605 123.804 123.191 123.473C127.546 121.04 131.792 118.393 136.265 116.215C138.946 114.912 140.159 112.506 141.937 110.501C143.006 109.294 143.902 107.867 145.728 107.516C144.308 110.638 141.861 113.072 140.063 116.174C142.64 116.67 144.391 118.407 146.059 120.261C146.314 120.544 146.645 120.778 146.817 121.102C148.533 124.273 151.607 126.114 154.068 128.554C154.812 129.291 155.639 129.147 156.121 128.409C156.797 127.375 157.493 126.245 157.734 125.066C158.43 121.605 158.74 118.069 159.499 114.63C161.146 107.15 163.393 99.8437 166.294 92.7437C167.583 89.6005 168.527 86.3124 169.789 83.1553C170.361 81.7285 171.305 80.4532 172.146 79.1435C172.387 78.7713 172.842 78.5438 173.297 78.1647C173.386 78.5094 173.483 78.661 173.441 78.7299C171.022 82.597 169.92 86.9811 168.527 91.2548C167.749 93.6536 166.804 95.9973 165.901 98.3479C162.765 106.523 161.042 115.029 159.781 123.66C159.533 125.369 159.009 127.127 158.21 128.65C156.859 131.221 154.66 131.414 152.551 129.457C151.104 128.113 149.595 126.837 148.147 125.5C147.596 124.99 147.106 124.404 146.617 123.832C145.37 122.371 144.205 120.82 142.868 119.441C141.579 118.111 139.815 117.725 138.016 117.649C137.637 117.635 137.23 117.904 136.872 118.111C134.714 119.317 132.571 120.565 130.407 121.757C128.504 122.812 126.602 123.88 124.645 124.825C123.487 125.383 122.239 125.783 120.999 126.134C119.6 126.527 118.387 126.072 117.277 125.128C114.052 122.377 110.764 119.703 107.566 116.925C106.835 116.284 106.298 116.553 105.664 116.863C103.548 117.89 101.997 117.29 101.191 115.091C100.667 113.671 100.212 112.231 99.7158 110.804C99.6676 110.659 99.5297 110.535 99.4194 110.383C98.6958 110.528 98.0065 110.728 97.3104 110.797C95.2772 110.983 94.1331 110.445 93.6852 108.488C92.9339 105.186 92.2585 101.822 92.0379 98.4513C91.8932 96.211 91.0041 94.5428 89.5705 93.116C88.0887 91.6408 86.3174 90.4552 84.7873 89.0214C83.8914 88.1874 82.954 87.2361 82.4578 86.147C80.0731 80.9564 77.8469 75.697 75.5312 70.4719C75.0142 69.3001 74.3664 68.1903 73.7805 67.0529C73.8563 66.9633 73.9597 66.8737 74.07 66.791Z" fill="#3D2F2E"/>
<path d="M196.42 80.1424C197.137 79.46 197.737 78.5225 198.591 78.1296C203.085 76.0478 207.703 74.3728 212.796 75.0483C214.912 75.331 217.021 75.6825 219.123 76.041C221.418 76.4339 223.293 77.7022 224.837 79.3152C228.4 83.0513 231.819 86.9253 235.32 90.7234C237.649 93.2601 239.917 95.8657 242.391 98.2507C245.272 101.022 248.822 100.987 252.537 98.554C255.107 96.8721 256.61 94.556 257.83 91.7367C259.994 86.7254 260.146 81.3625 261.138 76.1512C261.4 74.7795 261.035 73.2975 261.124 71.8775C261.248 69.7958 261.31 67.6727 261.786 65.653C262.482 62.6751 264.708 61.0345 267.541 60.2074C270.553 59.325 273.654 58.8839 276.77 59.3182C278.12 59.5043 279.423 60.228 280.67 60.8484C281.939 61.4757 283.186 62.1926 284.33 63.0267C286.253 64.426 288.231 65.8046 289.934 67.459C292.945 70.3748 295.137 73.9248 296.977 77.6815C298.225 80.2251 298.618 82.9617 298.687 85.7603C298.721 87.2699 298.845 88.8071 298.631 90.2891C298.452 91.5437 298.011 92.8327 297.384 93.9425C296.591 95.3487 295.702 96.8238 294.496 97.844C292.394 99.6156 290.154 98.7884 288.093 97.4787C287.597 97.1685 287.115 96.7963 286.729 96.362C286.157 95.7209 285.764 94.9903 286.432 93.9563C286.763 94.3906 287.039 94.7352 287.294 95.0937C288.9 97.3546 292.47 97.9336 293.952 96.0863C294.758 95.0799 295.496 93.9563 296.006 92.7775C297.591 89.1104 296.998 85.3054 296.467 81.5348C296.061 78.6466 294.372 76.2822 292.856 73.9661C290.616 70.5333 288.142 67.1764 284.413 65.1015C283.241 64.4536 281.884 64.0744 280.829 63.2817C275.687 59.4353 270.539 60.9656 265.57 63.4265C264.453 63.9779 263.667 65.908 263.412 67.3211C263.027 69.4787 263.254 71.7465 263.171 73.9661C263.123 75.1793 263.026 76.3994 262.861 77.5988C262.482 80.3905 262.386 83.2719 261.572 85.9326C260.228 90.3305 259.367 95.0592 255.507 98.2645C253.377 100.036 250.848 101.07 248.222 101.532C245.5 102.008 243.046 100.684 241.185 98.7884C238.001 95.5624 235.072 92.0882 231.97 88.7795C229.22 85.8361 226.47 82.8721 223.562 80.0872C220.977 77.6126 217.545 77.1439 214.154 76.5993C209.33 75.8204 204.808 77.0198 200.335 78.5294C199.377 78.8534 198.543 79.5565 197.647 80.0803C197.365 80.2458 197.068 80.3905 196.779 80.5491C196.655 80.425 196.538 80.2803 196.42 80.1424Z" fill="#3D2F2E"/>
<path d="M73.7256 156.732C72.8709 160.02 72.0508 163.322 71.1548 166.603C70.1485 170.291 69.1491 173.993 67.9706 177.632C67.5984 178.77 66.6817 179.742 65.9374 180.728C65.8202 180.886 65.1724 180.865 64.9656 180.693C64.0145 179.9 63.4424 178.956 63.8284 177.605C64.6003 174.896 65.3033 172.166 66.0339 169.45C66.3716 168.203 66.7162 166.955 67.0815 165.638C65.4067 166.417 63.9042 166.211 62.9186 164.77C61.9193 163.302 61.0508 161.682 60.4236 160.02C59.4036 157.318 57.7426 155.085 55.8197 153.017C52.0979 149.005 52.7595 150.094 54.0415 145.593C54.2827 144.745 54.6066 143.918 54.9513 143.112C55.4544 141.919 56.3573 141.271 57.6047 140.816C60.8716 139.63 64.1937 139.61 67.5571 140.023C68.2807 140.113 68.97 140.499 69.673 140.747C69.6385 140.885 69.6109 141.023 69.5765 141.161C68.3152 141.161 67.047 141.209 65.7858 141.154C63.0289 141.03 60.3134 141.202 57.7288 142.215C57.0878 142.464 56.3917 143.056 56.1229 143.663C55.3924 145.31 54.8341 147.041 54.3103 148.764C54.2069 149.102 54.4481 149.653 54.6962 149.97C56.0609 151.666 57.4531 153.348 58.8936 154.988C60.3754 156.677 61.1129 158.718 61.9124 160.758C62.381 161.951 63.084 163.074 63.856 164.101C64.2006 164.556 65.0138 164.942 65.5445 164.866C65.965 164.811 66.4888 164.046 66.599 163.522C66.792 162.654 66.7851 161.709 66.6955 160.813C66.4129 158.042 65.834 155.402 63.856 153.203C63.1392 152.41 62.8979 151.183 62.4431 150.149C62.636 150.067 62.829 149.991 63.022 149.908C65.5376 153.389 67.8948 156.939 68.1636 161.544C68.2601 161.247 68.3841 160.958 68.453 160.655C70.5414 151.728 72.609 142.801 74.7111 133.875C74.973 132.772 75.3866 131.71 75.7588 130.642C76.0344 129.856 76.4549 129.243 75.9448 128.229C75.6623 127.671 76.4686 126.554 76.7857 125.693C76.9511 125.713 77.1165 125.741 77.2819 125.761C77.3577 126.375 77.4335 126.988 77.5094 127.609C79.0394 128.084 79.2462 127.912 79.577 125.706C79.26 125.568 78.9085 125.451 78.5845 125.279C78.302 125.127 78.047 124.92 77.7851 124.741C77.8126 124.624 77.8333 124.514 77.8609 124.397C78.812 124.493 79.77 124.521 80.6936 124.727C80.9348 124.783 81.2311 125.41 81.1898 125.734C81.0382 126.768 80.7418 127.781 80.5006 128.808C80.4937 128.85 80.4799 128.905 80.4523 128.925C78.7362 129.932 79.1015 131.986 78.2055 133.399C78.1366 133.502 78.0745 133.613 77.7437 133.592C78.0745 132.331 78.4054 131.069 78.7844 129.649C78.2744 129.566 77.6886 129.463 77.0131 129.353C73.5946 145.862 69.6936 162.164 65.1517 178.308C65.1103 178.446 65.1861 178.611 65.4825 178.88C65.8409 178.212 66.3371 177.584 66.5232 176.867C68.453 169.423 70.307 161.951 72.23 154.506C73.5946 149.219 75.0282 143.946 76.4686 138.672C76.6892 137.873 77.1027 137.121 77.4404 136.349C77.5163 136.177 77.6679 136.039 78.0332 135.963C77.8678 137.025 77.7575 138.1 77.53 139.141C76.2895 144.766 75.0144 150.384 73.7531 156.009C73.698 156.25 73.7118 156.512 73.6911 156.76C73.6911 156.774 73.7256 156.732 73.7256 156.732Z" fill="#3D2F2E"/>
<path d="M284.944 89.5447C285.24 89.0277 285.667 88.5452 285.812 87.9937C286.529 85.1882 287.39 82.3827 287.735 79.5289C287.887 78.2744 287.025 76.8475 286.467 75.5723C286.115 74.7795 285.495 74.104 284.944 73.4147C284.089 72.36 283.152 71.5535 281.594 72.0774C281.125 72.236 280.436 71.9878 279.94 71.7397C279.12 71.333 278.369 70.7746 277.583 70.2783C276.287 69.458 274.984 68.8376 273.337 69.0996C272.324 69.2581 271.249 68.9824 270.201 68.9548C269.533 68.941 268.857 68.9617 268.203 69.0789C267.134 69.265 266.631 69.9268 267.058 70.9814C267.775 72.7254 268.478 74.49 269.409 76.1237C269.698 76.6269 270.739 77.0267 271.373 76.9509C273.323 76.7027 275.184 76.0617 277.018 74.9794C276.639 75.4206 276.335 75.9927 275.86 76.2754C274.778 76.9095 273.634 77.461 272.462 77.9297C270.656 78.6604 268.595 77.9228 267.741 76.1995C266.9 74.5107 266.038 72.815 265.473 71.0297C264.867 69.134 265.453 68.2035 267.32 67.5348C268.058 67.2729 268.871 67.135 269.65 67.1144C271.325 67.0799 273.041 66.9627 274.674 67.2453C276.039 67.4797 277.376 68.1139 278.603 68.7825C280.064 69.5821 281.374 70.5334 283.186 70.6368C284.11 70.6919 285.123 71.4226 285.84 72.1119C286.736 72.9735 287.459 74.0489 288.093 75.1311C289.286 77.1715 289.947 79.2739 289.196 81.7347C288.5 84.0164 288.128 86.4014 287.645 88.7451C287.363 90.1168 286.343 90.7924 285.206 91.2473C284.13 91.6816 283.365 90.9923 283.007 90.0824C282.387 88.5314 281.828 86.9391 281.436 85.3192C281.091 83.9061 280.926 83.651 279.437 83.6993C277.666 83.7613 276.818 82.5826 277.521 80.9351C278.017 79.7702 278.906 78.9706 280.305 78.5501C280.691 80.1838 278.541 80.5974 278.761 82.2035C279.154 82.2035 279.547 82.2035 279.94 82.2035C281.759 82.2104 282.635 83.0858 283 84.878C283.324 86.4497 283.889 87.9799 284.351 89.524C284.53 89.5309 284.737 89.5378 284.944 89.5447Z" fill="#3D2F2E"/>
<path d="M203.829 145.083C203.74 146.53 203.106 147.427 202.161 148.102C197.578 151.363 196.344 155.933 196.813 161.275C197.178 165.473 198.95 169.188 200.542 172.98C201.396 175.013 202.085 177.088 201.886 179.321C201.844 179.804 201.424 180.252 201.176 180.721C200.9 180.279 200.411 179.845 200.39 179.39C200.211 175.62 198.605 172.332 196.916 169.099C195.717 166.789 194.297 164.597 193.022 162.33C191.616 159.82 190.906 157.111 191.099 154.223C191.203 152.741 190.934 151.404 190.134 150.142C188.411 147.413 186.757 144.635 185.007 141.912C184.428 141.016 183.656 140.251 182.967 139.424C183.022 139.306 183.084 139.189 183.139 139.079C183.601 139.293 184.193 139.389 184.51 139.734C185.937 141.264 187.398 142.787 188.632 144.476C189.866 146.165 191.017 147.964 191.885 149.86C192.512 151.218 192.864 152.803 192.912 154.306C193.008 157.491 193.767 160.393 195.71 162.978C194.284 157.883 194.752 153.127 198.054 148.867C199.508 146.992 201.451 145.841 203.829 145.083Z" fill="#3D2F2E"/>
<path d="M127.064 140.995C126.892 141.347 126.782 141.747 126.54 142.05C124.473 144.649 122.343 147.192 120.324 149.825C118.559 152.128 116.113 153.334 113.597 154.547C108.545 156.974 103.024 157.78 97.7173 159.31C94.54 160.227 91.3558 161.337 88.4473 162.881C86.2004 164.074 84.3051 165.997 82.4029 167.748C80.0595 169.898 77.9023 172.249 75.6003 174.448C74.3872 175.606 72.871 175.861 71.2582 175.378C70.4311 175.13 69.6661 174.806 69.6868 173.91C70.5276 174.103 71.3616 174.468 72.1817 174.427C72.995 174.386 73.9668 174.131 74.5664 173.621C76.1861 172.242 77.7851 170.788 79.1428 169.154C83.03 164.501 87.634 160.889 93.451 159.048C96.6008 158.049 99.8539 157.373 103.038 156.464C105.774 155.678 108.483 154.782 111.191 153.892C112.108 153.596 112.997 153.203 113.886 152.838C116.45 151.79 118.387 150.032 120.027 147.792C121.557 145.696 123.315 143.759 125.031 141.809C125.465 141.312 126.148 141.037 126.72 140.658C126.83 140.775 126.947 140.885 127.064 140.995Z" fill="#3D2F2E"/>
<path d="M81.8863 287.93C81.4934 288.571 81.1764 289.281 80.6871 289.839C76.09 295.016 71.7203 300.386 66.0274 304.515C60.0105 308.885 54.3796 313.759 49.1898 319.115C47.7286 320.624 46.1365 322.003 44.6134 323.45C43.4004 324.608 42.2356 325.822 40.9743 326.925C40.6435 327.214 40.037 327.2 39.5614 327.317C39.5407 326.828 39.3133 326.194 39.5338 325.884C40.1335 325.036 40.8778 324.278 41.6429 323.568C46.0676 319.445 50.4304 315.241 54.9861 311.263C58.8457 307.899 62.9948 304.866 66.9165 301.572C69.6113 299.304 72.1683 296.877 74.7184 294.444C76.9308 292.328 79.0398 290.094 81.1971 287.923C81.2936 287.82 81.4728 287.799 81.6106 287.737C81.7071 287.792 81.7967 287.861 81.8863 287.93Z" fill="#3D2F2E"/>
<path d="M136.321 239.023C137.051 238.789 137.809 238.293 138.505 238.362C145.439 239.092 152.372 239.878 159.292 240.719C165.13 241.429 170.954 242.236 176.785 243.022C177.736 243.152 178.68 243.387 179.624 243.594C181.878 244.083 184.145 244.559 186.378 245.117C186.813 245.227 187.15 245.717 187.536 246.027C187.081 246.296 186.627 246.785 186.179 246.778C185.179 246.771 184.152 246.613 183.194 246.33C178.976 245.089 174.662 244.559 170.299 244.111C165.164 243.587 160.078 242.601 154.957 241.925C151.463 241.464 147.934 241.243 144.433 240.788C141.772 240.443 139.133 239.906 136.486 239.451C136.431 239.313 136.376 239.168 136.321 239.023Z" fill="#3D2F2E"/>
<path d="M105.761 120.909C105.492 121.157 105.237 121.412 104.961 121.647C104.685 121.888 104.403 122.115 103.982 122.474C107.704 123.432 109.152 126.617 111.24 129.119C113.377 131.676 114.789 134.62 115.727 137.797C115.878 138.307 115.747 138.9 115.747 139.458C115.589 139.521 115.423 139.576 115.265 139.638C114.879 139.052 114.355 138.521 114.128 137.88C112.591 133.427 109.786 129.746 107.015 126.044C106.664 125.576 106.257 125.141 105.83 124.742C104.43 123.418 102.749 123.156 101.067 124.011C98.2619 125.438 95.3672 126.72 92.7068 128.381C89.3297 130.49 86.5797 133.358 84.3535 136.667C83.8435 137.425 83.5471 138.335 83.0578 139.107C82.3892 140.162 81.6518 141.175 80.873 142.147C80.7282 142.326 80.2182 142.223 79.8805 142.25C79.8874 141.947 79.7702 141.547 79.9218 141.347C82.3341 138.19 83.685 134.33 86.6555 131.531C89.9913 128.381 93.6028 125.727 97.9242 124.073C99.2406 123.57 100.378 122.605 101.68 122.033C102.949 121.474 104.32 121.143 105.643 120.709C105.678 120.778 105.719 120.84 105.761 120.909Z" fill="#3D2F2E"/>
<path d="M143.46 90.5928C146.776 91.9577 150.89 89.4899 150.959 85.8848C151.035 81.7351 150.87 77.5785 150.663 73.4288C150.573 71.5608 150.215 71.3333 148.375 71.4436C147.21 71.5125 146.038 71.7538 144.922 72.0778C143.812 72.4018 142.771 72.9325 141.358 73.5047C141.62 72.9394 141.689 72.4707 141.958 72.2708C144.418 70.4234 147.162 69.3481 150.291 69.6307C151.476 69.7341 152.179 70.6164 152.42 71.6987C152.792 73.3737 153.199 75.0832 153.247 76.7858C153.337 80.0601 153.096 83.3412 153.158 86.6086C153.213 89.4968 148.857 93.3432 145.404 93.033C143.881 92.8951 143.33 92.1989 143.46 90.5928Z" fill="#3D2F2E"/>
<path d="M54.7861 153.135C54.917 153.596 55.1582 154.058 55.1651 154.52C55.2134 156.698 55.3857 158.904 55.1651 161.062C54.6344 166.211 56.5229 169.168 60.734 171.436C61.1682 171.67 61.8368 172.332 61.761 172.511C61.3888 173.373 60.5824 173.187 59.9345 172.835C55.6062 170.464 52.3669 166.776 53.6213 161.082C54.0831 158.973 54.0073 156.74 54.2002 154.568C54.2416 154.093 54.3863 153.624 54.4759 153.155C54.5862 153.148 54.6896 153.141 54.7861 153.135Z" fill="#3D2F2E"/>
<path d="M219.633 133.985C220.591 134.53 221.349 135.012 222.149 135.405C222.983 135.812 223.465 135.536 223.872 134.633C225.567 130.856 228.111 127.706 231.24 125.01C231.488 124.797 231.798 124.666 232.211 124.411C232.294 124.845 232.391 125.148 232.397 125.452C232.473 128.181 232.611 130.911 232.563 133.641C232.535 134.957 232.17 136.274 231.881 137.577C231.839 137.763 231.384 137.866 231.116 138.004C231.04 137.749 230.888 137.487 230.902 137.239C231.06 134.992 231.274 132.752 231.433 130.504C231.536 129.05 231.57 127.595 231.412 125.948C229.847 127.988 228.221 129.987 226.739 132.083C225.919 133.241 225.354 134.571 224.658 135.819C224.52 136.067 224.306 136.494 224.141 136.488C223.134 136.446 222.087 136.432 221.129 136.157C220.226 135.895 219.674 135.143 219.633 133.985Z" fill="#3D2F2E"/>
<path d="M87.0205 157.718C86.6621 158.235 86.3588 158.807 85.9315 159.269C83.9397 161.413 81.8858 163.501 79.9147 165.666C78.5293 167.182 76.8338 168.182 74.8834 168.582C73.9805 168.768 72.9398 168.396 71.9955 168.134C71.6923 168.051 71.5131 167.52 71.3683 167.058C72.8019 167.624 74.1252 167.693 75.3382 166.817C76.4479 166.017 77.6954 165.287 78.5293 164.239C80.4247 161.868 82.3545 159.572 85.0149 158.015C85.518 157.718 86.09 157.525 86.6276 157.284C86.7586 157.435 86.8895 157.58 87.0205 157.718Z" fill="#3D2F2E"/>
<path d="M221.315 116.89C220.784 117.697 220.288 118.524 219.716 119.296C216.621 123.521 213.444 127.699 210.446 131.986C209.584 133.22 209.205 134.785 208.599 136.198C208.509 136.412 208.399 136.618 208.206 137.018C207.406 136.081 207.565 135.15 207.882 134.364C208.42 133.055 209.04 131.745 209.819 130.566C211.762 127.63 213.733 124.7 215.849 121.888C217.152 120.151 218.73 118.62 220.205 117.021C220.391 116.821 220.681 116.725 220.929 116.58C221.067 116.683 221.191 116.787 221.315 116.89Z" fill="#3D2F2E"/>
<path d="M82.2303 190.178C83.8706 189.468 85.4834 188.696 87.1513 188.055C90.0874 186.924 93.0579 185.877 96.0146 184.794C96.056 184.781 96.0973 184.753 96.1318 184.76C96.6005 184.856 97.0622 184.96 97.5309 185.056C97.1794 185.401 96.8899 185.897 96.4695 186.056C95.2978 186.511 94.0779 186.842 92.8718 187.2C89.3499 188.255 85.828 189.296 82.3061 190.343C82.2785 190.288 82.2578 190.233 82.2303 190.178Z" fill="#3D2F2E"/>
<path d="M118.491 320.169C116.664 321.989 115.692 324.299 114.783 326.642C114.555 327.242 114.355 328.035 113.563 327.614C113.239 327.442 113.011 326.415 113.218 326.042C114.273 324.154 115.424 322.313 116.671 320.542C116.988 320.094 117.774 319.99 118.346 319.721C118.401 319.873 118.449 320.018 118.491 320.169Z" fill="#3D2F2E"/>
<path d="M103.838 98.4439C103.169 98.4095 102.487 98.4508 101.839 98.313C101.557 98.2578 101.35 97.8442 101.109 97.5961C101.398 97.4444 101.715 97.1342 101.977 97.1687C103.976 97.4237 105.905 97.2583 107.766 96.4518C107.952 96.3691 108.187 96.2795 108.373 96.3139C108.779 96.3898 109.172 96.5414 109.565 96.6586C109.283 96.9067 109.035 97.2721 108.704 97.3755C107.118 97.858 105.513 98.2716 103.914 98.7059C103.893 98.6231 103.865 98.5335 103.838 98.4439Z" fill="#3D2F2E"/>
<path d="M73.6912 156.774C74.8973 155.52 75.6899 153.803 77.4819 153.217C77.5853 153.314 77.6887 153.417 77.7989 153.514C76.5446 154.927 75.2971 156.333 74.0427 157.746C73.9393 157.725 73.829 157.698 73.7256 157.677C73.7256 157.36 73.7256 157.05 73.7256 156.733L73.6912 156.774Z" fill="#3D2F2E"/>
</svg>
