<svg width="645" height="393" viewBox="0 0 645 393" fill="none" xmlns="http://www.w3.org/2000/svg">
<path d="M644.576 87.3397C638.162 88.9384 631.796 90.7457 625.332 92.0862C618.212 93.5559 611.569 96.1973 605.105 99.3947C601.629 101.123 598.084 102.791 594.827 104.876C590.299 107.776 585.413 109.126 580.141 109.633C569.893 110.616 560.3 113.952 551.046 118.272C545.227 120.983 541.086 125.739 538.067 131.22C535.297 136.235 531.762 140.475 527.67 144.368C526.35 145.619 525.059 146.91 523.847 148.26C519.706 152.917 514.96 156.889 510.064 160.703C505.397 164.337 500.184 166.621 494.355 167.604C481.476 169.779 472.033 177.037 465.032 187.752C464.208 189.023 463.463 190.661 463.483 192.111C463.542 197.781 461.596 202.786 458.975 207.642C456.303 212.587 453.682 217.552 450.981 222.487C448.459 227.095 445.142 231.106 441.359 234.721C433.891 241.87 426.136 248.692 417.646 254.64C412.214 258.454 406.385 261.552 400.437 264.451C399.494 264.908 398.451 265.186 397.428 265.553C396.684 264.213 397.17 263.647 398.253 263.121C401.232 261.691 404.201 260.231 407.09 258.642C416.931 253.23 425.669 246.339 433.812 238.643C436.036 236.538 438.41 234.602 440.564 232.437C444.318 228.673 447.545 224.493 449.998 219.746C453.036 213.878 456.025 207.979 459.243 202.21C460.762 199.489 461.318 196.639 461.397 193.66C461.467 190.9 462.311 188.447 463.84 186.233C471.467 175.21 481.516 167.862 494.991 165.668C499.568 164.923 503.709 163.046 507.364 160.246C512.219 156.522 516.876 152.57 521.007 148.012C523.947 144.765 527.144 141.756 530.073 138.499C531.603 136.801 532.864 134.845 534.135 132.918C535.684 130.575 536.975 128.063 538.603 125.789C542.764 119.98 548.225 115.809 555.028 113.535C560.588 111.678 566.149 109.772 571.809 108.252C575.056 107.378 578.482 107.11 581.848 106.743C585.354 106.356 588.621 105.462 591.679 103.625C598.561 99.4841 605.72 95.8497 613.207 92.9501C616.504 91.6692 619.97 90.7755 623.415 89.9215C627.824 88.8292 632.293 87.9851 636.732 86.9723C639.333 86.3765 641.925 85.9694 644.586 86.3368C644.576 86.6744 644.576 87.012 644.576 87.3397Z" fill="#3D2F2E"/>
<path d="M290.709 171.139C291.146 174.505 289.438 176.323 286.598 177.633C285.516 178.13 284.89 179.59 284.036 180.593C283.52 181.198 282.974 181.764 282.477 182.32C282.477 184.733 282.606 187.216 282.447 189.679C282.179 193.819 282.775 197.901 283.083 202.002C283.559 208.367 283.54 214.702 282.269 221.008C281.703 223.828 281.464 226.717 281.127 229.25C281.812 230.819 283.986 231.007 283.43 232.864C282.914 234.602 281.514 235.227 279.498 235.158C280.302 236.22 280.928 237.035 281.603 237.919C281.792 237.372 281.971 236.876 282.139 236.379C282.298 236.369 282.457 236.369 282.626 236.359C282.686 237.015 282.845 237.67 282.775 238.306C282.527 240.441 282.606 242.735 281.802 244.651C279.657 249.735 280.312 255.137 279.508 260.36C278.833 264.769 278.366 269.218 277.701 273.627C277.294 276.328 276.569 278.939 274.861 281.213C274.126 282.186 273.689 283.388 273.202 284.53C271.931 287.489 270.402 290.379 269.548 293.467C268.615 296.863 268.247 300.418 267.771 303.923C267.215 307.925 267.125 312.016 266.251 315.948C265.348 320.04 263.789 323.982 262.428 327.964C262.101 328.917 261.674 329.989 260.015 330.357C260.353 329.116 260.562 328.113 260.909 327.159C263.263 320.695 265.149 314.131 265.745 307.23C266.053 303.695 266.43 300.16 266.966 296.654C267.225 294.966 267.89 293.338 268.446 291.709C268.933 290.309 269.469 288.919 270.084 287.569C271.415 284.639 272.934 281.799 274.116 278.82C274.93 276.775 275.536 274.58 275.834 272.395C276.767 265.683 277.482 258.95 278.346 252.228C278.594 250.281 279.081 248.365 279.508 246.16C278.287 244.711 276.827 242.983 275.129 240.967C278.257 240.61 278.545 243.598 280.63 244.661C280.938 242.923 281.216 241.364 281.613 239.13C279.339 241.483 277.512 241.255 276.033 239.587C274.444 240.48 272.964 241.235 271.564 242.119C270.502 242.784 269.727 242.496 268.942 241.702C266.907 239.646 264.871 237.601 262.826 235.575C261.882 234.642 260.959 233.688 259.926 232.874C259.3 232.387 258.506 231.891 257.751 231.831C253.392 231.474 249.509 229.528 245.418 228.286C243.214 227.611 240.999 226.995 238.805 226.3C237.872 226.002 236.968 225.575 236.005 225.198C231.318 230.024 229.58 236.171 227.981 242.556C228.637 242.814 229.143 243.042 229.669 243.211C231.546 243.837 233.482 244.333 235.31 245.088C239.55 246.836 243.383 245.962 247.067 243.598C250.751 241.235 254.425 238.862 258.119 236.518C259.082 235.913 260.115 235.436 261.634 235.853C261.068 236.399 260.73 236.836 260.284 237.114C255.964 239.855 251.694 242.695 247.255 245.237C245.289 246.359 243.005 247.273 240.781 247.521C238.835 247.739 236.759 246.935 234.763 246.488C233.89 246.289 233.065 245.833 232.201 245.575C230.325 245.028 229.451 245.624 229.183 247.58C229.153 247.829 229.163 248.077 229.153 248.325C228.766 263.538 228.686 278.771 229.957 293.924C230.891 305.095 230.722 316.207 230.424 327.358C230.285 332.482 230.414 337.606 230.394 342.73C230.394 343.941 230.295 345.153 230.235 346.563C228.954 345.997 229.153 345.063 229.133 344.328C229.014 338.211 228.875 332.105 228.855 325.988C228.825 317.974 229.481 309.911 228.805 301.957C227.604 287.777 227.455 273.567 226.869 259.367C226.849 258.821 226.76 258.265 226.68 257.53C223.205 259.566 219.749 259.02 216.224 258.285C213.91 257.798 212.739 256.368 212.441 254.273C212.014 251.255 211.746 248.206 211.607 245.167C211.478 242.367 211.627 239.557 211.627 236.747C211.627 236.429 211.488 236.121 211.358 235.555C210.514 235.754 209.74 235.962 208.955 236.101C207.416 236.389 206.175 235.932 205.351 234.552C205.053 234.056 204.685 233.569 204.527 233.033C203.593 229.875 202.163 226.737 201.955 223.53C201.736 220.213 200.813 217.264 199.572 214.325C197.814 210.194 197.675 205.994 198.896 201.714C199.214 200.602 199.711 199.509 199.82 198.377C199.929 197.285 199.72 196.133 199.502 195.041C199.383 194.415 198.886 193.869 198.718 193.243C198.211 191.426 198.837 190.562 200.674 190.393C201.081 190.354 201.498 190.374 201.915 190.384C204.924 190.463 205.043 190.652 204.904 193.641C204.874 194.385 205.222 195.269 205.678 195.885C206.602 197.146 207.664 198.318 208.767 199.43C213.076 203.759 214.804 209.171 215.39 215.07C215.41 215.278 215.221 215.506 215.003 216.033C214.526 215.576 214.01 215.298 213.851 214.881C213.563 214.116 213.473 213.282 213.325 212.468C212.461 207.642 210.693 203.312 207.098 199.777C205.669 198.367 204.685 196.491 203.375 194.653C202.928 194.852 202.282 195.13 201.975 195.259C201.438 197.573 201.061 199.579 200.495 201.525C199.274 205.715 199.194 209.807 200.932 213.888C201.806 215.933 202.461 218.058 203.275 220.303C204.149 219.975 205.023 219.747 205.808 219.349C208.995 217.771 212.371 217.195 215.896 217.334C216.969 217.373 217.982 217.373 218.875 216.48C219.69 215.665 220.196 214.881 220.196 213.699C220.186 211.803 220.285 209.896 220.405 207.999C220.444 207.404 220.722 206.818 220.891 206.222C221.08 206.242 221.278 206.252 221.467 206.272C221.527 209.28 221.735 212.309 221.576 215.308C221.477 217.274 218.826 219.131 216.83 219.012C212.51 218.744 208.489 219.965 204.546 221.484C202.749 222.179 202.66 222.567 203.156 224.295C204.427 224.116 205.738 224.007 207.019 223.719C210.077 223.033 213.106 222.229 216.155 221.534C216.949 221.355 217.793 221.306 218.607 221.345C220.861 221.474 221.338 221.901 221.914 224.106C224.089 223.282 225.916 221.643 228.676 221.137C228.22 221.802 228.061 222.179 227.773 222.418C227.137 222.944 226.502 223.51 225.767 223.868C222.46 225.456 220.851 227.72 222.103 231.553C222.579 233.023 221.785 234.314 220.842 235.615C219.243 237.809 217.108 239.319 215.033 240.927C213.662 241.99 213.076 243.251 213.285 244.989C213.622 247.779 213.811 250.579 214.129 253.37C214.327 255.117 215.231 256.269 217.108 256.448C218.915 256.617 220.712 256.934 222.51 256.964C223.344 256.974 224.248 256.547 225.022 256.14C226.601 255.316 227.524 254.075 227.177 252.128C227.048 251.403 227.177 250.639 227.157 249.904C227.107 248.077 227.127 246.27 228.736 244.671C226.353 243.876 226.452 242.387 227.048 240.629C228.021 237.74 228.795 234.771 229.858 231.911C230.881 229.15 232.887 227.025 235.081 225.079C233.006 223.649 230.97 222.328 229.014 220.879C226.343 218.893 224.933 216.192 224.794 212.835C224.694 210.601 224.506 208.377 224.396 206.152C224.277 203.789 223.711 201.624 222.123 199.757C220.097 197.374 218.18 194.902 216.105 192.33C215.033 192.955 214.218 193.422 213.493 193.849C216.512 197.632 219.392 201.227 222.232 204.842C222.321 204.951 222.132 205.269 221.954 205.974C218.637 202.101 215.539 198.477 212.441 194.852C212.262 194.912 212.073 194.981 211.895 195.041C211.716 196.828 211.547 198.606 211.368 200.393C211.16 200.413 210.961 200.423 210.753 200.443C210.594 199.986 210.286 199.529 210.296 199.082C210.346 195.12 210.375 191.148 210.544 187.186C210.812 180.821 211.16 174.456 209.789 168.17C209.511 166.889 209.174 165.539 208.489 164.456C207.148 162.361 206.82 160.097 207.208 157.793C207.803 154.218 208.588 150.664 209.422 147.138C210.127 144.13 212.133 142.501 215.241 142.312C221.984 141.895 228.557 139.721 235.607 140.654C235.528 139.87 235.478 139.333 235.409 138.807C235.141 136.93 234.793 135.054 234.595 133.167C234.336 130.684 235.041 128.579 236.63 126.524C240.076 122.065 244.733 119.255 249.49 116.604C251.962 115.223 254.862 114.945 257.682 115.055C260.373 115.154 262.299 116.772 263.064 119.384C263.481 120.804 263.888 122.274 263.977 123.743C264.067 125.273 264.673 126.444 265.685 127.457C267.632 129.393 268.982 131.588 268.992 134.428C268.992 134.666 269.012 134.974 269.151 135.143C270.531 136.901 271.226 138.777 271.375 141.121C271.514 143.276 272.676 145.361 273.361 147.476C274.295 150.376 273.004 152.511 269.975 153.077C269.171 153.225 268.337 153.235 267.384 153.335C267.215 155.351 267.036 157.366 266.867 159.372C268.436 159.7 269.866 160.057 271.316 160.276C272.021 160.385 272.815 160.365 273.5 160.176C278.436 158.776 283.321 157.247 287.581 154.238C287.651 154.189 287.71 154.119 287.79 154.099C290.729 153.633 292.199 151.11 294.284 149.452C295.515 148.479 296.737 147.496 298.027 146.602C299.05 145.887 299.537 144.994 299.735 143.752C301.195 134.785 302.724 125.829 304.214 116.862C304.432 115.561 304.571 114.24 304.671 112.93C305.127 106.922 305.634 100.914 305.952 94.8967C306.071 92.6922 305.674 90.4579 305.584 88.2336C305.525 86.6547 306.15 85.3738 307.411 84.4999C308.782 84.7383 309.129 85.622 309.248 86.6647C309.437 88.3925 309.556 90.1203 309.765 91.8481C310.043 94.132 310.37 96.406 310.658 98.5211C311.91 99.1765 312.436 98.5211 312.962 97.8459C313.628 97.0018 314.233 96.0982 314.988 95.3435C316.18 94.1519 318.007 93.8937 319.059 94.6385C320.171 95.4229 320.767 97.2302 320.013 98.6403C318.97 100.587 317.858 102.582 316.388 104.201C313.796 107.041 312.426 110.189 312.496 114.052C312.575 119.096 312.774 124.101 313.459 129.125C314.362 135.798 313.935 142.491 312.446 149.085C312.287 149.79 311.969 150.525 311.522 151.091C309.02 154.258 306.448 157.386 303.896 160.524C302.903 161.735 301.841 162.887 300.887 164.129C298.286 167.475 295.694 170.831 290.709 171.139ZM279.508 228.684C279.766 226.42 279.925 224.285 280.273 222.189C281.683 213.749 281.603 205.249 281.285 196.739C281.256 195.855 281.007 194.961 280.7 194.127C280.134 192.608 279.29 191.178 278.823 189.629C277.433 185.051 276.489 180.305 274.752 175.866C272.994 171.348 270.511 167.108 268.317 162.768C268.098 162.341 267.662 162.033 267.115 161.448C267.056 162.242 267.046 162.659 266.996 163.066C266.46 167.147 264.166 168.806 260.085 167.942C258.645 167.634 257.235 167.157 255.865 166.631C252.618 165.41 249.37 164.158 246.838 161.656C246.203 161.021 245.637 160.862 244.971 161.557C245.736 163.394 246.64 165.151 247.206 167.018C249.668 175.171 248.844 183.174 245.895 191.049C244.852 193.829 243.959 196.669 242.906 199.45C242.479 200.582 242.668 201.396 243.333 202.399C246.262 206.788 249.261 211.157 251.863 215.745C252.915 217.592 254.296 218.694 255.944 219.747C257.831 220.948 259.668 222.14 261.882 222.716C264.792 223.47 267.711 223.689 270.7 223.699C272.17 223.709 273.659 223.957 275.099 224.255C276.886 224.622 278.098 225.665 278.048 227.651C278.048 228.554 278.446 228.803 279.508 228.684ZM262.577 124.607C262.15 122.76 261.823 120.893 261.286 119.106C260.76 117.358 259.459 116.236 257.612 116.326C254.743 116.475 251.754 116.534 249.241 118.123C245.825 120.278 242.549 122.661 239.212 124.925C236.481 126.772 235.816 129.523 236.104 132.531C236.313 134.746 236.69 136.97 237.276 139.105C238.289 142.789 239.699 146.384 242.32 149.204C244.594 151.657 246.054 154.348 246.888 157.555C247.236 158.896 248.08 160.405 249.162 161.219C252.628 163.821 256.669 165.281 260.85 166.363C262.905 166.889 265.06 165.837 265.358 162.778C265.616 160.167 265.964 157.565 266.261 154.953C266.331 154.338 266.351 153.712 266.41 152.878C263.938 152.699 261.634 152.58 259.35 152.352C258.466 152.262 257.533 152.103 256.739 151.716C255.785 151.259 255.319 150.445 255.855 149.611C257.761 150.038 259.39 150.495 261.058 150.753C262.925 151.041 264.831 151.16 266.718 151.309C267.86 151.398 269.042 151.567 270.164 151.418C271.862 151.19 272.756 149.849 272.358 148.191C272.041 146.87 271.475 145.599 271.058 144.398C266.996 144.765 266.996 144.765 265.775 143.782C267.522 143.544 269.022 143.335 270.621 143.117C270.521 142.293 270.442 141.568 270.313 140.515C269.3 140.565 268.367 140.565 267.433 140.664C266.013 140.813 265.546 140.565 264.762 138.589C266.857 141.012 268.476 138.708 270.521 139.244C270.154 138.529 270.035 138.112 269.777 137.824C268.615 136.513 267.959 135.133 267.93 133.246C267.91 131.965 267.006 130.615 266.242 129.463C265.457 128.261 264.365 127.268 263.481 126.256C261.862 126.732 260.264 127.139 258.705 127.666C257.702 128.013 256.659 128.41 255.815 129.016C255.309 129.374 254.782 130.287 254.892 130.813C255.458 133.514 254.713 136.066 254.236 138.658C253.75 141.3 253.045 141.826 250.373 141.637C249.301 141.558 248.219 141.349 247.166 141.468C246.53 141.538 245.736 142.005 245.438 142.531C245.25 142.859 245.716 143.782 246.143 144.179C247.633 145.599 249.281 146.781 251.575 146.741C251.505 147.992 250.969 148.628 249.867 148.102C248.328 147.347 246.858 146.423 245.408 145.49C243.998 144.586 243.512 143.216 243.899 141.617C244.187 140.426 245.796 139.592 247.583 139.661C248.656 139.701 249.728 139.86 250.781 140.048C252.042 140.277 252.647 139.731 252.826 138.539C253.184 136.196 253.948 133.892 253.184 131.449C252.588 129.572 253.333 128.013 254.951 126.961C255.765 126.424 256.669 125.948 257.602 125.68C259.142 125.223 260.77 124.985 262.577 124.607ZM222.986 183.879C223.245 182.668 223.483 181.456 223.771 180.265C224.079 178.984 224.337 177.673 224.794 176.442C225.618 174.198 226.472 171.953 227.515 169.809C228.329 168.14 229.669 166.859 231.576 166.422C232.023 166.323 232.539 166.571 233.304 166.71C229.57 169.302 229.004 170.007 227.624 173.731C227.306 174.585 227.048 175.449 226.78 176.323C224.833 182.608 224.257 189.113 223.682 195.617C223.652 195.915 223.791 196.222 223.87 196.649C226.74 195.835 229.362 196.937 232.043 197.196C234.366 197.424 236.67 197.841 238.765 198.149C238.577 196.719 238.239 195.448 238.259 194.187C238.398 184.704 237.703 175.369 233.85 166.532C233.661 166.105 233.741 165.559 233.741 165.072C233.701 159.809 232.638 154.745 230.901 149.79C230.354 148.231 229.769 146.85 227.802 146.771C227.594 146.761 227.405 146.354 226.939 145.818C230.474 145.003 233.701 144.378 237.077 144.378C236.481 141.965 236.461 141.786 234.515 141.975C230.007 142.422 225.509 143.047 221.02 143.633C218.895 143.911 216.78 144.249 214.665 144.596C213.573 144.775 212.6 145.172 212.034 146.225C210.127 149.79 210.018 153.772 209.184 157.615C210.504 155.043 212.113 152.759 214.318 150.971C216.353 149.323 218.657 148.3 221.358 148.38C225.161 148.489 227.991 149.988 229.461 153.682C230.901 157.287 231.348 161.021 231.129 164.854C231.109 165.251 230.603 165.618 230.325 165.995C230.146 165.946 229.967 165.886 229.788 165.837C229.649 164.387 229.491 162.937 229.362 161.487C229.074 158.33 228.319 155.331 226.79 152.511C225.926 150.912 224.694 150.316 223.006 150.217C217.585 149.889 211.567 155.003 210.822 160.514C210.475 163.106 211.001 165.549 211.388 168.081C212.341 174.287 212.5 180.573 211.994 186.848C211.914 187.871 211.984 188.904 211.984 190.165C213.811 188.715 215.33 187.335 217.028 186.213C218.786 185.031 220.623 183.869 222.986 183.879ZM281.832 232.844C281.236 231.514 279.975 231.146 278.724 230.709C277.552 230.302 276.43 229.855 276.301 228.267C276.152 226.429 275.884 226.151 274.146 225.953C272.597 225.774 271.018 225.824 269.449 225.794C264.295 225.705 259.529 224.453 255.279 221.385C253.551 220.134 251.595 219.191 249.708 218.178C246.143 216.241 242.608 214.255 239.689 211.395C238.775 210.502 238.05 209.34 237.474 208.188C236.64 206.53 237.514 204.981 238.169 203.461C239.51 203.968 239.639 202.846 239.997 202.081C240.443 201.108 240.89 200.125 241.258 199.122C242.459 195.875 243.661 192.618 244.803 189.351C248.139 179.729 247.087 170.385 242.995 161.12C243.561 160.772 244.247 160.355 244.942 159.938C245.667 159.491 245.925 158.866 245.696 158.042C244.952 155.42 244.356 152.779 242.231 150.763C240.88 149.472 239.758 147.933 238.527 146.493C237.385 146.731 236.203 146.98 234.912 147.248C234.992 147.565 235.032 147.893 235.161 148.171C237.037 152.084 238.179 156.244 238.815 160.484C239.629 165.966 241.089 171.467 239.341 177.048C239.272 177.266 239.371 177.534 239.421 177.782C240.672 183.671 240.076 189.639 240.116 195.577C240.126 197.196 239.798 198.814 239.599 200.701C238.447 200.363 237.544 200.026 236.61 199.847C233.284 199.211 229.947 198.625 226.621 198.02C225.449 197.811 224.536 198.179 223.731 199.251C225.995 202.826 226.104 206.897 226.333 210.949C226.383 211.852 226.561 212.756 226.591 213.659C226.661 216.013 227.971 217.661 229.63 219.111C230.126 219.548 230.662 219.945 231.189 220.323C233.81 222.219 236.71 223.59 239.758 224.632C241.307 225.158 242.936 225.446 244.525 225.883C248.814 227.065 253.054 228.415 257.384 229.408C259.598 229.915 261.376 230.858 262.845 232.517C264.931 234.86 267.026 237.194 269.131 239.517C269.618 240.053 270.174 240.53 270.859 241.195C271.892 240.48 272.954 239.974 273.719 239.18C275.308 237.531 275.248 237.472 277.125 238.604C277.403 238.772 277.671 239.09 277.959 239.11C278.406 239.14 279.021 239.13 279.27 238.862C279.508 238.604 279.498 237.968 279.389 237.551C279.29 237.184 278.882 236.916 278.654 236.568C277.592 234.92 277.889 234.195 279.786 233.897C280.58 233.778 281.494 233.966 281.832 232.844ZM307.967 86.8732C307.709 86.8732 307.441 86.8831 307.183 86.8831C307.133 87.9854 307.014 89.0876 307.034 90.1898C307.064 91.5105 307.332 92.8312 307.282 94.142C307.113 99.0871 306.875 104.032 306.607 108.977C306.478 111.281 306.349 113.605 305.991 115.879C304.462 125.491 302.814 135.093 301.275 144.706C301.026 146.235 300.282 147.198 299.03 148.042C296.717 149.611 294.532 151.379 292.248 152.987C290.977 153.881 290.471 154.993 290.501 156.552C290.57 159.769 290.451 162.997 290.491 166.214C290.501 167.247 290.759 168.269 290.888 169.233C292.745 169.352 294.085 168.736 295.168 167.654C296.617 166.204 298.008 164.675 299.368 163.136C300.838 161.467 302.268 159.759 303.698 158.051C305.962 155.331 308.226 152.6 310.43 149.829C310.817 149.343 310.976 148.638 311.115 148.002C312.575 141.309 312.744 134.577 311.661 127.825C310.966 123.485 310.688 119.136 310.797 114.757C310.917 110.387 312.208 106.535 315.266 103.278C316.428 102.036 317.212 100.438 318.116 98.968C318.364 98.5608 318.593 98.0246 318.543 97.5778C318.483 97.0515 318.235 96.3564 317.838 96.128C317.47 95.9194 316.706 96.0684 316.299 96.3365C315.693 96.7337 315.246 97.3692 314.75 97.9154C314.253 98.4615 313.836 99.107 313.28 99.5836C311.592 101.004 309.834 100.477 309.397 98.3523C308.98 96.3365 308.752 94.281 308.494 92.2354C308.295 90.448 308.146 88.6606 307.967 86.8732ZM275.884 161.596C276.638 162.321 277.79 163.056 278.406 164.099C280.144 167.018 281.266 170.156 281.325 173.642C281.365 175.628 281.742 177.604 282.02 180.046C282.894 178.974 283.341 178.269 283.927 177.733C284.89 176.859 285.833 175.757 286.985 175.35C288.634 174.774 289.15 173.8 289.17 172.251C289.18 171.348 289.319 170.444 289.279 169.54C289.12 165.936 288.902 162.331 288.733 158.727C288.693 157.942 288.723 157.158 288.723 156.473C284.225 158.26 279.935 159.978 275.884 161.596ZM203.454 226.092C204 227.8 204.487 229.458 205.063 231.077C205.341 231.841 205.758 232.576 206.195 233.271C207.148 234.791 207.525 234.86 209.263 234.572C210.544 234.354 211.875 234.165 213.156 234.264C215.291 234.423 215.887 234.304 216.582 232.368C216.989 231.246 217.088 229.974 217.088 228.773C217.088 227.72 216.701 226.668 216.582 225.605C216.542 225.218 216.78 224.791 216.949 224.215C218.498 226.38 219.064 229.756 218.359 231.931C217.366 234.979 216.433 235.714 213.265 235.942C213.136 235.952 213.017 236.121 212.808 236.29C212.927 237.303 212.629 238.445 213.523 239.795C215.569 237.829 217.495 236.062 219.312 234.195C219.779 233.718 220.127 232.914 220.146 232.239C220.236 229.289 220.186 226.34 220.186 223.043C218.687 223.133 217.455 223.073 216.284 223.311C212.083 224.155 207.913 225.109 203.454 226.092ZM279.816 185.816C280.014 185.746 280.203 185.667 280.402 185.597C280.223 182.479 280.104 179.351 279.865 176.233C279.597 172.718 279.448 169.193 277.532 165.995C276.817 164.814 276.281 163.751 274.841 163.374C274.056 163.165 273.341 162.699 272.567 162.411C271.574 162.033 270.551 161.716 269.548 161.368C269.439 161.517 269.33 161.676 269.221 161.825C274.831 168.905 277.671 177.206 279.816 185.816ZM238.04 171.695C238.219 171.179 238.318 171.03 238.318 170.871C238.289 162.997 236.203 155.539 233.621 148.181C233.572 148.022 233.502 147.873 233.423 147.724C232.857 146.692 232.201 146.89 231.407 147.516C234.118 153.136 235.518 158.925 235.26 165.082C235.24 165.549 235.389 166.055 235.588 166.492C236.322 168.14 237.117 169.759 238.04 171.695ZM241.754 202.885C241.019 204.385 240.92 204.425 241.357 205.398C242.032 206.897 242.807 208.357 243.641 209.767C244.266 210.839 244.991 211.822 244.336 213.163C246.451 214.384 248.397 215.516 250.622 216.807C247.543 211.971 244.693 207.493 241.754 202.885ZM221.924 196.788C222.212 193.939 222.53 191.674 222.132 188.974C220.395 189.937 218.915 190.761 217.207 191.694C218.766 193.372 220.146 194.862 221.924 196.788ZM222.837 185.15C219.789 186.461 217.019 187.415 214.943 189.549C215.698 190.82 216.433 190.592 217.336 190.076C218.955 189.152 220.633 188.338 222.579 187.325C222.619 186.968 222.708 186.263 222.837 185.15ZM200.743 194.971C201.736 193.502 203.851 194.048 203.831 191.853C202.541 191.853 201.389 191.853 199.959 191.853C200.217 192.886 200.406 193.641 200.743 194.971ZM241.198 210.174C240.344 208.764 240.821 206.52 238.408 205.676C238.507 207.92 239.371 209.33 241.198 210.174ZM214.824 191.605C214.188 190.175 213.464 190.344 212.629 190.771C211.408 191.416 211.815 192.33 212.103 193.641C213.136 192.876 213.95 192.26 214.824 191.605Z" fill="#3D2F2E"/>
<path d="M340.428 106.227C341.094 107.021 341.838 107.766 342.414 108.62C343.249 109.841 344.093 111.082 344.728 112.413C348.372 120.109 353.854 126.712 357.687 134.299C359.246 137.397 360.884 140.455 362.413 143.573C364.598 148.022 366.961 152.411 368.788 157.009C372.095 165.29 375.442 173.592 376.822 182.479C377.577 187.365 378.421 192.221 377.845 197.245C377.517 200.075 378.152 203.004 378.232 205.894C378.579 218.118 378.867 230.352 379.225 242.576C379.483 251.244 379.851 259.923 380.119 268.592C380.516 281.481 380.834 294.37 381.241 307.26C381.648 320.059 382.144 332.869 382.591 345.669C382.631 346.821 382.601 347.973 382.174 349.154C381.836 346.175 381.35 343.206 381.191 340.227C380.744 331.975 380.387 323.714 380.089 315.452C379.563 300.835 379.116 286.208 378.639 271.591C378.629 271.194 378.56 270.797 378.49 270.181C376.991 270.3 375.61 270.429 374.24 270.509C367.478 270.866 360.715 271.253 353.943 271.531C350.607 271.67 347.369 271.114 344.301 269.655C340.458 267.818 336.248 267.986 332.157 267.559C331.084 267.45 330.002 267.45 328.949 267.242C322.962 266.02 316.964 266.149 310.936 266.914C308.97 267.162 306.994 267.371 305.018 267.55C301.036 267.907 297.193 268.831 293.549 270.499C290.828 271.74 287.988 272.465 284.801 272.822C285.456 271.72 286.449 271.79 287.223 271.492C289.299 270.697 291.444 270.042 293.479 269.158C296.687 267.758 299.954 266.705 303.449 266.298C309.596 265.583 315.703 264.193 321.939 264.61C325.891 264.868 329.813 265.504 333.765 265.772C338.413 266.08 342.961 266.636 347.23 268.731C348.233 269.228 349.465 269.426 350.597 269.456C354.638 269.555 358.69 269.675 362.731 269.506C367.19 269.317 371.628 268.821 376.077 268.443C376.872 268.374 377.666 268.215 378.54 268.076C378.54 267.033 378.57 266.209 378.54 265.395C378.013 252.674 377.447 239.964 376.961 227.244C376.752 221.792 376.752 216.34 376.574 210.889C376.375 204.861 376.067 198.844 375.829 192.816C375.769 191.247 375.73 189.678 375.779 188.109C375.898 184.435 375.352 180.831 374.161 177.395C371.638 170.146 369.305 162.798 366.236 155.777C362.741 147.764 358.61 140.018 354.589 132.243C352.543 128.291 350.408 124.299 347.747 120.764C345.076 117.219 343.656 113.078 341.312 109.424C340.965 108.878 340.458 108.411 340.14 107.855C339.932 107.488 339.922 107.001 339.833 106.574C340.011 106.435 340.22 106.326 340.428 106.227Z" fill="#3D2F2E"/>
<path d="M2.35211 392.986C-0.299199 390.483 -0.0906701 387.753 2.65001 386.402C7.28732 384.118 11.2494 380.851 15.3604 377.793C19.5112 374.704 23.9896 372.341 28.8255 370.524C35.2403 368.111 41.5856 365.489 47.911 362.848C49.4898 362.193 51.029 361.279 52.3596 360.207C53.2533 359.472 54.0974 358.32 54.3357 357.218C54.9017 354.576 56.3316 352.64 58.5659 351.379C61.5051 349.721 64.5239 348.152 67.632 346.831C77.5719 342.601 88.058 340.257 98.6533 338.42C103.449 337.586 108.305 337.08 113.121 336.385C119.695 335.441 126.04 333.694 132.157 331.052C136.626 329.116 141.213 327.448 145.334 324.757C150.657 321.281 155.125 316.862 159.137 312.026C164.747 305.244 171.252 299.385 177.557 293.298C182.413 288.611 188.252 285.255 194.269 282.286C198.043 280.419 201.935 278.791 205.818 277.152C209.353 275.663 212.997 274.64 216.9 275.027C217.654 275.107 218.409 275.255 219.164 275.365C219.164 275.553 219.154 275.732 219.154 275.921C218.548 276.04 217.942 276.278 217.337 276.248C213.265 276.08 209.502 277.271 205.828 278.84C198.37 282.018 190.963 285.315 184.349 290.081C182.006 291.769 179.762 293.606 177.646 295.572C170.686 302.047 164.013 308.799 157.796 316.008C151.451 323.356 143.527 328.311 134.501 331.916C124.71 335.819 114.66 338.053 104.204 338.937C100.024 339.284 95.853 340.128 91.7718 341.141C83.3512 343.216 74.8511 345.083 66.9567 348.847C64.504 350.018 62.0811 351.29 59.7376 352.66C57.7516 353.822 56.4607 355.52 55.9642 357.923C55.7159 359.114 54.9116 360.465 53.9484 361.18C51.9823 362.64 49.8374 363.97 47.5833 364.913C40.8805 367.714 34.0884 370.315 27.3261 372.967C22.1029 375.022 17.6741 378.329 13.2453 381.675C10.4848 383.761 7.65473 385.806 4.67573 387.554C2.99756 388.537 2.22302 389.59 2.4812 391.476C2.51099 391.854 2.40176 392.271 2.35211 392.986Z" fill="#3D2F2E"/>
<path d="M387.795 154.676C387.785 152.908 387.646 151.121 387.805 149.373C387.944 147.874 387.904 146.513 387.388 145.044C386.812 143.435 386.534 141.667 386.425 139.949C385.511 125.948 383.545 112.006 383.843 97.9157C383.923 94.3111 383.446 90.6469 382.84 87.0821C381.529 79.2771 381.629 71.4522 381.927 63.5976C381.966 62.555 382.314 61.5024 382.651 60.4994C382.87 59.8639 383.347 59.3476 384.399 59.8441C382.87 61.8797 383.287 64.2431 383.287 66.5468C383.287 74.1532 383.654 81.7298 384.975 89.2468C385.501 92.2357 385.601 95.3339 385.571 98.3824C385.472 108.064 386.077 117.696 386.931 127.328C387.259 131.022 387.239 134.756 387.428 138.47C387.527 140.515 387.736 142.561 388.341 144.666C388.58 144.12 388.848 143.584 389.046 143.018C393.783 129.602 399.056 116.425 405.848 103.894C406.245 103.169 406.573 102.394 407.059 101.729C410.962 96.3468 413.425 90.1604 416.632 84.401C417.188 83.398 417.397 82.2064 417.963 81.2234C418.231 80.7467 418.975 80.5481 419.492 80.2204C419.76 80.7567 420.088 81.2829 420.296 81.849C420.743 83.0703 419.601 83.5271 419.114 84.3315C417.883 86.377 416.87 88.5517 415.728 90.6569C414.13 93.6359 412.6 96.6645 410.863 99.5542C405.401 108.63 400.714 118.093 396.663 127.884C394.895 132.154 393.157 136.444 391.499 140.764C390.645 142.998 389.831 145.272 389.295 147.586C388.768 149.899 388.61 152.302 388.282 154.666C388.143 154.676 387.974 154.676 387.795 154.676Z" fill="#3D2F2E"/>
<path d="M371.688 54.6905C372.095 55.9714 372.502 56.7659 372.592 57.6C373.128 62.4458 373.694 67.2817 374.052 72.1375C374.985 84.828 375.462 97.5583 376.822 110.199C377.626 117.657 377.885 125.144 378.788 132.581C379.235 136.246 379.543 139.92 379.851 143.604C379.91 144.358 380.158 145.282 378.897 145.957C378.679 145.361 378.401 144.835 378.292 144.279C377.765 141.618 377.14 138.966 376.822 136.275C376.316 131.936 375.938 127.567 375.66 123.207C375.233 116.286 375.025 109.345 374.548 102.424C373.803 91.6301 372.959 80.8362 372.066 70.0522C371.738 66.0206 371.162 62.0188 370.705 57.9972C370.606 57.034 370.397 56.041 371.688 54.6905Z" fill="#3D2F2E"/>
<path d="M228.458 100.397C226.711 106.355 229.888 111.181 235.886 111.926C235.3 112.889 234.794 113.743 234.228 114.677C234.863 115.153 235.648 115.511 236.084 116.117C236.531 116.742 236.651 117.606 236.988 118.559C236.561 118.48 236.085 118.51 236.015 118.361C235.489 117.149 235.042 115.948 233.463 115.7C233.264 115.67 233.006 114.846 233.096 114.458C233.215 113.922 233.632 113.455 233.83 113.108C231.964 111.698 229.978 110.516 228.409 108.907C227.594 108.073 227.306 106.534 227.147 105.273C226.959 103.734 227.118 102.155 227.187 100.586C227.227 99.6229 227.763 99.0768 228.776 99.0867C229.193 99.0867 229.61 99.0867 230.017 99.037C231.785 98.7888 232.341 98.2526 232.381 96.4751C232.41 95.2438 232.242 94.0025 232.142 92.7712C232.112 92.4435 232.003 92.1258 231.944 91.7981C230.464 84.6385 234.724 81.5602 240.752 80.9148C243.611 80.607 246.531 80.9049 249.421 80.8453C251.407 80.8056 253.105 80.0509 254.386 78.4422C255.14 77.4989 255.279 76.5754 254.733 75.4731C252.092 70.1209 252.956 65.285 256.888 60.8562C259.599 57.7977 262.806 55.6131 266.768 54.5804C268.129 54.2229 269.489 53.8754 270.82 53.4285C273.908 52.3958 275.884 50.4495 276.043 46.9939C276.142 44.8589 277.215 43.2701 279.042 42.148C283.411 39.4769 287.76 36.766 292.139 34.1147C293.321 33.3997 294.274 32.5557 294.701 31.235C294.969 30.4108 295.456 29.527 294.086 29.0305C293.708 28.8915 293.559 28.107 293.261 27.5212C293.728 27.7198 294.125 27.8886 294.721 28.1368C294.721 27.0247 294.721 26.0813 294.721 25.128C294.83 25.1181 294.93 25.1082 295.039 25.0982C295.267 26.3891 295.585 27.6602 295.694 28.961C295.903 31.3541 295.108 33.3501 292.993 34.6608C289.419 36.8852 285.824 39.0797 282.239 41.304C281.256 41.9097 280.313 42.585 279.33 43.2006C277.8 44.1638 277.095 45.5838 276.976 47.3315C276.748 50.7872 274.812 52.9519 271.713 54.1435C269.946 54.8187 268.099 55.3053 266.272 55.8316C261.664 57.1722 258.288 60.1511 255.786 64.0735C253.73 67.3008 253.819 70.8557 255.309 74.2915C256.64 77.3797 256.034 79.7728 252.926 81.1432C251.307 81.8581 249.43 82.1163 247.653 82.2653C245.687 82.4341 243.681 82.0965 241.715 82.2355C240.176 82.3447 238.577 82.6228 237.177 83.2186C233.632 84.7081 232.539 86.843 233.006 90.7058C233.215 92.4237 233.532 94.1415 233.582 95.8694C233.672 98.9675 232.669 99.9705 229.531 100.219C229.223 100.278 228.905 100.338 228.458 100.397Z" fill="#3D2F2E"/>
<path d="M347.767 98.7196C348.134 99.5934 348.472 100.487 348.879 101.341C351.957 107.915 355.075 114.479 358.134 121.072C360.636 126.464 363.049 131.896 365.541 137.288C368.074 142.759 370.685 148.191 373.217 153.652C374.985 157.465 376.693 161.308 378.421 165.151C379.195 166.879 379.96 168.617 380.675 170.374C380.863 170.841 380.834 171.387 380.913 171.934C379.483 172.202 379.006 171.308 378.629 170.553C377.825 168.935 377.189 167.227 376.454 165.568C374.895 162.023 373.327 158.478 371.738 154.943C368.937 148.697 366.117 142.451 363.317 136.205C361.391 131.916 359.524 127.596 357.548 123.326C355.016 117.855 352.374 112.443 349.872 106.961C348.948 104.936 348.263 102.801 347.528 100.696C347.33 100.13 347.34 99.4941 347.26 98.8884C347.419 98.8189 347.598 98.7693 347.767 98.7196Z" fill="#3D2F2E"/>
<path d="M380.456 3.83838C380.922 2.53755 382.005 2.22972 382.978 2.06091C387.119 1.35588 391.269 0.611128 395.45 0.174208C398.151 -0.113762 400.902 0.0252579 403.622 0.104698C404.754 0.134488 405.926 0.382738 406.999 0.760078C408.707 1.37574 409.014 2.4879 408.111 4.09656C407.793 4.65264 407.406 5.169 407.028 5.74494C409.938 6.53934 409.938 6.53934 410.544 10.6802C411.388 10.6802 412.262 10.7298 413.135 10.6702C415.757 10.4716 416.661 11.3256 416.442 13.9173C416.392 14.5628 416.243 15.1983 416.114 15.9728C416.66 16.0721 417.117 16.2509 417.574 16.231C421.01 16.092 424.287 16.8963 427.583 17.6808C429.371 18.1078 430.721 18.9221 430.781 20.8882C430.821 22.3082 431.973 22.2387 432.797 22.6557C430.771 24.314 429.54 23.9367 429.242 21.5237C429.083 20.2626 428.537 19.6271 427.315 19.3193C424.029 18.4951 420.772 17.5716 417.326 17.7602C416.76 17.79 416.174 17.7007 415.608 17.6113C414.476 17.4226 414.118 16.6977 414.357 15.6253C414.565 14.6819 414.764 13.7386 415.062 12.4179C413.96 12.4179 413.175 12.398 412.391 12.4179C409.183 12.5172 408.816 12.1796 408.736 9.0417C408.726 8.72394 408.637 8.40618 408.558 7.88982C407.763 7.76073 406.959 7.67136 406.184 7.48269C404.874 7.14507 404.466 6.18186 405.191 5.04984C405.668 4.29516 406.284 3.63978 407.098 2.5872C405.737 2.24958 404.675 1.78287 403.593 1.74315C397.227 1.51476 390.862 1.62399 384.577 2.85531C383.266 3.10356 381.945 3.4809 380.456 3.83838Z" fill="#3D2F2E"/>
<path d="M421.984 100.935C417.555 104.817 414.645 109.703 411.915 114.708C411.398 115.651 411.031 116.674 410.515 117.607C409.144 120.05 407.963 122.632 406.294 124.846C400.704 132.294 396.225 140.347 392.482 148.837C392.164 149.552 392.055 150.356 391.777 151.379C390.962 150.337 391.31 149.393 391.638 148.549C392.67 145.848 393.663 143.127 394.895 140.526C397.844 134.329 401.31 128.431 405.401 122.89C406.801 120.993 407.744 118.729 408.757 116.575C411.11 111.53 413.891 106.774 417.903 102.841C419.025 101.749 420.216 100.786 421.984 100.935Z" fill="#3D2F2E"/>
<path d="M257.057 327.616C256.858 326.464 256.59 325.69 256.6 324.915C256.679 319.881 256.769 314.856 256.938 309.822C257.166 303.387 257.524 296.952 257.732 290.518C258.03 281.61 258.229 272.693 258.487 263.776C258.497 263.399 258.576 263.031 259.033 262.624C259.162 263.558 259.4 264.501 259.4 265.434C259.41 272.117 259.48 278.81 259.311 285.493C259.013 297.21 258.546 308.928 258.179 320.645C258.139 322.045 258.288 323.446 258.328 324.846C258.358 325.729 258.497 326.663 257.057 327.616Z" fill="#3D2F2E"/>
<path d="M348.73 144.815C348.561 144.974 348.392 145.262 348.223 145.262C345.721 145.272 343.268 146.692 340.686 145.47C340.26 145.272 339.396 145.639 338.909 145.997C337.072 147.327 335.076 147.635 332.832 147.595C330.538 147.556 328.264 147.655 325.97 147.268C324.759 147.059 324.183 146.592 324.163 145.401C324.153 144.904 324.103 144.408 324.113 143.911C324.123 141.677 324.55 141.151 326.735 140.803C328.423 140.535 330.131 140.346 331.889 140.108C331.779 139.78 331.769 139.572 331.69 139.542C330.846 139.274 329.744 139.314 329.545 138.182C329.337 136.99 330.28 136.454 331.144 135.928C331.491 135.719 331.849 135.511 332.296 135.252C332.107 134.686 331.75 134.14 331.809 133.644C331.879 133.078 332.186 132.224 332.603 132.055C334.987 131.131 337.42 130.347 339.862 129.602C340.408 129.433 341.054 129.632 341.739 130.109C340.399 130.595 339.038 131.042 337.707 131.568C336.407 132.085 335.126 132.661 333.656 133.296C334.093 133.813 334.48 134.259 334.907 134.756C334.46 136.533 332.335 136.404 331.382 137.814C332.276 138.053 333.11 138.162 333.825 138.509C334.272 138.718 334.738 139.244 334.838 139.701C334.897 139.989 334.381 140.615 333.994 140.754C332.832 141.171 331.62 141.449 330.419 141.717C329.694 141.876 328.949 141.905 328.214 142.015C325.573 142.392 325.444 142.571 325.881 145.401C328.84 146.831 332.008 146.235 335.076 146.185C336.188 146.165 337.32 145.262 338.383 144.666C339.505 144.04 340.508 143.514 341.809 144.398C342.345 144.765 343.219 144.726 343.934 144.706C345.483 144.666 347.042 144.507 348.591 144.398C348.65 144.537 348.69 144.676 348.73 144.815Z" fill="#3D2F2E"/>
<path d="M474.703 82.4539C476.391 82.3844 477.84 83.2086 479.211 84.0229C480.839 84.9861 482.378 86.1181 483.868 87.2799C485.725 88.7198 485.963 90.2391 484.732 92.2548C484.176 93.1684 483.471 93.9827 482.855 94.8664C482.398 95.5218 481.991 96.1971 481.514 96.9219C482.051 97.3986 482.388 97.7561 482.776 98.0341C485.715 100.159 486.479 103.396 487.026 106.653C487.165 107.487 486.569 108.54 486.102 109.364C485.248 110.864 484.315 112.323 483.282 113.694C481.703 115.809 479.469 116.881 477.046 117.557C476.917 117.378 476.798 117.209 476.669 117.03C477.384 116.434 478.039 115.759 478.814 115.263C480.373 114.28 481.733 113.197 482.547 111.44C483.024 110.417 483.908 109.593 484.642 108.699C485.487 107.666 485.755 106.574 485.308 105.253C484.464 102.741 483.719 100.268 481.147 98.7888C479.598 97.8951 479.499 96.773 480.512 95.214C481.227 94.1118 482.14 93.1386 482.925 92.086C484.434 90.0603 484.364 89.2659 482.378 87.7863C480.214 86.1777 478.277 84.1917 475.537 83.4866C475.179 83.3973 474.861 83.1192 474.534 82.9306C474.593 82.7816 474.643 82.6227 474.703 82.4539Z" fill="#3D2F2E"/>
<path d="M319.655 45.2866C318.344 46.5477 317.004 46.369 315.753 46.5775C314.561 46.7662 313.231 46.9251 312.277 47.5606C309.586 49.3579 309.278 53.886 311.761 56.011C313.032 57.0934 314.74 57.6694 316.289 58.4042C316.776 58.6326 317.361 58.6524 318.483 58.8907C317.62 59.417 317.232 59.8142 316.795 59.8937C313.469 60.4795 310.122 60.9661 306.796 61.5421C305.773 61.7208 304.78 62.0683 303.519 62.406C304.174 61.1945 305.237 60.8867 306.299 60.6583C307.431 60.41 308.583 60.3107 309.715 60.1022C310.827 59.9036 311.93 59.6454 313.538 59.2979C312.436 58.3942 311.691 57.8282 310.996 57.2126C307.68 54.2932 308.007 48.643 311.672 46.2598C312.406 45.7831 313.32 45.4058 314.184 45.3363C315.862 45.1873 317.58 45.2866 319.655 45.2866Z" fill="#3D2F2E"/>
<path d="M306.002 64.9882C304.631 66.7856 303.41 68.3843 301.831 70.4497C303.757 70.4497 305.128 70.4795 306.488 70.4398C311.066 70.3206 312.079 71.2441 312.218 75.7325C312.228 76.0602 312.228 76.3879 312.238 76.7255C312.277 77.649 312.655 78.3242 313.638 78.4831C315.395 78.7611 316.557 79.6946 317.491 81.2536C317.977 82.0678 319.139 82.475 320.182 83.1999C318.335 83.6964 317.074 83.041 316.309 81.7104C315.614 80.5088 314.7 80.0024 313.4 79.7244C311.493 79.3172 310.996 78.6023 310.877 76.6163C310.828 75.7921 310.897 74.958 310.788 74.1437C310.569 72.5052 309.835 71.8201 308.166 71.7804C306.518 71.7406 304.87 71.8797 303.221 71.8697C302.486 71.8697 301.732 71.7804 301.037 71.552C300.272 71.3037 299.994 70.5888 300.51 69.9731C301.94 68.285 303.469 66.6664 304.999 65.0577C305.098 64.9286 305.436 65.018 306.002 64.9882Z" fill="#3D2F2E"/>
<path d="M402.471 66.9829C400.724 66.9829 399.492 67.0425 398.271 66.963C397.635 66.9233 396.772 66.824 396.444 66.4069C395.302 64.9671 393.693 64.8579 392.114 64.411C389.662 63.7159 387.805 62.286 388.162 59.1481C387.388 59.0289 386.752 58.9495 386.136 58.8403C385.253 58.6715 384.309 58.6218 383.505 58.2643C381.122 57.1919 380.506 55.7421 381.301 53.2596C381.598 52.3262 382.055 51.4325 382.532 50.5686C382.671 50.3203 383.128 50.2409 383.793 49.9231C383.306 51.2835 382.909 52.2468 382.601 53.2398C381.916 55.4839 382.601 56.6755 384.895 57.2217C385.61 57.3905 386.375 57.3408 387.11 57.4104C388.788 57.5792 389.264 58.0161 389.582 59.6347C390.019 61.859 391.092 62.9811 393.475 63.3286C394.746 63.5074 395.769 63.8351 396.742 64.7784C397.347 65.3643 398.509 65.4338 399.443 65.6026C400.356 65.7615 401.399 65.4834 402.471 66.9829Z" fill="#3D2F2E"/>
<path d="M320.122 9.84597C319.219 10.1439 318.583 10.5907 318.077 10.4716C315.505 9.89562 313.807 11.1965 312.238 12.9143C311.91 13.2718 311.503 13.5598 311.036 13.957C310.391 13.5797 309.785 13.2321 309.159 12.8746C304.85 14.3741 301.374 17.1545 298.127 20.2328C297.591 20.7392 297.383 21.6825 297.243 22.467C297.055 23.4898 297.095 24.5622 297.005 26.1808C296.519 25.3666 296.151 25.019 296.121 24.6615C295.923 22.189 296.38 20.1533 298.505 18.3063C301.355 15.8238 304.383 13.7981 307.759 12.1795C308.921 11.6234 310.013 11.1468 311.145 12.3285C313.529 9.70695 316.19 8.34654 320.122 9.84597Z" fill="#3D2F2E"/>
<path d="M449.917 41.8801C447.811 40.3409 445.269 40.1821 442.688 39.6856C443.075 39.5565 443.462 39.3479 443.869 39.3082C446.044 39.0898 448.149 39.4175 450.105 40.4005C451.654 41.185 452.022 42.2276 450.989 43.5881C449.887 45.0478 449.708 46.5174 450.006 48.2254C450.195 49.3077 450.334 50.4596 449.529 51.7604C448.179 50.0823 448.516 48.275 448.526 46.7359C448.516 45.2166 449.351 43.6973 449.917 41.8801Z" fill="#3D2F2E"/>
<path d="M259.57 132.303C261.07 131.787 262.569 131.261 264.078 130.744C264.138 130.913 264.197 131.092 264.257 131.261C262.956 132.472 261.308 132.76 259.62 132.919C259.6 132.721 259.58 132.512 259.57 132.303Z" fill="#3D2F2E"/>
<path d="M259.58 135.52C260.404 134.577 261.268 133.733 262.638 133.981C262.728 134.16 262.817 134.349 262.906 134.527C261.903 135.044 260.91 135.56 259.907 136.076C259.798 135.908 259.689 135.719 259.58 135.52Z" fill="#3D2F2E"/>
</svg>
