<svg id="svg-mountain" width="1279" height="572" fill="none" viewBox="0 0 1279 572">
  <path d="M.86 571.185c-.22-1.404-.948-2.891-.536-4.188.57-1.803 1.955-3.474 3.056-5.185 7.775-12.139 15.537-24.278 23.355-36.399 5.992-9.276 12.587-18.398 17.976-27.83 8.292-14.509 17.835-28.608 28.549-42.401 10.783-13.879 20.637-28.066 28.578-42.801 4.893-9.08 9.105-18.338 24.691-35.664 3.21-5.567 7.558-10.838 11.582-16.188 6.272-8.335 12.292-16.766 19.126-24.899 11.456-13.646 23.311-27.162 35.373-40.588 3.296-3.67 7.664-6.976 12.008-10.191 3.935-2.913 9.313-3.185 14.38-.636 4.124 2.074 7.761 4.616 11.249 7.145 14.552 10.56 25.43 22.563 35.851 34.712 13.121 15.314 26.219 30.633 38.956 46.064 9.312 11.278 18.178 22.695 26.927 34.131 12.484 16.31 24.667 32.708 37.019 49.056 11.673 15.451 23.095 30.965 35.2 46.288 6.75 8.551 14.613 16.791 22.082 25.132 6.835 7.635 14.223 15.103 20.566 22.881 3.946 4.843 6.417 10.122 9.727 15.506 1.433-1.075 2.973-2.083 4.262-3.201 11.64-10.116 123.994-169.846 132.843-181.115 10.177-12.947 20.177-25.959 30.87-38.714 7.576-9.041 16.057-17.761 24.327-26.552 11.917-12.666 23.536-25.439 33.416-38.859 6.595-8.949 13.809-17.69 20.381-26.64 6.236-8.498 11.795-17.201 17.986-25.709 5.305-7.291 11.631-14.272 16.547-21.677 6.828-10.291 12.846-20.821 19.028-31.292 8.034-13.594 15.824-27.26 26.359-40.124 6.056-7.388 12.724-14.606 17.836-22.274 8.258-12.391 15.215-25.166 23.196-37.647 5.556-8.681 11.448-17.289 17.98-25.666 10.819-13.89 23.005-27.29 36.221-40.273 1.085-1.063 2.173-2.148 2.927-3.32 1.16-1.815 3.386-2.336 5.922-1.429 4.21 1.505 8.616 3.02 12.094 5.094 10.029 5.976 17.914 13.085 24.609 20.556 6.785 7.572 15.546 14.068 24.608 20.555a1795.872 1795.872 0 0143.107 31.817c14.236 10.849 25.126 23.054 35.926 35.223 6.9 7.764 13.55 15.686 18.88 23.862 6.65 10.223 12.11 20.734 17.56 31.208 5.94 11.422 10.71 23.053 17.05 34.394 6.91 12.345 14.67 24.543 22.72 36.651 14.06 21.17 28.7 42.205 42.94 63.333 7.88 11.674 15.55 23.388 23.1 35.133 5.24 8.155 9.54 16.536 15.29 24.556 7 9.785 14.92 19.343 22.75 28.914 7.54 9.22 15.21 18.402 23.28 27.454 7.45 8.353 15.6 16.475 23.26 24.762 8.84 9.553 17.31 19.225 26.24 28.737 4.97 5.296 10.6 10.369 15.86 15.576.9.888 1.63 1.9 2.02 2.908.23.605-.06 1.762-.6 1.873-1.4.292-2.96.54-4.2-.841-4.59-5.124-9.46-10.165-14.21-15.239-5.06-5.434-10.13-10.868-15.17-16.321-14.96-16.172-30.11-32.283-44.75-48.557-8.56-9.506-16.11-19.333-24.39-28.938-12.28-14.243-21.51-29.206-30.58-44.227-6.05-10.024-12.94-19.878-19.54-29.785-15.3-23.021-30.8-46-45.96-69.057-8.17-12.445-16.26-24.931-23.53-37.569-4.93-8.559-8.13-17.438-12.54-26.103-7.97-15.614-14.43-31.568-25.96-46.464-8.54-11.05-18.65-21.67-28.2-32.435-11.239-12.67-25.75-23.89-40.998-34.773-12.811-9.14-25.858-18.157-38.31-27.482-4.623-3.46-7.738-7.695-11.704-11.507-6.948-6.686-13.844-13.417-23.014-19.077-3.908-2.408-5.005-2.313-7.66.427-6.734 6.923-14.051 13.635-20.19 20.778-10.51 12.231-20.791 24.57-30.196 37.174-5.305 7.117-8.405 14.93-12.993 22.3-6.474 10.402-13.038 20.789-20.245 30.973-5.097 7.201-11.769 13.921-16.911 21.111-6.639 9.29-12.648 18.782-18.588 28.28-8.288 13.246-15.798 26.714-24.519 39.828-6.84 10.289-15.102 20.162-22.542 30.275-4.759 6.467-9.008 13.102-13.822 19.55-6.145 8.246-12.811 16.322-18.924 24.586-8.903 12.036-19.443 23.449-30.107 34.83-8.089 8.64-16.31 17.225-24.014 26.009-6.823 7.781-12.985 15.809-19.5 23.704-7.311 8.863-14.15 17.919-22.196 26.491-7.832 8.346-118.505 165.458-127.225 173.45-3.37 3.093-5.561 3.256-10.449 2.166-2.454-.553-2.967-1.746-3.764-2.979-4.599-7.087-8.743-14.299-14.048-21.19-4.202-5.45-10.105-10.418-14.831-15.742-10.938-12.34-21.924-24.663-31.034-37.574-8.69-12.325-18.418-24.39-27.561-36.604-9.733-12.989-19.143-26.072-29.02-39.023-13.523-17.716-26.77-35.509-42.136-52.713-7.931-8.874-14.584-18.158-22.501-27.045-10.039-11.278-20.376-22.482-31.37-33.42-5.207-5.18-12.122-9.735-18.509-14.444-3.641-2.687-5.994-2.871-9.476-.328-4.975 3.627-9.832 7.408-13.707 11.531-8.206 8.738-15.909 17.688-23.521 26.653-6.192 7.282-12.088 14.678-17.894 22.096-7.784 9.923-15.745 19.787-22.865 29.922-14.273 13.823-16.224 19.909-19.607 25.569-7.161 11.948-14.169 23.961-22.219 35.649-8.976 13.033-19.44 25.622-28.527 38.623-7.37 10.545-13.529 21.451-20.444 32.138-10.777 16.744-21.77 33.454-32.772 50.156-1.657 2.519-3.982 4.856-5.46 7.42-.987 1.722-1.026 3.695-1.49 5.558-.202.046-.404.093-.617.131z"/>
</svg>