<svg class="animate" width="546" height="486" viewBox="0 0 546 486" fill="none" xmlns="http://www.w3.org/2000/svg">
<path class="light-beige" d="M312.564 80.8075C312.564 77.7911 312.138 74.25 312.662 70.7745C313.601 64.5448 315.098 58.3916 316.364 52.1947C317.544 46.4568 319.389 45.0688 325.232 44.3474C344.693 41.9649 362.865 46.6426 380.928 53.3641C399.734 60.3588 415.361 72.2062 431.033 84.141C432.551 85.3104 434.145 86.3924 435.696 87.5181L436.296 86.7312C429.46 81.1901 422.667 75.5943 415.798 70.1078C402.759 59.7031 387.961 52.6865 372.41 46.7847C359.663 42.0792 346.114 39.9363 332.538 40.4785C329.762 40.3858 326.986 40.6614 324.282 41.2982C317.861 43.2108 314.289 48.1071 312.662 54.3368C311.483 58.8178 310.871 63.4409 309.965 67.9984C308.283 76.4467 308.272 76.4467 310.216 83.8131C321.705 80.2283 333.019 80.0753 343.71 86.0755C350.038 89.7254 356.133 93.7661 361.959 98.1742C370.983 104.813 380.884 110.164 391.379 114.076C397.613 116.234 403.064 120.198 407.04 125.465C403.458 131.935 397.571 136.394 391.991 141.05C389.73 142.952 387.415 144.799 385.034 146.514C382.654 148.23 380.458 147.826 378.482 145.662C377.603 144.889 376.657 144.198 375.653 143.596C376.844 147.848 380.022 149.389 384.314 147.87C386.775 146.886 389.068 145.522 391.106 143.826C394.468 141.217 397.698 138.441 400.782 135.509C403.545 132.886 406.046 129.957 408.853 126.951C409.945 128.044 411.124 129.541 412.555 130.798C420.199 137.516 427.869 144.205 435.565 150.864C436.447 151.666 437.44 152.336 438.513 152.853C446.518 156.416 452.918 162.143 459.35 168.297C457.928 169.122 456.605 170.108 455.408 171.236C454.134 172.531 453.235 174.148 452.809 175.914C452.383 179.625 452.295 183.368 452.547 187.095C452.754 190.559 453.551 193.991 454.021 196.931C448.146 197.816 441.768 198.418 435.554 199.773C421.444 202.855 409.344 210.068 398.238 219.074C394.251 222.353 389.949 225.413 386.836 229.391C384.139 232.834 380.917 232.932 377.444 233.304C374.583 233.599 371.645 233.435 368.861 234.003C366.084 234.728 363.358 235.637 360.703 236.725C357.678 227.894 351.245 220.713 345.097 213.424C343.457 211.476 341.4 209.923 339.078 208.881C336.757 207.838 334.23 207.333 331.686 207.402C326.327 207.385 321.046 206.112 316.266 203.686C314.088 202.739 312.233 201.18 310.926 199.196C309.619 197.213 308.917 194.892 308.905 192.516C308.753 186.756 308.971 181.062 306.033 175.761C305.389 174.603 305.695 172.854 305.717 171.389C305.717 169.739 306.306 168.745 308.305 169.51C309.325 169.722 310.385 169.627 311.352 169.236C307.955 166.296 304.199 163.411 304.428 158.657C304.635 154.438 305.924 150.285 306.721 146.176C302.626 146.307 299.415 160.121 302.779 164.668L305.826 168.799C302.451 171.193 302.386 174.461 303.871 177.783C305.724 182.044 306.334 186.742 305.629 191.335C304.439 201.052 309.266 204.986 317.358 207.576C320.783 208.543 324.328 209.014 327.886 208.975C330.766 208.977 333.611 209.612 336.219 210.836C338.827 212.06 341.135 213.842 342.978 216.057C349.17 223.14 355.079 230.408 358.693 239.402C358.205 239.946 357.643 240.417 357.022 240.801C350.339 243.851 345.698 249.392 340.488 254.234C334.231 260.037 327.547 265.447 321.923 271.775C316.594 277.731 312.094 284.508 307.726 291.185C301.039 301.285 295.776 312.259 292.087 323.798C290.954 326.867 289.532 329.82 287.839 332.618C285.066 337.343 283.428 342.649 283.056 348.116C282.805 353.318 279.976 357.297 277.159 361.231C274.854 364.412 271.818 367.057 269.23 369.811C262.853 368.051 256.497 366.193 250.097 364.543C241.459 362.324 232.31 363.315 224.346 367.33C210.149 374.095 195.952 380.948 183.305 391.374C181.908 388.893 180.411 386.62 179.287 384.183C174.627 374.066 167.303 365.41 158.1 359.144C156.091 357.756 153.251 357.559 150.816 356.761C140.132 353.368 129.001 351.593 117.792 351.493C112.79 351.384 107.766 352.138 101.978 352.586C103.605 351.187 104.698 350.138 105.91 349.307C113.674 343.635 121.669 338.247 129.193 332.269C135.319 327.394 141.839 323.525 149.615 322.738C156.091 322.105 162.609 322.028 169.098 322.509C174.296 322.891 179.363 323.307 184.288 321.416C188.198 319.897 192.086 320.323 195.995 321.099C211.809 324.159 226.737 329.908 241.426 336.334C242.518 336.804 243.501 337.427 244.538 338.028C245.576 338.629 246.559 339.056 247.563 339.569L248.208 338.717C246.318 337.198 244.604 335.373 242.507 334.225C227.677 326.126 212.038 320.159 195.307 317.514C191.692 317.063 188.022 317.403 184.55 318.509C180.547 319.661 176.344 319.948 172.221 319.35C160.579 317.864 149.156 317.897 138.366 323.481C138.214 323.558 137.984 323.481 137.7 323.481C135.68 312.716 129.226 304.29 122.553 296.158C119.998 293.076 116.001 290.77 112.135 289.273C105.855 286.814 102.896 281.305 105.68 275.185C106.42 273.676 107.286 272.232 108.269 270.868C110.606 267.447 112.211 263.808 111.807 259.775L128.188 251.49L127.861 250.802L112.746 258.135L112.146 257.665C112.481 256.658 112.878 255.672 113.336 254.714C114.646 252.266 115.64 250.102 113.107 247.534C112.211 246.638 112.309 244.189 112.801 242.747C113.041 242.069 115.4 241.654 116.612 241.883C120.173 242.613 123.619 243.823 126.856 245.479L118.119 244.638L118.054 245.184L130.798 246.572C130.482 245.829 130.449 245.479 130.252 245.348C125.534 242.255 120.216 240.976 114.712 240.321C113.817 240.268 112.93 240.514 112.189 241.02C108.039 243.851 107.493 244.036 111.043 248.496C113.161 251.173 112.713 252.944 110.835 255.206C109.59 256.704 108.149 258.485 110.922 259.797L109.557 262.376C107.963 265.414 106.365 268.456 104.763 271.502C103.791 273.316 102.448 275.021 101.88 276.966C100.373 282.027 103.9 285.021 106.98 288.103C107.537 288.678 108.211 289.126 108.957 289.415C116.143 291.918 119.768 298.158 123.809 303.831C128.09 309.885 132.12 316.126 136.248 322.301C136.557 322.84 136.831 323.398 137.067 323.973C133.354 326.804 129.783 329.733 126.004 332.367C116.579 338.925 106.816 345.045 98.7021 353.318C97.834 353.916 96.8328 354.291 95.7862 354.411C94.7102 354.536 93.6781 354.91 92.7721 355.504L95.0109 356.51C92.1169 358.98 89.4631 361.526 86.5254 363.669C81.3599 367.417 78.3676 372.641 75.4408 378.128C72.1646 384.205 68.0802 389.822 64.6401 395.812C62.199 399.976 60.0779 404.32 58.2951 408.806C55.1172 417.08 51.7427 425.2 45.5287 431.758C42.6566 434.764 39.3694 437.365 36.4645 440.337C31.1861 445.707 25.9988 451.172 20.9024 456.731C14.9396 463.231 9.06427 469.817 3.27625 476.492C2.03302 478.172 0.93689 479.956 0 481.825L0.960999 482.492C3.94238 479.005 6.84729 475.442 9.92694 472.054C20.3235 460.611 30.4034 448.928 41.9249 438.501C47.0795 433.845 50.9018 427.43 54.3746 421.277C57.5089 415.714 59.3326 409.429 61.7898 403.473C62.2954 402.404 62.8795 401.374 63.5372 400.391C67.9055 393.199 72.0444 385.91 76.6421 378.871C79.1311 374.977 82.0069 371.345 85.2258 368.029C89.2433 364.049 93.5073 360.326 97.9922 356.881C99.829 355.315 102.063 354.286 104.446 353.909C114.079 353.067 123.743 352.28 133.332 354.75C136.8 355.46 140.303 355.981 143.827 356.313C153.208 357.668 159.99 363.242 165.941 370.073C168.301 372.606 170.439 375.337 172.33 378.237C175.235 383.035 177.703 388.074 180.444 393.221L174.634 397.735C171.052 393.429 167.689 389.188 164.129 385.134C158.788 379.046 153.382 372.991 147.813 367.111C146.214 365.503 144.278 364.271 142.145 363.505C129.87 359.034 117.475 358.04 105.014 362.925C101.258 364.412 97.1295 365.505 93.9625 367.833C89.4085 371.199 85.5644 375.483 81.4363 379.461C80.1695 380.674 79.1539 382.248 77.7123 383.166C75.7247 384.423 74.7855 385.789 75.7684 388.095C75.8776 388.095 76.1616 388.238 76.238 388.161C82.2008 382.084 87.8359 375.636 94.2245 370.062C97.5008 367.199 102.011 365.516 106.237 363.942C117.388 359.723 128.505 361.406 139.371 365.177C141.737 366.177 143.833 367.724 145.487 369.691C154.223 379.188 162.698 388.839 171.271 398.435C171.519 398.778 171.734 399.144 171.915 399.528C166.99 402.937 162.086 406.26 157.27 409.735C155.72 410.828 152.334 411.517 154.081 414.315C155.971 417.342 157.62 414.02 159.007 413.113C164.216 409.714 169.239 406.041 174.733 402.183L182.847 414.512C179.571 416.807 176.36 418.883 173.28 421.189C171.708 422.216 170.31 423.489 169.141 424.96C168.377 426.053 168.442 427.736 168.136 429.146L169.01 429.364L185.217 418.435C188.853 423.9 188.351 429.692 187.925 435.387C187.521 440.906 186.898 446.403 186.221 451.901C186.05 453.364 185.558 454.771 184.78 456.021C178.885 465.219 171.636 473.473 163.277 480.503C161.985 481.596 160.879 482.892 160 484.339C166.717 481.497 171.762 476.546 176.382 471.311C187.095 459.114 195.395 445.267 202.941 430.938C207.648 422.02 212.584 413.222 217.258 404.282C218.011 402.516 218.362 400.604 218.285 398.686C212.824 411.397 204.47 422.392 198.038 434.949C197.011 430.381 196.094 426.206 195.144 422.118C194.521 419.364 192.741 416.227 193.538 413.987C194.335 411.746 197.786 410.708 199.949 409.025C206.501 403.877 212.617 398.183 219.508 393.615C225.569 389.604 232.383 386.718 238.969 383.56C242.78 381.724 246.755 380.281 250.73 378.74C253.406 377.745 255.961 378.467 258.44 379.756C260.1 380.51 261.799 381.174 263.53 381.746C262.001 386.205 260.417 390.904 258.79 395.604C256.355 402.599 254.826 409.67 255.918 417.178C256.131 419.44 255.927 421.722 255.317 423.911C253.417 432.042 250.949 439.922 245.991 446.862C244.577 448.905 243.542 451.186 242.933 453.595C241.055 460.95 239.198 468.338 237.898 475.803C237.418 478.579 237.494 482.076 241.175 483.607C241.12 473.926 242.933 464.325 246.515 455.332C248.215 451.013 250.162 446.794 252.347 442.698C256.479 434.994 259.131 426.582 260.166 417.9C260.228 415.534 260.123 413.168 259.849 410.817C259.587 403.309 261.913 396.347 264.545 389.483C266.817 383.582 268.815 377.516 271.709 371.92C273.708 368.04 276.886 364.718 279.802 361.384C284.039 356.521 287.588 351.406 288.134 344.728C288.243 343.449 288.505 342.181 288.647 340.892C289.51 333.187 293.584 328.181 301.534 326.137C304.81 330.214 308.414 334.542 311.941 338.903C318.974 347.602 325.993 356.313 332.997 365.035C335.069 367.56 336.991 370.206 338.752 372.958C339.068 373.497 339.26 374.099 339.313 374.721C339.366 375.344 339.279 375.97 339.058 376.554C336.415 380.926 333.444 385.024 330.682 389.287C329.994 390.38 329.731 391.658 329.142 392.784C325.287 400.052 320.918 407.233 317.555 414.785C315.108 420.249 313.896 426.217 311.963 431.911C310.696 435.638 309.124 439.266 307.715 442.95C307.442 443.649 307.267 444.392 307.049 445.135L307.813 445.485C309.899 441.955 312.378 438.578 313.973 434.829C315.665 430.851 316.506 426.512 317.751 422.337C318.214 420.315 318.861 418.339 319.684 416.435C322.677 410.632 325.887 404.938 329.404 398.467C329.884 400.118 330.19 401.079 330.43 402.052C335.075 420.53 339.695 439.015 344.289 457.507C345.217 461.245 346.091 465.016 347.139 468.721C347.707 470.754 347.139 471.453 345.053 472C337.278 473.89 329.535 475.912 321.847 478.12C319.553 478.776 317.478 480.229 315.294 481.311L315.523 482.197C317.812 482.096 320.095 481.874 322.36 481.53C330.125 480 337.867 478.35 345.599 476.656C347.576 476.218 348.876 476.339 349.072 478.776C349.321 479.911 349.706 481.012 350.219 482.055L351.082 482.24C351.486 481.147 352.25 479.934 352.228 478.798C352.163 475.956 353.462 475.027 356.138 474.426C372.126 471.147 388.027 467.376 403.49 461.999C409.934 459.813 416.399 457.628 423.148 455.332L434.495 484.831L435.521 484.525C435.947 473.694 430.312 464.131 428.554 453.223L468.262 439.889C468.098 439.365 467.945 438.796 467.781 438.305C454.185 441.026 440.981 445.376 427.276 449.234C426.293 445.573 425.441 441.944 424.338 438.392C421.379 428.84 418.212 419.342 415.307 409.768C413.385 403.44 411.845 396.992 410.032 390.62C406.537 378.325 402.387 366.182 399.57 353.745C397.023 342.743 393.709 331.933 389.654 321.394C389.272 320.399 389.009 319.35 388.693 318.323L389.424 317.656C390.779 319.11 392.187 320.509 393.465 322.028C394.219 322.902 394.557 324.214 395.464 324.88C398.871 327.722 402.442 330.345 405.882 333.198C407.171 334.291 408.754 335.318 409.409 336.75C411.594 341.427 415.591 343.733 419.686 346.225C421.519 347.306 423.01 348.882 423.989 350.772C424.64 352.328 425.643 353.712 426.918 354.815C428.193 355.919 429.706 356.712 431.338 357.133C434.145 357.931 436.176 359.319 436.449 362.499C436.663 363.357 437.033 364.169 437.541 364.893C438.608 367.214 439.811 369.469 441.145 371.647C442.444 373.346 443.907 374.913 445.514 376.325C446.901 377.691 448.473 378.871 449.882 380.259C450.546 380.872 450.969 381.703 451.075 382.6C451.181 383.498 450.963 384.404 450.461 385.155C449.183 387.505 449.904 389.429 452.164 390.62C454.425 391.811 455.681 393.713 455.31 396.435C454.938 399.156 456.707 400.566 458.586 401.549C460.233 402.295 461.649 403.471 462.685 404.954C463.721 406.437 464.338 408.172 464.472 409.976C464.947 409.233 465.262 408.4 465.397 407.529C465.532 406.657 465.484 405.767 465.256 404.915C465.028 404.064 464.625 403.269 464.072 402.582C463.52 401.895 462.83 401.331 462.048 400.926C459.066 399.2 457.745 397.156 457.865 393.538C457.865 391.953 456.03 390.074 454.589 388.729C453.147 387.385 452.219 386.445 452.754 384.467C453.912 380.237 452.754 377.024 449.063 375.09C447.616 374.354 446.339 373.323 445.314 372.064C444.289 370.805 443.538 369.345 443.111 367.778C441.883 364.257 440.28 360.878 438.328 357.701C437.563 356.433 435.75 355.515 434.232 355.034C430.781 353.832 428.182 352.018 426.73 348.477C425.973 346.789 424.709 345.38 423.115 344.444C418.659 341.81 414.171 339.373 411.889 334.28C411.135 333.117 410.127 332.141 408.94 331.427C405.096 328.476 401.208 325.613 397.342 322.684C397.266 322.618 397.135 322.574 397.113 322.498C395.169 316.793 388.649 315.634 385.635 310.946C384.997 310.209 384.146 309.69 383.2 309.459C378.755 307.984 374.266 306.628 369.8 305.175C367.976 304.585 362.516 307.426 361.456 309.612C360.069 312.465 358.508 312.957 355.723 311.437C354.948 311.011 354.139 310.629 353.364 310.181C351.3 308.989 349.607 309.514 348.734 311.601C347.445 314.683 345.031 315.186 342.181 314.88C338.544 314.476 334.908 314.049 331.26 313.481C328.181 313.011 325.691 313.405 323.801 316.334C323.179 317.285 321.432 317.733 320.121 317.962C314.999 318.869 309.746 319.252 304.745 320.552C302.156 321.23 299.983 323.471 297.592 324.924C296.741 325.342 295.866 325.707 294.971 326.017C295.684 323.784 296.527 321.595 297.493 319.46C297.886 318.694 299.131 318.367 299.983 317.809C301.075 317.11 302.659 316.64 303.15 315.623C303.511 314.784 304.103 314.065 304.857 313.55C305.611 313.035 306.497 312.746 307.409 312.716C310.413 312.29 313.328 311.241 316.31 310.53C318.112 310.126 319.99 310.06 321.77 309.579C323.015 309.252 324.631 308.803 325.254 307.853C326.739 305.601 328.465 305.383 330.55 306.508C333.586 308.137 336.109 308.355 338.097 304.869C338.46 304.483 338.907 304.184 339.402 303.994C339.898 303.805 340.43 303.73 340.958 303.776C344.857 304.148 348.471 303.612 351.682 300.88C354.041 303.601 355.69 302.268 357.503 300.29C360.714 296.781 362.035 296.683 366.24 298.945C366.24 296.158 363.717 294.737 360.921 296.071C360.056 296.553 359.259 297.149 358.551 297.841C357.197 299.011 356.105 300.978 353.965 298.814C353.659 298.508 352.523 299.033 351.78 299.175C349.028 299.699 346.222 300.06 343.524 300.803C341.581 301.194 339.76 302.049 338.217 303.295C336.852 304.65 335.869 305.186 334.209 304.257C330.867 302.41 327.842 301.634 325.472 305.896C324.97 306.814 323.365 307.415 322.196 307.623C316.976 308.552 311.723 309.219 306.503 310.159C306.001 310.267 305.53 310.486 305.123 310.8C304.717 311.113 304.386 311.514 304.155 311.973C303.369 314.487 301.556 314.476 299 314.443C300.54 310.497 301.654 306.683 303.456 303.219C309.932 290.705 316.91 278.529 326.881 268.245C330.419 264.627 334.657 262.911 339.123 261.053C351.617 255.884 364.416 251.534 377.663 249.283C388.736 247.403 400.116 246.922 411.375 246.67C424.411 246.518 437.385 248.496 449.784 252.529C456.172 254.518 461.906 258.605 467.978 261.654C480.1 267.731 490.638 276.147 501.406 284.234C503.132 285.524 504.759 287.699 507.697 286.42C516.149 301.262 525.083 315.929 529.396 332.903C531.842 342.477 535.687 351.723 537.696 361.319C540.23 373.483 543.331 385.768 542.217 398.314C541.464 406.927 540.033 415.528 536.648 423.703C532.639 432.782 530.135 442.453 529.232 452.338C528.708 459.42 527.179 466.437 526.164 473.486C525.858 475.672 525.771 477.781 525.585 479.934L526.36 480.175C527.373 477.941 528.252 475.649 528.992 473.311C531.523 463.55 533.416 453.634 534.66 443.627C535.501 436.84 538.1 430.228 540.35 423.681C544.98 410.205 547.099 396.522 545.439 382.248C543.255 363.035 537.15 344.881 531.395 326.509C527.026 312.421 519.546 299.984 512.622 287.218C508.188 279.032 504.038 270.66 499.036 262.835C495.935 257.993 491.578 253.927 487.548 249.72C486.707 248.845 484.796 248.977 483.376 248.627C482.636 248.542 481.905 248.392 481.192 248.179C471.003 243.905 461.24 238.528 450.319 236.156C442.325 234.441 434.702 230.965 426.293 230.987C419.085 230.987 411.878 230.987 404.375 230.451C406.297 229.074 408.219 227.708 410.119 226.309C424.731 215.598 441.615 212.32 459.186 211.107C462.55 210.877 463.729 212.32 464.33 215.227C466.178 223.671 469.949 231.574 475.349 238.32C475.788 238.94 476.423 239.395 477.151 239.61C477.081 239.054 476.927 238.512 476.692 238.004C472.044 230.757 468.685 222.758 466.765 214.363C465.673 209.587 462.965 205.019 460.289 200.8C456.631 195.04 454.316 189.314 456.303 182.384C456.773 180.756 456.369 178.854 456.303 177.084C456.216 174.657 456.107 172.165 458.695 170.865C460.232 170.316 461.814 169.902 463.424 169.63C464.832 164.384 470.162 160.886 474.071 156.34C474.954 155.367 475.597 154.201 475.952 152.936C476.306 151.671 476.362 150.34 476.114 149.05C474.298 152.295 472.315 155.443 470.173 158.482C467.852 161.376 465.384 164.148 462.779 166.788C456.849 162.296 451.52 157.509 445.503 153.892C438.114 149.501 431.285 144.227 425.168 138.186C418.365 131.443 411.594 124.634 404.309 118.437C400.782 115.442 396.305 113.355 391.969 111.574C379.399 106.437 368.205 99.2125 357.514 90.8953C349.018 84.3377 339.582 79.0261 328.312 79.2009C323.321 79.2446 318.352 80.1736 312.564 80.8075ZM422.22 451.026C398.794 458.753 375.915 465.923 352.01 470.273C351.746 467.616 351.345 464.975 350.809 462.36C344.944 439.933 339.178 417.495 332.931 395.21C332.567 394.107 332.465 392.934 332.634 391.784C332.802 390.634 333.237 389.539 333.903 388.587C334.406 387.757 335.246 387.123 335.792 386.303C338.25 382.642 340.783 379.013 343.055 375.232C344.813 372.292 346.233 369.155 347.816 366.117C348.949 364.255 349.949 362.316 350.809 360.313C354.008 351.198 357.132 342.039 360.102 332.848C360.79 330.662 360.736 328.29 361.019 326.017C356.116 341.657 350.688 356.958 342.367 371.166C335.563 362.707 329.349 354.63 322.709 346.881C316.069 339.132 309.168 331.744 302.233 324.05C302.888 323.591 303.401 322.957 303.98 322.869C308.851 322.17 313.743 321.634 318.592 320.88C320.056 320.651 322.032 320.279 322.709 319.263C324.358 316.804 326.379 316.246 329.043 316.618C330.998 316.88 332.975 317.033 334.952 317.175C340.619 317.569 346.79 319.361 349.553 311.579C350.863 312.192 351.922 312.672 352.96 313.186C354.006 313.9 355.145 314.466 356.345 314.869C360.211 315.525 361.336 314.498 363.16 309.142C363.614 308.993 364.091 308.923 364.569 308.935C370.51 310.104 376.483 311.12 382.337 312.64C383.494 312.935 384.521 314.825 385.067 316.246C385.853 318.356 386.028 320.618 386.64 322.804C389.796 334.148 392.744 345.504 395.18 357.067C400.139 380.525 406.584 403.644 414.477 426.282C417.338 434.425 419.642 442.709 422.22 451.026ZM506.222 284.562C505.882 284.379 505.564 284.159 505.272 283.907C491.512 269.994 476.004 258.769 457.516 251.807C445.969 247.431 433.868 244.687 421.564 243.654C405.648 242.356 389.626 243.606 374.103 247.359C364.274 249.687 354.62 253.162 344.955 256.31C342.532 257.291 340.188 258.457 337.944 259.797C338.028 259.066 338.355 258.384 338.872 257.862C345.053 250.212 353.451 245.162 361.03 239.162C362.413 238.199 364.018 237.605 365.694 237.435C371.154 236.714 376.713 236.146 382.239 235.654C389.348 235.02 396.436 234.233 403.578 234.025C412.773 233.752 422.198 232.757 431.142 234.298C442.936 236.331 454.436 240.31 465.925 243.873C471.9 245.889 477.766 248.221 483.496 250.856C485.304 251.635 486.949 252.747 488.345 254.135C496.743 262.737 500.937 273.895 506.222 284.562ZM191.627 409.276C189.443 404.457 187.379 400.096 185.501 395.669C185.293 395.178 185.926 394.03 186.472 393.571C188.338 391.95 190.337 390.487 192.446 389.199C202.45 383.614 212.377 377.877 222.598 372.74C230.243 368.915 238.379 366.117 247.148 367.472C254.05 368.565 260.887 370.106 268.073 371.516L264.469 380.259C261.854 379.261 259.302 378.108 256.824 376.805C254.872 375.61 252.656 374.912 250.371 374.772C248.086 374.633 245.802 375.057 243.719 376.008C230.046 381.822 216.69 388.128 205.879 398.861C201.762 402.861 196.531 405.735 191.627 409.276ZM387.535 231.861L387 231.282C389.534 228.867 391.903 226.255 394.645 224.058C412.118 209.937 431.71 200.964 454.25 198.975C454.604 198.945 454.96 198.992 455.293 199.113C455.627 199.233 455.931 199.425 456.183 199.674C458.258 202.757 460.202 205.937 462.506 209.587C461.528 209.64 460.547 209.64 459.569 209.587C450.634 208.274 441.514 209.16 432.998 212.167C427.749 213.837 422.637 215.912 417.709 218.375C413.133 220.855 409.082 224.32 404.921 227.5C403.734 228.611 402.665 229.841 401.732 231.173L402.082 231.872L387.535 231.861ZM189.366 416.064H190.393C191.867 421.025 193.418 425.965 194.761 430.971C195.307 433.037 196.225 435.583 195.526 437.31C193.484 442.294 190.699 446.972 188.209 451.77L187.27 451.354C188.209 447.573 189.356 443.835 190.022 440.01C191.31 432.6 192.588 425.146 188.93 417.943C188.678 417.517 189.192 416.697 189.366 416.064ZM177.168 400.282L182.475 396.511C184.496 401.265 186.407 405.615 188.132 410.052C188.329 410.577 187.641 411.812 187.04 412.173C186.665 412.264 186.273 412.259 185.901 412.158C185.529 412.056 185.188 411.862 184.911 411.593C182.224 407.943 179.811 404.183 177.168 400.282Z" />
<path class="light-beige" d="M329.056 33.0575C331.474 32.607 333.863 32.0084 336.209 31.2651C337.836 30.6421 339.157 29.2869 340.73 28.4672C343.031 27.239 345.401 26.1443 347.828 25.1884C349.039 24.9308 350.271 24.7917 351.509 24.7731C352.666 24.5873 354.468 24.5982 354.851 23.8987C357.1 19.7456 361.206 20.4669 364.679 20.0954C367.147 19.8331 368.764 19.3522 369.539 16.8166C370.314 14.281 371.92 12.4449 375.152 12.7946C375.621 12.9004 376.11 12.8857 376.572 12.7518C377.034 12.618 377.454 12.3693 377.794 12.0289C378.135 11.6885 378.383 11.2676 378.517 10.8053C378.651 10.3429 378.665 9.85421 378.56 9.38465C378.188 6.93649 379.477 5.73427 381.049 4.46647C385.669 0.695865 391.097 1.0456 396.339 1.94181C401.063 2.88821 405.722 4.14043 410.284 5.69056C415.745 7.37367 421.14 9.23164 426.556 11.0568C427.354 11.3301 428.402 11.658 428.741 12.2809C432.301 18.6418 437.859 23.1228 443.134 27.877C449.446 33.5821 455.649 39.3965 462.027 45.0141C471.864 53.537 479.455 64.3504 484.131 76.5014C486.719 83.2229 489.154 89.8461 488.849 97.0922C488.74 99.6685 488.081 102.192 486.916 104.491C483.486 111.147 480.461 117.825 481.073 125.596C481.324 128.787 479.61 130.765 476.65 131.825C475.645 132.186 474.346 132.547 473.843 133.345C473.159 134.468 472.857 135.783 472.981 137.093C473.046 137.705 474.564 138.645 475.361 138.58C486.37 137.705 492.562 150.788 491.044 159.16C490.388 162.733 489.22 166.209 488.281 169.717C487.516 172.57 486.73 175.411 486.097 177.608C485.387 178.188 484.731 178.45 484.6 178.876C482.973 183.925 480.702 188.909 480.046 194.101C479.14 201.325 479.457 208.713 479.282 216.036C479.282 216.265 479.522 216.506 480.112 216.768C480.472 204.429 480.221 192.024 485.387 179.608C483.801 196.157 485.087 212.855 489.187 228.965C489.187 227.402 489.187 225.828 489.187 224.254C489.187 222.681 489.187 221.085 489.1 219.5C488.772 209.303 487.735 199.084 488.324 188.898C488.794 180.953 490.88 173.007 492.988 165.269C495.095 157.531 494.942 150.602 490.454 143.979C489.212 142.054 487.524 140.459 485.533 139.329C483.542 138.198 481.308 137.566 479.02 137.487C477.928 137.421 476.006 136.733 475.842 136.011C475.427 134.186 476.377 132.798 478.419 132C480.309 131.255 482.032 130.141 483.486 128.722C483.954 128.225 484.312 127.636 484.538 126.992C484.764 126.348 484.852 125.664 484.797 124.984C483.508 118 485.714 111.628 488.925 105.912C490.402 103.398 491.358 100.612 491.733 97.7196C492.108 94.8274 491.896 91.8892 491.109 89.081C487.538 74.9822 481.979 61.8671 472.129 50.7192C462.278 39.5713 451.183 30.0738 439.683 20.8495C436.711 18.5505 434.027 15.901 431.689 12.9585C429.723 10.3683 426.971 10.3027 424.46 9.35186C420.484 7.86548 416.345 6.75069 412.534 4.98015C403.797 0.816089 394.395 0.367984 384.992 0.00731786C381.464 -0.134763 378.702 1.81065 376.485 4.22602C375.615 5.475 375.227 6.99704 375.393 8.5103C375.524 10.3464 375.469 11.7891 373.285 11.7891C369.736 11.7891 368.108 13.975 367.42 16.9259C366.994 18.7183 366.132 19.1117 364.559 19.1117C362.003 19.1185 359.45 19.2864 356.915 19.6145C355.821 19.8937 354.861 20.552 354.206 21.4724C352.83 23.396 351.421 24.2813 348.953 23.4288C347.927 23.0791 345.906 23.3195 345.47 24.008C343.766 26.6748 341.101 26.7294 338.524 27.2868C337.956 27.4071 337.05 27.2868 336.842 27.571C334.8 30.7623 331 30.0191 328.247 31.5492C327.778 31.8006 327.155 32.3362 327.155 32.7515C327.101 35.5166 325.124 35.4729 323.213 35.6477C321.946 35.768 320.679 36.0412 319.402 36.227C318.868 36.2528 318.349 36.4086 317.89 36.681C317.43 36.9534 317.044 37.3341 316.766 37.7898C316.487 38.2456 316.323 38.7627 316.29 39.2961C316.256 39.8294 316.354 40.3629 316.573 40.8501C316.726 41.2217 317.327 41.7353 317.665 41.6807C318.004 41.6261 318.812 41.014 318.757 40.7299C318.43 38.1396 320.352 38.1833 321.957 37.8992C323.562 37.615 324.895 37.4948 326.325 37.2543C328.499 36.9483 329.973 36.074 329.056 33.0575Z" />
<path class="light-beige" d="M224.554 241.763C228.267 246.037 232.144 250.091 235.529 254.529C238.15 257.971 239.963 262.026 242.464 265.578C243.479 266.918 244.13 268.498 244.352 270.165C244.574 271.832 244.36 273.527 243.731 275.087C242.168 279.338 240.216 283.436 237.899 287.327C235.66 290.945 232.657 294.093 232.897 298.814C225.613 295.874 216.385 298.115 211.94 304.279C213.866 304.211 215.783 303.992 217.674 303.623C220.95 302.683 224.226 301.273 227.502 300.41C231.139 299.459 233.782 300.749 235.234 304.159C239.231 313.525 243.032 322.979 246.996 332.356C248.007 334.824 249.421 337.106 251.179 339.11C251.309 338.021 251.309 336.921 251.179 335.832C248.219 324.094 244.888 312.454 238.522 302.049C235.802 297.623 236.862 293.983 239.188 290.202C240.946 287.338 243.283 284.737 244.648 281.764C246.013 278.792 246.461 275.557 247.389 272.442C247.689 271.683 248.055 270.951 248.481 270.256C248.962 271.087 250.043 272.442 249.846 272.649C246.57 276.245 250.545 280.945 247.913 284.748C247.4 285.491 249.071 287.743 249.803 289.48C247.171 290.246 247.4 292.202 248.066 294.628C248.503 296.235 248.066 298.071 248.274 299.754C248.481 301.437 249.289 303.306 249.661 305.109C250.076 307.131 250.196 309.219 250.644 311.241C251.353 314.454 252.162 317.656 253.101 320.815C253.286 321.438 254.291 321.82 255.121 322.137C253.866 320.32 252.991 318.269 252.548 316.105C252.105 313.942 252.104 311.711 252.544 309.547C252.795 308.29 251.703 306.803 251.452 305.383C251.004 303.197 250.644 300.88 250.36 298.606C250.207 297.153 250.676 295.546 250.251 294.235C249.464 291.732 249.606 289.994 253.286 289.426C249.912 286.923 249.704 284.169 251.277 281.098C251.333 280.87 251.342 280.634 251.305 280.403C251.267 280.172 251.184 279.951 251.059 279.753C249.814 277.699 250.076 275.906 251.059 273.71C251.659 272.42 250.829 270.431 250.305 268.813C254.411 260.201 254.925 258.452 253.811 254.867C252.904 257.676 252.183 260.332 251.179 262.879C250.258 265.072 249.211 267.21 248.044 269.283C247.881 269.589 247.073 269.884 246.887 269.753C246.44 269.328 246.07 268.829 245.795 268.278C241.852 261.807 238.15 255.163 233.891 248.922C231.991 246.124 228.944 244.113 226.498 241.676C225.941 241.129 225.253 240.189 225.406 239.577C227.437 229.369 221.158 225.096 213.808 224.353C209.691 223.927 205.519 223.938 201.38 223.752L201.325 224.692C205.284 225.356 209.276 225.805 213.284 226.036C219.923 226.112 224.041 232.266 220.688 238.211C217.099 244.266 212.259 249.483 206.491 253.512C204.198 255.195 202.035 257.184 199.512 258.452C197.01 259.538 194.395 260.34 191.715 260.846C189.629 261.348 187.478 261.556 185.359 261.884V262.78C186.964 262.98 188.581 263.06 190.197 263.021C192.779 262.839 195.339 262.415 197.842 261.753C199.648 261.08 201.354 260.161 202.909 259.021C204.23 258.168 205.268 256.835 206.677 256.168C213.229 253.195 218.296 248.364 223.058 243.107C223.243 242.801 223.582 242.583 224.554 241.763Z" />
<path class="light-beige" d="M463.982 479.628C464.681 479.027 465.609 478.535 466.013 477.814C468.864 472.634 472.413 467.792 473.407 461.715C473.974 459.4 474.703 457.129 475.591 454.917C480.079 440.796 483.334 426.501 482.569 411.495C482.122 402.752 479.785 394.511 477.557 386.205C475.973 380.303 473.276 374.641 472.096 368.718C470.065 358.433 468.82 347.952 467.226 337.624C466.778 334.706 466.134 331.82 465.664 328.881L464.572 328.618C464.179 329.471 463.36 330.378 463.48 331.176C464.692 343.198 465.937 355.22 467.379 367.242C467.819 370.382 468.55 373.474 469.563 376.478C471.627 383.188 474.302 389.669 475.995 396.467C477.316 401.801 477.502 407.397 478.179 412.938C479.479 423.758 477.633 434.337 474.75 444.633C471.965 454.6 468.198 464.305 464.921 474.142C464.364 475.792 463.829 477.421 463.327 479.115L463.982 479.628Z" />
<path class="light-beige" d="M297.985 486C300.606 479.322 300.42 472.437 298.935 465.693C297.646 459.824 295.014 454.218 293.878 448.327C291.574 436.305 291.312 424.37 296.991 412.96C301.158 405.059 302.068 395.839 299.524 387.276C298.105 382.434 296.86 377.549 295.571 372.663C293.627 365.341 294.272 357.92 294.85 350.51C295.036 347.974 295.364 345.438 295.702 342.192C293.027 345.57 293.114 349.133 292.295 352.379C288.888 365.712 292.295 378.5 295.506 391.276C297.536 398.832 296.626 406.878 292.961 413.79C289.259 420.84 288.746 428.326 288.265 435.955C287.866 444.097 289.452 452.213 292.885 459.606C296.587 468.043 297.602 476.929 297.985 486Z" />
<path class="light-beige" d="M367.879 298.606C369.377 299.064 370.917 299.372 372.476 299.525C378.242 299.525 380.831 301.033 383.037 306.257C383.943 308.388 385.396 309.437 387.645 309.12C388.621 308.984 389.614 309.095 390.536 309.442C391.458 309.79 392.277 310.363 392.92 311.11C393.815 311.995 395.104 312.487 396.043 313.295C398.468 315.394 401.176 317.306 403.098 319.853C404.824 322.104 406.538 323.755 409.389 324.225C411.018 324.617 412.619 325.118 414.183 325.722C416.716 326.498 417.699 328.334 417.896 330.859C418.256 335.307 420.812 338.181 425.202 338.64C426.436 338.66 427.63 339.085 428.601 339.849C429.571 340.613 430.265 341.674 430.575 342.87C431.316 344.707 432.192 346.486 433.196 348.193C433.738 349.368 434.626 350.35 435.74 351.008C436.854 351.666 438.141 351.969 439.432 351.876C444.663 351.799 445.624 352.816 446.148 358.237C446.235 359.133 446.344 360.018 446.443 360.903C446.814 364.182 447.6 364.805 450.582 363.603C452.165 362.969 453.061 363.352 453.694 364.696C455.693 368.969 458.062 373.155 456.796 378.226C456.37 380.008 457.222 381.134 459.286 380.707C460.531 380.456 461.754 380.15 463.534 379.745C463.911 381.654 464.167 383.586 464.298 385.527C464.298 388.587 464.113 391.658 463.927 394.73C463.796 396.795 464.08 398.129 466.69 397.265C469.049 396.478 470.097 397.648 469.879 399.965C469.387 405.058 468.787 410.151 468.252 415.604C468.819 414.85 469.497 414.326 469.638 413.692C470.654 408.981 471.823 404.282 472.412 399.484C472.882 395.352 472.107 394.97 468.11 395.888C467.599 395.952 467.084 395.981 466.57 395.975V384.434C466.57 383.538 466.57 382.642 466.57 381.756C466.297 378.128 465.925 377.877 462.474 378.882C459.875 379.647 459.1 379.101 459.591 376.379C460.52 371.221 458.204 366.925 456.009 362.652C455.649 361.953 453.607 361.461 452.733 361.821C449.992 362.914 449.326 361.57 449.118 359.33C448.987 357.854 449.009 356.357 448.813 354.881C448.31 351.329 446.344 349.417 442.828 349.723C439.126 350.072 437.062 348.346 435.577 345.351C435.015 344.427 434.529 343.458 434.124 342.455C433.722 340.724 432.779 339.166 431.432 338.008C430.085 336.85 428.403 336.153 426.632 336.017C422.81 335.46 420.997 332.859 420.713 329.088C420.429 325.318 419.042 323.492 414.248 322.531C409.989 321.711 406.92 319.962 404.54 316.192C403.207 314.093 400.575 312.804 398.49 311.208C397.541 310.678 396.626 310.09 395.748 309.448C394.993 308.552 394.03 307.854 392.943 307.415C391.856 306.977 390.678 306.812 389.513 306.935C387.329 307.164 385.789 305.973 385.079 303.776C383.812 299.841 380.852 298.005 376.965 297.339C374.846 296.978 372.738 296.453 370.609 296.246C369.65 296.357 368.721 296.646 367.868 297.098L367.879 298.606Z" />
<path class="light-beige" d="M126.867 132.503C129.892 134.492 132.775 136.733 135.964 138.416C145.793 143.564 155.621 148.525 165.559 153.498C168.42 154.93 171.358 156.11 174.46 153.826C174.853 153.531 175.77 153.826 176.404 153.968C180.652 155.181 184.867 156.548 189.159 157.619C190.71 158.012 192.435 157.619 194.073 157.804C196.585 158.11 199.086 158.613 201.576 159.061C203.221 159.214 204.844 159.551 206.414 160.067C208.301 160.752 210.015 161.841 211.437 163.258C214.899 167.335 214.867 167.477 219.322 164.056C220.917 165.499 222.675 166.909 224.237 168.515C228.998 173.411 233.618 178.439 238.434 183.281C239.652 184.392 241.104 185.217 242.682 185.696C249.136 187.882 253.876 191.816 255.383 198.571C257.261 206.921 258.593 215.391 260.166 223.806C260.363 224.899 260.581 225.927 260.789 226.976L261.782 226.921C261.586 224.058 261.575 221.162 261.138 218.342C260.046 211.424 259.118 204.462 257.545 197.642C255.972 190.822 251.44 186.876 244.724 185.051C242.88 184.417 241.221 183.336 239.897 181.904C234.83 176.8 230.003 171.455 224.947 166.351C220.96 162.34 220.873 162.428 215.926 164.996C215.14 164.078 214.408 163.04 213.502 162.165C211.656 160.395 209.854 158.646 206.851 158.886C205.497 159.007 204.077 157.99 202.646 157.794C199.468 157.4 196.203 157.531 193.091 156.886C188.765 155.969 184.502 154.783 180.324 153.334C178.224 152.553 175.931 152.453 173.772 153.05C171.52 153.556 169.165 153.31 167.066 152.351C159.367 148.536 151.908 144.252 144.296 140.329C138.705 137.41 133.015 134.678 127.369 131.858L126.867 132.503Z" />
<path class="light-beige" d="M203.465 220.025C200.341 217.183 197.207 214.353 194.117 211.478C186.789 204.647 179.559 197.489 170.014 193.991C160.761 190.583 151.303 187.758 141.697 185.532C136.4 184.297 132.556 187.226 132.501 193.445C132.501 196.877 132.119 200.068 129.116 202.549C128.21 203.303 128.024 205.478 128.21 206.921C128.657 210.331 128.275 211.194 125.097 212.506C120.925 214.232 116.688 215.85 112.68 217.905C107.22 220.702 106.881 223.97 109.404 229.205C110.769 232.036 114.067 234.069 112.254 238.168L113.674 238.047C113.992 236.532 114.113 234.982 114.034 233.435C113.648 231.507 113.012 229.637 112.145 227.872C110.354 223.905 110.715 221.522 114.439 219.282C118.566 216.783 122.865 214.581 127.303 212.691C129.749 211.653 130.481 210.199 130.099 207.926C129.64 205.238 130.525 203.445 132.447 201.369C133.998 199.707 134.358 196.855 135.035 194.461C135.206 193.293 135.261 192.11 135.199 190.931C135.385 187.958 137.154 186.833 139.829 187.554C149.713 190.254 159.825 192.418 169.315 196.144C174.929 198.33 179.712 202.888 184.55 206.779C190.087 211.216 195.252 216.123 200.658 220.735C201.193 221.183 202.307 220.943 203.148 221.03L203.465 220.025Z" />
<path class="light-beige" d="M122.991 385.866L80.4544 471.901C82.9443 472.491 83.2065 472.568 84.5825 470.076C88.6996 462.633 93.0352 455.267 96.5953 447.562C105.55 428.173 114.123 408.621 122.805 389.112C123.155 388.047 123.39 386.948 123.504 385.833L122.991 385.866Z" />
<path class="light-beige" d="M93.8964 469.016C96.43 469.923 97.4784 468.284 98.2647 466.764C101.224 461.3 104.293 455.835 106.848 450.152C114.864 432.403 122.673 414.555 130.547 396.741C130.634 396.383 130.664 396.014 130.634 395.648L129.749 395.276C127.729 399.418 125.687 403.539 123.699 407.692C115.935 423.834 108.224 439.988 100.438 456.108C98.3848 460.447 96.1133 464.677 93.8964 469.016Z" />
<path class="light-beige" d="M312.423 84.7421C308.546 88.8843 308.983 93.9883 308.393 98.8081C308.181 101.373 308.202 103.952 308.459 106.513C308.896 113.606 305.412 119.246 301.819 124.842C300.378 127.093 298.685 129.213 297.451 131.509C293.989 137.869 296.806 143.848 304.757 145.717C303.588 144.624 302.933 144.055 302.3 143.432C298.412 139.618 297.822 136.875 300.367 132.044C301.961 128.984 304.003 126.175 305.893 123.301C309.944 117.071 311.921 110.524 311.014 102.841C310.457 98.043 311.691 93.0047 312.106 88.1083C312.183 86.9389 312.314 85.8459 312.423 84.7421Z" />
<path class="light-beige" d="M145.521 162.591L148.972 166.701C142.791 167.258 137.592 169.182 134.403 174.406C132.299 177.844 131.548 181.942 132.296 185.904L133.169 186.046C133.247 184.702 133.437 183.368 133.737 182.057C134.72 178.898 135.288 175.368 137.156 172.799C138.564 170.876 141.611 169.586 144.134 169.127C149.441 168.165 153.963 170.723 158.102 173.783C170.3 182.778 182.794 191.27 196.324 198.221C197.122 198.625 197.919 199.008 198.738 199.314C198.869 199.368 199.087 199.237 199.48 199.139C199.098 198.625 198.869 198.046 198.388 197.784C179.517 187.947 162.546 175.335 146.285 161.641L145.521 162.591Z" />
<path class="light-beige" d="M320.623 125.17C320.149 126.8 320.001 128.509 320.189 130.197C320.376 131.885 320.895 133.519 321.715 135.006C323.899 139.225 326.258 143.378 328.104 147.739C331.937 156.832 332.636 166.111 328.705 175.412C328.039 176.613 327.539 177.9 327.219 179.237C328.366 178.373 330.004 177.75 330.561 176.603C331.915 173.805 333.422 170.81 333.652 167.805C334.041 163.17 333.799 158.504 332.931 153.935C332.177 150.165 330.168 146.613 328.497 143.072C326.684 139.225 324.555 135.531 322.731 131.694C322.273 130.393 321.99 129.037 321.89 127.661C321.748 126.798 321.704 125.902 321.617 125.027L320.623 125.17Z" />
<path class="light-beige" d="M266.021 252.397V248.758L268.205 249.304C268.467 250.463 268.39 251.425 268.838 251.895C270.542 253.709 271.874 254.026 273.938 253.162C272.016 250.288 269.886 248.113 265.868 248.354C264.874 239.392 258.354 233.839 253.036 227.588C246.876 220.407 240.302 213.566 233.892 206.593C233.376 206.108 232.825 205.662 232.242 205.259L231.62 205.893C234.896 209.598 238.238 213.216 241.383 217.019C247.816 224.779 254.324 232.484 260.396 240.517C262.526 243.337 263.465 247.075 264.972 250.354C265.289 251.042 265.682 251.676 266.064 252.332L266.021 252.397Z" />
<path class="light-beige" d="M464.921 204.461C464.539 202.002 463.982 199.554 463.829 197.084C463.632 193.467 463.054 189.663 463.96 186.286C464.528 184.188 467.509 182.712 469.42 181.018C469.977 180.526 471.037 180.428 471.342 179.925C474.324 174.373 477.895 168.996 479.872 163.094C481.401 158.657 480.964 153.553 481.335 148.744C481.295 148.296 481.15 147.865 480.911 147.485C480.671 147.105 480.345 146.787 479.959 146.558C479.555 150.93 479.588 155.302 478.605 159.542C477.677 163.498 475.765 167.193 474.073 170.974C472.924 173.37 471.614 175.685 470.152 177.903C469.551 178.992 468.683 179.91 467.629 180.57C460.946 184.013 460.444 185.368 461.077 194.046C461.295 197.325 462.486 200.603 463.261 203.882C463.348 204.243 463.873 204.494 464.189 204.789L464.921 204.461Z" />
<path class="light-beige" d="M262.164 264.671C259.675 267.086 259.369 270.081 261.411 274.562L258.342 274.158C258.018 275.562 257.861 277 257.873 278.442C258.178 281.12 258.79 283.775 259.358 286.409C259.522 287.163 260.362 287.874 260.297 288.54C259.871 292.836 261.149 296.88 261.826 301.033C262.503 305.186 262.667 309.109 263.18 313.131C263.519 315.82 264.021 318.498 264.534 321.164C264.59 322.044 264.91 322.886 265.452 323.58C269.689 327.088 269.361 331.427 267.931 336.017C267.809 336.511 267.714 337.011 267.647 337.515C270.475 335.329 271.272 328.443 268.739 325.711C266.838 323.75 265.766 321.131 265.746 318.399C265.615 314.519 264.447 310.694 263.879 306.825C263.584 304.836 263.737 302.781 263.464 300.781C263.142 299.006 262.73 297.247 262.23 295.513C262.077 294.869 261.629 294.136 261.793 293.59C262.809 290.114 261.64 287.131 260.231 284.016C259.411 282.11 259.142 280.012 259.456 277.961C259.718 276.387 261.258 275.021 262.121 273.742V264.671H262.164Z" />
<path class="light-beige" d="M316.333 42.4785C315.304 43.6588 314.183 44.7551 312.98 45.7573C300.847 54.4352 288.299 62.3698 274.179 67.5612L274.397 68.3263C275.597 68.2406 276.79 68.0762 277.968 67.8344C287.742 64.9321 296.883 60.2121 304.91 53.9215C308.066 51.5389 311.266 49.2 314.203 46.577C315.295 45.6261 315.623 43.8884 316.311 42.5113L316.333 42.4785Z" />
<path class="light-beige" d="M196.051 276.737C189.312 282.365 182.695 288.661 175.301 293.852C167.908 299.044 159.925 302.989 152.127 307.536C161.945 307.295 194.882 283.852 196.051 276.737Z" />
<path class="light-beige" d="M247.991 344.061L268.904 367.559C270.815 366.729 270.269 365.199 269.384 364.051C266.756 360.491 263.945 357.07 260.964 353.799C257.776 350.444 254.204 347.428 250.743 344.346C250.014 343.867 249.219 343.499 248.384 343.253L247.991 344.061Z" />
<path class="light-beige" d="M311.724 53.1237L284.072 71.463C295.201 70.1515 302.856 63.3753 310.337 56.3806C311.09 55.6593 311.199 54.3587 311.724 53.1237Z" />
<path class="light-beige" d="M490.519 183.969C490.366 190.253 492.321 195.991 494.691 201.62C498.557 210.877 502.827 220.003 504.52 230.036C504.761 231.779 505.126 233.503 505.612 235.195C507.228 230.954 506.191 226.757 504.902 222.834C502.958 216.965 500.206 211.369 498.044 205.565C495.608 199.008 493.435 192.45 491.142 185.893C490.934 185.215 490.738 184.592 490.519 183.969Z" />
<path class="light-beige" d="M110.486 135.093L147.278 156.242C144.242 151.17 117.727 136.077 110.486 135.093Z" />
<path class="light-beige" d="M387.481 118.142C388.901 119.421 390.277 120.754 391.74 121.978C394.885 124.601 394.798 127.355 391.183 129.202C388.584 130.525 385.723 131.388 382.905 132.481C382.704 131.55 382.836 130.577 383.276 129.733C383.717 128.888 384.44 128.225 385.319 127.858C386.477 127.316 387.576 126.653 388.595 125.88C390.419 124.394 389.032 123.312 387.874 122.372C387.732 122.262 386.542 123.082 386.575 123.148C387.918 126.164 385.264 126.481 383.702 127.661C382.261 128.615 381.034 129.858 380.099 131.312C379.673 132.099 380.557 133.607 380.852 134.787C381.855 134.479 382.839 134.114 383.801 133.694C385.635 132.787 387.405 131.749 389.261 130.82C389.862 130.514 390.593 130.492 391.205 130.208C393.324 129.235 395.89 128.601 396.305 125.836C396.72 123.071 394.372 122.044 392.526 120.754C391.019 119.661 389.589 118.568 388.158 117.475L387.481 118.142Z" />
<path class="light-beige" d="M189.399 250.058C190.294 249.648 191.134 249.127 191.9 248.506C192.574 247.766 193.462 247.253 194.44 247.04C195.418 246.826 196.439 246.922 197.36 247.315C199.763 248.037 202.154 247.884 203.989 245.993C206.834 243.304 209.446 240.379 211.797 237.249C212.144 236.824 212.365 236.311 212.435 235.767C212.506 235.223 212.422 234.67 212.195 234.171C211.968 233.672 211.606 233.246 211.149 232.942C210.693 232.639 210.161 232.468 209.613 232.451C209.46 234.014 209.711 235.654 209.111 236.889C207.063 240.88 203.764 244.09 199.719 246.026C198.546 246.51 197.25 246.609 196.017 246.31C192.304 245.556 191.233 245.927 189.399 250.058Z" />
<path class="light-beige" d="M130.569 220.342C126.856 221.347 125.316 223.511 124.781 227.785C124.535 228.714 124.168 229.607 123.688 230.44C122.682 230.059 121.742 229.521 120.904 228.845C117.944 225.468 115.858 224.582 112.244 225.719C115.432 224.735 116.612 227.304 118.326 228.91C119.21 229.869 120.345 230.558 121.603 230.9C123.885 231.206 125.338 231.992 126.047 234.364C126.772 236.511 127.846 238.524 129.225 240.321C128.035 233.533 124.857 226.757 130.569 220.342Z" />
<path class="light-beige" d="M265.146 336.848C265.146 331.209 263.497 325.919 261.64 320.684C261.111 319.116 260.663 317.522 260.297 315.908C259.565 312.847 258.856 309.787 258.244 306.705C257.879 304.349 257.372 302.016 256.726 299.721C256.65 301.098 256.235 302.574 256.573 303.853C258.594 311.503 259.019 319.591 262.088 327.055C263.027 329.34 262.754 332.105 263.18 334.618C263.448 335.519 263.814 336.388 264.272 337.209L265.146 336.848Z" />
<path class="light-beige" d="M142.539 157.892C135.986 152.329 129.161 147.094 120.391 145.181L142.025 158.821L142.539 157.892Z" />
<path class="light-beige" d="M316.31 42.5004C315.097 42.566 313.71 42.2491 312.706 42.7518C305.269 46.4131 297.657 49.4842 289.401 50.7083C289.008 50.8412 288.639 51.0368 288.309 51.2876C293.594 52.0198 302.276 49.9979 308.785 46.5333L316.31 42.4895V42.5004Z" />
<path class="light-beige" d="M157.107 151.979C148.115 147.083 139.131 142.183 130.154 137.279L129.63 138.252L156.375 153.312L157.107 151.979Z" />
<path class="light-beige" d="M152.651 213.292C151.45 208.604 143.347 201.379 139.666 202.112L152.651 213.292Z" />
<path class="light-beige" d="M305.292 137.793C305.772 139.662 306.111 141.378 306.69 143.017C306.826 143.345 307.028 143.641 307.284 143.887C307.539 144.134 307.842 144.325 308.175 144.449C308.513 144.547 309.267 143.837 309.584 143.356C310.938 140.733 308.994 138.274 305.292 137.793Z" />
<path class="light-beige" d="M266.097 252.332C266.49 253.884 266.873 255.436 267.299 256.988C268.806 262.594 267.703 264.256 262.166 264.638C264.132 264.31 266.534 264.54 267.943 263.469C269.035 262.649 269.537 260.059 269.177 258.518C268.664 256.332 267.124 254.408 266.021 252.365L266.097 252.332Z" />
<path class="light-beige" d="M203.377 235.391C200.287 235.687 197.196 238.419 197.12 240.856C197.12 241.479 197.742 242.124 198.081 242.769C198.616 242.408 199.337 242.157 199.632 241.676C200.232 240.681 200.527 239.49 201.106 238.484C201.805 237.412 202.564 236.38 203.377 235.391Z" />
<path class="light-beige" d="M254.084 280.234C252.599 285.415 256.967 290.355 257.917 296.06L258.649 295.983C258.53 295.126 258.366 294.276 258.158 293.437C256.727 288.704 255.253 283.983 254.084 280.234Z" />
<path class="light-beige" d="M137.34 198.647C139.524 196.997 141.435 194.549 144.744 196.461C141.719 194.046 139.906 194.571 137.34 198.647Z" />
</svg>
