<svg class="svg-divider-line" width="1201" height="11" viewBox="0 0 1201 11" fill="none" xmlns="http://www.w3.org/2000/svg">
<path d="M1.66749 5.49783C-0.13917 5.31697 -0.440456 4.64182 0.61698 3.6391L170.999 1.24038L216.569 0.609844C233.981 0.454338 251.378 1.01097 268.667 2.27687C279.563 3.01127 290.4 3.70532 301.237 4.41996C315.721 5.42575 330.29 5.83592 344.868 5.64834C354.307 5.49715 363.746 5.30479 373.184 4.9066C388.39 4.28448 403.627 3.86779 418.834 3.28684C435.135 2.67016 451.406 1.88922 467.681 1.66403C496.293 1.10344 524.903 0.192938 553.496 0.826576C562.498 0.88342 571.445 1.67859 580.149 3.19563C598.842 6.71656 618.26 8.15005 637.684 7.44295C650.909 7.01294 664.103 6.3775 677.299 6.05081C710.052 5.16531 742.813 5.18547 775.595 4.2584C806.425 3.39952 837.259 3.0758 868.088 2.03168C879.39 1.66022 890.703 1.9167 901.92 2.79868C914.238 3.73984 926.7 4.12321 938.962 5.35335C955.108 6.83057 971.402 7.49943 987.719 7.35481C1020.72 7.26878 1053.71 7.01809 1086.7 5.73824C1103.24 5.11828 1119.78 5.05407 1136.35 4.66012C1152.06 4.29863 1167.89 4.38832 1183.7 4.64309L1200.3 4.41578L1200.29 7.06903C1192.59 6.86674 1184.81 6.97442 1177.06 7.08169C1148.06 7.70935 1119.09 8.11018 1090.09 8.51142L1090.09 8.51144C1082.9 8.61094 1075.68 8.23743 1068.58 8.80911C1055.63 9.87352 1042.6 9.64201 1029.67 9.92385C1017.81 10.1909 1005.79 10.1925 993.953 9.8623C987.145 9.64772 980.306 9.31006 973.471 9.40464C970.127 9.40974 966.664 9.33414 963.288 9.11324C953.606 8.52672 943.983 7.83646 934.33 7.1672C926.306 6.64008 918.252 6.13395 910.257 5.44176C900.984 4.55429 891.627 4.10605 882.25 4.10011C868.075 4.17273 853.899 4.03952 839.731 5.0178C831.094 5.61077 822.215 5.44544 813.34 5.85643C800.945 6.48081 788.517 6.65278 776.119 6.82433L689.862 8.01785C686.593 7.77365 683.296 7.72286 680.006 7.86603C671.936 8.94521 663.822 8.3164 655.689 8.94358C644.989 9.77129 634.224 10.0028 623.496 9.63604C612.121 9.48522 600.817 8.5102 589.766 6.72677C578.053 4.47218 565.988 3.16108 553.808 2.81905C545.355 2.5205 536.879 2.54157 528.417 2.88217C514.07 3.71883 499.681 2.90924 485.304 3.60223C476.518 4.03258 468.054 3.92326 458.914 4.48203C449.773 5.04079 440.597 4.79721 431.457 5.29423C420.069 5.98702 408.647 6.14507 397.254 6.3027C379.649 6.66982 362.044 7.03693 344.465 7.03314C329.431 7.03531 314.365 6.6468 299.328 6.19614C294.088 6.04219 288.818 5.74457 283.578 5.40538C272.622 4.71297 261.841 3.58585 251.006 3.09763C237.951 2.5372 224.986 2.2637 211.698 2.20054C198.41 2.13738 185.066 2.46613 171.78 2.64997C152.507 2.97154 133.235 3.36172 113.963 3.82051C77.5099 4.67485 41.0821 4.95246 4.62654 5.45689C3.64227 5.52638 2.65265 5.54008 1.66749 5.49783Z" fill="#C9B5A3"/>
</svg>
