<svg width="1646" height="9" viewBox="0 0 1646 9" fill="none" xmlns="http://www.w3.org/2000/svg">
<g clip-path="url(#clip0)">
<path d="M4.70511 1.32333C0.192631 1.49293 -0.569819 2.1452 2.05428 3.11843L380.255 6.00641L493.994 6.75191C537.456 6.95413 580.888 6.46734 624.065 5.29406C651.275 4.61596 678.336 3.97673 705.398 3.31759C741.568 2.38759 777.941 2.0341 814.327 2.25892C837.887 2.43326 861.445 2.64742 884.996 3.06071C922.943 3.70778 960.972 4.15621 998.921 4.76346C1039.6 5.40854 1080.2 6.21243 1120.83 6.47868C1192.24 7.1061 1263.64 8.07203 1335.02 7.54404C1357.49 7.51581 1379.84 6.77313 1401.59 5.33136C1448.3 1.98062 1496.08 4.52994 1544.55 5.27178C1577.56 5.72712 1610.48 6.3811 1643.42 6.73639L1645 4.98831C1624.87 3.92027 1609.81 4.50448 1589.52 3.87354C1562.82 3.04096 1537 2.03754 1508.61 2.14964C1480.21 2.26174 1453.26 0.251243 1425.65 1.94376C1396.37 4.09014 1366.24 5.32268 1335.83 5.61736C1314.73 5.88105 1293.57 5.83546 1272.45 5.48079C1236.65 4.62871 1200.72 5.36916 1164.85 4.65599C1142.92 4.21353 1121.79 4.29411 1098.98 3.72636C1076.18 3.15861 1053.27 3.36697 1030.46 2.85896C1002.05 2.15485 973.536 1.96799 945.102 1.78162C901.161 1.37411 857.221 0.966599 813.342 0.918001C775.815 0.871203 738.201 1.20226 700.659 1.59355C687.579 1.72691 674.419 1.99917 661.332 2.31173C633.976 2.94903 607.047 4.0074 579.993 4.44751C547.396 4.95088 515.031 5.17692 481.861 5.19852C448.691 5.22011 415.386 4.86239 382.225 4.64503C334.122 4.27662 286.021 3.84184 237.922 3.34069C146.944 2.40577 103.082 1.96814 12.0908 1.37174C9.63493 1.30158 7.16488 1.28539 4.70511 1.32333Z"/>
</g>
</svg>
