<svg id="svg-horizon" class="animate" width="1440" height="250" viewBox="0 0 1440 250" fill="none" xmlns="http://www.w3.org/2000/svg">
<path class="beige" d="M597.462 246C590.421 242.882 585.281 237.652 579.9 232.341C576.42 228.901 571.28 226.758 566.502 225.109C556.102 221.498 545.55 218.229 534.878 215.543C529.97 214.316 524.639 214.799 519.499 214.487C518.051 214.397 515.938 214.809 515.254 214.024C511.583 209.78 506.333 211.007 501.877 209.538C488.71 205.233 475.373 200.959 468.855 186.857C466.431 181.616 459.883 178.88 454.281 178.086C445.64 176.859 437.181 174.374 428.692 172.051C404.642 165.593 380.653 158.975 356.624 152.407C339.122 147.689 321.017 147.579 303.013 146.301C297.702 145.919 292.31 145.708 287.14 144.551C277.313 142.338 268.371 145.155 259.178 147.86C256.1 148.766 251.644 148.866 249.2 147.237C243.879 143.726 237.854 139.713 235.018 134.362C230.683 126.185 224.497 120.934 217.184 115.985C209.359 110.685 201.252 105.293 194.915 98.4335C190.569 93.6437 185.281 89.8015 179.383 87.1468C173.486 84.492 167.104 83.0817 160.636 83.0039C144.05 82.5211 130.401 75.9631 116.641 67.9767C110.955 64.8504 104.706 62.8845 98.2541 62.1931C84.8161 60.6039 71.2172 59.1756 57.7189 59.4271C39.1813 59.8395 20.6638 61.7707 2.16642 63.4504C-2.15868 63.8427 -6.35303 65.784 -11 66.0354C-7.31863 64.7379 -3.72779 62.867 0.0642185 62.2635C27.9159 57.8379 55.8681 55.2227 84.0919 58.4112C88.407 58.904 92.7723 59.1454 97.1678 59.2259C107.105 59.417 115.756 63.38 123.873 68.4997C134.421 75.3787 146.679 79.1791 159.268 79.4734C175.844 79.8959 189.715 86.8563 201.222 99.1175C206.16 104.378 212.427 108.562 218.562 112.505C226.549 117.625 233.65 122.976 237.955 132.079C240.278 136.917 245.841 140.437 250.447 143.847C252.218 145.155 255.778 145.406 257.931 144.591C272.113 139.2 286.436 140.307 300.89 142.861C302.52 143.153 304.22 143.083 305.919 143.223C318.885 144.29 332.071 144.34 344.775 146.714C361.874 149.902 378.611 154.76 395.429 159.176C412.055 163.551 428.813 167.615 445.037 173.197C451.907 175.551 459.974 173.107 465.747 178.8C467.759 180.812 470.525 182.542 471.38 184.966C473.623 191.313 478.27 195.276 483.641 198.333C490.863 202.447 498.246 206.31 506.856 207.175C509.974 207.486 512.891 209.428 515.979 210.554C516.979 211.035 518.078 211.273 519.187 211.248C528.471 209.719 537.041 212.667 545.661 215.272C552.853 217.474 559.974 219.878 567.216 221.92C574.146 223.882 580.292 226.778 584.798 232.763C588.899 238.361 594.844 242.333 601.586 243.978C602.991 244.488 604.339 245.142 605.609 245.93L597.462 246Z" />
<path class="beige" d="M859 248.738C868.517 240.809 878.211 233.068 887.517 224.896C898.163 215.561 908.245 205.561 919.014 196.359C928.508 188.242 938.623 180.856 948.45 173.104C958.864 164.91 969.411 156.87 979.637 148.432C997.485 133.715 1017.09 128.245 1039.34 136.761C1052.06 141.644 1064.48 147.303 1077.21 152.186C1090.82 157.413 1104.38 157.723 1118.79 153.537C1137.82 148 1152.74 135.232 1170.3 127.315C1178.68 123.539 1187.09 119.851 1195.5 116.152C1201.73 113.428 1208.18 111.103 1214.16 107.914C1217.11 106.136 1219.61 103.699 1221.46 100.793C1231.67 85.9213 1240.89 70.3074 1251.85 56.0334C1267.59 35.5582 1288.89 24.5842 1314.77 21.0185C1344.57 16.9101 1373.93 19.9111 1403.5 22.6242C1416.63 23.8423 1429.97 22.8567 1443.21 22.901C1445.13 22.901 1447.06 23.1446 1449 23.2775C1449 23.9862 1449 24.6839 1449 25.3815C1445.13 25.758 1441.24 26.212 1437.41 26.4889C1415.25 27.9617 1393.3 24.6396 1371.26 22.9342C1344.28 20.8524 1317.45 22.1701 1291.4 30.5529C1274.99 35.8351 1263.51 47.7171 1253.74 60.8948C1242.8 75.6671 1233.4 91.5578 1223.25 106.917C1222.41 108.125 1221.29 109.122 1220 109.829C1215.34 112.432 1210.83 115.621 1205.82 117.227C1181.34 125.078 1160.23 139.374 1137.9 151.433C1118.22 162.075 1096.78 166.593 1074.75 156.616C1063.17 151.389 1051.5 146.358 1039.73 141.522C1019.23 133.117 1000.53 136.639 983.226 150.093C969.123 161.045 954.588 171.443 940.429 182.329C933.006 188.054 925.938 194.244 918.77 200.29C904.833 212.043 890.918 223.814 877.025 235.604L860.019 250C859.687 249.546 859.343 249.147 859 248.738Z" fill="#C7B5A3"/>
<path class="yellow" d="M944.458 176.645C941.433 179.533 940.841 176.455 939.879 174.688C930.592 157.492 917.675 142.521 902.024 130.816C876.566 111.778 847.786 103.052 816.045 102.692C781.607 102.301 750.871 111.979 724.916 134.824C692.847 163.054 676.96 198.846 676.421 241.46C676.554 243.055 676.251 244.657 675.543 246.092C673.428 223.775 677.553 202.421 686.881 182.166C703.074 146.988 729.189 121.804 765.425 107.79C837.908 79.7299 914.325 114.855 944.458 176.645Z"/>
</svg>
