<svg id="svg-mountain-flipped" width="1440" height="489" viewBox="0 0 1440 489" fill="none" xmlns="http://www.w3.org/2000/svg">
<path class="animate beige" d="M1402.74 258.912C1411.23 265.864 1418.61 273.137 1426.34 280.307C1431.07 284.698 1436.19 289.003 1440 293.602V298.471C1438.05 297.065 1435.84 295.552 1433.31 293.915C1424.59 285.164 1414.73 276.713 1405.11 268.197C1397.94 261.83 1390.64 255.489 1382.94 249.269C1373.47 241.613 1363.89 233.976 1353.61 226.563C1348.76 223.065 1342.57 219.94 1336.22 216.963C1331.77 214.877 1328.61 215.193 1323.55 217.866C1314.67 222.551 1305.09 227.129 1297.75 232.166C1282.24 242.803 1267.59 253.638 1253.33 264.522C1242.09 273.099 1232.5 281.957 1221.24 290.522C1199.42 307.129 1180.38 324.134 1160.98 341.088C1146.81 353.482 1133.25 365.964 1119.27 378.383C1106.13 390.06 1092.23 401.639 1079.69 413.388C1066.88 425.377 1051.75 436.973 1036.61 448.57L1035.4 449.495C1028.69 454.632 1020.43 459.522 1014.41 464.74C1006.8 471.337 1000.72 478.152 994.036 484.882C992.879 486.053 992.103 487.17 988.786 487.829C982.182 489.131 979.272 489.122 975.014 486.528C963.997 479.825 828.445 344.188 818.64 337.107C808.566 329.834 800.139 322.045 791.068 314.462C782.985 307.707 775.382 300.809 766.878 294.177C757.277 286.691 746.971 279.417 736.845 272.086C723.495 262.43 710.312 252.736 699.361 242.372C691.842 235.256 683.572 228.346 676.009 221.249C670.083 215.7 664.925 209.944 659.074 204.374C649.928 195.664 639.666 187.224 631.333 178.315C620.707 166.961 611.725 155.207 601.687 143.705C594.494 135.457 587.209 127.219 579.066 119.205C572.76 113.003 564.376 107.325 558.131 101.11C549.3 92.3198 541.343 83.3047 533.507 74.27C527.953 67.8694 524.419 60.9703 517.889 54.8445C506.313 43.9962 493.547 33.446 480.468 23.0077C472.828 16.9117 463.583 11.2823 455.133 5.42362C451.802 3.10468 450.346 3.08769 444.948 5.52431C432.642 11.0863 423.123 17.4297 413.622 23.7604L412.782 24.3198C407.198 28.0359 402.718 32.0801 396.284 35.5186C378.956 44.7823 360.86 53.8049 343.068 62.9242C321.891 73.7811 301.67 84.8976 285.701 97.1229C272.132 107.51 257.84 117.801 245.591 128.382C229.07 142.647 219.225 157.55 207.392 172.24C200.835 180.392 195.886 188.661 188.657 196.749C177.98 208.691 166.241 220.548 154.375 232.373C132.388 254.282 109.946 276.142 87.7552 298.028C78.196 307.447 68.2462 316.837 59.4064 326.327C46.1454 340.55 32.6926 354.728 15.215 368.448C10.2613 372.336 5.47732 376.251 0.694198 380.165L4.81056e-05 380.733L0 375.133L0.571172 374.663C10.7899 366.268 21.0163 357.866 30.2353 349.341C38.5168 341.69 44.9009 333.804 52.5227 326.063C63.4875 314.913 74.6263 303.784 86.029 292.678C106.65 272.58 127.804 252.54 148.191 232.415C159.859 220.904 171.149 209.33 181.316 197.677C190.643 186.972 197.894 176.103 206.705 165.35L206.922 165.084C214.922 155.311 222.948 145.506 232.528 135.884C240.255 128.118 249.747 120.498 259.547 113.006C274.888 101.265 290.348 89.484 310.174 78.722C329.81 68.065 349.813 57.511 370.123 47.0729C382.71 40.6028 394.897 34.1439 404.53 26.8329C414.035 19.6202 425.099 12.6601 438.937 6.59294C443.737 4.48749 449.73 2.83004 455.463 1.19444C458.914 0.209175 461.843 0.539989 463.252 2.11358C464.167 3.13065 465.535 4.04653 466.901 4.94317C483.532 15.8913 498.757 27.2843 512.121 39.2106C520.19 46.4025 527.389 53.8447 534.133 61.3752C543.819 72.2017 552.117 83.3607 562.18 94.0879C568.409 100.727 576.749 106.857 584.26 113.181C597.323 124.192 606.664 136.108 616.335 147.942C623.778 157.059 630.995 166.239 639.313 175.15C645.301 181.561 653.202 187.499 659.718 193.782C667.323 201.115 674.069 208.665 681.734 215.985C689.813 223.695 698.763 231.174 706.873 238.881C719.021 250.44 733.538 261.299 748.46 272.044C758.816 279.5 769.458 286.879 778.87 294.607C792.153 305.51 804.492 316.691 817.071 327.8C828.009 337.471 965.603 475.379 980.352 483.825C981.985 484.757 983.962 485.575 985.791 486.46C990.621 481.359 994.322 476.406 999.959 471.756C1009.02 464.287 1019.45 457.032 1029.15 449.661C1039.76 441.609 1050.88 433.623 1060.54 425.426C1077.87 410.736 1094.3 395.916 1111.06 381.138C1128.79 365.501 1146.3 349.83 1164.21 334.22C1176.76 323.275 1189.46 312.339 1202.75 301.502C1220.93 286.674 1239.58 271.924 1258.26 257.178C1273.09 245.478 1288.53 233.882 1308.75 223.362C1313.6 220.843 1318.65 218.302 1324.31 216.154C1331.26 213.516 1338.41 213.42 1343.44 215.815C1348.99 218.458 1354.56 221.182 1358.67 224.305C1373.73 235.729 1388.51 247.249 1402.74 258.912Z" />
</svg>
