<svg class="svg-arrow" width="9" height="8" viewBox="0 0 9 8" fill="none" xmlns="http://www.w3.org/2000/svg">
<path fill-rule="evenodd" clip-rule="evenodd" d="M0.588909 0.807415C0.51982 0.628521 0.478391 0.472064 0.547355 0.281169C0.614539 0.095197 0.812629 0.0593275 1.01409 0.0228467C1.01943 0.0218809 1.02476 0.0209147 1.0301 0.0199453C1.23699 -0.017643 1.31745 -0.00275829 1.51284 0.0701736C1.70823 0.143106 1.81284 0.200803 1.94572 0.335258C2.08272 0.449792 2.2373 0.540511 2.40323 0.603767C2.69357 0.725179 2.97601 0.863402 3.25854 1.00168C3.54567 1.1422 3.83291 1.28277 4.12865 1.40581C4.33182 1.49533 4.52209 1.61265 4.69422 1.75452C4.99271 1.9843 5.31741 2.17633 5.66122 2.32641C6.00102 2.47839 6.32205 2.66718 6.64293 2.85588C6.76378 2.92695 6.88461 2.998 7.00641 3.06707C7.23381 3.19586 7.46654 3.31351 7.69914 3.43109C7.82048 3.49243 7.9418 3.55376 8.06231 3.61665C8.1941 3.67861 8.31209 3.76737 8.40904 3.87748C8.54992 4.04975 8.52803 4.15645 8.33723 4.27083C7.7886 4.58598 7.22021 4.86393 6.63575 5.10286C6.52935 5.14689 6.42248 5.18974 6.31562 5.23259C5.97399 5.36956 5.63219 5.5066 5.30561 5.68242C5.12147 5.78054 4.94135 5.88589 4.76128 5.99121C4.57019 6.10298 4.37912 6.21473 4.18336 6.31778C3.9766 6.42661 3.76917 6.53412 3.56182 6.64159C3.34397 6.7545 3.12618 6.86739 2.9093 6.98173C2.68681 7.1011 2.47749 7.24442 2.28492 7.40925C2.267 7.42526 2.25195 7.4391 2.23863 7.45135C2.17816 7.50699 2.15311 7.53003 2.0547 7.57537L1.98573 7.60551C1.9734 7.61537 1.91677 7.65574 1.90692 7.65574L1.85766 7.67584C1.85244 7.68116 1.843 7.68844 1.83312 7.69605C1.82434 7.70282 1.81522 7.70986 1.8084 7.71603C1.68873 7.80293 1.53781 7.86535 1.4227 7.91295C1.40218 7.92144 1.38279 7.92946 1.36492 7.93706C1.24684 7.9873 0.961135 8.07772 0.872323 7.86673C0.805912 7.70896 0.816867 7.50625 0.826619 7.3258C0.829908 7.26494 0.83306 7.20661 0.83306 7.15339C0.83306 6.9424 0.811187 6.56749 0.714837 6.13863C0.552038 5.45 0.541063 5.15236 0.516159 4.47695L0.512998 4.39149C0.509742 4.28023 0.509587 4.16882 0.509431 4.0574C0.509261 3.93483 0.50909 3.81226 0.504791 3.68988C0.480171 3.18564 0.554714 2.69186 0.630624 2.19599L0.63155 2.18986C0.683904 1.84319 0.736265 1.49648 0.675077 1.14218C0.657255 1.02797 0.628392 0.915831 0.588909 0.807415ZM7.0929 4.05984C7.10706 4.06553 7.12132 4.071 7.13566 4.07625L7.13224 4.07695C6.92741 4.15021 6.73022 4.23222 6.53476 4.31351C6.31714 4.40401 6.10163 4.49364 5.88006 4.56933C5.7944 4.59795 5.7083 4.62548 5.62219 4.65302C5.3495 4.74022 5.07646 4.82754 4.81663 4.94943C4.64013 5.03318 4.47748 5.14242 4.31449 5.25187C4.23182 5.30739 4.14906 5.36297 4.06437 5.41531C3.76322 5.60062 3.45343 5.77065 3.14352 5.94074C2.91578 6.06574 2.68791 6.1908 2.46341 6.32196C2.34956 6.38891 2.23711 6.45872 2.12531 6.53263C2.26362 6.43814 2.40046 6.35039 2.54162 6.26706C2.76319 6.13739 2.98798 6.01357 3.21276 5.88975C3.52712 5.7166 3.84146 5.54345 4.14693 5.35432C4.22589 5.30466 4.30346 5.2521 4.38121 5.19942C4.54859 5.08603 4.71676 4.97208 4.90125 4.88531C5.16254 4.76249 5.43613 4.6746 5.70965 4.58673C5.79576 4.55907 5.88186 4.53141 5.96757 4.50266C6.19257 4.4275 6.41167 4.33665 6.63382 4.24453C6.78452 4.18205 6.93661 4.11898 7.0929 4.05984ZM1.76532 1.21605C1.7598 1.21282 1.75428 1.20959 1.74876 1.20634C1.74505 1.2042 1.7407 1.20088 1.73608 1.19736C1.7152 1.18142 1.68871 1.16121 1.68927 1.22517C1.69271 1.55054 1.65089 1.87001 1.60866 2.19266C1.60058 2.25442 1.59243 2.31666 1.58463 2.37872C1.57269 2.47159 1.55822 2.56412 1.54375 2.65663C1.51183 2.86075 1.47992 3.0648 1.47521 3.27212C1.47157 3.44222 1.47488 3.61208 1.47818 3.78184C1.48046 3.89884 1.48273 4.01579 1.48273 4.13274C1.48148 4.41223 1.49472 4.69159 1.5224 4.96965C1.56392 5.31457 1.62859 5.65618 1.71594 5.99208C1.77357 6.23482 1.81605 6.48104 1.84314 6.72926C1.86853 6.71061 1.89392 6.69224 1.91932 6.67411C1.89215 6.42524 1.84966 6.17836 1.7921 5.93497C1.70451 5.59681 1.63967 5.25291 1.59804 4.90567C1.57029 4.62574 1.55701 4.3445 1.55827 4.06314C1.55827 3.9454 1.55598 3.82767 1.5537 3.70988C1.55039 3.53898 1.54707 3.36798 1.55072 3.19673C1.5557 2.97653 1.58959 2.76004 1.62354 2.54321C1.63635 2.46137 1.64917 2.37948 1.66044 2.29732C1.66786 2.23847 1.67555 2.17961 1.68325 2.12074C1.72256 1.81988 1.76192 1.51876 1.76532 1.21605Z"/>
</svg>
