<svg width="23" height="25" viewBox="0 0 23 25" fill="none" xmlns="http://www.w3.org/2000/svg">
<path d="M22.437 7.58688C22.4244 6.60477 22.2471 5.63242 21.9132 4.71333C21.6237 3.93809 21.1814 3.23403 20.6147 2.64613C20.048 2.05824 19.3693 1.59944 18.6221 1.29905C17.7475 0.958475 16.8236 0.774319 15.8896 0.754426C14.6871 0.698666 14.3059 0.683105 11.2535 0.683105C8.20105 0.683105 7.80981 0.683106 6.61609 0.754426C5.68256 0.774465 4.75907 0.958619 3.88491 1.29905C3.1375 1.59923 2.45872 2.05795 1.892 2.64587C1.32527 3.2338 0.88309 3.93797 0.593736 4.71333C0.264782 5.61992 0.0876519 6.57817 0.0699983 7.54668C0.0162496 8.79543 0 9.19093 0 12.3575C0 15.5241 -7.45058e-09 15.9287 0.0699983 17.1684C0.0887479 18.1384 0.264994 19.0953 0.593736 20.0043C0.883576 20.7795 1.32609 21.4834 1.893 22.071C2.45991 22.6587 3.13875 23.1172 3.88616 23.4173C4.75793 23.7716 5.68158 23.9689 6.61734 24.0009C7.82106 24.0566 8.2023 24.0735 11.2547 24.0735C14.3072 24.0735 14.6984 24.0735 15.8921 24.0009C16.826 23.9818 17.75 23.798 18.6246 23.4575C19.3717 23.1568 20.0502 22.6979 20.6168 22.11C21.1835 21.5222 21.6258 20.8183 21.9157 20.0432C22.2445 19.1355 22.4207 18.1786 22.4395 17.2073C22.4932 15.9598 22.5095 15.5643 22.5095 12.3964C22.507 9.22984 22.507 8.82785 22.437 7.58688ZM11.246 18.3458C8.05356 18.3458 5.46737 15.6629 5.46737 12.3511C5.46737 9.03922 8.05356 6.35629 11.246 6.35629C12.7786 6.35629 14.2484 6.98788 15.3321 8.11212C16.4158 9.23635 17.0246 10.7611 17.0246 12.3511C17.0246 13.941 16.4158 15.4658 15.3321 16.59C14.2484 17.7142 12.7786 18.3458 11.246 18.3458ZM17.2546 7.53242C16.5084 7.53242 15.9071 6.9074 15.9071 6.13455C15.9071 5.95106 15.942 5.76937 16.0096 5.59985C16.0773 5.43033 16.1765 5.2763 16.3016 5.14656C16.4267 5.01682 16.5751 4.9139 16.7385 4.84368C16.902 4.77346 17.0771 4.73732 17.254 4.73732C17.4308 4.73732 17.606 4.77346 17.7694 4.84368C17.9328 4.9139 18.0813 5.01682 18.2063 5.14656C18.3314 5.2763 18.4306 5.43033 18.4983 5.59985C18.566 5.76937 18.6008 5.95106 18.6008 6.13455C18.6008 6.9074 17.9983 7.53242 17.2546 7.53242Z" fill="white"/>
<path d="M11.246 16.2454C13.3191 16.2454 14.9996 14.5019 14.9996 12.3512C14.9996 10.2005 13.3191 8.45699 11.246 8.45699C9.17288 8.45699 7.49231 10.2005 7.49231 12.3512C7.49231 14.5019 9.17288 16.2454 11.246 16.2454Z" fill="white"/>
</svg>
