<svg class="animate" width="56" height="56" viewBox="0 0 56 56" fill="none" xmlns="http://www.w3.org/2000/svg">
<path class="light-beige" d="M38.5283 27.806C37.3373 28.2216 36.249 28.742 35.1047 29.1164C34.1303 29.4365 33.1372 29.7061 32.2019 30.1366C31.4664 30.4755 30.8262 30.9697 30.1485 31.3871C28.7223 32.252 27.2252 32.9914 25.7785 33.8207C25.2054 34.1521 24.6585 34.5096 24.0854 34.914C24.0114 34.2477 23.8955 33.5868 23.7382 32.9353C23.4997 32.0337 23.3232 31.1167 23.2099 30.1909C23.1343 29.4446 23.0982 28.6947 23.1016 27.9445C23.1016 27.1751 23.0643 26.4057 23.0811 25.6345C23.0997 24.8258 23.2677 24.0358 23.3797 23.2364C23.5123 22.2068 23.6766 21.1772 23.6654 20.1402C23.6654 19.9305 23.7718 20.0578 23.8278 20.0896C24.7611 20.6269 25.715 21.1061 26.6615 21.6097C28.6141 22.6468 30.6053 23.5996 32.635 24.4682C34.3599 25.217 35.9466 26.1961 37.4997 27.2407C37.8133 27.4783 38.1598 27.6688 38.5283 27.806Z" />
<path class="light-beige" fill-rule="evenodd" clip-rule="evenodd" d="M20.3501 17.8607C20.1624 18.3697 20.2752 18.7869 20.4633 19.2638C20.5707 19.5529 20.6493 19.8519 20.6978 20.1564C20.8644 21.1011 20.7219 22.0255 20.5793 22.9498L20.5768 22.9661C20.3702 24.2882 20.1672 25.6048 20.2343 26.9492C20.246 27.2755 20.2464 27.6023 20.2469 27.9291C20.2473 28.2262 20.2477 28.5232 20.2566 28.8198C20.2596 28.8976 20.2624 28.9735 20.2652 29.0477C20.333 30.8485 20.3629 31.6421 20.8061 33.4781C21.0683 34.6216 21.1279 35.6212 21.1279 36.1837C21.1279 36.3256 21.1193 36.4812 21.1104 36.6434C21.0838 37.1245 21.054 37.665 21.2348 38.0857C21.4765 38.6482 22.2543 38.4071 22.5757 38.2732C22.6244 38.2529 22.6771 38.2316 22.733 38.2089C23.0464 38.082 23.4572 37.9156 23.783 37.6839C23.8015 37.6674 23.8264 37.6487 23.8503 37.6306C23.8772 37.6103 23.9029 37.5909 23.9171 37.5767L24.0512 37.5231C24.078 37.5231 24.2321 37.4155 24.2657 37.3892L24.4535 37.3088C24.7214 37.188 24.7895 37.1265 24.9542 36.9782C24.9904 36.9455 25.0314 36.9086 25.0802 36.8659C25.6044 36.4265 26.1742 36.0443 26.7799 35.7261C27.3703 35.4212 27.9631 35.1202 28.5562 34.8192C29.1206 34.5326 29.6853 34.246 30.2482 33.9558C30.7811 33.681 31.3012 33.3831 31.8214 33.0851C32.3116 32.8043 32.8019 32.5234 33.3032 32.2618C34.1922 31.793 35.1223 31.4278 36.0523 31.0626C36.3432 30.9483 36.6345 30.8339 36.9241 30.7165C38.5152 30.0795 40.0624 29.3384 41.5559 28.4982C42.0753 28.1932 42.1349 27.9087 41.7514 27.4494C41.4875 27.1558 41.1663 26.9191 40.8075 26.7539C40.4795 26.5863 40.1493 26.4228 39.8189 26.2592C39.1857 25.9457 38.5522 25.632 37.9331 25.2886C37.6016 25.1045 37.2726 24.915 36.9436 24.7255C36.0701 24.2224 35.1962 23.7191 34.2712 23.3139C33.3353 22.9137 32.4514 22.4017 31.6388 21.7891C31.1703 21.4108 30.6523 21.098 30.0992 20.8593C29.2941 20.5313 28.5122 20.1565 27.7306 19.7818C26.9615 19.4131 26.1926 19.0446 25.4023 18.7209C24.9505 18.5522 24.5297 18.3103 24.1568 18.005C23.7951 17.6465 23.5103 17.4926 22.9784 17.2982C22.4465 17.1037 22.2275 17.064 21.6643 17.1643C21.1011 17.2645 20.5379 17.3518 20.3501 17.8607ZM38.285 27.9794C37.917 27.8474 37.5701 27.6626 37.2555 27.4308C35.7066 26.3932 34.1242 25.4132 32.404 24.6769C30.3772 23.8091 28.3915 22.8626 26.4466 21.8374C26.1696 21.6906 25.8916 21.5458 25.6136 21.4011C24.9445 21.0528 24.2756 20.7045 23.6206 20.3275C23.6105 20.3218 23.5987 20.3129 23.5861 20.3035C23.5293 20.261 23.4571 20.2072 23.4587 20.3777C23.468 21.2452 23.3542 22.097 23.2392 22.9573C23.2172 23.1221 23.1951 23.2877 23.1738 23.4533C23.1413 23.7009 23.1019 23.9477 23.0625 24.1943C22.9756 24.7386 22.8888 25.2826 22.876 25.8353C22.8661 26.2889 22.8751 26.7418 22.8841 27.1944C22.8903 27.5063 22.8965 27.8182 22.8965 28.13C22.893 28.8752 22.9291 29.62 23.0044 30.3614C23.1175 31.281 23.2935 32.1918 23.5313 33.0874C23.6882 33.7346 23.8038 34.3911 23.8775 35.0529C24.436 34.6513 24.9945 34.2961 25.5661 33.967C26.1772 33.6172 26.7974 33.2839 27.4174 32.9506C28.261 32.4971 29.1044 32.0437 29.9242 31.5496C30.1548 31.4101 30.3801 31.2619 30.6051 31.1138C31.0488 30.822 31.4916 30.5308 31.9721 30.3075C32.6794 29.9825 33.4221 29.7498 34.1644 29.5173C34.3989 29.4439 34.6337 29.3703 34.867 29.294C35.4701 29.0922 36.0568 28.8533 36.6492 28.6119C37.1813 28.3952 37.7181 28.1765 38.2757 27.9812L38.285 27.9794Z" />
<path class="light-beige" fill-rule="evenodd" clip-rule="evenodd" d="M28 56C43.464 56 56 43.464 56 28C56 12.536 43.464 0 28 0C12.536 0 0 12.536 0 28C0 43.464 12.536 56 28 56ZM28 53C41.8071 53 53 41.8071 53 28C53 14.1929 41.8071 3 28 3C14.1929 3 3 14.1929 3 28C3 41.8071 14.1929 53 28 53Z" />
</svg>
