<svg class="animate" width="2232" height="1986" viewBox="0 0 2232 1986" fill="none" xmlns="http://www.w3.org/2000/svg">
<path d="M1277.7 330.068C1277.7 317.747 1275.96 303.283 1278.1 289.087C1281.94 263.641 1288.06 238.508 1293.24 213.196C1298.06 189.759 1305.6 184.089 1329.49 181.143C1409.04 171.411 1483.32 190.517 1557.16 217.972C1634.03 246.543 1697.92 294.935 1761.98 343.684C1768.18 348.461 1774.7 352.881 1781.04 357.479L1783.49 354.265C1755.55 331.631 1727.78 308.774 1699.7 286.364C1646.4 243.865 1585.91 215.205 1522.34 191.098C1470.23 171.878 1414.85 163.125 1359.35 165.339C1348 164.961 1336.65 166.087 1325.6 168.688C1299.35 176.5 1284.75 196.499 1278.1 221.945C1273.28 240.249 1270.78 259.132 1267.08 277.748C1260.2 312.256 1260.16 312.256 1268.1 342.345C1315.07 327.702 1361.32 327.077 1405.02 351.586C1430.89 366.495 1455.8 382.999 1479.62 401.005C1516.5 428.12 1556.98 449.98 1599.88 465.959C1625.36 474.771 1647.65 490.963 1663.9 512.476C1649.26 538.904 1625.19 557.118 1602.38 576.136C1593.14 583.903 1583.68 591.448 1573.95 598.457C1564.21 605.465 1555.24 603.814 1547.16 594.974C1543.57 591.818 1539.7 588.994 1535.6 586.537C1540.46 603.903 1553.45 610.197 1571 603.992C1581.06 599.975 1590.43 594.401 1598.77 587.475C1612.51 576.819 1625.71 565.48 1638.32 553.502C1649.61 542.788 1659.84 530.824 1671.31 518.547C1675.77 523.011 1680.6 529.127 1686.44 534.261C1717.69 561.701 1749.05 589.022 1780.5 616.224C1784.11 619.498 1788.17 622.235 1792.56 624.349C1825.28 638.902 1851.44 662.295 1877.73 687.428C1871.92 690.799 1866.51 694.828 1861.62 699.437C1856.41 704.725 1852.74 711.329 1850.99 718.544C1849.25 733.703 1848.89 748.988 1849.92 764.212C1850.77 778.364 1854.03 792.381 1855.95 804.39C1831.93 808.006 1805.86 810.462 1780.46 815.997C1722.78 828.586 1673.32 858.05 1627.92 894.835C1611.62 908.228 1594.03 920.727 1581.31 936.977C1570.28 951.039 1557.12 951.441 1542.92 952.959C1531.22 954.164 1519.21 953.495 1507.83 955.816C1496.48 958.774 1485.34 962.487 1474.48 966.932C1462.12 930.861 1435.82 901.531 1410.69 871.755C1403.99 863.8 1395.58 857.458 1386.09 853.2C1376.6 848.941 1366.27 846.876 1355.87 847.157C1333.96 847.09 1312.37 841.892 1292.83 831.979C1283.93 828.115 1276.35 821.743 1271 813.642C1265.66 805.54 1262.79 796.059 1262.75 786.355C1262.12 762.829 1263.01 739.57 1251 717.919C1248.37 713.187 1249.62 706.044 1249.71 700.062C1249.71 693.321 1252.12 689.258 1260.29 692.383C1264.46 693.25 1268.79 692.861 1272.75 691.267C1258.86 679.259 1243.5 667.473 1244.44 648.054C1245.29 630.822 1250.56 613.858 1253.82 597.073C1237.08 597.608 1223.95 654.036 1237.7 672.607L1250.16 689.482C1236.36 699.258 1236.09 712.606 1242.17 726.177C1249.74 743.58 1252.23 762.773 1249.35 781.534C1244.49 821.22 1264.22 837.291 1297.3 847.872C1311.3 851.818 1325.79 853.743 1340.33 853.586C1352.11 853.593 1363.74 856.188 1374.4 861.186C1385.06 866.185 1394.49 873.466 1402.03 882.514C1427.34 911.442 1451.49 941.129 1466.27 977.869C1464.27 980.088 1461.97 982.012 1459.44 983.583C1432.12 996.039 1413.14 1018.67 1391.85 1038.45C1366.27 1062.15 1338.95 1084.25 1315.96 1110.1C1294.17 1134.43 1275.78 1162.11 1257.92 1189.38C1230.59 1230.63 1209.08 1275.46 1194 1322.6C1189.36 1335.13 1183.55 1347.19 1176.63 1358.62C1165.29 1377.92 1158.6 1399.59 1157.08 1421.92C1156.05 1443.17 1144.49 1459.42 1132.97 1475.49C1123.55 1488.48 1111.14 1499.29 1100.56 1510.54C1074.49 1503.35 1048.51 1495.76 1022.35 1489.02C987.037 1479.96 949.639 1484 917.082 1500.4C859.047 1528.04 801.013 1556.03 749.317 1598.62C743.603 1588.48 737.487 1579.2 732.889 1569.24C713.842 1527.92 683.902 1492.56 646.283 1466.97C638.069 1461.3 626.462 1460.49 616.507 1457.24C572.831 1443.38 527.329 1436.12 481.51 1435.72C461.063 1435.27 440.528 1438.35 416.868 1440.18C423.519 1434.47 427.984 1430.18 432.939 1426.79C464.679 1403.62 497.357 1381.61 528.116 1357.19C553.16 1337.28 579.811 1321.48 611.597 1318.26C638.068 1315.68 664.713 1315.36 691.238 1317.33C712.488 1318.89 733.201 1320.59 753.335 1312.86C769.317 1306.66 785.209 1308.4 801.191 1311.57C865.833 1324.07 926.859 1347.55 986.902 1373.8C991.366 1375.72 995.384 1378.26 999.625 1380.72C1003.87 1383.17 1007.88 1384.92 1011.99 1387.01L1014.62 1383.53C1006.9 1377.33 999.893 1369.87 991.322 1365.18C930.698 1332.1 866.77 1307.73 798.379 1296.93C783.6 1295.08 768.598 1296.47 754.406 1300.99C738.04 1305.69 720.859 1306.87 704.005 1304.43C656.417 1298.35 609.721 1298.49 565.615 1321.3C564.99 1321.61 564.053 1321.3 562.892 1321.3C554.633 1277.33 528.25 1242.91 500.973 1209.7C490.527 1197.11 474.188 1187.69 458.385 1181.57C432.716 1171.53 420.618 1149.03 432.001 1124.03C435.026 1117.86 438.566 1111.96 442.582 1106.39C452.135 1092.42 458.697 1077.55 457.046 1061.08L524.009 1027.24L522.669 1024.43L460.885 1054.39L458.43 1052.47C459.8 1048.35 461.425 1044.33 463.296 1040.41C468.653 1030.41 472.715 1021.57 462.358 1011.08C458.697 1007.42 459.099 997.422 461.108 991.53C462.09 988.762 471.733 987.066 476.688 988.003C491.246 990.985 505.332 995.925 518.562 1002.69L482.849 999.253L482.581 1001.48L534.678 1007.15C533.384 1004.12 533.25 1002.69 532.446 1002.15C513.161 989.521 491.42 984.298 468.92 981.619C465.262 981.404 461.635 982.409 458.608 984.476C441.644 996.039 439.412 996.798 453.921 1015.01C462.581 1025.95 460.751 1033.18 453.073 1042.42C447.983 1048.54 442.091 1055.81 453.43 1061.17L447.849 1071.71C441.332 1084.12 434.799 1096.54 428.252 1108.98C424.278 1116.39 418.787 1123.36 416.466 1131.3C410.305 1151.97 424.725 1164.21 437.314 1176.79C439.589 1179.14 442.345 1180.97 445.394 1182.15C474.769 1192.37 489.59 1217.86 506.107 1241.03C523.607 1265.77 540.08 1291.26 556.955 1316.48C558.22 1318.68 559.339 1320.96 560.303 1323.31C545.124 1334.87 530.526 1346.84 515.08 1357.59C476.554 1384.38 436.644 1409.38 403.475 1443.17C399.927 1445.61 395.834 1447.15 391.556 1447.64C387.157 1448.15 382.938 1449.67 379.235 1452.1L388.386 1456.21C376.556 1466.3 365.708 1476.7 353.699 1485.45C332.584 1500.76 320.352 1522.1 308.388 1544.51C294.995 1569.33 278.299 1592.28 264.237 1616.74C254.258 1633.75 245.587 1651.5 238.3 1669.82C225.309 1703.62 211.514 1736.78 186.113 1763.57C174.372 1775.85 160.935 1786.47 149.06 1798.61C127.483 1820.55 106.278 1842.87 85.4453 1865.58C61.0708 1892.12 37.0534 1919.03 13.3931 1946.29C8.31102 1953.15 3.83026 1960.44 0.000488281 1968.07L3.92896 1970.8C16.1162 1956.56 27.9908 1942 40.5798 1928.16C83.0791 1881.42 124.284 1833.7 171.381 1791.11C192.452 1772.1 208.077 1745.89 222.273 1720.76C235.085 1698.03 242.541 1672.37 252.585 1648.04C254.652 1643.67 257.039 1639.46 259.728 1635.45C277.585 1606.07 294.504 1576.3 313.298 1547.55C323.473 1531.64 335.229 1516.8 348.387 1503.26C364.81 1487 382.24 1471.8 400.573 1457.73C408.082 1451.33 417.212 1447.12 426.957 1445.58C466.331 1442.15 505.839 1438.93 545.035 1449.02C559.21 1451.92 573.531 1454.05 587.936 1455.41C626.284 1460.94 654.006 1483.71 678.336 1511.61C687.984 1521.95 696.721 1533.11 704.452 1544.96C716.327 1564.56 726.416 1585.14 737.621 1606.16L713.871 1624.6C699.229 1607.01 685.479 1589.69 670.926 1573.13C649.096 1548.26 626.998 1523.53 604.23 1499.51C597.695 1492.94 589.781 1487.91 581.061 1484.78C530.884 1466.52 480.215 1462.46 429.278 1482.41C413.921 1488.49 397.047 1492.95 384.101 1502.46C365.485 1516.21 349.771 1533.71 332.896 1549.96C327.718 1554.91 323.566 1561.34 317.673 1565.09C309.548 1570.22 305.709 1575.8 309.727 1585.22C310.173 1585.22 311.334 1585.8 311.647 1585.49C336.021 1560.67 359.056 1534.33 385.172 1511.56C398.565 1499.87 417.002 1492.99 434.278 1486.57C479.858 1469.33 525.303 1476.21 569.722 1491.61C579.395 1495.7 587.962 1502.01 594.722 1510.05C630.435 1548.84 665.078 1588.26 700.122 1627.46C701.135 1628.86 702.017 1630.35 702.755 1631.92C682.622 1645.85 662.578 1659.42 642.891 1673.62C636.551 1678.08 622.712 1680.89 629.855 1692.32C637.578 1704.69 644.319 1691.12 649.989 1687.41C671.283 1673.53 691.818 1658.53 714.273 1642.77L747.442 1693.12C734.05 1702.5 720.925 1710.98 708.336 1720.4C701.907 1724.6 696.195 1729.79 691.416 1735.8C688.291 1740.27 688.559 1747.14 687.309 1752.9L690.881 1753.79L757.13 1709.15C771.995 1731.47 769.942 1755.13 768.201 1778.39C766.549 1800.93 764.004 1823.39 761.237 1845.84C760.536 1851.82 758.524 1857.57 755.344 1862.67C731.248 1900.25 701.614 1933.96 667.444 1962.67C662.165 1967.14 657.642 1972.43 654.051 1978.34C681.506 1966.74 702.13 1946.51 721.014 1925.13C764.808 1875.31 798.736 1818.75 829.584 1760.22C848.824 1723.79 869.002 1687.86 888.109 1651.34C891.186 1644.13 892.62 1636.32 892.306 1628.48C869.985 1680.4 835.833 1725.31 809.539 1776.6C805.343 1757.94 801.593 1740.89 797.709 1724.2C795.165 1712.95 787.888 1700.13 791.147 1690.98C794.406 1681.83 808.513 1677.59 817.352 1670.71C844.137 1649.69 869.137 1626.43 897.306 1607.77C922.082 1591.38 949.939 1579.6 976.858 1566.7C992.438 1559.2 1008.69 1553.31 1024.94 1547.01C1035.87 1542.95 1046.32 1545.89 1056.45 1551.16C1063.24 1554.24 1070.18 1556.95 1077.26 1559.29C1071.01 1577.5 1064.53 1596.7 1057.88 1615.89C1047.93 1644.46 1041.68 1673.35 1046.14 1704.02C1047.01 1713.26 1046.18 1722.58 1043.69 1731.52C1035.92 1764.73 1025.83 1796.92 1005.56 1825.26C999.784 1833.61 995.55 1842.92 993.063 1852.76C985.384 1882.81 977.795 1912.99 972.483 1943.48C970.519 1954.82 970.831 1969.1 985.875 1975.35C985.65 1935.81 993.062 1896.59 1007.71 1859.86C1014.66 1842.22 1022.62 1824.99 1031.54 1808.26C1048.44 1776.79 1059.28 1742.43 1063.51 1706.96C1063.76 1697.3 1063.33 1687.64 1062.21 1678.04C1061.14 1647.37 1070.65 1618.93 1081.41 1590.89C1090.69 1566.79 1098.86 1542.01 1110.69 1519.15C1118.86 1503.31 1131.85 1489.73 1143.77 1476.12C1161.1 1456.25 1175.6 1435.36 1177.84 1408.08C1178.28 1402.86 1179.35 1397.68 1179.93 1392.42C1183.46 1360.94 1200.11 1340.5 1232.61 1332.15C1246 1348.8 1260.74 1366.48 1275.16 1384.29C1303.91 1419.83 1332.6 1455.41 1361.23 1491.03C1369.7 1501.35 1377.55 1512.15 1384.75 1523.4C1386.05 1525.59 1386.83 1528.05 1387.05 1530.6C1387.26 1533.14 1386.91 1535.7 1386 1538.08C1375.2 1555.94 1363.06 1572.68 1351.76 1590.09C1348.95 1594.55 1347.88 1599.78 1345.47 1604.38C1329.71 1634.06 1311.85 1663.39 1298.1 1694.24C1288.1 1716.56 1283.15 1740.94 1275.25 1764.19C1270.07 1779.42 1263.64 1794.24 1257.88 1809.28C1256.76 1812.14 1256.05 1815.18 1255.16 1818.21L1258.28 1819.64C1266.81 1805.22 1276.94 1791.43 1283.46 1776.11C1290.38 1759.86 1293.82 1742.14 1298.91 1725.09C1300.8 1716.83 1303.44 1708.76 1306.81 1700.98C1319.04 1677.28 1332.16 1654.02 1346.54 1627.59C1348.5 1634.33 1349.75 1638.26 1350.73 1642.23C1369.72 1717.71 1388.61 1793.21 1407.39 1868.75C1411.18 1884.01 1414.75 1899.42 1419.04 1914.55C1421.36 1922.85 1419.04 1925.71 1410.51 1927.94C1378.73 1935.66 1347.07 1943.92 1315.65 1952.94C1306.27 1955.62 1297.79 1961.56 1288.86 1965.98L1289.8 1969.59C1299.16 1969.18 1308.48 1968.27 1317.74 1966.87C1349.48 1960.62 1381.14 1953.88 1412.74 1946.96C1420.82 1945.17 1426.14 1945.66 1426.94 1955.62C1427.95 1960.26 1429.53 1964.75 1431.63 1969.01L1435.15 1969.77C1436.8 1965.31 1439.93 1960.35 1439.84 1955.71C1439.57 1944.1 1444.88 1940.31 1455.82 1937.85C1521.18 1924.46 1586.18 1909.06 1649.39 1887.09C1675.73 1878.17 1702.16 1869.24 1729.75 1859.86L1776.13 1980.35L1780.33 1979.1C1782.07 1934.86 1759.03 1895.8 1751.84 1851.25L1914.16 1796.78C1913.49 1794.64 1912.87 1792.32 1912.2 1790.31C1856.62 1801.43 1802.65 1819.19 1746.62 1834.95C1742.6 1820 1739.12 1805.18 1734.61 1790.67C1722.51 1751.65 1709.57 1712.86 1697.69 1673.75C1689.84 1647.9 1683.54 1621.56 1676.13 1595.54C1661.85 1545.31 1644.88 1495.72 1633.36 1444.91C1622.95 1399.98 1609.41 1355.82 1592.83 1312.77C1591.27 1308.71 1590.19 1304.43 1588.9 1300.23L1591.89 1297.51C1597.43 1303.44 1603.19 1309.16 1608.41 1315.36C1611.49 1318.93 1612.87 1324.29 1616.58 1327.01C1630.51 1338.62 1645.1 1349.34 1659.17 1360.99C1664.43 1365.45 1670.91 1369.65 1673.59 1375.5C1682.51 1394.6 1698.85 1404.02 1715.59 1414.2C1723.09 1418.61 1729.18 1425.05 1733.18 1432.77C1735.85 1439.13 1739.94 1444.78 1745.16 1449.29C1750.37 1453.8 1756.55 1457.04 1763.23 1458.75C1774.7 1462.01 1783 1467.68 1784.12 1480.67C1784.99 1484.18 1786.51 1487.49 1788.58 1490.45C1792.94 1499.93 1797.86 1509.14 1803.32 1518.04C1808.63 1524.98 1814.61 1531.38 1821.17 1537.14C1826.84 1542.73 1833.27 1547.55 1839.03 1553.22C1841.74 1555.72 1843.47 1559.11 1843.91 1562.78C1844.34 1566.45 1843.45 1570.15 1841.4 1573.22C1836.17 1582.81 1839.12 1590.67 1848.36 1595.54C1857.6 1600.4 1862.73 1608.17 1861.22 1619.29C1859.7 1630.4 1866.93 1636.16 1874.61 1640.18C1881.34 1643.22 1887.13 1648.03 1891.37 1654.08C1895.6 1660.14 1898.12 1667.23 1898.67 1674.6C1900.61 1671.56 1901.9 1668.16 1902.45 1664.6C1903.01 1661.04 1902.81 1657.41 1901.88 1653.93C1900.94 1650.45 1899.3 1647.2 1897.04 1644.4C1894.78 1641.59 1891.96 1639.29 1888.76 1637.63C1876.57 1630.58 1871.17 1622.23 1871.66 1607.46C1871.66 1600.98 1864.16 1593.3 1858.27 1587.81C1852.38 1582.32 1848.58 1578.48 1850.77 1570.4C1855.5 1553.13 1850.77 1540 1835.68 1532.1C1829.77 1529.1 1824.55 1524.89 1820.36 1519.74C1816.17 1514.6 1813.1 1508.64 1811.35 1502.23C1806.33 1487.85 1799.78 1474.05 1791.8 1461.07C1788.67 1455.9 1781.26 1452.15 1775.06 1450.18C1760.95 1445.27 1750.33 1437.86 1744.39 1423.4C1741.29 1416.5 1736.13 1410.75 1729.61 1406.92C1711.4 1396.17 1693.05 1386.21 1683.72 1365.41C1680.64 1360.66 1676.52 1356.67 1671.67 1353.76C1655.95 1341.7 1640.06 1330.01 1624.26 1318.04C1623.94 1317.77 1623.41 1317.6 1623.32 1317.28C1615.37 1293.98 1588.72 1289.25 1576.4 1270.1C1573.79 1267.09 1570.31 1264.97 1566.45 1264.02C1548.28 1258 1529.93 1252.46 1511.67 1246.53C1504.21 1244.11 1481.89 1255.72 1477.56 1264.65C1471.89 1276.3 1465.51 1278.31 1454.13 1272.1C1450.96 1270.36 1447.65 1268.8 1444.48 1266.97C1436.05 1262.11 1429.13 1264.25 1425.55 1272.77C1420.29 1285.36 1410.42 1287.42 1398.77 1286.17C1383.9 1284.52 1369.04 1282.77 1354.13 1280.45C1341.54 1278.53 1331.36 1280.14 1323.64 1292.1C1321.09 1295.99 1313.95 1297.82 1308.59 1298.76C1287.66 1302.46 1266.18 1304.02 1245.74 1309.34C1235.16 1312.1 1226.27 1321.26 1216.5 1327.19C1213.02 1328.9 1209.44 1330.39 1205.78 1331.66C1208.7 1322.54 1212.14 1313.59 1216.09 1304.87C1217.7 1301.75 1222.79 1300.41 1226.27 1298.13C1230.74 1295.27 1237.21 1293.35 1239.22 1289.2C1240.69 1285.77 1243.11 1282.84 1246.2 1280.73C1249.28 1278.63 1252.9 1277.45 1256.63 1277.33C1268.91 1275.59 1280.83 1271.3 1293.01 1268.4C1300.38 1266.75 1308.06 1266.48 1315.33 1264.52C1320.42 1263.18 1327.03 1261.35 1329.57 1257.46C1335.65 1248.27 1342.7 1247.37 1351.23 1251.97C1363.64 1258.62 1373.95 1259.52 1382.07 1245.28C1383.56 1243.7 1385.38 1242.48 1387.41 1241.7C1389.44 1240.93 1391.61 1240.62 1393.77 1240.81C1409.71 1242.33 1424.48 1240.14 1437.61 1228.98C1447.25 1240.1 1453.99 1234.65 1461.4 1226.57C1474.53 1212.24 1479.93 1211.84 1497.12 1221.08C1497.12 1209.7 1486.8 1203.89 1475.38 1209.34C1471.84 1211.31 1468.58 1213.74 1465.69 1216.57C1460.15 1221.35 1455.69 1229.38 1446.94 1220.54C1445.69 1219.29 1441.05 1221.44 1438.01 1222.02C1426.76 1224.16 1415.29 1225.63 1404.26 1228.67C1396.31 1230.27 1388.87 1233.76 1382.56 1238.85C1376.98 1244.38 1372.97 1246.57 1366.18 1242.78C1352.52 1235.23 1340.15 1232.06 1330.47 1249.47C1328.41 1253.22 1321.85 1255.68 1317.07 1256.52C1295.74 1260.32 1274.26 1263.04 1252.92 1266.88C1250.87 1267.32 1248.95 1268.22 1247.29 1269.5C1245.62 1270.78 1244.27 1272.42 1243.33 1274.29C1240.11 1284.56 1232.7 1284.52 1222.26 1284.38C1228.55 1268.27 1233.1 1252.69 1240.47 1238.53C1266.94 1187.42 1295.47 1137.69 1336.23 1095.68C1350.69 1080.9 1368.01 1073.89 1386.27 1066.31C1437.34 1045.19 1489.66 1027.42 1543.81 1018.23C1589.08 1010.55 1635.6 1008.58 1681.62 1007.56C1734.91 1006.93 1787.94 1015.01 1838.63 1031.48C1864.74 1039.61 1888.18 1056.31 1913 1068.76C1962.55 1093.58 2005.63 1127.96 2049.65 1160.99C2056.7 1166.26 2063.36 1175.14 2075.36 1169.92C2109.92 1230.54 2146.43 1290.45 2164.07 1359.78C2174.07 1398.89 2189.78 1436.66 2198 1475.85C2208.35 1525.54 2221.03 1575.72 2216.48 1626.96C2213.4 1662.14 2207.55 1697.28 2193.71 1730.67C2177.33 1767.75 2167.09 1807.26 2163.4 1847.63C2161.26 1876.56 2155.01 1905.22 2150.85 1934.01C2149.6 1942.94 2149.25 1951.56 2148.49 1960.35L2151.66 1961.33C2155.8 1952.21 2159.39 1942.85 2162.42 1933.3C2172.76 1893.43 2180.5 1852.93 2185.59 1812.05C2189.02 1784.33 2199.65 1757.32 2208.84 1730.58C2227.77 1675.54 2236.43 1619.64 2229.65 1561.34C2220.72 1482.86 2195.76 1408.71 2172.24 1333.67C2154.38 1276.12 2123.8 1225.32 2095.5 1173.18C2077.37 1139.74 2060.41 1105.55 2039.96 1073.58C2027.29 1053.81 2009.47 1037.2 1993 1020.01C1989.56 1016.44 1981.75 1016.98 1975.95 1015.55C1972.92 1015.2 1969.93 1014.59 1967.02 1013.72C1925.37 996.262 1885.46 974.298 1840.82 964.611C1808.14 957.602 1776.98 943.406 1742.6 943.495C1713.14 943.495 1683.68 943.495 1653.01 941.307C1660.86 935.683 1668.72 930.102 1676.49 924.388C1736.22 880.639 1805.24 867.246 1877.06 862.291C1890.81 861.353 1895.64 867.246 1898.09 879.121C1905.64 913.612 1921.06 945.894 1943.13 973.45C1944.93 975.982 1947.52 977.837 1950.5 978.717C1950.22 976.447 1949.58 974.234 1948.63 972.155C1929.62 942.554 1915.89 909.884 1908.05 875.594C1903.58 856.086 1892.51 837.425 1881.57 820.194C1866.62 796.667 1857.15 773.275 1865.28 744.972C1867.2 738.32 1865.55 730.552 1865.28 723.32C1864.92 713.41 1864.48 703.231 1875.06 697.919C1881.34 695.675 1887.81 693.987 1894.39 692.875C1900.14 671.446 1921.93 657.161 1937.91 638.59C1941.52 634.614 1944.15 629.854 1945.6 624.686C1947.05 619.518 1947.27 614.084 1946.26 608.813C1938.84 622.069 1930.73 634.928 1921.97 647.34C1912.49 659.158 1902.4 670.483 1891.75 681.268C1867.51 662.92 1845.73 643.366 1821.13 628.59C1790.92 610.655 1763.01 589.113 1738 564.439C1710.19 536.895 1682.51 509.083 1652.74 483.771C1638.32 471.539 1620.02 463.013 1602.29 455.736C1550.91 434.754 1505.15 405.246 1461.45 371.273C1426.72 344.488 1388.14 322.792 1342.07 323.506C1321.67 323.685 1301.36 327.479 1277.7 330.068ZM1725.95 1842.27C1630.19 1873.84 1536.67 1903.12 1438.95 1920.89C1437.87 1910.04 1436.23 1899.25 1434.04 1888.57C1410.06 1796.96 1386.49 1705.31 1360.96 1614.29C1359.47 1609.78 1359.05 1604.99 1359.74 1600.29C1360.43 1595.59 1362.21 1591.12 1364.93 1587.23C1366.98 1583.84 1370.42 1581.25 1372.65 1577.9C1382.7 1562.95 1393.06 1548.13 1402.34 1532.68C1409.53 1520.67 1415.33 1507.86 1421.81 1495.45C1426.44 1487.85 1430.52 1479.92 1434.04 1471.74C1447.12 1434.51 1459.88 1397.1 1472.03 1359.56C1474.84 1350.63 1474.62 1340.94 1475.78 1331.66C1455.73 1395.54 1433.55 1458.04 1399.53 1516.07C1371.72 1481.52 1346.32 1448.53 1319.17 1416.88C1292.03 1385.23 1263.82 1355.05 1235.47 1323.62C1238.15 1321.75 1240.25 1319.16 1242.61 1318.8C1262.52 1315.94 1282.52 1313.76 1302.34 1310.68C1308.32 1309.74 1316.41 1308.22 1319.17 1304.07C1325.91 1294.02 1334.17 1291.75 1345.07 1293.27C1353.06 1294.34 1361.14 1294.96 1369.22 1295.54C1392.39 1297.15 1417.61 1304.47 1428.9 1272.69C1434.26 1275.19 1438.59 1277.15 1442.83 1279.25C1447.11 1282.16 1451.76 1284.48 1456.67 1286.12C1472.47 1288.8 1477.07 1284.6 1484.53 1262.73C1486.38 1262.12 1488.33 1261.84 1490.29 1261.88C1514.57 1266.66 1538.99 1270.81 1562.92 1277.02C1567.65 1278.22 1571.85 1285.94 1574.08 1291.75C1577.29 1300.36 1578.01 1309.6 1580.51 1318.53C1593.41 1364.87 1605.46 1411.25 1615.42 1458.49C1635.69 1554.3 1662.04 1648.73 1694.3 1741.2C1706 1774.46 1715.42 1808.3 1725.95 1842.27ZM2069.34 1162.33C2067.95 1161.58 2066.65 1160.68 2065.45 1159.65C2009.21 1102.82 1945.81 1056.97 1870.23 1028.54C1823.03 1010.66 1773.57 999.454 1723.27 995.235C1658.21 989.931 1592.71 995.04 1529.26 1010.37C1489.08 1019.88 1449.62 1034.07 1410.11 1046.93C1400.21 1050.94 1390.62 1055.7 1381.45 1061.17C1381.79 1058.19 1383.13 1055.4 1385.24 1053.27C1410.51 1022.02 1444.84 1001.4 1475.82 976.887C1481.47 972.954 1488.03 970.526 1494.88 969.834C1517.21 966.887 1539.93 964.566 1562.52 962.557C1591.58 959.968 1620.55 956.754 1649.75 955.905C1687.34 954.789 1725.86 950.727 1762.42 957.021C1810.64 965.325 1857.65 981.575 1904.61 996.128C1929.04 1004.37 1953.01 1013.89 1976.44 1024.65C1983.83 1027.83 1990.55 1032.38 1996.26 1038.05C2030.59 1073.18 2047.73 1118.76 2069.34 1162.33ZM783.334 1671.74C774.406 1652.05 765.969 1634.24 758.29 1616.16C757.442 1614.15 760.031 1609.47 762.263 1607.59C769.891 1600.97 778.059 1594.99 786.682 1589.73C827.575 1566.92 868.154 1543.48 909.939 1522.5C941.189 1506.88 974.447 1495.45 1010.29 1500.98C1038.51 1505.45 1066.45 1511.74 1095.83 1517.5L1081.1 1553.22C1070.41 1549.14 1059.97 1544.43 1049.85 1539.11C1041.87 1534.22 1032.81 1531.37 1023.47 1530.8C1014.13 1530.24 1004.79 1531.97 996.277 1535.85C940.385 1559.6 885.788 1585.36 841.592 1629.2C824.762 1645.54 803.379 1657.28 783.334 1671.74ZM1584.17 947.066L1581.98 944.7C1592.34 934.834 1602.02 924.165 1613.23 915.192C1684.66 857.514 1764.75 820.863 1856.89 812.738C1858.33 812.616 1859.79 812.808 1861.15 813.301C1862.51 813.794 1863.76 814.577 1864.79 815.595C1873.27 828.184 1881.22 841.175 1890.64 856.086C1886.64 856.299 1882.63 856.299 1878.63 856.086C1842.1 850.723 1804.82 854.339 1770.01 866.621C1748.56 873.443 1727.66 881.921 1707.51 891.978C1688.81 902.112 1672.25 916.263 1655.24 929.254C1650.39 933.789 1646.02 938.816 1642.2 944.254L1643.63 947.111L1584.17 947.066ZM774.094 1699.46H778.29C784.317 1719.73 790.656 1739.91 796.147 1760.35C798.379 1768.79 802.129 1779.19 799.272 1786.25C790.924 1806.6 779.54 1825.71 769.361 1845.31L765.522 1843.61C769.361 1828.17 774.049 1812.9 776.772 1797.27C782.04 1767.01 787.263 1736.56 772.308 1707.14C771.281 1705.4 773.379 1702.05 774.094 1699.46ZM724.228 1635L745.924 1619.6C754.183 1639.02 761.996 1656.79 769.049 1674.91C769.853 1677.05 767.04 1682.1 764.585 1683.57C763.052 1683.94 761.45 1683.92 759.927 1683.51C758.405 1683.1 757.012 1682.3 755.88 1681.2C744.898 1666.29 735.032 1650.94 724.228 1635Z" class="beige"/>
<path d="M1345.12 135.027C1355 133.187 1364.77 130.742 1374.36 127.706C1381.01 125.162 1386.41 119.626 1392.84 116.278C1402.25 111.261 1411.93 106.79 1421.85 102.885C1426.8 101.833 1431.84 101.265 1436.9 101.189C1441.63 100.43 1449 100.474 1450.56 97.6174C1459.76 80.6534 1476.54 83.5998 1490.74 82.082C1500.83 81.0106 1507.43 79.0463 1510.6 68.6894C1513.77 58.3324 1520.34 50.8326 1533.55 52.2611C1535.47 52.6934 1537.46 52.6333 1539.35 52.0865C1541.24 51.5396 1542.96 50.5238 1544.35 49.1335C1545.74 47.7433 1546.76 46.0239 1547.3 44.1354C1547.85 42.2469 1547.91 40.2507 1547.48 38.3328C1545.96 28.333 1551.23 23.4223 1557.66 18.2439C1576.54 2.84235 1598.73 4.2709 1620.15 7.93155C1639.47 11.7973 1658.51 16.9121 1677.16 23.2438C1699.48 30.1187 1721.54 37.7078 1743.68 45.163C1746.94 46.279 1751.22 47.6184 1752.61 50.163C1767.16 76.1446 1789.88 94.4478 1811.45 113.867C1837.25 137.17 1862.61 160.92 1888.68 183.866C1928.89 218.679 1959.92 262.847 1979.03 312.48C1989.61 339.935 1999.57 366.988 1998.32 396.585C1997.87 407.109 1995.18 417.414 1990.42 426.808C1976.4 453.995 1964.03 481.271 1966.53 513.012C1967.56 526.047 1960.55 534.127 1948.45 538.458C1944.35 539.931 1939.03 541.404 1936.98 544.663C1934.18 549.253 1932.95 554.624 1933.45 559.975C1933.72 562.475 1939.93 566.314 1943.18 566.046C1988.18 562.475 2013.5 615.911 2007.29 650.107C2004.61 664.705 1999.84 678.901 1996 693.232C1992.87 704.883 1989.66 716.49 1987.07 725.463C1984.17 727.829 1981.49 728.901 1980.95 730.642C1974.3 751.266 1965.01 771.623 1962.34 792.828C1958.63 822.336 1959.93 852.514 1959.21 882.425C1959.21 883.362 1960.19 884.344 1962.6 885.416C1964.08 835.015 1963.05 784.346 1984.17 733.633C1977.68 801.227 1982.94 869.433 1999.7 935.236C1999.7 928.852 1999.7 922.424 1999.7 915.995C1999.7 909.567 1999.7 903.049 1999.34 896.576C1998.01 854.925 1993.76 813.185 1996.17 771.578C1998.09 739.124 2006.62 706.669 2015.24 675.062C2023.85 643.456 2023.23 615.153 2004.88 588.1C1999.8 580.239 1992.9 573.722 1984.76 569.105C1976.63 564.488 1967.49 561.907 1958.14 561.582C1953.68 561.314 1945.82 558.502 1945.15 555.555C1943.45 548.1 1947.34 542.431 1955.68 539.172C1963.41 536.128 1970.45 531.575 1976.4 525.779C1978.31 523.751 1979.77 521.344 1980.7 518.714C1981.62 516.084 1981.98 513.29 1981.76 510.512C1976.49 481.985 1985.51 455.959 1998.63 432.611C2004.67 422.343 2008.57 410.961 2010.11 399.148C2011.64 387.334 2010.77 375.333 2007.56 363.863C1992.96 306.274 1970.24 252.704 1929.97 207.169C1889.7 161.634 1844.35 122.84 1797.34 85.1623C1785.19 75.7719 1774.22 64.9498 1764.66 52.9307C1756.63 42.3506 1745.38 42.0827 1735.11 38.1989C1718.86 32.1275 1701.94 27.574 1686.36 20.342C1650.65 3.33342 1612.21 1.50308 1573.77 0.0298907C1559.35 -0.550456 1548.06 7.39583 1539 17.2617C1535.44 22.3633 1533.85 28.5803 1534.53 34.7614C1535.07 42.2613 1534.84 48.154 1525.92 48.154C1511.41 48.154 1504.76 57.0825 1501.94 69.1358C1500.2 76.4571 1496.67 78.0642 1490.25 78.0642C1479.8 78.0917 1469.36 78.7775 1459 80.1177C1454.53 81.2583 1450.6 83.9472 1447.93 87.7069C1442.3 95.5639 1436.54 99.1799 1426.45 95.6978C1422.26 94.2693 1414 95.2514 1412.21 98.0638C1405.25 108.957 1394.36 109.18 1383.82 111.456C1381.5 111.948 1377.79 111.456 1376.95 112.617C1368.6 125.653 1353.06 122.617 1341.81 128.867C1339.89 129.894 1337.35 132.081 1337.35 133.777C1337.12 145.072 1329.04 144.893 1321.23 145.608C1316.05 146.099 1310.87 147.215 1305.65 147.974C1303.47 148.079 1301.35 148.716 1299.47 149.828C1297.59 150.941 1296.02 152.496 1294.88 154.357C1293.74 156.219 1293.07 158.331 1292.93 160.51C1292.79 162.688 1293.19 164.867 1294.09 166.857C1294.71 168.375 1297.17 170.473 1298.55 170.25C1299.94 170.027 1303.24 167.527 1303.02 166.366C1301.68 155.786 1309.54 155.965 1316.1 154.804C1322.66 153.643 1328.11 153.152 1333.95 152.17C1342.84 150.92 1348.87 147.349 1345.12 135.027Z" class="beige"/>
<path d="M917.933 987.512C933.111 1004.97 948.959 1021.53 962.798 1039.65C973.512 1053.72 980.923 1070.28 991.146 1084.79C995.296 1090.26 997.954 1096.72 998.862 1103.52C999.77 1110.33 998.895 1117.26 996.324 1123.63C989.935 1140.99 981.955 1157.73 972.485 1173.62C963.334 1188.4 951.057 1201.26 952.039 1220.54C922.263 1208.53 884.54 1217.69 866.371 1242.86C874.242 1242.59 882.078 1241.69 889.808 1240.19C903.201 1236.35 916.593 1230.59 929.986 1227.06C944.852 1223.18 955.655 1228.45 961.593 1242.37C977.932 1280.63 993.467 1319.25 1009.67 1357.55C1013.81 1367.63 1019.58 1376.95 1026.77 1385.14C1027.3 1380.69 1027.3 1376.19 1026.77 1371.75C1014.67 1323.8 1001.06 1276.26 975.03 1233.76C963.914 1215.68 968.244 1200.81 977.753 1185.37C984.94 1173.67 994.494 1163.04 1000.07 1150.9C1005.65 1138.76 1007.48 1125.55 1011.28 1112.82C1012.51 1109.72 1014 1106.74 1015.74 1103.89C1017.71 1107.29 1022.13 1112.82 1021.32 1113.67C1007.93 1128.36 1024.18 1147.55 1013.42 1163.09C1011.32 1166.12 1018.15 1175.32 1021.15 1182.42C1010.39 1185.54 1011.32 1193.54 1014.05 1203.45C1015.83 1210.01 1014.05 1217.51 1014.9 1224.38C1015.74 1231.26 1019.05 1238.89 1020.56 1246.26C1022.26 1254.52 1022.75 1263.04 1024.58 1271.3C1027.48 1284.43 1030.79 1297.51 1034.63 1310.41C1035.39 1312.95 1039.49 1314.52 1042.89 1315.81C1037.76 1308.39 1034.18 1300.01 1032.37 1291.17C1030.56 1282.33 1030.55 1273.22 1032.35 1264.38C1033.38 1259.25 1028.91 1253.18 1027.89 1247.37C1026.06 1238.45 1024.58 1228.98 1023.42 1219.7C1022.8 1213.76 1024.72 1207.2 1022.98 1201.84C1019.76 1191.62 1020.34 1184.52 1035.39 1182.2C1021.59 1171.97 1020.74 1160.72 1027.17 1148.18C1027.4 1147.25 1027.44 1146.29 1027.29 1145.34C1027.13 1144.4 1026.79 1143.5 1026.28 1142.69C1021.19 1134.3 1022.26 1126.97 1026.28 1118C1028.73 1112.73 1025.34 1104.61 1023.2 1098C1039.98 1062.82 1042.08 1055.68 1037.53 1041.04C1033.82 1052.51 1030.88 1063.36 1026.77 1073.76C1023.01 1082.72 1018.73 1091.45 1013.96 1099.92C1013.29 1101.17 1009.98 1102.38 1009.23 1101.84C1007.4 1100.11 1005.89 1098.07 1004.76 1095.81C988.646 1069.39 973.512 1042.24 956.102 1016.75C948.334 1005.32 935.879 997.11 925.879 987.155C923.602 984.923 920.79 981.084 921.415 978.584C929.718 936.888 904.049 919.433 874.005 916.397C857.175 914.656 840.122 914.701 823.202 913.942L822.979 917.781C839.162 920.494 855.48 922.327 871.862 923.272C899.004 923.585 915.835 948.718 902.129 973.003C887.46 997.734 867.673 1019.04 844.095 1035.5C834.72 1042.38 825.881 1050.5 815.568 1055.68C805.34 1060.11 794.649 1063.39 783.694 1065.46C775.167 1067.51 766.373 1068.36 757.712 1069.7V1073.36C764.271 1074.17 770.881 1074.5 777.489 1074.34C788.045 1073.6 798.507 1071.87 808.738 1069.16C816.124 1066.41 823.095 1062.66 829.452 1058C834.854 1054.52 839.095 1049.07 844.854 1046.35C871.639 1034.21 892.353 1014.48 911.817 993.003C912.576 991.753 913.96 990.86 917.933 987.512Z" class="beige"/>
<path d="M1896.67 1959.1C1899.53 1956.65 1903.32 1954.64 1904.97 1951.69C1916.62 1930.53 1931.13 1910.75 1935.19 1885.93C1937.51 1876.48 1940.5 1867.2 1944.12 1858.17C1962.47 1800.49 1975.77 1742.1 1972.65 1680.8C1970.82 1645.09 1961.27 1611.43 1952.16 1577.5C1945.69 1553.39 1934.66 1530.27 1929.84 1506.07C1921.53 1464.07 1916.45 1421.25 1909.93 1379.07C1908.1 1367.15 1905.46 1355.36 1903.54 1343.35L1899.08 1342.28C1897.47 1345.76 1894.12 1349.47 1894.62 1352.73C1899.57 1401.83 1904.66 1450.94 1910.55 1500.05C1912.35 1512.87 1915.34 1525.5 1919.48 1537.77C1927.92 1565.18 1938.86 1591.65 1945.77 1619.42C1951.18 1641.21 1951.94 1664.06 1954.7 1686.7C1960.02 1730.89 1952.47 1774.1 1940.69 1816.16C1929.3 1856.87 1913.9 1896.51 1900.51 1936.69C1898.23 1943.43 1896.04 1950.08 1893.99 1957L1896.67 1959.1Z" class="beige"/>
<path d="M1218.1 1985.13C1228.82 1957.85 1228.06 1929.73 1221.99 1902.18C1216.72 1878.21 1205.96 1855.31 1201.32 1831.25C1191.9 1782.14 1190.83 1733.39 1214.04 1686.78C1231.08 1654.51 1234.79 1616.85 1224.4 1581.88C1218.59 1562.1 1213.5 1542.14 1208.24 1522.19C1200.29 1492.28 1202.92 1461.97 1205.29 1431.7C1206.05 1421.34 1207.39 1410.99 1208.77 1397.73C1197.84 1411.52 1198.19 1426.08 1194.84 1439.33C1180.92 1493.8 1194.84 1546.03 1207.97 1598.22C1216.27 1629.08 1212.55 1661.95 1197.57 1690.18C1182.43 1718.97 1180.34 1749.55 1178.37 1780.71C1176.74 1813.97 1183.22 1847.12 1197.26 1877.32C1212.39 1911.78 1216.54 1948.07 1218.1 1985.13Z" class="beige"/>
<path d="M1503.82 1219.7C1509.94 1221.56 1516.24 1222.82 1522.61 1223.45C1546.18 1223.45 1556.76 1229.61 1565.78 1250.94C1569.48 1259.65 1575.42 1263.94 1584.62 1262.64C1588.6 1262.08 1592.67 1262.54 1596.43 1263.95C1600.2 1265.37 1603.55 1267.72 1606.18 1270.77C1609.84 1274.38 1615.11 1276.39 1618.95 1279.69C1628.86 1288.27 1639.93 1296.08 1647.79 1306.48C1654.84 1315.68 1661.85 1322.42 1673.5 1324.34C1680.16 1325.94 1686.71 1327.98 1693.1 1330.45C1703.46 1333.62 1707.47 1341.12 1708.28 1351.43C1709.75 1369.6 1720.2 1381.34 1738.14 1383.22C1743.19 1383.3 1748.07 1385.04 1752.04 1388.16C1756 1391.28 1758.84 1395.61 1760.11 1400.5C1763.13 1408 1766.72 1415.26 1770.82 1422.24C1773.04 1427.04 1776.66 1431.05 1781.22 1433.73C1785.77 1436.42 1791.04 1437.66 1796.31 1437.28C1817.69 1436.97 1821.62 1441.12 1823.77 1463.26C1824.12 1466.92 1824.57 1470.54 1824.97 1474.16C1826.49 1487.55 1829.7 1490.09 1841.89 1485.18C1848.36 1482.59 1852.02 1484.15 1854.61 1489.65C1862.78 1507.1 1872.47 1524.2 1867.29 1544.91C1865.55 1552.19 1869.03 1556.79 1877.47 1555.05C1882.56 1554.02 1887.56 1552.77 1894.84 1551.12C1896.38 1558.92 1897.42 1566.8 1897.96 1574.73C1897.96 1587.23 1897.2 1599.78 1896.44 1612.32C1895.91 1620.76 1897.07 1626.21 1907.74 1622.68C1917.38 1619.46 1921.67 1624.24 1920.77 1633.71C1918.76 1654.51 1916.31 1675.31 1914.12 1697.59C1916.44 1694.51 1919.21 1692.37 1919.79 1689.78C1923.94 1670.54 1928.72 1651.34 1931.13 1631.74C1933.05 1614.87 1929.88 1613.3 1913.54 1617.05C1911.45 1617.32 1909.35 1617.44 1907.25 1617.41V1570.27C1907.25 1566.61 1907.25 1562.95 1907.25 1559.33C1906.13 1544.51 1904.61 1543.48 1890.51 1547.59C1879.88 1550.72 1876.71 1548.48 1878.72 1537.37C1882.51 1516.3 1873.05 1498.75 1864.08 1481.3C1862.6 1478.44 1854.26 1476.43 1850.68 1477.91C1839.48 1482.37 1836.76 1476.88 1835.91 1467.73C1835.37 1461.7 1835.46 1455.58 1834.66 1449.56C1832.6 1435.05 1824.57 1427.24 1810.19 1428.49C1795.06 1429.91 1786.62 1422.86 1780.55 1410.63C1778.26 1406.85 1776.27 1402.9 1774.61 1398.8C1772.97 1391.73 1769.12 1385.36 1763.61 1380.64C1758.1 1375.91 1751.23 1373.06 1743.99 1372.51C1728.37 1370.23 1720.95 1359.6 1719.79 1344.2C1718.63 1328.8 1712.96 1321.35 1693.37 1317.42C1675.96 1314.07 1663.41 1306.93 1653.68 1291.52C1648.23 1282.95 1637.47 1277.69 1628.95 1271.17C1625.07 1269 1621.33 1266.6 1617.74 1263.98C1614.66 1260.32 1610.72 1257.47 1606.27 1255.68C1601.83 1253.89 1597.02 1253.21 1592.25 1253.71C1583.32 1254.65 1577.03 1249.78 1574.13 1240.81C1568.95 1224.74 1556.85 1217.24 1540.96 1214.52C1532.3 1213.04 1523.68 1210.9 1514.98 1210.05C1511.06 1210.51 1507.26 1211.69 1503.77 1213.53L1503.82 1219.7Z" class="beige"/>
<path d="M518.607 541.226C530.973 549.35 542.759 558.502 555.794 565.377C595.972 586.403 636.15 606.671 676.774 626.983C688.47 632.831 700.479 637.653 713.157 628.322C714.765 627.117 718.515 628.322 721.104 628.903C738.47 633.858 755.701 639.438 773.246 643.813C779.585 645.42 786.638 643.813 793.335 644.572C803.602 645.822 813.825 647.875 824.004 649.706C830.729 650.328 837.363 651.706 843.78 653.813C851.493 656.61 858.502 661.059 864.315 666.848C878.467 683.5 878.333 684.08 896.547 670.107C903.065 676 910.252 681.759 916.636 688.321C936.1 708.321 954.983 728.856 974.671 748.633C979.652 753.173 985.585 756.544 992.036 758.498C1018.42 767.427 1037.79 783.498 1043.95 811.087C1051.63 845.193 1057.08 879.791 1063.51 914.165C1064.31 918.63 1065.2 922.826 1066.05 927.112L1070.12 926.888C1069.31 915.192 1069.27 903.362 1067.48 891.844C1063.02 863.586 1059.22 835.149 1052.79 807.292C1046.37 779.436 1027.84 763.32 1000.38 755.865C992.845 753.276 986.066 748.858 980.653 743.008C959.939 722.16 940.207 700.33 919.538 679.482C903.243 663.098 902.886 663.455 882.663 673.946C879.449 670.196 876.458 665.955 872.753 662.384C865.208 655.152 857.842 648.009 845.566 648.991C840.03 649.483 834.227 645.331 828.379 644.527C815.388 642.92 802.04 643.456 789.317 640.822C771.637 637.075 754.207 632.229 737.13 626.313C728.546 623.121 719.173 622.715 710.345 625.153C701.141 627.217 691.515 626.214 682.935 622.296C651.462 606.716 620.971 589.216 589.856 573.189C566.999 561.27 543.741 550.109 520.661 538.592L518.607 541.226Z" class="beige"/>
<path d="M831.725 898.719C818.957 887.112 806.145 875.55 793.511 863.809C763.556 835.908 734.003 806.667 694.986 792.382C657.159 778.46 618.498 766.92 579.229 757.829C557.578 752.784 541.864 764.748 541.641 790.15C541.641 804.167 540.078 817.203 527.802 827.337C524.096 830.417 523.337 839.301 524.096 845.193C525.927 859.122 524.364 862.648 511.373 868.005C494.32 875.059 476.999 881.666 460.615 890.059C438.294 901.487 436.91 914.835 447.223 936.218C452.803 947.781 466.285 956.084 458.874 972.825L464.678 972.334C465.978 966.144 466.473 959.812 466.151 953.495C464.569 945.619 461.973 937.981 458.428 930.772C451.106 914.567 452.58 904.835 467.803 895.684C484.673 885.478 502.247 876.482 520.391 868.764C530.391 864.523 533.382 858.586 531.819 849.301C529.944 838.319 533.56 830.997 541.417 822.515C547.757 815.73 549.23 804.078 551.998 794.301C552.695 789.529 552.919 784.699 552.667 779.882C553.426 767.739 560.658 763.141 571.595 766.088C611.996 777.114 653.335 785.953 692.129 801.176C715.075 810.105 734.628 828.72 754.405 844.613C777.038 862.738 798.154 882.782 820.252 901.621C822.439 903.451 826.992 902.469 830.43 902.826L831.725 898.719Z" class="beige"/>
<path d="M502.763 1576.12L328.882 1927.54C339.061 1929.95 340.132 1930.26 345.757 1920.08C362.587 1889.68 380.31 1859.59 394.863 1828.12C431.47 1748.93 466.514 1669.06 502.004 1589.38C503.435 1585.03 504.393 1580.54 504.861 1575.98L502.763 1576.12Z" class="beige"/>
<path d="M383.83 1915.75C394.187 1919.46 398.473 1912.76 401.687 1906.56C413.785 1884.24 426.33 1861.92 436.776 1838.7C469.543 1766.2 501.462 1693.3 533.649 1620.54C534.008 1619.08 534.129 1617.57 534.006 1616.07L530.39 1614.55C522.132 1631.47 513.784 1648.3 505.659 1665.27C473.918 1731.2 442.401 1797.18 410.571 1863.03C402.178 1880.75 392.893 1898.03 383.83 1915.75Z" class="beige"/>
<path d="M1277.12 346.14C1261.28 363.059 1263.06 383.907 1260.65 403.594C1259.78 414.071 1259.87 424.606 1260.92 435.067C1262.71 464.039 1248.46 487.075 1233.78 509.931C1227.88 519.128 1220.97 527.788 1215.92 537.163C1201.77 563.145 1213.29 587.564 1245.79 595.198C1241.01 590.733 1238.33 588.412 1235.74 585.867C1219.85 570.287 1217.44 559.082 1227.84 539.35C1234.36 526.851 1242.71 515.378 1250.43 503.637C1266.99 478.191 1275.07 451.45 1271.37 420.067C1269.09 400.469 1274.13 379.889 1275.83 359.889C1276.14 355.113 1276.68 350.648 1277.12 346.14Z" class="beige"/>
<path d="M594.861 664.125L608.968 680.911C583.701 683.187 562.451 691.044 549.416 712.383C540.814 726.426 537.743 743.165 540.8 759.346L544.371 759.927C544.687 754.44 545.464 748.989 546.693 743.633C550.71 730.731 553.032 716.312 560.665 705.821C566.424 697.964 578.879 692.696 589.192 690.821C610.888 686.893 629.369 697.339 646.289 709.838C696.154 746.579 747.225 781.266 802.536 809.658C805.795 811.31 809.054 812.872 812.402 814.122C812.938 814.346 813.83 813.81 815.438 813.408C813.875 811.31 812.938 808.944 810.973 807.872C733.832 767.694 664.458 716.178 597.986 660.241L594.861 664.125Z" class="beige"/>
<path d="M1310.65 511.271C1308.71 517.932 1308.1 524.91 1308.87 531.805C1309.64 538.7 1311.76 545.376 1315.11 551.449C1324.04 568.681 1333.68 585.644 1341.22 603.457C1356.89 640.599 1359.75 678.5 1343.68 716.49C1340.96 721.4 1338.92 726.656 1337.61 732.115C1342.3 728.588 1348.99 726.044 1351.27 721.356C1356.8 709.928 1362.97 697.696 1363.9 685.419C1365.49 666.489 1364.5 647.431 1360.96 628.769C1357.88 613.367 1349.66 598.858 1342.83 584.394C1335.42 568.68 1326.72 553.591 1319.26 537.922C1317.39 532.608 1316.23 527.068 1315.82 521.449C1315.24 517.922 1315.06 514.262 1314.71 510.69L1310.65 511.271Z" class="beige"/>
<path d="M1087.44 1030.95V1016.08L1096.37 1018.32C1097.44 1023.05 1097.13 1026.98 1098.96 1028.9C1105.92 1036.31 1111.37 1037.6 1119.81 1034.07C1111.95 1022.33 1103.24 1013.45 1086.82 1014.43C1082.75 977.825 1056.1 955.147 1034.36 929.611C1009.18 900.282 982.308 872.336 956.103 843.854C953.995 841.873 951.742 840.053 949.362 838.408L946.818 840.997C960.21 856.131 973.871 870.907 986.728 886.442C1013.02 918.138 1039.63 949.611 1064.45 982.423C1073.15 993.94 1076.99 1009.21 1083.15 1022.6C1084.45 1025.41 1086.06 1028 1087.62 1030.68L1087.44 1030.95Z" class="beige"/>
<path d="M1900.51 835.148C1898.94 825.104 1896.67 815.104 1896.04 805.015C1895.24 790.238 1892.87 774.703 1896.58 760.909C1898.9 752.337 1911.09 746.311 1918.9 739.391C1921.18 737.382 1925.51 736.98 1926.76 734.927C1938.94 712.249 1953.54 690.285 1961.62 666.178C1967.87 648.054 1966.09 627.206 1967.6 607.563C1967.44 605.735 1966.85 603.972 1965.87 602.42C1964.89 600.867 1963.56 599.57 1961.98 598.635C1960.33 616.492 1960.46 634.348 1956.44 651.67C1952.65 667.83 1944.84 682.919 1937.92 698.365C1933.22 708.152 1927.87 717.608 1921.89 726.668C1919.43 731.116 1915.88 734.865 1911.58 737.561C1884.26 751.623 1882.2 757.159 1884.79 792.604C1885.69 805.997 1890.55 819.39 1893.72 832.782C1894.08 834.256 1896.22 835.282 1897.52 836.488L1900.51 835.148Z" class="beige"/>
<path d="M1071.68 1081.08C1061.5 1090.95 1060.25 1103.18 1068.6 1121.48L1056.05 1119.83C1054.73 1125.57 1054.08 1131.44 1054.13 1137.33C1055.38 1148.27 1057.88 1159.12 1060.2 1169.87C1060.87 1172.95 1064.31 1175.86 1064.04 1178.58C1062.3 1196.12 1067.53 1212.64 1070.29 1229.61C1073.06 1246.57 1073.73 1262.6 1075.83 1279.02C1077.21 1290.01 1079.27 1300.94 1081.36 1311.84C1081.59 1315.43 1082.9 1318.87 1085.11 1321.7C1102.44 1336.03 1101.1 1353.76 1095.25 1372.5C1094.75 1374.52 1094.36 1376.56 1094.09 1378.62C1105.65 1369.69 1108.91 1341.57 1098.55 1330.41C1090.78 1322.4 1086.4 1311.7 1086.32 1300.54C1085.78 1284.69 1081.01 1269.07 1078.69 1253.27C1077.48 1245.14 1078.11 1236.75 1076.99 1228.58C1075.67 1221.33 1073.99 1214.14 1071.95 1207.06C1071.32 1204.43 1069.49 1201.44 1070.16 1199.2C1074.31 1185.01 1069.53 1172.82 1063.78 1160.1C1060.42 1152.31 1059.32 1143.74 1060.61 1135.37C1061.68 1128.94 1067.97 1123.36 1071.5 1118.13V1081.08H1071.68Z" class="beige"/>
<path d="M1293.11 173.509C1288.9 178.33 1284.32 182.808 1279.4 186.901C1229.8 222.347 1178.51 254.757 1120.79 275.962L1121.68 279.087C1126.59 278.737 1131.46 278.066 1136.28 277.078C1176.24 265.223 1213.6 245.944 1246.41 220.249C1259.31 210.517 1272.39 200.964 1284.4 190.25C1288.87 186.366 1290.21 179.268 1293.02 173.643L1293.11 173.509Z" class="beige"/>
<path d="M801.417 1130.37C773.873 1153.36 746.82 1179.07 716.597 1200.28C686.375 1221.48 653.741 1237.6 621.867 1256.17C662 1255.19 796.64 1159.43 801.417 1130.37Z" class="beige"/>
<path d="M1013.74 1405.36L1099.23 1501.34C1107.04 1497.95 1104.81 1491.7 1101.19 1487.01C1090.45 1472.47 1078.96 1458.49 1066.77 1445.14C1053.74 1431.43 1039.14 1419.11 1024.99 1406.52C1022.01 1404.57 1018.76 1403.07 1015.34 1402.06L1013.74 1405.36Z" class="beige"/>
<path d="M1274.27 216.99L1161.23 291.9C1206.72 286.543 1238.02 258.865 1268.6 230.294C1271.68 227.347 1272.12 222.035 1274.27 216.99Z" class="beige"/>
<path d="M2005.15 751.445C2004.52 777.114 2012.51 800.551 2022.2 823.542C2038 861.354 2055.46 898.63 2062.38 939.611C2063.37 946.732 2064.86 953.773 2066.84 960.682C2073.45 943.361 2069.21 926.218 2063.94 910.192C2055.99 886.219 2044.74 863.362 2035.91 839.658C2025.95 812.872 2017.07 786.087 2007.69 759.302C2006.84 756.534 2006.04 753.989 2005.15 751.445Z" class="beige"/>
<path d="M451.646 551.806L602.045 638.188C589.634 617.474 481.244 555.823 451.646 551.806Z" class="beige"/>
<path d="M1583.95 482.566C1589.75 487.789 1595.38 493.235 1601.36 498.235C1614.21 508.949 1613.86 520.199 1599.08 527.744C1588.46 533.145 1576.76 536.672 1565.24 541.136C1564.42 537.332 1564.96 533.36 1566.76 529.91C1568.56 526.46 1571.52 523.751 1575.11 522.253C1579.84 520.039 1584.33 517.33 1588.5 514.172C1595.96 508.101 1590.29 503.682 1585.55 499.842C1584.97 499.396 1580.11 502.744 1580.24 503.012C1585.73 515.333 1574.88 516.628 1568.5 521.449C1562.61 525.344 1557.59 530.422 1553.77 536.36C1552.03 539.574 1555.64 545.734 1556.85 550.556C1560.95 549.296 1564.97 547.805 1568.9 546.092C1576.4 542.386 1583.63 538.145 1591.22 534.351C1593.68 533.101 1596.67 533.011 1599.17 531.851C1607.83 527.878 1618.32 525.288 1620.02 513.994C1621.71 502.699 1612.12 498.503 1604.57 493.235C1598.41 488.771 1592.56 484.307 1586.71 479.843L1583.95 482.566Z" class="beige"/>
<path d="M774.225 1021.39C777.885 1019.72 781.32 1017.59 784.448 1015.06C787.205 1012.03 790.834 1009.94 794.833 1009.06C798.833 1008.19 803.004 1008.59 806.77 1010.19C816.591 1013.14 826.367 1012.51 833.867 1004.79C845.496 993.806 856.174 981.859 865.786 969.074C867.203 967.339 868.107 965.242 868.394 963.02C868.681 960.798 868.341 958.54 867.412 956.501C866.484 954.462 865.003 952.724 863.138 951.482C861.273 950.241 859.097 949.546 856.858 949.477C856.233 955.86 857.26 962.557 854.804 967.601C846.433 983.906 832.947 997.015 816.412 1004.92C811.618 1006.9 806.319 1007.31 801.279 1006.08C786.1 1003 781.725 1004.52 774.225 1021.39Z" class="beige"/>
<path d="M533.739 900.014C518.561 904.121 512.266 912.96 510.079 930.415C509.074 934.212 507.573 937.859 505.615 941.263C501.5 939.705 497.658 937.505 494.231 934.745C482.133 920.951 473.606 917.335 458.83 921.978C471.865 917.96 476.687 928.451 483.695 935.013C487.306 938.927 491.948 941.743 497.088 943.138C506.418 944.388 512.356 947.602 515.257 957.289C518.219 966.059 522.608 974.28 528.248 981.619C523.382 953.897 510.391 926.219 533.739 900.014Z" class="beige"/>
<path d="M1083.87 1375.9C1083.87 1352.86 1077.12 1331.26 1069.54 1309.87C1067.37 1303.47 1065.54 1296.96 1064.04 1290.36C1061.05 1277.86 1058.15 1265.36 1055.65 1252.78C1054.16 1243.15 1052.09 1233.62 1049.45 1224.25C1049.13 1229.87 1047.44 1235.9 1048.82 1241.12C1057.08 1272.37 1058.82 1305.41 1071.37 1335.9C1075.2 1345.23 1074.09 1356.52 1075.83 1366.79C1076.92 1370.47 1078.42 1374.02 1080.29 1377.37L1083.87 1375.9Z" class="beige"/>
<path d="M582.671 644.929C555.886 622.206 527.984 600.823 492.137 593.01L580.573 648.723L582.671 644.929Z" class="beige"/>
<path d="M1293.01 173.598C1288.06 173.866 1282.39 172.572 1278.28 174.625C1247.88 189.58 1216.76 202.125 1183.01 207.124C1181.41 207.667 1179.9 208.466 1178.55 209.49C1200.16 212.481 1235.65 204.223 1262.25 190.071L1293.01 173.554V173.598Z" class="beige"/>
<path d="M642.223 620.777C605.467 600.778 568.742 580.763 532.046 560.734L529.903 564.707L639.232 626.224L642.223 620.777Z" class="beige"/>
<path d="M624.009 871.219C619.098 852.068 585.974 822.56 570.929 825.551L624.009 871.219Z" class="beige"/>
<path d="M1247.97 562.832C1249.94 570.466 1251.32 577.475 1253.69 584.171C1254.24 585.51 1255.07 586.72 1256.12 587.726C1257.16 588.732 1258.4 589.512 1259.76 590.019C1261.14 590.421 1264.22 587.519 1265.52 585.555C1271.05 574.841 1263.11 564.796 1247.97 562.832Z" class="beige"/>
<path d="M1087.75 1030.68C1089.36 1037.02 1090.92 1043.36 1092.66 1049.7C1098.83 1072.6 1094.32 1079.39 1071.68 1080.95C1079.72 1079.61 1089.54 1080.55 1095.3 1076.17C1099.76 1072.82 1101.82 1062.24 1100.34 1055.95C1098.24 1047.02 1091.95 1039.16 1087.44 1030.81L1087.75 1030.68Z" class="beige"/>
<path d="M831.367 961.486C818.733 962.691 806.1 973.852 805.787 983.807C805.787 986.351 808.332 988.985 809.716 991.619C811.903 990.146 814.85 989.119 816.055 987.155C818.51 983.093 819.716 978.227 822.082 974.12C824.941 969.74 828.041 965.522 831.367 961.486Z" class="beige"/>
<path d="M1038.65 1144.65C1032.57 1165.81 1050.43 1185.99 1054.32 1209.29L1057.31 1208.98C1056.82 1205.48 1056.15 1202.01 1055.3 1198.58C1049.45 1179.25 1043.42 1159.96 1038.65 1144.65Z" class="beige"/>
<path d="M561.419 811.399C570.348 804.658 578.16 794.658 591.687 802.471C579.321 792.605 571.91 794.748 561.419 811.399Z" class="beige"/>
</svg>
