<svg width="597" height="12" viewBox="0 0 597 12" fill="none" xmlns="http://www.w3.org/2000/svg">
<path d="M0.086804 11.3989C1.92117 11.4583 3.20359 11.6192 3.99618 11.4977C18.4577 9.37751 33.7049 9.59922 48.6011 9.31728C81.7919 8.68236 114.988 8.25145 148.158 7.73568C185.522 7.15899 222.908 6.49607 260.251 6.01878C297.136 5.54146 333.956 5.33604 370.816 4.83966C407.724 4.3419 444.653 3.70525 481.579 2.98963C512.167 2.39638 542.573 2.25616 572.873 2.64588C580.424 2.74564 588.388 2.03667 596.519 1.30971C595.72 1.16797 594.941 0.907086 594.097 0.911509C580.956 0.991682 567.77 1.17194 554.651 1.1922C541.026 1.20721 527.489 0.890402 513.843 1.0443C481.61 1.40152 449.311 2.0438 417.054 2.40171C379.565 2.82391 342.141 3.00054 304.652 3.40299C278.951 3.67838 253.209 4.18548 227.487 4.54712C198.703 4.9438 169.918 5.30758 141.133 5.65161C109.72 6.02484 78.3503 6.21901 46.9176 6.76403C34.4312 6.97693 21.8671 7.89675 9.34346 8.52563C3.94873 8.79876 1.68685 9.89758 0.086804 11.3989Z" fill="#A79280"/>
</svg>
