<svg class="animate" width="2500" height="14" viewBox="0 0 1321 14" fill="none" xmlns="http://www.w3.org/2000/svg">
<path class="beige" d="M-737.989 13.3926C-741.091 13.2296 -741.604 12.5574 -739.783 11.5441L-447.189 7.45438L-368.934 6.37158C-339.032 6.04327 -309.163 6.42731 -279.481 7.52173C-260.774 8.14806 -242.169 8.73462 -223.563 9.34177C-198.697 10.2039 -173.682 10.4695 -148.648 10.1373C-132.438 9.89239 -116.228 9.60635 -100.02 9.11448C-73.9045 8.34141 -47.7364 7.77347 -21.6204 7.04158C6.37558 6.26308 34.3194 5.32062 62.2677 4.9339C111.405 4.08932 160.539 2.89483 209.634 3.24477C225.093 3.21228 240.451 3.91874 255.39 5.34951C287.469 8.68523 320.805 9.92613 354.163 9.02622C376.876 8.46493 399.536 7.69851 422.198 7.24083C478.447 6.03024 534.703 5.72529 591.003 4.47283C643.949 3.30793 696.899 2.6782 749.843 1.32806C769.252 0.844419 788.678 0.988656 807.935 1.75938C829.082 2.57837 850.48 2.8381 871.528 3.94666C899.246 5.26377 927.222 5.77099 955.242 5.46443C1011.9 5.05095 1068.56 4.47281 1125.22 2.8655C1153.62 2.08138 1182.03 1.853 1210.48 1.29459C1237.46 0.777153 1264.65 0.709731 1291.79 0.807677L1320.3 0.415617L1320.27 3.06915C1307.05 2.94322 1293.69 3.12814 1280.38 3.31236C1230.58 4.22781 1180.83 4.91615 1131.04 5.60519L1131.03 5.60523C1118.68 5.77609 1106.28 5.47424 1094.09 6.1164C1071.84 7.30944 1049.48 7.20715 1027.27 7.61733C1006.9 8.00219 986.264 8.12299 965.934 7.91025C954.244 7.76322 942.502 7.49339 930.764 7.65581C925.022 7.6941 919.075 7.65286 913.28 7.46544C896.658 6.97495 880.136 6.38014 863.564 5.80662L859.111 5.66247C846.811 5.26509 834.483 4.86682 822.235 4.31994C806.319 3.52442 790.253 3.16899 774.151 3.25611C749.809 3.46941 725.466 3.47687 701.132 4.59582C686.298 5.27455 671.051 5.19731 655.809 5.69641C634.521 6.44385 613.178 6.73916 591.887 7.03376L443.761 9.08335C438.148 8.87158 432.487 8.85351 426.837 9.02933C412.972 10.1887 399.043 9.64035 385.073 10.3483C366.695 11.2822 348.208 11.6206 329.788 11.3603C310.256 11.3223 290.849 10.4594 271.883 8.7855C251.782 6.64696 231.073 5.45549 210.158 5.2343C195.646 5.01962 181.09 5.12481 166.557 5.54941C141.916 6.5285 117.212 5.86164 92.5202 6.69735C77.4305 7.21493 62.8955 7.18961 47.197 7.83912C31.4986 8.48862 15.743 8.33609 0.0440914 8.92385C-19.5155 9.72971 -39.1302 10.0011 -58.694 10.2718C-88.928 10.8137 -119.162 11.3555 -149.348 11.5262C-175.164 11.6775 -201.033 11.4385 -226.853 11.137C-235.849 11.0351 -244.897 10.7897 -253.894 10.5025C-272.703 9.91877 -291.209 8.89855 -309.813 8.51782C-332.228 8.0869 -354.489 7.94204 -377.307 8.01074C-400.125 8.07944 -423.041 8.54064 -445.857 8.85634C-478.954 9.36919 -512.051 9.95065 -545.147 10.6007C-607.748 11.8169 -670.303 12.456 -732.908 13.3223C-734.598 13.4015 -736.298 13.425 -737.989 13.3926Z"/>
</svg>
