<svg width="23" height="25" viewBox="0 0 23 25" fill="none" xmlns="http://www.w3.org/2000/svg">
<path d="M23 12.1476C23 5.47726 17.8487 0.0732422 11.5 0.0732422C5.14697 0.0732422 0 5.47726 0 12.1476C0 18.1727 4.20397 23.1684 9.70312 24.0732V15.6386H6.78284V12.1483H9.70312V9.48669C9.70312 6.46132 11.4173 4.79053 14.0451 4.79053C15.3036 4.79053 16.6211 5.02598 16.6211 5.02598V7.99702H15.1685C13.7425 7.99702 13.2969 8.92901 13.2969 9.88364V12.1476H16.486L15.9735 15.6378H13.2969V24.0725C18.7917 23.1677 23 18.1719 23 12.1468V12.1476Z"/>
</svg>
