<svg width="8" height="1645" viewBox="0 0 8 1645" fill="none" xmlns="http://www.w3.org/2000/svg">
<path class="animate green" d="M7.1765 4.20481C7.0069 -0.30767 6.35463 -1.07012 5.3814 1.55398L2.4934 379.755L1.74789 493.494C1.54567 536.956 2.03246 580.388 3.20574 623.565C3.88384 650.775 4.52307 677.836 5.18221 704.898C6.1122 741.068 6.46569 777.441 6.24087 813.827C6.06653 837.387 5.85237 860.945 5.43908 884.496C4.79201 922.443 4.34357 960.472 3.73632 998.421C3.09124 1039.1 2.28735 1079.7 2.0211 1120.33C1.39367 1191.74 0.427739 1263.14 0.95573 1334.52C0.983955 1356.99 1.72664 1379.34 3.16841 1401.09C6.51914 1447.8 3.96982 1495.58 3.22798 1544.05C2.77264 1577.06 2.11866 1609.98 1.76336 1642.92L3.51144 1644.5C4.57949 1624.37 3.99528 1609.31 4.62622 1589.02C5.4588 1562.32 6.46222 1536.5 6.35012 1508.11C6.23802 1479.71 8.24852 1452.76 6.556 1425.15C4.40963 1395.87 3.17709 1365.74 2.88241 1335.33C2.61872 1314.23 2.66431 1293.07 3.01898 1271.95C3.87106 1236.15 3.13061 1200.22 3.84379 1164.35C4.28625 1142.42 4.20567 1121.29 4.77342 1098.48C5.34117 1075.68 5.13281 1052.77 5.64082 1029.96C6.34493 1001.55 6.53179 973.036 6.71816 944.602C7.12568 900.661 7.53319 856.721 7.58179 812.842C7.62859 775.315 7.29753 737.701 6.90625 700.159C6.77289 687.079 6.50063 673.919 6.18807 660.832C5.55077 633.476 4.4924 606.547 4.05229 579.493C3.54892 546.896 3.32288 514.531 3.30129 481.361C3.2797 448.191 3.63742 414.886 3.85478 381.725C4.22319 333.622 4.65797 285.521 5.15913 237.422C6.09405 146.444 6.53168 102.582 7.12809 11.5905C7.19825 9.13463 7.21444 6.66458 7.1765 4.20481Z" />
</svg>
