<svg id="svg-man" class="animate" width="485" height="570" viewBox="0 0 485 570" fill="none" xmlns="http://www.w3.org/2000/svg">
<path d="M154.341 225.702C154.765 226.352 155.238 226.962 155.592 227.641C157.71 231.706 159.769 235.8 161.906 239.845C162.635 241.213 163.502 242.512 164.378 243.802C170.465 252.738 176.641 261.606 182.639 270.591C186.55 276.447 190.204 282.48 193.996 288.415C195.01 289.999 196.123 291.515 197.187 293.07C199.955 297.125 202.594 301.278 205.52 305.215C208.297 308.955 211.341 312.508 214.355 316.061C218.206 320.598 221.131 325.765 223.673 331.05C226.706 337.358 230.745 343.017 234.29 348.982C235.531 351.068 236.95 353.046 238.506 354.975C238.92 353.932 238.417 353.115 238.132 352.249C236.359 346.807 234.251 341.443 232.911 335.892C231.72 330.981 231.395 325.863 230.656 320.844C228.922 308.974 229.001 297.007 228.716 285.059C228.558 278.671 228.292 272.294 228.203 265.906C228.115 258.958 224.007 254.637 218.679 251.173C216.768 249.933 214.483 249.293 212.523 248.122C209.371 246.233 206.308 244.166 203.274 242.089C199.965 239.816 196.754 237.522 192.853 236.194C190.361 235.347 188.076 233.684 185.909 232.1C183.949 230.663 181.969 229.866 179.527 230.161C176.936 230.476 174.888 229.383 173.312 227.395C172.504 226.372 171.815 225.25 171.046 224.177C170.051 222.779 168.801 221.785 166.988 221.756C165.501 221.736 164.506 220.939 163.866 219.709C162.822 217.711 161.285 216.412 159.118 215.723C158.39 215.487 157.592 214.935 157.188 214.305C154.972 210.802 151.308 209.424 147.821 207.879C146.304 207.21 145.368 206.353 145.014 204.798C144.906 204.316 144.728 203.853 144.6 203.381C144.167 201.777 143.458 200.625 141.527 200.399C139.528 200.163 138.109 198.952 137.42 196.964C137.154 196.196 136.701 195.488 136.267 194.799C135.578 193.697 134.603 193.018 133.253 192.958C132.603 192.929 131.943 192.84 131.303 192.703C129.511 192.338 128.417 191.266 128.102 189.425C127.915 188.323 127.688 187.231 127.413 185.823C126.467 186.187 125.807 186.404 125.177 186.709C122.183 188.146 119.592 187.673 117.612 184.888C115.436 181.817 113.554 178.55 111.555 175.361C111.299 174.958 111.082 174.525 110.698 173.846C108.088 175.588 105.547 177.211 103.084 178.934C97.5882 182.782 92.1906 186.788 86.6354 190.547C78.4307 196.108 70.1768 201.59 61.8342 206.954C56.4465 210.418 51.177 214.04 46.4492 218.341C41.5244 222.819 36.964 227.622 34.5706 234.078C33.8122 236.135 32.5219 237.995 31.4581 239.934C29.567 243.388 27.9024 246.912 26.553 250.632C24.8294 255.395 22.6428 259.991 20.663 264.657C18.0627 270.798 16.3095 277.195 15.1965 283.74C14.379 288.494 13.9948 293.326 13.3349 298.109C12.2318 306.14 11.0695 314.161 9.92695 322.182C9.79891 323.078 9.60192 323.954 9.51327 324.849C9.47387 325.223 9.51327 325.804 9.74966 325.971C11.2172 327.034 11.0695 328.688 11.4536 330.164C12.2416 333.176 13.1773 336.148 13.9259 339.169C15.689 346.324 17.3732 353.499 19.1166 360.664C19.5598 362.495 20.072 364.315 20.6137 366.116C24.2088 378.035 27.5478 390.042 31.5172 401.833C34.9843 412.147 39.1703 422.225 43.0412 432.411C44.036 435.009 45.0308 437.608 46.0552 440.206C46.3113 440.865 46.6462 441.495 47.1091 442.479C49.5025 440.59 51.7285 438.956 53.8068 437.165C57.2739 434.163 60.5341 430.905 64.0996 428.032C68.8176 424.233 73.8014 420.768 78.5785 417.038C83.2275 413.416 87.7878 409.676 92.3285 405.917C96.3668 402.581 100.336 399.146 104.325 395.75C105.882 394.422 107.418 393.063 108.984 391.745C109.654 391.184 110.363 390.534 111.447 391.449C110.944 392.591 110.127 393.477 109.27 394.294C106.719 396.725 104.109 399.087 101.538 401.488C97.8935 404.903 94.3969 408.495 90.595 411.724C85.483 416.074 80.1249 420.129 74.9046 424.37C71.3489 427.264 67.8424 430.207 64.3458 433.179C60.1696 436.732 56.0328 440.334 51.8763 443.916C50.8913 444.763 49.8965 445.599 48.8229 446.505C55.9737 465.273 65.1732 482.861 75.5251 500.192C76.2146 499.779 76.8548 499.474 77.4064 499.06C83.7594 494.277 90.1025 489.504 96.4062 484.662C97.2237 484.042 97.9231 483.146 98.4057 482.231C100.445 478.402 102.395 474.525 104.335 470.637C108.186 462.931 111.24 454.9 113.899 446.711C114.815 443.887 115.327 441.013 115.288 438.021C115.209 431.958 115.406 425.886 115.17 419.833C114.973 414.932 114.254 410.05 113.879 405.159C113.682 402.64 113.692 400.091 113.653 397.561C113.643 397.099 113.791 396.567 114.047 396.183C114.451 395.573 115.12 395.593 115.426 396.213C115.741 396.843 115.82 397.62 115.908 398.339C116.46 403.053 116.992 407.767 117.534 412.481C117.681 413.781 117.898 415.08 117.937 416.389C118.125 422.776 118.134 429.173 118.459 435.551C118.804 442.174 117.031 448.365 115.042 454.536C112.648 461.957 109.743 469.161 106.246 476.129C106.138 476.345 106.108 476.591 106 476.985C107.054 477.172 107.694 476.483 108.354 476.001C110.678 474.328 112.983 472.615 115.258 470.873C121.001 466.513 126.822 462.252 132.397 457.695C134.78 455.746 136.78 453.276 138.69 450.845C141.015 447.892 143.064 444.714 145.231 441.633C145.762 440.885 146.216 439.911 147.654 440.629C143.733 447.135 140.197 453.748 134.623 458.778C129.885 463.049 124.803 466.946 119.75 470.854C114.5 474.918 109.112 478.786 103.803 482.762C103.222 483.195 102.73 483.776 102.267 484.347C101.617 485.144 101.587 485.941 102.326 486.768C107.93 493.017 112.343 500.133 116.952 507.081C120.804 512.878 124.418 518.823 128.151 524.698C128.496 525.23 128.939 525.702 129.501 526.431C131.165 524.905 132.8 523.567 134.258 522.061C142.069 514.02 151.052 507.455 160.182 501.039C166.082 496.895 171.824 492.525 177.665 488.313C179.586 486.925 181.595 485.646 183.604 484.386C184.619 483.756 184.658 483.825 186.333 484.288C185.762 484.77 185.318 485.164 184.865 485.528C178.059 490.931 171.283 496.354 164.447 501.708C160.576 504.739 156.587 507.613 152.687 510.605C146.373 515.447 140.601 520.909 134.967 526.529C133.766 527.73 132.505 528.881 131.067 530.249C132.771 533.29 134.347 536.243 136.061 539.107C138.04 542.404 140.168 545.622 142.187 548.9C142.817 549.933 143.29 551.065 143.881 552.256C141.665 552.915 140.089 552.177 138.947 550.651C137.036 548.102 135.194 545.484 133.48 542.788C131.815 540.16 130.348 537.414 128.782 534.727C128.506 534.255 128.142 533.832 127.659 533.172C126.122 534.629 124.645 535.898 123.315 537.316C120.065 540.78 116.943 544.363 113.673 547.817C109.171 552.571 104.601 557.275 100.011 561.94C99.3808 562.58 98.4155 562.895 97.5783 563.377C96.7805 562.196 97.1843 561.379 97.667 560.631C98.1594 559.883 98.711 559.155 99.302 558.486C106.394 550.543 113.495 542.611 120.626 534.698C121.828 533.359 123.207 532.178 124.497 530.928C126.014 529.472 126.083 529.432 125.029 527.621C121.966 522.395 118.883 517.179 115.741 511.993C111.447 504.926 107.103 497.889 102.769 490.842C102.277 490.035 101.686 489.287 100.976 488.274C99.824 489.947 99.4005 491.531 99.233 493.126C98.8489 496.787 98.5534 500.468 98.3072 504.139C97.9821 508.961 97.8049 513.784 97.4503 518.596C96.9184 525.624 96.4555 532.66 95.6478 539.648C94.8598 546.488 94.2492 553.328 94.0226 560.218C93.9931 561.104 93.8847 562.038 93.5695 562.855C93.4119 563.249 92.7225 563.603 92.2399 563.643C91.9641 563.662 91.5307 563.052 91.3731 562.649C91.1958 562.216 91.2253 561.684 91.2155 561.192C91.1071 554.883 91.2253 548.585 92.1414 542.315C92.5058 539.806 92.6831 537.266 92.8604 534.737C93.2937 528.606 93.7173 522.474 94.0817 516.343C94.3083 512.583 94.4265 508.824 94.6037 505.064C94.8401 500.005 95.0864 494.946 95.3523 489.573C89.2948 494.002 83.4639 498.627 77.3374 503.224C78.0466 504.434 78.5785 505.526 79.2778 506.501C82.9025 511.56 86.5665 516.589 90.201 521.638C90.7427 522.386 91.7178 523.015 91.0973 524.275C90.0926 524.728 89.3933 524.118 88.8122 523.439C86.4778 520.693 84.0844 517.996 81.9175 515.132C79.5043 511.934 77.3276 508.577 74.9341 505.123C74.2939 505.448 73.6832 505.654 73.1908 506.019C70.6791 507.859 68.2266 509.778 65.7051 511.609C59.4802 516.136 53.206 520.604 46.981 525.141C41.9479 528.802 36.9246 532.483 31.9604 536.243C30.158 537.611 28.5525 539.245 26.8682 540.751C30.4535 547.207 33.5659 553.545 39.0817 558.24C40.3818 559.352 41.5047 560.68 42.6669 561.95C43.3367 562.678 43.9572 563.466 43.6026 564.656C42.3714 565.424 41.4062 564.686 40.5591 563.958C35.3389 559.43 30.3944 554.677 27.3115 548.319C26.5432 546.734 25.5582 545.248 24.6225 543.644C24.0611 544.018 23.7755 544.156 23.5391 544.362C17.7475 549.431 11.9658 554.519 6.15457 559.568C5.22871 560.375 4.2536 561.143 3.1997 561.753C2.60872 562.098 1.80105 562.245 1.12143 562.196C0.26452 562.137 -0.0211158 561.212 0.54031 560.543C0.796399 560.237 1.19038 560.041 1.49572 559.765C7.59261 554.165 13.7387 548.624 19.747 542.945C22.9284 539.943 22.8594 540.682 20.7221 536.341C17.1368 529.068 13.2069 521.943 10.0255 514.502C6.87359 507.141 4.20435 499.533 3.1603 491.492C2.81556 488.815 2.54962 486.118 2.23444 483.441C2.08669 482.162 1.9094 480.882 1.71241 479.337C0.993391 479.731 0.471364 479.928 0.057682 480.253C-4.56177 483.914 -9.14182 487.614 -13.7711 491.266C-15.8297 492.89 -17.9473 494.435 -20.0847 495.96C-21.5523 497.013 -21.7493 496.984 -23.4532 496.236C-23.4138 494.838 -22.5372 493.864 -21.5917 492.978C-20.5772 492.023 -19.5036 491.128 -18.43 490.242C-16.0267 488.264 -13.6332 486.286 -11.2004 484.337C-8.00912 481.778 -4.93605 479.022 -1.5478 476.759C1.04264 475.036 1.65331 473.038 1.30858 470.125C0.363019 462.134 -0.927275 454.221 -3.10403 446.475C-5.15274 439.173 -5.84221 431.673 -6.65973 424.183C-7.36889 417.678 -8.24551 411.202 -9.5358 404.588C-9.80174 405.385 -10.1366 406.163 -10.3139 406.98C-12.3429 416.339 -14.3424 425.709 -16.3616 435.069C-16.4798 435.629 -16.6176 436.19 -16.8245 436.722C-19.9567 445.156 -21.1878 454.034 -22.5175 462.842C-23.4237 468.826 -23.8866 474.908 -24.0147 480.951C-24.1526 487.693 -24.8223 494.346 -26.0338 500.97C-27.7575 510.388 -29.5107 519.817 -31.1064 529.255C-32.1504 535.446 -31.8845 541.666 -30.9488 547.856C-30.673 549.716 -30.4858 551.596 -30.2692 553.466C-30.2298 553.791 -30.151 554.165 -30.279 554.441C-30.4957 554.913 -30.8503 555.326 -31.1458 555.769C-31.6284 555.415 -32.1603 555.11 -32.574 554.696C-32.7808 554.49 -32.7808 554.086 -32.8596 553.771C-34.8886 545.918 -35.6766 537.946 -34.4848 529.905C-33.7362 524.807 -32.5543 519.778 -31.6382 514.699C-30.1017 506.166 -28.5061 497.633 -27.1665 489.061C-26.6938 486.01 -27.0089 482.841 -26.7529 479.741C-26.1717 472.802 -25.7285 465.844 -24.7238 458.965C-23.5911 451.199 -22.2024 443.454 -19.4937 436.004C-18.4398 433.1 -17.9572 429.98 -17.2776 426.939C-16.0759 421.585 -14.7955 416.241 -13.7908 410.858C-12.1065 401.862 -8.4031 393.516 -5.74372 384.836C-4.32538 380.21 -2.46381 375.742 -1.02577 371.165C0.786553 365.427 2.65797 359.601 2.93375 353.479C2.9436 353.312 2.95346 353.155 2.98301 352.987C3.92856 347.673 4.91352 342.368 5.79998 337.043C6.12502 335.124 6.17426 333.166 6.41065 331.227C7.07057 325.617 7.64185 319.997 8.45937 314.407C9.69056 305.973 10.6263 297.519 11.3551 289.025C11.7393 284.567 12.8523 280.148 13.8569 275.758C15.029 270.65 16.5951 265.641 18.7522 260.838C20.0917 257.856 21.7366 254.962 22.7019 251.862C24.9279 244.746 29.1139 238.605 32.0885 231.893C34.9646 225.387 39.5643 220.388 44.7354 215.811C50.6352 210.585 57.2936 206.383 64.0011 202.239C70.689 198.106 77.1798 193.657 83.7692 189.366C88.3 186.423 92.8702 183.54 97.401 180.587C103.094 176.877 108.767 173.127 114.451 169.397C114.657 169.259 114.933 169.19 115.071 169.013C116.677 167.005 118.834 166.031 121.306 165.529C122.882 165.204 124.399 164.614 125.906 164.151C126.93 162.272 128.161 160.352 129.038 158.286C129.402 157.429 129.314 156.111 128.91 155.264C127.541 152.43 127.629 149.526 128.27 146.623C129.274 142.037 129.954 137.44 129.708 132.736C129.668 132.077 129.895 131.407 130.003 130.65C131.599 131.033 131.579 132.087 131.707 133.031C132.278 137.313 131.914 141.525 130.762 145.688C130.299 147.341 129.895 149.044 129.796 150.737C129.698 152.41 130.023 154.103 130.18 156.051C131.934 155.244 132.19 153.886 132.525 152.695C133.293 149.94 133.933 147.145 134.603 144.359C135.873 139.045 138.533 134.724 143.251 131.732C145.181 130.512 146.915 128.986 148.717 127.569C149.742 126.762 149.712 126.723 151.731 126.506C151.938 127.756 151.387 128.77 150.569 129.547C148.914 131.122 147.279 132.775 145.408 134.055C141.616 136.653 139.449 140.285 138.159 144.546C137.331 147.292 136.583 150.058 135.854 152.833C135.253 155.116 134.071 157.026 132.515 158.768C131.53 159.86 130.525 160.972 129.737 162.212C128.27 164.515 128.161 166.513 130.643 168.039C133.322 169.702 135.253 172.182 137.233 174.594C141.34 179.593 145.526 184.524 149.692 189.474C151.643 191.797 153.534 194.179 155.612 196.374C158.202 199.11 160.842 201.816 163.659 204.306C170.17 210.054 176.798 215.654 183.378 221.323C184.934 222.661 186.49 223.99 188.007 225.368C191.494 228.527 195.325 230.978 199.787 232.729C204.889 234.737 209.607 237.67 213.872 241.164C217.861 244.431 221.673 247.915 225.534 251.35C226.509 252.216 227.425 253.191 228.194 254.234C228.814 255.071 229.435 256.055 229.602 257.049C230.656 263.249 231.68 269.43 231.73 275.788C231.808 286.181 232.586 296.574 232.764 306.967C232.872 313.718 234.349 320.312 234.753 327.005C235.344 336.925 238.939 345.98 242.278 355.123C243.342 358.036 244.554 360.9 245.736 363.764C247.42 367.868 250.68 370.663 253.98 373.34C256.324 375.24 259.052 376.667 261.426 378.527C267.434 383.222 273.423 387.965 277.471 394.609C277.894 395.307 278.426 396.016 278.584 396.784C278.998 398.791 280.268 400.14 281.805 401.262C284.651 403.328 287.518 405.366 290.463 407.305C294.767 410.139 298.687 413.525 303.326 415.887C308.142 418.337 312.792 421.113 317.5 423.76C321.567 426.044 325.685 428.248 329.684 430.65C332.629 432.411 335.357 434.547 338.312 436.309C345.206 440.413 352.121 444.507 359.163 448.355C362.02 449.91 365.221 450.825 368.284 451.977C370.205 452.695 372.155 453.315 374.085 454.004C377.937 455.392 381.995 455.254 385.974 455.717C390.121 456.199 394.277 456.642 398.424 457.144C400.216 457.36 401.979 457.793 403.772 457.911C409.711 458.295 415.316 460.274 421.107 461.356C427.007 462.458 431.036 469.653 429.637 474.908C428.879 477.753 428.11 480.597 427.47 483.471C426.662 487.063 425.924 490.665 425.274 494.277C424.919 496.255 424.377 498.096 423.048 499.641C422.673 500.074 422.338 500.556 422.082 501.058C418.034 509.02 412.509 516.097 408.51 524.088C407.17 526.765 405.151 529.127 403.329 531.548C402.019 533.29 400.994 533.349 399.064 531.991C400.147 530.111 401.054 528.074 402.364 526.342C405.565 522.14 407.81 517.396 410.401 512.839C411.13 511.56 411.632 510.103 412.538 508.971C415.641 505.113 417.414 500.468 420.172 496.403C420.487 495.931 420.792 495.409 420.91 494.858C421.659 491.512 422.348 488.146 423.067 484.79C423.235 483.992 423.432 483.195 423.619 482.398C424.299 479.534 425.136 476.709 425.609 473.816C426.298 469.604 423.826 466.257 419.679 465.382C418.399 465.106 417.138 464.722 415.857 464.437C414.587 464.151 413.297 463.915 412.518 463.748C410.145 465.185 408.175 466.376 405.988 467.684C406.609 468.708 407.121 469.613 407.692 470.47C408.007 470.942 408.46 471.326 408.805 471.779C410.194 473.59 409.672 474.869 407.338 475.076C405.052 475.282 402.758 475.292 400.463 475.401C400.069 475.42 399.684 475.45 398.995 475.489C399.35 476.148 399.527 476.66 399.842 477.044C401.556 479.131 403.319 481.178 405.052 483.254C405.624 483.943 406.205 484.652 406.658 485.42C407.8 487.319 407.495 488.638 405.456 489.297C403.299 489.996 401.014 490.35 398.778 490.783C397.764 490.98 396.71 491.02 395.331 491.157C395.617 492.023 395.695 492.673 396.02 493.145C397.754 495.635 399.478 498.145 402.098 499.828C402.974 500.399 403.634 501.068 403.467 502.22C403.299 503.391 402.423 503.853 401.418 504.05C400.463 504.237 399.478 504.277 398.512 504.375C396.158 504.611 393.804 504.798 391.47 505.113C390.78 505.202 390.15 505.654 389.224 506.068C390.367 509.02 391.884 511.461 394.169 513.41C394.415 513.616 394.72 513.764 394.986 513.951C396.316 514.886 396.739 515.792 396.247 516.776C395.656 517.947 394.592 517.888 393.489 517.849C390.386 517.721 387.284 517.553 384.191 517.612C381.561 517.662 380.172 519.344 380.448 521.972C380.586 523.252 381.108 524.492 381.335 525.771C381.423 526.253 381.167 526.805 381.059 527.316C380.488 527.169 379.67 527.218 379.375 526.854C377.267 524.265 376.459 521.106 377.621 518.095C378.764 515.132 381.394 513.439 384.802 513.41C385.925 513.4 387.047 513.341 388.614 513.282C387.983 512.052 387.53 511.215 387.116 510.369C386.653 509.414 386.112 508.479 385.806 507.465C385.166 505.28 385.767 503.519 387.747 502.426C389.145 501.659 390.761 501.235 392.307 500.783C393.538 500.428 394.819 500.281 396.523 499.956C395.823 498.991 395.331 498.391 394.917 497.732C394.041 496.354 393.016 495.035 392.396 493.549C391.253 490.803 392.711 488.421 395.636 487.998C398.227 487.624 400.827 487.339 403.417 486.994C403.802 486.945 404.166 486.788 404.924 486.571C404.324 485.666 403.92 484.908 403.378 484.268C401.576 482.142 399.734 480.066 397.912 477.959C397.646 477.654 397.399 477.32 397.173 476.975C396.572 476.03 395.577 475.125 396.345 473.885C397.035 472.773 398.197 472.753 399.399 472.773C401.034 472.802 402.669 472.664 404.304 472.546C404.668 472.517 405.023 472.3 405.584 472.094C404.934 471.06 404.343 470.194 403.841 469.279C402.767 467.36 403.043 466.159 404.855 464.87C405.752 464.23 406.707 463.679 408.066 462.813C406.126 462.616 404.688 462.518 403.26 462.331C398.306 461.691 393.361 460.943 388.397 460.382C385.383 460.037 382.349 459.909 379.325 459.772C374.873 459.565 370.943 457.577 366.846 456.199C358.562 453.404 351.077 449.024 343.64 444.507C338.312 441.269 333.16 437.795 327.98 434.34C324.316 431.89 320.356 429.862 316.544 427.628C312.801 425.433 309.078 423.199 305.335 420.985C304.981 420.778 304.646 420.522 304.272 420.365C298.598 417.993 293.959 414.036 289.093 410.424C286.336 408.377 283.42 406.478 280.948 404.126C278.407 401.714 276.053 399.018 274.083 396.134C271.088 391.735 267.444 388.034 263.366 384.708C259.88 381.863 256.186 379.265 252.798 376.322C250.404 374.246 248.356 371.756 246.169 369.453C245.509 368.754 244.859 368.055 244.219 367.337C243.894 366.973 243.48 366.628 243.313 366.185C241.914 362.396 239.176 359.522 236.713 356.481C233.818 352.899 231.621 348.844 228.903 345.193C224.067 338.687 221.358 331.03 216.876 324.387C214.365 320.667 211.528 317.163 208.78 313.61C205.224 309.024 201.59 304.496 198.024 299.92C197.069 298.7 196.232 297.381 195.345 296.101C193.287 293.149 191.199 290.216 189.169 287.244C185.161 281.358 181.172 275.453 177.183 269.548C172.878 263.17 168.574 256.793 164.289 250.405C162.871 248.299 161.236 246.272 160.212 243.989C157.946 238.91 155.976 233.704 153.938 228.527C153.632 227.75 153.613 226.854 153.465 226.007C153.81 225.919 154.075 225.811 154.341 225.702ZM9.10944 330.942C8.9223 330.942 8.73516 330.942 8.54802 330.951C8.44952 331.335 8.31163 331.709 8.26238 332.103C7.64186 336.719 7.25772 341.384 6.37125 345.95C5.09081 352.535 4.97262 359.296 2.99286 365.782C1.9488 369.217 1.28888 372.76 -0.208256 376.057C-0.878027 377.543 -1.38035 379.117 -1.89253 380.672C-3.64576 386.036 -5.30048 391.449 -7.1522 396.784C-7.87122 398.87 -8.03867 400.868 -7.68408 403.023C-6.41349 410.779 -5.24139 418.554 -4.01019 426.319C-3.10403 431.978 -2.45396 437.686 -1.15382 443.257C0.865346 451.878 2.99286 460.451 3.77097 469.299C3.83007 469.997 4.06646 470.676 4.293 471.67C6.10532 470.46 7.632 469.387 9.20794 468.403C12.9606 466.061 16.8414 463.905 20.4955 461.425C27.6759 456.543 34.738 451.485 41.8593 446.515C44.2527 444.841 44.2626 444.851 43.1988 442.174C43.1102 441.948 43.0117 441.722 42.923 441.495C38.668 430.846 34.4327 420.188 30.1383 409.558C24.5142 395.622 20.7024 381.106 16.6838 366.677C13.8077 356.353 11.9757 345.754 9.71027 335.262C9.41478 333.825 9.30644 332.378 9.10944 330.942ZM24.8195 537.375C40.5493 524.659 57.3723 514.079 73.1317 501.787C62.9275 484.583 53.5901 467.232 46.1143 448.69C45.1786 449.231 44.5187 449.546 43.9474 449.959C42.1548 451.249 40.4114 452.626 38.5991 453.886C31.2217 459.043 23.933 464.338 16.0731 468.797C12.4583 470.844 9.15869 473.452 5.70149 475.794C4.45059 476.641 4.1945 477.782 4.40134 479.219C4.77563 481.808 5.08096 484.416 5.3272 487.024C6.28261 497.535 9.90726 507.259 14.2115 516.766C15.7678 520.191 17.5702 523.508 19.3037 526.854C21.0668 530.259 22.8693 533.645 24.8195 537.375ZM113.062 171.985C115.288 175.056 117.199 177.802 119.218 180.479C121.532 183.54 121.562 183.51 125.206 182.349C128.073 181.434 130.18 182.447 131.224 185.321C131.5 186.079 131.687 186.896 131.815 187.693C131.963 188.618 132.406 189.179 133.352 189.337C136.711 189.907 138.661 192.151 139.823 195.104C140.522 196.895 141.665 197.909 143.448 198.391C144.906 198.785 145.802 199.799 146.255 201.226C146.531 202.082 146.777 202.958 147.181 203.755C147.457 204.306 147.87 204.887 148.382 205.202C149.564 205.92 150.796 206.609 152.096 207.062C154.676 207.957 156.597 209.64 158.399 211.589C159.148 212.406 160.103 213.105 161.088 213.607C162.95 214.552 164.644 215.624 165.668 217.524C166.171 218.459 166.949 218.961 168.022 219.049C170.514 219.256 172.218 220.703 173.617 222.642C174.336 223.636 174.986 224.728 175.873 225.545C176.611 226.224 177.626 226.883 178.591 227.011C180.305 227.248 182.078 227.08 184.166 227.08C182.935 226.027 181.861 225.063 180.738 224.147C178.906 222.642 177.005 221.215 175.203 219.679C171.332 216.402 167.441 213.144 163.669 209.749C159.591 206.088 155.346 202.554 151.712 198.48C145.083 191.029 138.375 183.609 132.85 175.253C132.042 174.033 130.968 172.989 129.954 171.926C128.723 170.617 127.403 169.397 126.172 168.088C125.285 167.143 124.271 166.789 123.079 167.271C120.873 168.157 118.125 167.655 116.45 169.869C116.411 169.919 116.283 169.879 116.214 169.928C115.278 170.529 114.352 171.139 113.062 171.985Z" class="dark-beige"/>
<path d="M56.2402 306.671C59.1951 306.258 62.1894 305.785 65.1442 306.533C70.7289 307.941 76.4417 308.453 82.1151 309.299C91.2456 310.667 99.9822 313.423 108.374 317.31C111.496 318.757 114.648 320.135 117.8 321.513C118.519 321.828 119.297 322.025 120.341 322.369C120.499 320.529 120.607 319.003 120.755 317.487C121.277 312.193 121.75 306.898 122.37 301.613C122.843 297.607 124.084 293.788 125.562 290.029C126.881 286.673 128.034 283.257 129.275 279.882C129.984 277.963 130.654 276.024 131.471 274.154C133.5 269.479 134.791 264.578 136.169 259.686C138.789 250.386 141.675 241.164 144.443 231.903C145.566 228.133 146.62 224.344 147.762 220.584C148.284 218.862 148.954 217.189 149.535 215.476C149.762 214.797 150.146 214.128 150.885 214.433C151.348 214.63 151.673 215.339 151.889 215.89C152.027 216.224 151.88 216.697 151.791 217.091C150.648 222.287 149.644 227.523 148.314 232.68C146.354 240.298 144.158 247.846 142.06 255.425C140.553 260.867 139.292 266.398 137.44 271.723C134.84 279.222 131.767 286.554 128.96 293.985C128.27 295.816 127.669 297.705 127.275 299.624C126.182 304.998 125.118 310.382 125.039 315.913C125.01 318.206 124.754 320.489 124.567 322.773C124.468 323.924 124.931 324.534 126.024 324.977C138.267 329.898 150.402 335.104 163.187 338.539C167.146 339.602 171.047 340.872 174.977 342.033C177.252 342.702 177.38 342.673 178.158 340.37C181.261 331.217 184.324 322.054 187.427 312.891C187.899 311.494 188.5 310.145 188.963 308.748C189.623 306.73 190.185 304.683 190.805 302.666C191.002 302.026 191.268 301.406 191.504 300.776C191.692 300.776 191.889 300.776 192.076 300.776C192.312 301.317 192.775 301.868 192.755 302.4C192.686 304.103 192.676 305.874 192.204 307.478C189.328 317.222 186.353 326.936 183.369 336.64C182.699 338.825 181.872 340.96 181.024 343.362C181.862 343.628 182.512 343.893 183.191 344.051C192.026 346.078 201.039 346.541 210.051 346.984C212.09 347.082 214.119 347.377 216.158 347.613C216.64 347.673 217.153 347.761 217.576 347.968C218.571 348.44 218.65 349.602 217.645 350.044C216.857 350.389 215.902 350.537 215.035 350.507C209.381 350.33 203.718 350.261 198.084 349.789C192.617 349.326 187.19 348.47 181.763 347.692C179.567 347.377 179.468 347.308 178.858 349.483C176.523 357.8 175.105 366.215 174.997 374.905C174.888 383.851 176.346 392.512 178.267 401.163C178.552 402.443 178.917 403.712 179.084 405.011C179.291 406.556 180.108 407.304 181.606 407.55C189.042 408.791 196.469 410.119 203.905 411.31C210.396 412.353 216.946 412.629 223.515 412.53C223.929 412.521 224.343 412.53 224.747 412.59C231.257 413.603 237.659 412.491 244.062 411.566C245.844 411.31 247.637 411.054 249.44 410.946C255.083 410.601 260.737 410.306 266.381 410.04C267.228 410.001 268.085 410.218 268.991 410.316C268.824 412.137 267.75 412.688 266.489 412.865C263.574 413.269 260.639 413.859 257.713 413.869C250.533 413.898 243.54 415.385 236.458 416.142C235.394 416.261 234.34 416.457 233.276 416.438C226.224 416.31 219.172 416.349 212.139 415.906C203.048 415.335 194.085 413.682 185.171 411.851C183.812 411.576 182.443 411.389 180.729 411.103C181.202 416.123 182.778 420.68 183.644 425.364C184.531 430.197 185.565 435.009 186.649 439.802C187.712 444.517 188.943 449.191 190.066 453.896C191.169 458.541 193.76 462.773 194.252 467.793C192.361 467.92 191.859 466.7 191.435 465.627C190.086 462.202 188.54 458.817 187.604 455.264C185.004 445.363 182.669 435.393 180.256 425.443C179.173 420.985 178.158 416.507 177.124 412.038C176.848 410.857 176.405 409.972 175.026 409.657C163.404 407.009 152.264 402.856 141.163 398.604C140.937 398.516 140.69 398.496 140.09 398.368C140.159 402.354 142.109 406.025 141.429 410.149C139.883 408.978 139.095 407.452 138.533 405.799C137.745 403.476 136.997 401.134 136.347 398.762C135.913 397.167 134.988 396.262 133.431 395.799C129.511 394.628 125.601 393.388 121.691 392.158C120.991 391.941 120.253 391.754 119.622 391.4C119.287 391.213 119.149 390.691 118.677 389.914C124.291 390.494 129.196 392.335 134.554 393.349C134.436 392.414 134.406 391.784 134.269 391.183C133.806 389.274 133.274 387.375 132.83 385.465C130.329 374.777 127.906 364.079 125.335 353.41C124.281 349.041 122.695 344.779 121.769 340.39C120.962 336.561 120.676 332.624 120.272 328.717C120.154 327.566 119.957 326.69 118.785 326.188C108.837 321.956 99.2828 316.74 88.6946 314.171C84.1539 313.068 79.5542 312.232 74.984 311.267C73.0633 310.864 71.1032 310.559 69.2318 309.988C65.6958 308.905 62.1894 307.793 58.417 307.961C57.6684 307.99 56.91 307.567 56.1516 307.36C56.1811 307.124 56.2107 306.898 56.2402 306.671ZM175.755 346.186C158.794 341.787 142.444 336.266 126.556 329.445C126.182 329.288 125.778 329.189 125.384 329.101C125.246 329.071 125.079 329.15 124.764 329.219C124.695 329.623 124.498 330.085 124.547 330.528C124.813 332.88 124.931 335.282 125.483 337.575C126.822 343.057 128.546 348.45 129.807 353.952C132.742 366.805 135.51 379.688 138.287 392.571C138.632 394.195 139.312 395.071 140.976 395.573C144.975 396.783 148.856 398.348 152.845 399.588C159.572 401.685 166.329 403.643 173.086 405.631C173.815 405.848 174.593 405.848 175.794 406.005C170.348 385.898 169.766 366.185 175.755 346.186Z" class="dark-beige"/>
<path d="M241.423 53.6758C242.023 55.9591 240.428 58.1047 240.891 60.3781C241.088 60.4273 241.285 60.4766 241.482 60.5159C242.043 59.5613 242.604 58.6164 243.166 57.6618C243.323 57.711 243.481 57.77 243.648 57.8193C243.678 58.1637 243.757 58.5082 243.737 58.8526C243.688 59.9057 243.639 60.9588 243.54 62.0119C243.294 64.6889 243.195 67.4052 242.673 70.033C242.467 71.0959 241.422 72.0998 240.526 72.8773C239.778 73.517 238.931 72.9167 238.881 71.903C238.822 70.6137 238.645 69.3146 238.714 68.0351C238.773 66.9131 238.95 65.742 239.374 64.7184C239.945 63.3504 240.29 62.1792 239.305 60.821C238.94 60.3191 239.019 59.4136 239.098 58.7149C239.167 58.085 239.551 57.4846 239.689 56.8547C240.3 54.1482 240.516 51.7075 237.955 49.5521C230.864 43.5879 223.9 37.5155 215.154 33.9527C211.352 32.3977 207.944 30.1439 205.078 27.1028C203.443 25.3608 201.886 23.727 203.354 21.1484C198.794 17.5365 193.642 16.5129 187.9 16.6409C187.624 19.9871 188.136 23.1562 189.505 26.158C189.771 26.7386 190.677 26.9945 191.219 27.4768C192.125 28.274 193.11 29.0515 193.8 30.016C194.115 30.4589 193.938 31.3938 193.721 32.0139C193.642 32.2205 192.657 32.2894 192.194 32.1221C188.422 30.7443 184.423 30.5573 180.552 30.5868C176.79 30.6163 172.988 31.0592 169.412 33.0473C166.27 34.7991 163.256 36.8069 160.045 38.3619C156.371 40.1334 152.688 41.8656 149.083 43.7847C146.857 44.9658 144.434 45.7728 142.139 46.8259C141.499 47.1211 140.829 47.5739 140.415 48.1348C139.066 49.9753 137.864 51.924 136.534 53.7841C135.618 55.0635 135.421 56.402 135.549 57.957C135.806 60.9687 135.953 64.0098 135.953 67.0312C135.953 68.8914 135.589 70.7416 135.352 72.9265C136.209 72.1687 136.889 71.5683 137.795 70.7613C137.992 72.336 137.411 73.4383 136.761 74.5111C136.042 75.7019 135.362 76.9125 134.594 78.0738C134.102 78.812 133.511 79.491 132.91 80.1603C131.816 81.3807 130.654 82.5322 129.581 83.7624C128.359 85.16 128.192 86.8626 128.359 88.6243C128.684 92.0493 130.211 95.0412 131.816 97.9938C132.555 99.3618 133.333 100.71 134.052 102.088C134.83 103.574 134.88 105.109 134.052 106.566C131.708 110.67 131.127 114.991 132.073 119.607C132.289 120.689 132.151 121.9 131.925 123.012C131.019 127.421 129.049 131.358 126.133 134.793C122.233 139.389 119.13 144.477 116.422 149.821C114.53 153.541 112.955 157.429 110.906 161.041C109.714 163.147 108.207 165.086 107.232 167.34C106.73 168.511 106.158 169.652 105.548 170.952C104.198 169.987 104.602 168.836 104.72 167.91C105.075 165.155 105.469 162.389 106.08 159.673C106.671 157.045 107.399 154.427 108.345 151.908C108.808 150.677 109.744 149.477 110.778 148.64C111.694 147.902 112.226 147.144 112.423 146.061C112.728 144.398 113.417 143.02 114.846 141.948C115.496 141.455 115.909 140.521 116.185 139.713C116.816 137.853 117.328 135.954 117.83 134.054C118.283 132.352 119.179 131.161 120.923 130.551C122.046 130.157 123.08 129.488 124.222 128.897C123.966 128.238 123.828 127.775 123.622 127.342C122.962 125.964 123.257 124.646 124.35 123.789C125.739 122.697 125.621 121.624 125.207 120.128C124.626 118.012 124.272 115.798 124.075 113.603C123.74 109.853 126.961 106.96 130.566 107.619C132.535 104.922 132.654 104.411 130.841 101.744C128.655 98.5252 126.99 95.1003 126.064 91.321C125.079 87.3055 125.71 83.6738 128.655 80.613C129.551 79.6879 130.053 78.7135 129.975 77.3455C129.935 76.5779 130.27 75.7118 130.664 75.013C133.333 70.2987 133.264 65.1318 132.378 60.1616C131.56 55.5753 132.929 52.1897 135.894 49.06C136.18 48.7647 136.525 48.4793 136.672 48.1152C138.376 43.9422 142.434 43.0958 145.96 41.5014C146.62 41.1963 147.497 41.2652 148.068 40.8814C152.481 37.8895 157.741 36.6199 162.133 33.4803C168.319 29.0613 175.224 26.404 183.103 27.6736C184.059 27.8311 185.034 27.8508 186.344 27.9689C186.265 26.965 186.206 26.1973 186.137 25.4395C185.969 23.3333 185.723 21.2272 185.664 19.1112C185.615 17.4971 185.94 15.9126 185.024 14.3477C184.403 13.2946 184.837 12.1923 186.048 11.7199C190.087 10.1452 194.145 8.62958 198.262 7.27141C200.655 6.48406 203.167 6.05101 205.629 5.45066C206.427 5.25382 207.215 4.98809 208.023 4.87983C210.17 4.60426 212.13 3.86612 214.031 2.82288C215.144 2.21268 216.414 1.89774 217.931 1.33676C218.936 -0.257626 219.586 -0.385571 221.28 1.06118C222.206 1.85838 223.053 2.75399 223.979 3.56102C226.116 5.42113 228.579 6.62184 231.307 7.42887C233.494 8.07844 235.582 9.09215 237.719 9.90903C239.019 10.4011 240.388 10.7161 241.649 11.2869C243.048 11.9266 244.525 12.5663 245.668 13.5407C250.149 17.3692 254.404 21.4634 258.965 25.1836C262.343 27.9295 265.426 30.9608 268.676 33.8248C271.661 36.4427 274.222 39.3854 276.625 42.4955C277.295 43.3615 277.856 44.1489 279.176 44.0505C279.846 44.0013 280.604 44.4146 281.225 44.7788C284.544 46.7275 287.873 48.6762 291.123 50.7331C292.069 51.3335 292.877 52.2094 293.615 53.0853C294.679 54.3451 294.669 55.408 293.349 56.4906C292.158 57.4649 292.039 58.4098 292.611 59.6892C292.946 60.4372 293.192 61.2245 293.389 62.0119C293.714 63.3209 293.468 64.5412 292.236 65.2302C290.779 66.0471 290.503 67.2182 290.69 68.7437C291.173 72.7297 289.351 74.3241 285.411 73.4383C284.869 73.3202 284.357 73.1135 283.47 72.8281C283.746 73.7729 283.923 74.4422 284.13 75.1016C285.105 78.31 286.14 81.4988 287.026 84.7368C287.272 85.6422 287.233 86.715 287.016 87.6401C286.553 89.6675 284.977 90.1793 283.657 88.6046C282.052 86.6658 280.575 84.5596 279.393 82.3354C277.649 79.0777 276.517 75.633 276.477 71.8046C276.448 69.1669 275.62 66.5293 275.088 63.5472C273.227 63.3504 271.257 63.1437 268.972 62.8977C272.074 66.4899 273.246 70.4759 273.315 74.6685C273.355 77.3258 272.626 80.0127 272.183 82.67C271.671 85.7308 271.08 88.7818 270.558 91.8426C270.4 92.7677 270.223 93.6141 269.248 94.0373C268.962 94.1653 268.607 94.3621 268.499 94.618C268.066 95.612 267.327 96.1632 266.391 95.6022C265.692 95.1888 265.002 94.3916 264.786 93.6338C264.471 92.5217 265.357 91.8623 266.352 91.4883C266.657 91.3702 266.962 91.2718 267.297 91.1635C267.366 90.9175 267.504 90.6813 267.494 90.4647C267.081 84.1364 267.662 77.8671 268.41 71.5979C268.479 71.027 268.469 70.4562 268.509 69.8755C268.597 68.478 268.223 67.3363 266.972 66.4899C266.046 65.8601 265.14 65.1121 265.022 63.6653C265.8 63.4193 266.519 63.1831 267.396 62.9075C266.874 61.9528 266.106 62.0906 265.436 62.002C261.949 61.5198 258.433 61.2147 255.005 60.4667C250.405 59.4628 246.072 57.7504 242.811 54.0793C242.614 53.853 242.279 53.7447 242.013 53.5774C241.816 53.5971 241.62 53.6365 241.423 53.6758ZM205.481 21.3748C207.816 21.237 209.628 22.1129 210.761 24.2093C211.381 25.3608 212.366 25.7741 213.597 25.784C214.494 25.7938 215.4 25.7643 216.296 25.843C217.724 25.9611 219.113 26.3253 219.95 27.5752C221.221 29.4648 222.945 30.6655 224.875 31.8367C227.85 33.6575 230.194 36.3837 233.306 38.0961C235.089 39.0803 236.675 40.4188 238.487 41.3243C239.886 42.023 240.871 42.9187 241.57 44.3064C242.033 45.2217 242.703 46.1862 243.54 46.7078C244.899 47.5443 246.14 48.3612 246.899 49.8178C247.086 50.182 247.638 50.4379 248.071 50.5756C250.435 51.2843 252.188 53.5971 254.995 53.1837C255.251 53.1444 255.586 53.4495 255.832 53.6561C256.709 54.3746 257.615 54.227 258.61 53.912C261.624 52.9475 269.582 54.5911 272.114 56.6185C272.734 57.1205 273.463 57.4846 274.3 58.0161C276.024 55.8902 277.915 55.9788 279.993 57.337C280.575 57.7208 281.461 57.6421 282.21 57.7799C282.318 57.6224 282.426 57.4649 282.535 57.3075C281.973 56.3627 281.422 55.408 280.84 54.473C280.112 53.292 279.225 52.1897 278.624 50.9496C276.95 47.5345 274.773 44.4737 272.212 41.6983C269.385 38.6276 266.47 35.6357 263.515 32.6831C262.077 31.2462 260.472 29.9668 258.915 28.6578C256.039 26.2367 253.143 23.8353 250.258 21.424C246.594 18.3533 243.422 14.6823 238.399 13.4521C235.168 12.6647 232.144 11.0408 228.973 9.92871C225.249 8.61974 222.157 6.425 219.448 3.61023C219.094 3.23624 218.64 2.95082 218.148 2.55715C216.799 6.28722 214.385 9.11183 212.297 12.1333C210.111 15.2925 207.786 18.3435 205.521 21.4535C204.979 21.8571 204.428 22.2606 203.758 22.7625C207.786 26.7977 212.268 29.5534 217.133 31.8072C219.872 33.0669 222.472 34.6318 225.131 36.0589C225.752 36.3935 226.372 36.7478 226.993 37.0923C226.028 35.1534 224.412 34.1692 222.689 33.4409C220.955 32.7126 219.537 31.7088 218.621 30.075C217.951 28.8743 216.897 28.3822 215.597 28.2838C214.858 28.2247 214.119 28.2247 213.391 28.1755C211.283 28.0181 209.618 27.2504 208.86 25.0557C208.486 23.9632 207.865 22.9397 206.516 22.8117C205.649 22.6936 205.649 21.985 205.481 21.3748ZM276.822 64.0984C276.901 64.7282 276.891 64.9841 276.97 65.2007C277.964 67.9269 278.861 70.6531 278.811 73.645C278.752 77.7195 281.205 80.7508 283.401 83.8805C283.451 82.7881 283.234 81.794 282.929 80.8295C282.101 78.1722 281.225 75.5346 280.407 72.8773C280.22 72.2573 280.062 71.5979 280.053 70.9582C280.043 69.6197 280.791 68.9799 282.121 69.2653C283.066 69.472 283.933 70.0035 284.869 70.2889C285.667 70.5349 286.514 70.6334 287.715 70.8696C287.715 69.1079 287.706 67.7399 287.715 66.3718C287.735 64.6692 289.114 63.9015 290.257 62.9075C289.764 60.0337 287.656 57.1205 290.828 54.2959C287.164 51.8748 283.766 49.6308 280.368 47.377C280.24 47.4853 280.121 47.6034 279.993 47.7116C280.466 48.7254 280.87 49.7784 281.441 50.7429C282.899 53.2034 284.445 55.595 285.923 58.0456C286.553 59.0889 287.203 60.1518 287.637 61.2934C288.356 63.2126 287.558 64.5609 285.529 64.8267C283.431 65.1022 281.313 65.4369 279.235 64.5708C278.575 64.2952 277.827 64.2755 276.822 64.0984ZM283.726 58.459C281.825 59.9943 280.043 59.6203 278.289 58.6853C277.324 58.1736 276.585 58.3409 275.945 59.207C275.177 60.2305 274.271 60.2207 273.128 59.7286C270.311 58.5279 267.553 57.0221 264.303 57.337C263.761 57.3862 263.141 57.1992 262.638 56.9532C261.378 56.343 260.147 56.4808 258.807 56.6382C257.645 56.776 256.217 56.776 255.291 56.2052C254.217 55.5556 253.232 55.0143 251.991 54.7978C251.41 54.6994 250.888 54.1679 250.366 53.7939C249.775 53.3707 249.273 52.6916 248.623 52.485C247.037 51.9732 245.953 51.0382 245.136 49.6013C244.811 49.0305 244.042 48.5777 243.373 48.3711C241.826 47.8986 240.979 46.8751 240.191 45.5366C239.61 44.5426 238.615 43.706 237.65 43.0171C236.054 41.8853 234.341 40.9306 232.676 39.8874C231.78 39.3264 230.943 38.6276 229.593 38.5784C229.849 38.9918 229.908 39.1492 230.027 39.2476C234.744 43.6765 239.492 48.066 244.171 52.5243C246.751 54.9848 249.361 57.1106 253.134 57.6815C259.28 58.6066 265.524 58.892 271.552 60.634C274.527 61.4903 277.6 61.9922 280.594 62.7796C282.347 63.2421 283.904 63.0945 285.588 62.0217C284.977 60.8407 284.426 59.7876 283.726 58.459ZM107.153 164.407C107.321 164.505 107.478 164.594 107.646 164.692C108.424 163.383 109.655 162.153 109.891 160.755C110.591 156.72 112.482 153.187 113.999 149.486C115.811 145.077 118.066 140.914 120.893 137.066C122.873 134.359 124.932 131.702 126.744 128.887C128.674 125.895 129.807 122.618 129.748 118.957C129.699 116.27 129.935 113.583 130.053 110.896C130.073 110.365 130.142 109.834 130.191 109.213C127.286 110.454 126.645 111.3 126.823 114.036C126.951 116.073 127.167 118.12 127.571 120.118C127.946 121.978 127.886 123.514 126.104 124.626C125.168 125.207 124.912 125.964 125.355 127.136C126.015 128.907 125.68 129.557 124.085 130.61C123.543 130.964 122.962 131.338 122.351 131.515C120.184 132.125 119.386 133.651 118.805 135.728C118.145 138.05 117.239 140.452 115.831 142.361C114.777 143.798 113.88 145.136 113.634 146.859C113.467 148.079 112.984 148.945 111.871 149.605C111.152 150.028 110.482 150.805 110.177 151.583C108.522 155.707 107.754 160.047 107.153 164.407ZM205.215 18.127C208.032 14.2001 210.702 10.47 213.381 6.73994C213.263 6.58247 213.135 6.425 213.016 6.26753C210.534 7.00567 208.062 7.75366 205.58 8.48195C204.024 8.94452 202.477 9.56456 200.882 9.80077C197.592 10.2929 194.844 11.9857 191.584 13.2946C194.154 13.9147 196.38 14.2591 198.469 15.0071C200.695 15.7846 202.773 16.9656 205.215 18.127ZM270.538 81.4594C272.764 77.6408 272.961 73.832 271.139 72.3459C270.942 75.2886 270.755 78.1821 270.538 81.4594ZM241.885 64.8857C240.979 65.5058 240.506 66.4112 241.255 67.6119C241.472 66.6966 241.679 65.7912 241.885 64.8857Z" class="dark-beige"/>
<path d="M272.468 534.658C270.99 534.776 270.064 534.835 269.139 534.933C262.894 535.553 256.965 537.453 250.996 539.224C242.673 541.694 234.291 543.998 226.165 547.088C223.259 548.19 220.304 549.214 217.478 550.513C208.751 554.509 199.867 558.081 190.756 561.083C188.963 561.674 187.239 562.441 185.466 563.101C184.807 563.347 184.107 563.524 183.221 563.79C183.339 562.343 184.353 562.008 185.141 561.644C187.83 560.433 190.559 559.321 193.277 558.17C200.517 555.099 207.815 552.166 214.976 548.918C221.713 545.858 228.657 543.397 235.65 541.094C243.274 538.585 250.917 536.055 258.678 534.038C264.293 532.581 270.104 531.872 275.856 531.006C281.529 530.15 287.222 529.422 292.915 528.812C296.816 528.388 300.756 528.29 304.676 528.005C308.103 527.758 311.531 527.463 314.959 527.168C315.175 527.148 315.372 526.961 315.786 526.725C313.058 526.125 310.536 525.603 308.035 525.013C306.843 524.727 305.621 524.452 304.508 523.969C298.057 521.164 291.635 518.291 285.203 515.446C284.829 515.279 284.484 515.043 284.11 514.885C278.9 512.7 273.66 510.594 268.488 508.311C264.834 506.697 260.885 506.362 257.102 505.329C253.478 504.335 249.833 503.36 246.278 502.13C237.147 498.961 228.056 495.664 218.965 492.387C217.192 491.747 215.478 490.96 213.735 490.251C210.396 488.913 207.047 487.564 203.688 486.265C200.123 484.887 197.059 482.663 194.055 480.409C190.519 477.762 187.2 474.829 183.713 472.103C179.242 468.609 175.105 464.81 171.46 460.44C168.634 457.045 165.541 453.866 162.556 450.608C156.676 444.181 151.485 437.233 146.807 429.901C143.32 424.429 139.134 419.498 134.8 414.685C130.299 409.695 125.896 404.627 121.395 399.647C118.598 396.547 115.781 393.456 112.806 390.533C109.211 387 106.069 383.132 103.469 378.851C98.3963 370.515 92.8411 362.513 87.0791 354.66C81.0708 346.471 74.9838 338.332 68.946 330.163C68.1187 329.041 67.3208 327.9 66.5821 326.719C60.8398 317.438 54.0929 308.875 47.7202 300.037C44.3615 295.392 41.0717 290.687 37.782 285.993C37.2501 285.235 36.8857 284.359 36.4523 283.542C36.6197 283.434 36.7872 283.326 36.9645 283.227C37.5357 283.956 38.1267 284.674 38.6881 285.412C43.6326 291.839 48.6756 298.197 53.492 304.712C58.7025 311.759 63.6371 318.993 68.818 326.069C72.7874 331.492 76.9734 336.747 80.9921 342.131C85.5524 348.233 90.1029 354.345 94.5254 360.545C98.2386 365.742 101.853 371.007 105.35 376.341C108.423 381.026 111.92 385.297 115.791 389.342C120.38 394.126 124.714 399.155 129.147 404.095C131.176 406.349 133.077 408.721 135.194 410.876C141.202 416.969 146.413 423.7 150.993 430.905C155.898 438.611 161.749 445.549 167.983 452.183C169.835 454.151 171.677 456.139 173.371 458.245C176.681 462.359 180.473 465.952 184.649 469.16C189.653 472.998 194.577 476.935 199.689 480.616C201.649 482.033 203.993 482.948 206.219 483.952C208.83 485.123 211.499 486.186 214.168 487.21C221.811 490.153 229.455 493.105 237.137 495.94C244.357 498.607 251.508 501.55 259.122 502.927C265.159 504.02 270.774 506.087 276.24 508.813C280.259 510.821 284.524 512.346 288.641 514.167C292.975 516.086 297.269 518.104 301.593 520.052C307.562 522.739 313.698 524.461 320.396 523.9C323.469 523.645 326.601 524.156 329.704 524.333C335.919 524.678 342.134 525.081 348.359 525.357C351.491 525.495 354.456 526.095 357.46 527.109C360.681 528.191 364.187 528.438 367.575 528.989C369.112 529.245 370.658 529.412 372.205 529.54C375.632 529.825 379.05 530.081 382.478 530.298C384.034 530.396 385.6 530.288 387.146 530.367C390.21 530.534 393.135 531.124 395.706 533.004C397.616 534.402 399.744 535.504 401.615 536.941C403.526 538.407 404.688 540.454 405.654 542.698C407.21 546.32 408.431 550.031 409.584 553.79C410.007 555.188 410.854 556.448 411.366 557.825C411.839 559.115 412.243 560.453 412.46 561.811C412.765 563.74 412.923 565.699 413.051 567.657C413.09 568.169 412.933 569.075 412.676 569.143C412.145 569.301 411.219 569.232 410.933 568.878C410.293 568.09 409.515 567.037 409.554 566.132C409.702 562.471 408.234 559.341 406.934 556.073C405.417 552.284 404.147 548.377 403.063 544.44C402.108 540.956 399.616 538.978 396.838 537.187C395.459 536.301 394.071 535.356 392.554 534.805C390.732 534.146 388.791 533.664 386.861 533.516C382.704 533.181 378.498 533.329 374.352 532.876C369.062 532.296 363.823 531.331 358.563 530.494C357.765 530.367 356.948 530.14 356.209 529.806C352.496 528.113 348.625 527.955 344.655 528.428C343.109 528.615 341.553 528.821 339.996 528.782C330.206 528.506 320.524 529.678 310.832 530.809C309.285 530.987 307.719 531.154 306.173 531.075C300.312 530.77 294.57 531.774 288.798 532.512C285.055 532.994 281.323 533.496 277.58 533.949C276.664 534.057 275.994 534.323 275.245 534.992C270.389 539.303 268.242 545.188 265.741 550.877C265.15 552.225 264.736 553.652 264.145 555.001C263.042 557.53 262.539 560.148 262.618 562.894C262.638 563.632 262.628 564.37 262.51 565.099C262.382 565.896 261.879 566.594 261.032 566.378C260.55 566.25 259.929 565.561 259.88 565.079C259.732 563.543 259.703 561.969 259.85 560.424C260.047 558.308 260.422 556.201 260.776 554.105C261.397 550.473 263.199 547.314 265.159 544.303C266.982 541.498 269.168 538.929 271.197 536.262C271.493 535.868 271.788 535.514 272.468 534.658Z" class="dark-beige"/>
<path d="M178.139 132.382C178.917 134.96 178.641 137.234 177.341 139.192C176.208 140.905 175.913 142.115 177.38 143.906C178.395 145.146 178.611 147.056 179.133 148.68C180.049 151.563 180.719 154.536 181.881 157.311C182.541 158.905 183.822 160.332 185.092 161.553C187.446 163.807 189.83 166.11 192.509 167.94C197.168 171.129 201.965 174.15 206.89 176.906C212.386 179.987 218.02 182.841 223.722 185.518C228.815 187.919 234.094 189.937 239.275 192.151C240.546 192.693 241.757 193.401 243.057 193.883C246.18 195.045 249.4 194.218 252.562 194.07C254.483 193.982 255.389 192.013 256.344 190.518C256.728 189.917 256.925 189.159 257.083 188.441C257.526 186.404 258.58 184.691 259.565 182.89C261.21 179.888 262.579 176.709 263.731 173.481C264.628 170.962 265.002 168.255 265.613 165.618C263.14 165.273 260.806 164.988 258.491 164.624C255.763 164.2 253.34 163.009 251.075 161.494C250.356 161.012 249.479 160.549 249.794 159.073C250.632 159.26 251.449 159.417 252.257 159.634C255.576 160.519 258.866 161.484 262.205 162.291C263.2 162.527 264.313 162.311 265.366 162.321C266.706 162.33 267.218 161.553 267.435 160.057C266.381 159.821 265.386 159.525 264.362 159.388C261.436 158.994 258.511 158.472 255.576 158.384C253.143 158.315 250.7 158.886 248.258 159.014C246.061 159.132 243.855 159.053 241.649 159.014C241.166 159.004 240.683 158.807 240.221 158.65C238.773 158.138 237.797 157.095 238.172 156.287C238.792 154.929 239.935 155.5 240.94 155.756C243.363 156.386 245.815 156.504 248.238 155.963C252.621 154.979 257.004 154.959 261.397 155.766C263.81 156.209 266.223 156.661 268.637 157.085C268.942 157.134 269.267 157.045 269.769 157.006C270.932 153.109 270.094 149.054 270.616 145.176C271.651 144.812 271.946 145.55 272.104 146.121C273.148 149.979 273.463 153.876 272.251 157.744C272.025 158.453 271.394 159.289 270.754 159.555C269.553 160.037 269.257 160.844 269.06 161.966C268.43 165.598 267.74 169.22 267.021 172.832C266.194 176.995 264.352 180.754 261.988 184.209C260.865 185.862 259.861 187.496 259.398 189.435C258.797 191.945 257.27 193.854 255.32 195.419C254.65 195.96 253.734 196.511 252.936 196.501C249.587 196.462 246.179 196.58 242.929 195.94C240.092 195.389 237.423 193.933 234.695 192.83C233.326 192.279 232.006 191.62 230.657 191.039C223.762 188.047 216.65 185.557 210.169 181.63C206.604 179.475 202.753 177.792 199.108 175.755C192.814 172.221 186.668 168.432 181.862 162.911C180.699 161.573 179.774 159.978 179.015 158.374C177.577 155.313 176.967 152.016 176.602 148.64C176.395 146.731 175.794 144.851 175.371 142.991C174.701 142.991 174.347 142.893 174.071 143.001C170.978 144.221 168.269 143.404 165.827 141.426C161.916 138.247 158.705 134.566 156.47 129.911C153.396 123.494 151.082 116.91 150.363 109.834C150.136 107.59 150.402 105.277 150.658 103.013C151.269 97.6496 157.12 93.1814 162.025 92.7484C167.777 92.2464 172.475 93.8113 176.523 97.748C177.075 98.2795 177.469 98.9783 178.148 99.8837C176.238 100.081 175.066 99.4212 173.923 98.683C169.766 96.0356 165.285 95.2285 160.557 96.6162C157.494 97.5118 155.337 99.5196 154.244 102.639C153.052 106.055 153.574 109.47 154.244 112.836C155.583 119.627 157.977 126.043 161.483 132.037C163.256 135.068 165.807 137.391 168.466 139.556C170.476 141.19 172.731 140.806 174.228 138.739C174.977 137.696 175.479 136.466 176.031 135.285C176.553 134.301 176.641 133.061 178.139 132.382Z" class="dark-beige"/>
<path d="M426.821 497.348C429.195 498.676 431.451 499.818 433.578 501.166C439.803 505.103 445.368 509.729 448.934 516.372C453.829 525.515 460.202 533.605 466.909 541.479C472.701 548.279 478.157 555.346 482.767 563.013C483.309 563.908 483.742 564.902 484.008 565.906C484.116 566.329 483.782 567.146 483.417 567.343C482.934 567.599 482.078 567.648 481.624 567.382C480.955 566.989 480.374 566.31 479.95 565.64C473.883 555.858 466.161 547.344 459.02 538.388C454.489 532.71 449.958 526.972 446.668 520.397C445.683 518.419 444.501 516.539 443.349 514.66C440.483 510.014 436.139 506.894 431.914 503.666C430.486 502.574 428.929 501.649 427.501 500.536C426.221 499.542 426.152 498.981 426.821 497.348Z" class="dark-beige"/>
<path d="M183.911 62.1499C180.099 63.9608 176.159 65.5454 172.505 67.6319C168.181 70.1022 164.054 72.9366 159.927 75.7416C155.662 78.6449 151.535 81.7353 147.29 84.6583C145.34 86.0066 143.271 87.1877 141.232 88.3982C139.272 89.5595 137.765 91.026 136.968 93.2699C136.465 94.6872 135.569 95.9764 134.84 97.3445C134.476 97.0886 134.249 96.9803 134.259 96.9213C135.264 92.0299 137.135 87.8471 142.011 85.4161C144.69 84.0776 146.985 81.9813 149.486 80.2688C153.672 77.395 157.839 74.4916 162.084 71.7162C165.915 69.2066 169.619 66.2934 173.785 64.5513C180.237 61.8547 185.989 57.8786 192.411 55.1622C194.735 54.178 197.148 53.6367 199.493 52.9084C199.995 54.0698 199.503 54.6307 198.843 54.9949C198.133 55.3787 197.365 55.7724 196.587 55.8807C195.129 56.0677 194.134 56.7664 193.583 58.0754C192.884 59.7387 191.682 60.654 189.889 60.9C189.082 61.0083 188.274 61.2445 187.535 61.5594C186.964 61.8055 186.403 62.1893 185.959 62.6322C185.221 63.3802 184.521 64.1774 183.92 65.0336C182.404 67.2185 179.833 67.937 177.843 69.4723C176.829 70.2498 175.775 71.0076 174.642 71.6178C173.362 72.3067 172.012 72.9563 170.624 73.3697C168.732 73.9307 167.235 74.8066 166.162 76.5584C165.65 77.4048 164.655 78.0249 163.768 78.5563C162.862 79.0878 161.838 79.4716 160.813 79.7669C158.351 80.4755 156.627 81.9321 155.741 84.3532C155.209 85.8196 153.948 86.4397 152.638 86.9416C150.619 87.7191 148.757 88.6147 147.536 90.5733C147.162 91.1736 146.226 91.6952 145.497 91.7543C143.892 91.8822 143.202 92.9156 142.641 94.1065C141.282 96.9902 139.991 99.9132 138.652 102.807C138.307 103.545 137.992 104.332 137.49 104.952C137.194 105.307 136.544 105.366 136.052 105.553C135.923 105.06 135.549 104.47 135.697 104.076C136.298 102.472 137.007 100.907 137.775 99.3719C138.701 97.5512 139.725 95.7796 140.71 93.9884C141.735 92.1381 142.503 90.0418 145.231 90.1009C145.645 90.1107 146.197 89.5103 146.472 89.0675C147.664 87.1581 149.339 85.9476 151.476 85.3472C152.816 84.9732 153.8 84.2351 154.332 82.8868C155.268 80.5149 157.11 79.0976 159.444 78.2414C160.213 77.9658 160.991 77.6903 161.759 77.4344C163.108 76.9816 164.231 76.3518 164.95 74.9641C165.718 73.4681 167.028 72.2772 168.752 72.1198C172.475 71.7753 175.125 69.3739 178.119 67.6122C178.405 67.4449 178.651 67.1496 178.946 67.0906C181.557 66.5788 182.443 64.1183 184.275 62.7306C184.137 62.5338 184.019 62.3468 183.911 62.1499ZM189.495 58.9021C189.545 59.0301 189.584 59.1482 189.633 59.2761C190.273 59.0793 190.914 58.8726 191.564 58.6757C191.505 58.5084 191.446 58.3411 191.386 58.1738C190.746 58.4199 190.116 58.6561 189.495 58.9021Z" class="dark-beige"/>
<path d="M254.867 78.6741C254.108 78.7922 253.34 78.8808 252.592 79.0284C250.681 79.4024 248.76 79.7272 246.869 80.1996C245.204 80.6228 243.609 81.3117 241.944 81.7152C241.018 81.9416 239.945 82.0695 239.058 81.8235C235.719 80.8984 233.434 82.7093 231.139 84.5989C230.578 85.0615 230.105 85.6323 229.514 86.0358C228.637 86.6263 228.096 87.2759 228.165 88.4372C228.253 89.8249 227.515 90.8485 226.146 91.1339C224.698 91.439 223.181 91.5473 222.097 90.1792C221.979 90.0316 222.078 89.7167 222.078 89.2836C222.669 89.3722 223.181 89.4805 223.703 89.5395C225.574 89.7462 225.742 89.4903 226.165 87.5515C226.352 86.6657 226.963 85.8291 227.515 85.0713C227.879 84.5694 228.48 84.2347 229.159 83.6738C227.485 82.6305 225.771 82.6896 224.156 82.6108C223.368 82.5715 223.378 83.4277 223.654 84.1363C224.402 86.1145 224.373 86.1047 222.481 87.1184C221.831 87.4629 221.231 87.9058 220.649 88.3486C219.773 89.0179 219.615 89.8446 220.413 90.6516C221.93 92.1771 221.713 94.0569 221.132 95.7104C220.482 97.5705 220.649 99.1747 221.299 100.927C222.235 103.466 221.132 105.788 218.62 106.881C217.704 107.284 216.995 106.842 216.995 105.788C216.995 104.893 217.025 103.978 217.192 103.102C217.724 100.208 216.976 97.6591 215.37 95.2576C215.025 94.736 214.878 94.0372 214.789 93.4074C214.612 92.1673 214.484 90.9961 213.046 90.4548C212.671 90.317 212.386 89.7265 212.218 89.2836C211.548 87.453 212.986 84.4808 215.469 83.2112C215.045 84.3528 214.72 85.1205 214.484 85.9275C214.237 86.7543 214.09 87.6204 213.853 88.6537C216.02 88.9195 216.276 90.2776 216.552 91.9606C216.848 93.7518 217.793 95.425 218.561 97.4524C219.655 95.1199 220.571 93.1712 218.65 91.124C217.803 90.2186 217.961 89.0868 218.748 88.2109C219.615 87.2464 220.64 86.4393 221.762 85.3961C221.762 84.6776 221.762 83.7131 221.762 82.5223C220.955 82.3549 220.177 82.0302 219.418 82.0794C215.498 82.3057 211.588 82.6108 207.668 82.9553C206.949 83.0144 206.21 83.2604 205.57 83.595C201.64 85.6224 197.67 87.5318 193.406 88.8112C192.43 89.1065 191.593 89.8938 190.687 90.4351C189.003 91.439 187.299 92.4035 185.634 93.427C183.979 94.4408 182.305 95.4348 180.729 96.5568C179.774 97.2457 178.868 98.0823 177.656 97.5902C177.085 97.354 176.474 96.6847 176.316 96.0942C176.11 95.3265 176.927 95.2084 177.548 94.923C179.005 94.2341 180.345 93.3089 181.763 92.5314C182.551 92.0984 183.398 91.7933 184.196 91.3898C185.792 90.5926 187.397 89.7954 188.963 88.9293C190.244 88.2207 191.386 87.079 192.746 86.705C197.05 85.5142 200.881 83.2801 204.969 81.6266C207.274 80.6917 209.884 80.3374 212.386 80.1405C217.133 79.7665 221.89 79.924 226.608 80.6425C226.855 80.6818 227.111 80.6818 227.337 80.7606C229.701 81.6168 231.888 81.9908 234.163 80.1701C235.01 79.491 236.724 79.5795 237.955 79.7862C240.851 80.2882 243.51 79.7075 246.051 78.4477C248.947 77.001 251.843 77.3257 254.778 77.9163C254.818 78.1623 254.847 78.4182 254.867 78.6741ZM219.714 102.058C219.497 102.078 219.28 102.098 219.064 102.108C219.123 102.55 219.182 103.003 219.231 103.446C219.389 103.426 219.546 103.407 219.704 103.387C219.714 102.944 219.714 102.501 219.714 102.058Z" class="dark-beige"/>
<path d="M273.286 97.5506C274.586 96.1826 276.221 97.777 277.915 96.9995C277.541 95.3756 277.058 93.6926 276.792 91.9703C276.517 90.2381 276.467 88.4764 276.31 86.7246C276.487 86.6852 276.654 86.6458 276.832 86.5966C276.97 86.8525 277.167 87.0789 277.236 87.3544C278.506 92.3443 279.836 97.3243 280.988 102.344C281.993 106.704 281.727 110.965 279.402 114.951C278.989 115.65 278.723 116.437 278.388 117.185C277.255 119.744 277.216 122.175 278.851 124.635C281.323 128.375 280.742 132.578 279.806 136.534C279.324 138.572 277.659 140.343 276.408 142.164C276.073 142.646 275.364 142.951 274.763 143.138C272.409 143.866 269.208 142.695 267.849 140.628C267.228 139.674 266.726 138.631 266.145 137.646C265.446 136.465 264.421 135.875 263.042 136.249C261.87 136.564 260.678 136.898 259.565 137.381C257.369 138.325 255.212 138.857 252.986 137.518C252.641 137.312 252.237 137.164 251.942 136.898C250.011 135.206 250.258 129.763 252.326 128.179C252.415 128.11 252.622 128.208 252.868 128.228C252.74 129.743 252.681 131.279 252.454 132.785C252.04 135.54 254.956 137.017 257.29 135.865C258.886 135.078 260.541 134.3 262.254 133.887C265.574 133.08 267.061 133.798 268.834 136.652C269.267 137.341 269.651 138.07 270.055 138.778C271.365 141.081 273.384 141.288 275.187 139.29C278.555 135.55 279.068 130.58 276.359 126.21C274.586 123.356 272.606 120.62 271.612 117.372C270.351 113.229 269.198 109.056 268.026 104.883C267.642 103.495 267.366 102.068 267.258 100.582C269.632 102.993 269.878 106.359 271.306 109.164C272.774 112.048 273.325 115.335 275.216 118.169C278.861 112.609 280.378 106.91 278.634 100.552C278.329 99.4206 277.807 98.8694 276.723 98.6628C275.61 98.4462 274.507 98.1707 273.394 97.9049C273.375 97.8852 273.365 97.7475 273.286 97.5506Z" class="dark-beige"/>
<path d="M243.766 197.505C243.785 198.686 242.899 199.188 242.072 199.631C240.259 200.586 238.467 201.639 236.556 202.308C232.124 203.853 227.869 205.743 223.86 208.144C219.821 210.575 216.473 213.852 213.518 217.494C210.366 221.372 207.391 225.377 204.328 229.324C203.698 230.131 203.087 231.44 201.846 230.652C200.546 229.816 201.56 228.674 202.132 227.897C204.752 224.344 207.47 220.85 210.169 217.346C213.449 213.085 217.369 209.522 221.9 206.638C225.583 204.296 229.622 202.751 233.768 201.373C237.088 200.28 240.299 198.863 243.766 197.505Z" class="dark-beige"/>
<path d="M254.305 61.8153C255.851 60.9787 256.747 61.4118 257.21 62.5633C257.811 64.0789 258.235 65.6536 258.737 67.1988C259.269 68.8227 259.752 70.4663 260.352 72.0607C261.308 74.5999 262.165 77.1293 262.017 79.9047C261.928 81.6171 262.076 83.3395 262.027 85.0618C261.968 87.0991 261.928 89.1068 260.865 91.0063C260.372 91.8724 260.402 93.0632 260.293 94.1163C260.195 95.0808 260.057 95.9666 258.895 96.0945C257.663 96.2225 257.023 95.3761 256.905 94.3525C256.629 91.9905 255.703 89.4316 258.54 87.788C259.486 87.2369 259.269 86.2231 259.082 85.3374C257.624 78.3792 256.137 71.4308 254.679 64.4726C254.512 63.5967 254.443 62.7109 254.305 61.8153ZM259.742 79.698C260.658 77.3556 259.958 75.3183 259.17 73.2909C258.973 73.3303 258.786 73.3598 258.599 73.3992C258.973 75.4955 259.358 77.6017 259.742 79.698ZM259.525 89.8843C259.298 89.8056 259.072 89.717 258.845 89.6383C258.717 90.1796 258.56 90.7307 258.481 91.2819C258.461 91.4197 258.747 91.587 259.013 91.8724C259.22 91.0949 259.377 90.4847 259.525 89.8843Z" class="dark-beige"/>
<path d="M173.066 124.449C173.43 125.256 173.342 126.122 172.426 126.663C171.431 127.244 170.387 127.135 169.431 126.456C167.639 125.197 165.866 123.917 164.054 122.687C160.183 120.059 159.917 114.636 163.532 111.625C165.285 110.158 167.038 108.702 168.831 107.294C169.205 106.999 169.786 106.96 170.397 106.763C170.751 108.406 169.983 109.381 169.165 110.247C167.934 111.556 166.644 112.796 165.334 114.016C163.029 116.172 163.354 119.105 166.053 120.738C167.58 121.663 169.028 122.746 170.574 123.632C171.283 124.045 172.15 124.163 173.066 124.449Z" class="dark-beige"/>
<path d="M221.162 153.188C221.506 152.508 221.713 151.711 222.215 151.18C227.495 145.57 232.833 140.009 239.846 136.456C241.087 135.826 242.2 134.97 243.402 134.271C243.845 134.016 244.397 133.937 245.352 133.642C244.574 135.265 243.569 136.132 242.565 136.722C235.64 140.816 230.154 146.593 224.313 151.967C223.565 152.656 222.639 153.168 221.792 153.758C221.575 153.581 221.368 153.384 221.162 153.188Z" class="dark-beige"/>
<path d="M249.962 61.0381C250.553 63.8135 248.455 66.707 250.297 69.9253C252.05 67.3073 251.725 64.7485 251.685 62.0419C253.114 62.4651 253.104 63.5379 253.133 64.5122C253.271 68.3899 252.217 71.6673 248.494 73.5372C248.297 73.3995 248.051 73.3109 248.051 73.2321C248.061 69.5906 246.83 65.9098 248.465 62.3372C248.711 61.7959 249.075 61.3136 249.381 60.8117C249.568 60.8806 249.765 60.9593 249.962 61.0381Z" class="dark-beige"/>
<path d="M253.035 93.349C252.257 93.8115 251.892 94.1855 251.488 94.2446C249.794 94.4808 248.07 94.8744 246.396 94.7268C244.209 94.5398 242.427 95.3272 240.595 96.2228C239.698 96.6657 238.743 96.9806 237.807 97.3447C237.669 97.1774 237.541 97.02 237.403 96.8527C237.699 96.3704 237.876 95.7012 238.3 95.4256C239.797 94.4611 241.284 93.1817 242.939 92.8569C245.618 92.3254 248.425 92.4042 251.173 92.3451C251.685 92.3451 252.197 92.8864 253.035 93.349Z" class="dark-beige"/>
<path d="M230.233 45.3502C232.459 46.9249 231.524 48.844 231.612 50.5663C232.656 50.7041 232.991 50.2809 232.982 49.3558C232.972 48.7555 233.119 48.1453 233.228 47.2792C234.754 49.4345 234.873 49.9069 233.681 51.334C232.932 52.2198 233.07 53.1154 233.08 54.0897C233.1 56.2845 232.341 57.4556 230.371 58.2922C229.15 56.6191 228.47 55.0444 229.396 52.8005C230.293 50.5959 231.248 48.2437 230.233 45.3502ZM230.992 55.8416C231.612 54.1685 231.612 54.1685 230.795 53.0268C230.529 53.9815 229.771 54.7983 230.992 55.8416Z" class="dark-beige"/>
<path d="M251.016 103.702C247.549 104.618 241.462 101.468 240.043 98.1123C241.6 97.9154 242.575 99.0571 243.757 99.559C245.037 100.1 246.239 100.799 247.48 101.419C248.672 102.019 250.188 102.098 251.016 103.702Z" class="dark-beige"/>
<path d="M246.248 88.0441C243.579 88.8905 240.91 89.727 238.024 90.6423C239.314 89.2546 242.535 88.1327 246.248 88.0441Z" class="dark-beige"/>
<path d="M233.563 171.287C234.725 172.094 235.897 172.901 237.059 173.708C235.148 173.954 234.006 173.078 233.563 171.287Z" class="dark-beige"/>
</svg>
